G04 #@! TF.GenerationSoftware,KiCad,Pcbnew,5.1.4-3.fc30*
G04 #@! TF.CreationDate,2019-12-03T21:39:27-05:00*
G04 #@! TF.ProjectId,librem5-m2-breakout,6c696272-656d-4352-9d6d-322d62726561,rev?*
G04 #@! TF.SameCoordinates,Original*
G04 #@! TF.FileFunction,Legend,Top*
G04 #@! TF.FilePolarity,Positive*
%FSLAX46Y46*%
G04 Gerber Fmt 4.6, Leading zero omitted, Abs format (unit mm)*
G04 Created by KiCad (PCBNEW 5.1.4-3.fc30) date 2019-12-03 21:39:27*
%MOMM*%
%LPD*%
G04 APERTURE LIST*
%ADD10C,0.150000*%
%ADD11C,0.120000*%
%ADD12C,0.300000*%
%ADD13C,0.127000*%
G04 APERTURE END LIST*
D10*
X122952380Y-103166666D02*
X121952380Y-103166666D01*
X122428571Y-103166666D02*
X122428571Y-102595238D01*
X122952380Y-102595238D02*
X121952380Y-102595238D01*
X121952380Y-101928571D02*
X121952380Y-101738095D01*
X122000000Y-101642857D01*
X122095238Y-101547619D01*
X122285714Y-101500000D01*
X122619047Y-101500000D01*
X122809523Y-101547619D01*
X122904761Y-101642857D01*
X122952380Y-101738095D01*
X122952380Y-101928571D01*
X122904761Y-102023809D01*
X122809523Y-102119047D01*
X122619047Y-102166666D01*
X122285714Y-102166666D01*
X122095238Y-102119047D01*
X122000000Y-102023809D01*
X121952380Y-101928571D01*
X122904761Y-101119047D02*
X122952380Y-100976190D01*
X122952380Y-100738095D01*
X122904761Y-100642857D01*
X122857142Y-100595238D01*
X122761904Y-100547619D01*
X122666666Y-100547619D01*
X122571428Y-100595238D01*
X122523809Y-100642857D01*
X122476190Y-100738095D01*
X122428571Y-100928571D01*
X122380952Y-101023809D01*
X122333333Y-101071428D01*
X122238095Y-101119047D01*
X122142857Y-101119047D01*
X122047619Y-101071428D01*
X122000000Y-101023809D01*
X121952380Y-100928571D01*
X121952380Y-100690476D01*
X122000000Y-100547619D01*
X121952380Y-100261904D02*
X121952380Y-99690476D01*
X122952380Y-99976190D02*
X121952380Y-99976190D01*
X148575000Y-103928571D02*
X148610714Y-103857142D01*
X148610714Y-103750000D01*
X148575000Y-103642857D01*
X148503571Y-103571428D01*
X148432142Y-103535714D01*
X148289285Y-103500000D01*
X148182142Y-103500000D01*
X148039285Y-103535714D01*
X147967857Y-103571428D01*
X147896428Y-103642857D01*
X147860714Y-103750000D01*
X147860714Y-103821428D01*
X147896428Y-103928571D01*
X147932142Y-103964285D01*
X148182142Y-103964285D01*
X148182142Y-103821428D01*
X147860714Y-104285714D02*
X148610714Y-104285714D01*
X147860714Y-104714285D01*
X148610714Y-104714285D01*
X147860714Y-105071428D02*
X148610714Y-105071428D01*
X148610714Y-105250000D01*
X148575000Y-105357142D01*
X148503571Y-105428571D01*
X148432142Y-105464285D01*
X148289285Y-105500000D01*
X148182142Y-105500000D01*
X148039285Y-105464285D01*
X147967857Y-105428571D01*
X147896428Y-105357142D01*
X147860714Y-105250000D01*
X147860714Y-105071428D01*
X146828571Y-89125000D02*
X146757142Y-89089285D01*
X146650000Y-89089285D01*
X146542857Y-89125000D01*
X146471428Y-89196428D01*
X146435714Y-89267857D01*
X146400000Y-89410714D01*
X146400000Y-89517857D01*
X146435714Y-89660714D01*
X146471428Y-89732142D01*
X146542857Y-89803571D01*
X146650000Y-89839285D01*
X146721428Y-89839285D01*
X146828571Y-89803571D01*
X146864285Y-89767857D01*
X146864285Y-89517857D01*
X146721428Y-89517857D01*
X147185714Y-89839285D02*
X147185714Y-89089285D01*
X147614285Y-89839285D01*
X147614285Y-89089285D01*
X147971428Y-89839285D02*
X147971428Y-89089285D01*
X148150000Y-89089285D01*
X148257142Y-89125000D01*
X148328571Y-89196428D01*
X148364285Y-89267857D01*
X148400000Y-89410714D01*
X148400000Y-89517857D01*
X148364285Y-89660714D01*
X148328571Y-89732142D01*
X148257142Y-89803571D01*
X148150000Y-89839285D01*
X147971428Y-89839285D01*
X141028571Y-89125000D02*
X140957142Y-89089285D01*
X140850000Y-89089285D01*
X140742857Y-89125000D01*
X140671428Y-89196428D01*
X140635714Y-89267857D01*
X140600000Y-89410714D01*
X140600000Y-89517857D01*
X140635714Y-89660714D01*
X140671428Y-89732142D01*
X140742857Y-89803571D01*
X140850000Y-89839285D01*
X140921428Y-89839285D01*
X141028571Y-89803571D01*
X141064285Y-89767857D01*
X141064285Y-89517857D01*
X140921428Y-89517857D01*
X141385714Y-89839285D02*
X141385714Y-89089285D01*
X141814285Y-89839285D01*
X141814285Y-89089285D01*
X142171428Y-89839285D02*
X142171428Y-89089285D01*
X142350000Y-89089285D01*
X142457142Y-89125000D01*
X142528571Y-89196428D01*
X142564285Y-89267857D01*
X142600000Y-89410714D01*
X142600000Y-89517857D01*
X142564285Y-89660714D01*
X142528571Y-89732142D01*
X142457142Y-89803571D01*
X142350000Y-89839285D01*
X142171428Y-89839285D01*
X141039285Y-86600000D02*
X140682142Y-86850000D01*
X141039285Y-87028571D02*
X140289285Y-87028571D01*
X140289285Y-86742857D01*
X140325000Y-86671428D01*
X140360714Y-86635714D01*
X140432142Y-86600000D01*
X140539285Y-86600000D01*
X140610714Y-86635714D01*
X140646428Y-86671428D01*
X140682142Y-86742857D01*
X140682142Y-87028571D01*
X140289285Y-86350000D02*
X141039285Y-85850000D01*
X140289285Y-85850000D02*
X141039285Y-86350000D01*
X141039285Y-85564285D02*
X140289285Y-85564285D01*
X140289285Y-85385714D01*
X140325000Y-85278571D01*
X140396428Y-85207142D01*
X140467857Y-85171428D01*
X140610714Y-85135714D01*
X140717857Y-85135714D01*
X140860714Y-85171428D01*
X140932142Y-85207142D01*
X141003571Y-85278571D01*
X141039285Y-85385714D01*
X141039285Y-85564285D01*
X141253571Y-84289285D02*
X141682142Y-84289285D01*
X141467857Y-85039285D02*
X141467857Y-84289285D01*
X141860714Y-84289285D02*
X142360714Y-85039285D01*
X142360714Y-84289285D02*
X141860714Y-85039285D01*
X142646428Y-85039285D02*
X142646428Y-84289285D01*
X142825000Y-84289285D01*
X142932142Y-84325000D01*
X143003571Y-84396428D01*
X143039285Y-84467857D01*
X143075000Y-84610714D01*
X143075000Y-84717857D01*
X143039285Y-84860714D01*
X143003571Y-84932142D01*
X142932142Y-85003571D01*
X142825000Y-85039285D01*
X142646428Y-85039285D01*
X148710714Y-85353571D02*
X148710714Y-85782142D01*
X147960714Y-85567857D02*
X148710714Y-85567857D01*
X148710714Y-85960714D02*
X147960714Y-86460714D01*
X148710714Y-86460714D02*
X147960714Y-85960714D01*
X148032142Y-87175000D02*
X147996428Y-87139285D01*
X147960714Y-87032142D01*
X147960714Y-86960714D01*
X147996428Y-86853571D01*
X148067857Y-86782142D01*
X148139285Y-86746428D01*
X148282142Y-86710714D01*
X148389285Y-86710714D01*
X148532142Y-86746428D01*
X148603571Y-86782142D01*
X148675000Y-86853571D01*
X148710714Y-86960714D01*
X148710714Y-87032142D01*
X148675000Y-87139285D01*
X148639285Y-87175000D01*
X145450000Y-84289285D02*
X145878571Y-84289285D01*
X145664285Y-85039285D02*
X145664285Y-84289285D01*
X146057142Y-84289285D02*
X146557142Y-85039285D01*
X146557142Y-84289285D02*
X146057142Y-85039285D01*
X147092857Y-84646428D02*
X146842857Y-84646428D01*
X146842857Y-85039285D02*
X146842857Y-84289285D01*
X147200000Y-84289285D01*
X147450000Y-85003571D02*
X147557142Y-85039285D01*
X147735714Y-85039285D01*
X147807142Y-85003571D01*
X147842857Y-84967857D01*
X147878571Y-84896428D01*
X147878571Y-84825000D01*
X147842857Y-84753571D01*
X147807142Y-84717857D01*
X147735714Y-84682142D01*
X147592857Y-84646428D01*
X147521428Y-84610714D01*
X147485714Y-84575000D01*
X147450000Y-84503571D01*
X147450000Y-84432142D01*
X147485714Y-84360714D01*
X147521428Y-84325000D01*
X147592857Y-84289285D01*
X147771428Y-84289285D01*
X147878571Y-84325000D01*
X138417857Y-89910714D02*
X138453571Y-89946428D01*
X138489285Y-90053571D01*
X138489285Y-90125000D01*
X138453571Y-90232142D01*
X138382142Y-90303571D01*
X138310714Y-90339285D01*
X138167857Y-90375000D01*
X138060714Y-90375000D01*
X137917857Y-90339285D01*
X137846428Y-90303571D01*
X137775000Y-90232142D01*
X137739285Y-90125000D01*
X137739285Y-90053571D01*
X137775000Y-89946428D01*
X137810714Y-89910714D01*
X137739285Y-89696428D02*
X137739285Y-89267857D01*
X138489285Y-89482142D02*
X137739285Y-89482142D01*
X138453571Y-89053571D02*
X138489285Y-88946428D01*
X138489285Y-88767857D01*
X138453571Y-88696428D01*
X138417857Y-88660714D01*
X138346428Y-88625000D01*
X138275000Y-88625000D01*
X138203571Y-88660714D01*
X138167857Y-88696428D01*
X138132142Y-88767857D01*
X138096428Y-88910714D01*
X138060714Y-88982142D01*
X138025000Y-89017857D01*
X137953571Y-89053571D01*
X137882142Y-89053571D01*
X137810714Y-89017857D01*
X137775000Y-88982142D01*
X137739285Y-88910714D01*
X137739285Y-88732142D01*
X137775000Y-88625000D01*
X138560714Y-84689285D02*
X138917857Y-84439285D01*
X138560714Y-84260714D02*
X139310714Y-84260714D01*
X139310714Y-84546428D01*
X139275000Y-84617857D01*
X139239285Y-84653571D01*
X139167857Y-84689285D01*
X139060714Y-84689285D01*
X138989285Y-84653571D01*
X138953571Y-84617857D01*
X138917857Y-84546428D01*
X138917857Y-84260714D01*
X139310714Y-84903571D02*
X139310714Y-85332142D01*
X138560714Y-85117857D02*
X139310714Y-85117857D01*
X138596428Y-85546428D02*
X138560714Y-85653571D01*
X138560714Y-85832142D01*
X138596428Y-85903571D01*
X138632142Y-85939285D01*
X138703571Y-85975000D01*
X138775000Y-85975000D01*
X138846428Y-85939285D01*
X138882142Y-85903571D01*
X138917857Y-85832142D01*
X138953571Y-85689285D01*
X138989285Y-85617857D01*
X139025000Y-85582142D01*
X139096428Y-85546428D01*
X139167857Y-85546428D01*
X139239285Y-85582142D01*
X139275000Y-85617857D01*
X139310714Y-85689285D01*
X139310714Y-85867857D01*
X139275000Y-85975000D01*
D11*
X125900000Y-89500000D02*
X125650000Y-89400000D01*
X125900000Y-89500000D02*
X125650000Y-89600000D01*
X125600000Y-89800000D02*
X125900000Y-89500000D01*
X125600000Y-89200000D02*
X125600000Y-89800000D01*
X125900000Y-89500000D02*
X125600000Y-89200000D01*
X125100000Y-89500000D02*
X125900000Y-89500000D01*
X129150000Y-87800000D02*
X129150000Y-87650000D01*
X129000000Y-87650000D02*
X129150000Y-87800000D01*
X128900000Y-88000000D02*
X129000000Y-87650000D01*
X128850000Y-87650000D02*
X128900000Y-88000000D01*
X129350000Y-87600000D02*
X128800000Y-87600000D01*
X128800000Y-88150000D02*
X129350000Y-87600000D01*
X128800000Y-87600000D02*
X128800000Y-88150000D01*
X129550000Y-88350000D02*
X128800000Y-87600000D01*
D10*
X128942857Y-88489285D02*
X129407142Y-88489285D01*
X129157142Y-88775000D01*
X129264285Y-88775000D01*
X129335714Y-88810714D01*
X129371428Y-88846428D01*
X129407142Y-88917857D01*
X129407142Y-89096428D01*
X129371428Y-89167857D01*
X129335714Y-89203571D01*
X129264285Y-89239285D01*
X129050000Y-89239285D01*
X128978571Y-89203571D01*
X128942857Y-89167857D01*
X129621428Y-88489285D02*
X129871428Y-89239285D01*
X130121428Y-88489285D01*
X130300000Y-88489285D02*
X130764285Y-88489285D01*
X130514285Y-88775000D01*
X130621428Y-88775000D01*
X130692857Y-88810714D01*
X130728571Y-88846428D01*
X130764285Y-88917857D01*
X130764285Y-89096428D01*
X130728571Y-89167857D01*
X130692857Y-89203571D01*
X130621428Y-89239285D01*
X130407142Y-89239285D01*
X130335714Y-89203571D01*
X130300000Y-89167857D01*
X130907142Y-89310714D02*
X131478571Y-89310714D01*
X131550000Y-88489285D02*
X131978571Y-88489285D01*
X131764285Y-89239285D02*
X131764285Y-88489285D01*
X132157142Y-88489285D02*
X132657142Y-89239285D01*
X132657142Y-88489285D02*
X132157142Y-89239285D01*
X136775000Y-88128571D02*
X136810714Y-88057142D01*
X136810714Y-87950000D01*
X136775000Y-87842857D01*
X136703571Y-87771428D01*
X136632142Y-87735714D01*
X136489285Y-87700000D01*
X136382142Y-87700000D01*
X136239285Y-87735714D01*
X136167857Y-87771428D01*
X136096428Y-87842857D01*
X136060714Y-87950000D01*
X136060714Y-88021428D01*
X136096428Y-88128571D01*
X136132142Y-88164285D01*
X136382142Y-88164285D01*
X136382142Y-88021428D01*
X136060714Y-88485714D02*
X136810714Y-88485714D01*
X136060714Y-88914285D01*
X136810714Y-88914285D01*
X136060714Y-89271428D02*
X136810714Y-89271428D01*
X136810714Y-89450000D01*
X136775000Y-89557142D01*
X136703571Y-89628571D01*
X136632142Y-89664285D01*
X136489285Y-89700000D01*
X136382142Y-89700000D01*
X136239285Y-89664285D01*
X136167857Y-89628571D01*
X136096428Y-89557142D01*
X136060714Y-89450000D01*
X136060714Y-89271428D01*
X136710714Y-84871428D02*
X136710714Y-85335714D01*
X136425000Y-85085714D01*
X136425000Y-85192857D01*
X136389285Y-85264285D01*
X136353571Y-85300000D01*
X136282142Y-85335714D01*
X136103571Y-85335714D01*
X136032142Y-85300000D01*
X135996428Y-85264285D01*
X135960714Y-85192857D01*
X135960714Y-84978571D01*
X135996428Y-84907142D01*
X136032142Y-84871428D01*
X136710714Y-85550000D02*
X135960714Y-85800000D01*
X136710714Y-86050000D01*
X136710714Y-86228571D02*
X136710714Y-86692857D01*
X136425000Y-86442857D01*
X136425000Y-86550000D01*
X136389285Y-86621428D01*
X136353571Y-86657142D01*
X136282142Y-86692857D01*
X136103571Y-86692857D01*
X136032142Y-86657142D01*
X135996428Y-86621428D01*
X135960714Y-86550000D01*
X135960714Y-86335714D01*
X135996428Y-86264285D01*
X136032142Y-86228571D01*
X121707142Y-89839285D02*
X121278571Y-89839285D01*
X121492857Y-89839285D02*
X121492857Y-89089285D01*
X121421428Y-89196428D01*
X121350000Y-89267857D01*
X121278571Y-89303571D01*
X121921428Y-89089285D02*
X122171428Y-89839285D01*
X122421428Y-89089285D01*
X122778571Y-89410714D02*
X122707142Y-89375000D01*
X122671428Y-89339285D01*
X122635714Y-89267857D01*
X122635714Y-89232142D01*
X122671428Y-89160714D01*
X122707142Y-89125000D01*
X122778571Y-89089285D01*
X122921428Y-89089285D01*
X122992857Y-89125000D01*
X123028571Y-89160714D01*
X123064285Y-89232142D01*
X123064285Y-89267857D01*
X123028571Y-89339285D01*
X122992857Y-89375000D01*
X122921428Y-89410714D01*
X122778571Y-89410714D01*
X122707142Y-89446428D01*
X122671428Y-89482142D01*
X122635714Y-89553571D01*
X122635714Y-89696428D01*
X122671428Y-89767857D01*
X122707142Y-89803571D01*
X122778571Y-89839285D01*
X122921428Y-89839285D01*
X122992857Y-89803571D01*
X123028571Y-89767857D01*
X123064285Y-89696428D01*
X123064285Y-89553571D01*
X123028571Y-89482142D01*
X122992857Y-89446428D01*
X122921428Y-89410714D01*
X123207142Y-89910714D02*
X123778571Y-89910714D01*
X123850000Y-89089285D02*
X124278571Y-89089285D01*
X124064285Y-89839285D02*
X124064285Y-89089285D01*
X124457142Y-89089285D02*
X124957142Y-89839285D01*
X124957142Y-89089285D02*
X124457142Y-89839285D01*
X131975000Y-85739285D02*
X131725000Y-85382142D01*
X131546428Y-85739285D02*
X131546428Y-84989285D01*
X131832142Y-84989285D01*
X131903571Y-85025000D01*
X131939285Y-85060714D01*
X131975000Y-85132142D01*
X131975000Y-85239285D01*
X131939285Y-85310714D01*
X131903571Y-85346428D01*
X131832142Y-85382142D01*
X131546428Y-85382142D01*
X132225000Y-84989285D02*
X132725000Y-85739285D01*
X132725000Y-84989285D02*
X132225000Y-85739285D01*
X123128571Y-87725000D02*
X123057142Y-87689285D01*
X122950000Y-87689285D01*
X122842857Y-87725000D01*
X122771428Y-87796428D01*
X122735714Y-87867857D01*
X122700000Y-88010714D01*
X122700000Y-88117857D01*
X122735714Y-88260714D01*
X122771428Y-88332142D01*
X122842857Y-88403571D01*
X122950000Y-88439285D01*
X123021428Y-88439285D01*
X123128571Y-88403571D01*
X123164285Y-88367857D01*
X123164285Y-88117857D01*
X123021428Y-88117857D01*
X123485714Y-88439285D02*
X123485714Y-87689285D01*
X123914285Y-88439285D01*
X123914285Y-87689285D01*
X124271428Y-88439285D02*
X124271428Y-87689285D01*
X124450000Y-87689285D01*
X124557142Y-87725000D01*
X124628571Y-87796428D01*
X124664285Y-87867857D01*
X124700000Y-88010714D01*
X124700000Y-88117857D01*
X124664285Y-88260714D01*
X124628571Y-88332142D01*
X124557142Y-88403571D01*
X124450000Y-88439285D01*
X124271428Y-88439285D01*
X122071428Y-98535714D02*
X122071428Y-98869047D01*
X121547619Y-99011904D02*
X121547619Y-98535714D01*
X122547619Y-98535714D01*
X122547619Y-99011904D01*
D11*
X146265000Y-89100000D02*
X146265000Y-89165000D01*
X142735000Y-89100000D02*
X142735000Y-89165000D01*
X146265000Y-85235000D02*
X146265000Y-85300000D01*
X142735000Y-85235000D02*
X142735000Y-85300000D01*
X141410000Y-85300000D02*
X142735000Y-85300000D01*
X142735000Y-89165000D02*
X146265000Y-89165000D01*
X142735000Y-85235000D02*
X146265000Y-85235000D01*
X147900000Y-99735000D02*
X147965000Y-99735000D01*
X147900000Y-103265000D02*
X147965000Y-103265000D01*
X144035000Y-99735000D02*
X144100000Y-99735000D01*
X144035000Y-103265000D02*
X144100000Y-103265000D01*
X144100000Y-104590000D02*
X144100000Y-103265000D01*
X147965000Y-103265000D02*
X147965000Y-99735000D01*
X144035000Y-103265000D02*
X144035000Y-99735000D01*
X123590000Y-84970000D02*
X123590000Y-87630000D01*
X128730000Y-84970000D02*
X123590000Y-84970000D01*
X128730000Y-87630000D02*
X123590000Y-87630000D01*
X128730000Y-84970000D02*
X128730000Y-87630000D01*
X130000000Y-84970000D02*
X131330000Y-84970000D01*
X131330000Y-84970000D02*
X131330000Y-86300000D01*
X126130000Y-90630000D02*
X128790000Y-90630000D01*
X126130000Y-90570000D02*
X126130000Y-90630000D01*
X128790000Y-90570000D02*
X128790000Y-90630000D01*
X126130000Y-90570000D02*
X128790000Y-90570000D01*
X126130000Y-89300000D02*
X126130000Y-87970000D01*
X126130000Y-87970000D02*
X127460000Y-87970000D01*
X133070000Y-84970000D02*
X134400000Y-84970000D01*
X133070000Y-86300000D02*
X133070000Y-84970000D01*
X133070000Y-87570000D02*
X135730000Y-87570000D01*
X135730000Y-87570000D02*
X135730000Y-90170000D01*
X133070000Y-87570000D02*
X133070000Y-90170000D01*
X133070000Y-90170000D02*
X135730000Y-90170000D01*
D12*
X140025000Y-90600000D02*
G75*
G03X140025000Y-90600000I-150000J0D01*
G01*
D13*
X140825000Y-104912500D02*
X141875000Y-104912500D01*
X127875000Y-100950000D02*
X127875000Y-95700000D01*
X127875000Y-94600000D02*
X127875000Y-92900000D01*
X141875000Y-91087500D02*
X127975000Y-91087500D01*
X143125000Y-103800000D02*
X143125000Y-92200000D01*
X127875000Y-104912500D02*
X135675000Y-104912500D01*
X127875000Y-103500000D02*
X127875000Y-104912500D01*
D11*
X139830000Y-86190000D02*
X139830000Y-88410000D01*
X137170000Y-86190000D02*
X137170000Y-88410000D01*
X138550000Y-88410000D02*
X137180000Y-88410000D01*
X139820000Y-86190000D02*
X138450000Y-86190000D01*
X139720000Y-88410000D02*
X139720000Y-90240000D01*
X139830000Y-88410000D02*
X139720000Y-88410000D01*
X137280000Y-86190000D02*
X137170000Y-86190000D01*
D10*
X124095000Y-105350000D02*
X123620000Y-105350000D01*
X123620000Y-105350000D02*
X123620000Y-97050000D01*
X123620000Y-97050000D02*
X124095000Y-97050000D01*
X126345000Y-105350000D02*
X126820000Y-105350000D01*
X126820000Y-105350000D02*
X126820000Y-97050000D01*
X126820000Y-97050000D02*
X126345000Y-97050000D01*
X123320000Y-103500000D02*
X123320000Y-101500000D01*
M02*
