M48
; DRILL file {KiCad 5.1.4-3.fc30} date Tue 03 Dec 2019 09:39:22 PM EST
; FORMAT={-:-/ absolute / metric / decimal}
; #@! TF.CreationDate,2019-12-03T21:39:22-05:00
; #@! TF.GenerationSoftware,Kicad,Pcbnew,5.1.4-3.fc30
; #@! TF.FileFunction,Plated,1,4,PTH
FMAT,2
METRIC
T1C0.350
T2C0.400
T3C0.440
T4C1.000
T5C3.500
%
G90
G05
T2
X122.0Y-93.9
X122.3Y-86.2
X122.7Y-91.9
X123.0Y-103.0
X123.4Y-101.9
X123.7Y-90.9
X123.8Y-100.9
X123.9Y-93.9
X125.3Y-92.0
X125.3Y-93.9
X126.675Y-99.825
X126.697Y-104.594
X127.2Y-105.4
X130.4Y-104.875
X130.5Y-92.0
X130.5Y-93.0
X131.1Y-93.775
X131.3Y-96.8
X131.3Y-102.25
X132.5Y-93.7
X132.6Y-87.6
X135.4Y-93.3
X135.6Y-90.1
X137.725Y-103.29
X138.8Y-102.0
X138.9Y-97.8
X138.9Y-99.0
X139.9Y-104.2
X141.4Y-96.0
X141.6Y-93.975
X142.4Y-98.7
X142.4Y-101.3
X142.8Y-94.0
X143.2Y-89.6
X144.4Y-91.1
X147.1Y-105.2
T3
X125.0Y-99.9
X125.0Y-101.2
X125.0Y-102.5
X126.0Y-100.55
X126.0Y-101.85
T4
X124.92Y-86.3
X127.46Y-89.3
X134.4Y-86.3
X134.4Y-88.84
X127.46Y-86.3
X130.0Y-86.3
T5
X148.85Y-95.0
T1
G00X124.72Y-97.625
M15
G01X125.72Y-97.625
M16
G05
G00X124.72Y-104.775
M15
G01X125.72Y-104.775
M16
G05
T0
M30
