G04 #@! TF.GenerationSoftware,KiCad,Pcbnew,5.1.4-3.fc30*
G04 #@! TF.CreationDate,2019-12-05T18:34:15-05:00*
G04 #@! TF.ProjectId,librem5-m2-breakout,6c696272-656d-4352-9d6d-322d62726561,v0.5.0*
G04 #@! TF.SameCoordinates,Original*
G04 #@! TF.FileFunction,Soldermask,Bot*
G04 #@! TF.FilePolarity,Negative*
%FSLAX46Y46*%
G04 Gerber Fmt 4.6, Leading zero omitted, Abs format (unit mm)*
G04 Created by KiCad (PCBNEW 5.1.4-3.fc30) date 2019-12-05 18:34:15*
%MOMM*%
%LPD*%
G04 APERTURE LIST*
%ADD10C,1.250000*%
%ADD11C,1.000000*%
%ADD12C,0.100000*%
G04 APERTURE END LIST*
D10*
X147850000Y-92625000D02*
G75*
G03X147850000Y-97375000I0J-2375000D01*
G01*
X147850000Y-97375000D02*
X148850000Y-97375000D01*
X147850000Y-92625000D02*
X148850000Y-92625000D01*
D11*
X148850000Y-92750000D02*
G75*
G03X148850000Y-97250000I0J-2250000D01*
G01*
D12*
G36*
X125805276Y-104346294D02*
G01*
X125887270Y-104371168D01*
X125962843Y-104411561D01*
X126029080Y-104465920D01*
X126083439Y-104532157D01*
X126123832Y-104607730D01*
X126148706Y-104689724D01*
X126157104Y-104775000D01*
X126148706Y-104860276D01*
X126123832Y-104942270D01*
X126083439Y-105017843D01*
X126029080Y-105084080D01*
X125962843Y-105138439D01*
X125887270Y-105178832D01*
X125805276Y-105203706D01*
X125741366Y-105210000D01*
X124698634Y-105210000D01*
X124634724Y-105203706D01*
X124552730Y-105178832D01*
X124477157Y-105138439D01*
X124410920Y-105084080D01*
X124356561Y-105017843D01*
X124316168Y-104942270D01*
X124291294Y-104860276D01*
X124282896Y-104775000D01*
X124291294Y-104689724D01*
X124316168Y-104607730D01*
X124356561Y-104532157D01*
X124410920Y-104465920D01*
X124477157Y-104411561D01*
X124552730Y-104371168D01*
X124634724Y-104346294D01*
X124698634Y-104340000D01*
X125741366Y-104340000D01*
X125805276Y-104346294D01*
X125805276Y-104346294D01*
G37*
G36*
X121425000Y-104925000D02*
G01*
X118850000Y-104925000D01*
X118850000Y-98225000D01*
X121425000Y-98225000D01*
X121425000Y-104925000D01*
X121425000Y-104925000D01*
G37*
G36*
X137140000Y-103785000D02*
G01*
X135560000Y-103785000D01*
X135560000Y-103115000D01*
X137140000Y-103115000D01*
X137140000Y-103785000D01*
X137140000Y-103785000D01*
G37*
G36*
X134440000Y-103785000D02*
G01*
X132860000Y-103785000D01*
X132860000Y-103115000D01*
X134440000Y-103115000D01*
X134440000Y-103785000D01*
X134440000Y-103785000D01*
G37*
G36*
X128539997Y-102644051D02*
G01*
X128573652Y-102654261D01*
X128604665Y-102670838D01*
X128631851Y-102693149D01*
X128654162Y-102720335D01*
X128670739Y-102751348D01*
X128680949Y-102785003D01*
X128685000Y-102826138D01*
X128685000Y-103523862D01*
X128680949Y-103564997D01*
X128670739Y-103598652D01*
X128654162Y-103629665D01*
X128631851Y-103656851D01*
X128604665Y-103679162D01*
X128573652Y-103695739D01*
X128539997Y-103705949D01*
X128498862Y-103710000D01*
X127901138Y-103710000D01*
X127860003Y-103705949D01*
X127826348Y-103695739D01*
X127795335Y-103679162D01*
X127768149Y-103656851D01*
X127745838Y-103629665D01*
X127729261Y-103598652D01*
X127719051Y-103564997D01*
X127715000Y-103523862D01*
X127715000Y-102826138D01*
X127719051Y-102785003D01*
X127729261Y-102751348D01*
X127745838Y-102720335D01*
X127768149Y-102693149D01*
X127795335Y-102670838D01*
X127826348Y-102654261D01*
X127860003Y-102644051D01*
X127901138Y-102640000D01*
X128498862Y-102640000D01*
X128539997Y-102644051D01*
X128539997Y-102644051D01*
G37*
G36*
X130139997Y-102644051D02*
G01*
X130173652Y-102654261D01*
X130204665Y-102670838D01*
X130231851Y-102693149D01*
X130254162Y-102720335D01*
X130270739Y-102751348D01*
X130280949Y-102785003D01*
X130285000Y-102826138D01*
X130285000Y-103523862D01*
X130280949Y-103564997D01*
X130270739Y-103598652D01*
X130254162Y-103629665D01*
X130231851Y-103656851D01*
X130204665Y-103679162D01*
X130173652Y-103695739D01*
X130139997Y-103705949D01*
X130098862Y-103710000D01*
X129501138Y-103710000D01*
X129460003Y-103705949D01*
X129426348Y-103695739D01*
X129395335Y-103679162D01*
X129368149Y-103656851D01*
X129345838Y-103629665D01*
X129329261Y-103598652D01*
X129319051Y-103564997D01*
X129315000Y-103523862D01*
X129315000Y-102826138D01*
X129319051Y-102785003D01*
X129329261Y-102751348D01*
X129345838Y-102720335D01*
X129368149Y-102693149D01*
X129395335Y-102670838D01*
X129426348Y-102654261D01*
X129460003Y-102644051D01*
X129501138Y-102640000D01*
X130098862Y-102640000D01*
X130139997Y-102644051D01*
X130139997Y-102644051D01*
G37*
G36*
X126125426Y-101436524D02*
G01*
X126203682Y-101468939D01*
X126274109Y-101515997D01*
X126334003Y-101575891D01*
X126381061Y-101646318D01*
X126413476Y-101724574D01*
X126430000Y-101807649D01*
X126430000Y-101892351D01*
X126413476Y-101975426D01*
X126381061Y-102053682D01*
X126334003Y-102124109D01*
X126274109Y-102184003D01*
X126203682Y-102231061D01*
X126125426Y-102263476D01*
X126042351Y-102280000D01*
X125957649Y-102280000D01*
X125874574Y-102263476D01*
X125796318Y-102231061D01*
X125725891Y-102184003D01*
X125665997Y-102124109D01*
X125658929Y-102113532D01*
X125643388Y-102094594D01*
X125624446Y-102079048D01*
X125602836Y-102067497D01*
X125579387Y-102060383D01*
X125555001Y-102057981D01*
X125530615Y-102060382D01*
X125507166Y-102067495D01*
X125485555Y-102079046D01*
X125466613Y-102094591D01*
X125451067Y-102113533D01*
X125439516Y-102135143D01*
X125432402Y-102158592D01*
X125430000Y-102182980D01*
X125430000Y-102930000D01*
X124570000Y-102930000D01*
X124570000Y-102070000D01*
X125453025Y-102070000D01*
X125477411Y-102067598D01*
X125500860Y-102060485D01*
X125522471Y-102048934D01*
X125541413Y-102033389D01*
X125556958Y-102014447D01*
X125568509Y-101992836D01*
X125575622Y-101969387D01*
X125578024Y-101945001D01*
X125575622Y-101920614D01*
X125570000Y-101892351D01*
X125570000Y-101807649D01*
X125586524Y-101724574D01*
X125618939Y-101646318D01*
X125665997Y-101575891D01*
X125725891Y-101515997D01*
X125796318Y-101468939D01*
X125874574Y-101436524D01*
X125957649Y-101420000D01*
X126042351Y-101420000D01*
X126125426Y-101436524D01*
X126125426Y-101436524D01*
G37*
G36*
X134440000Y-102835000D02*
G01*
X132860000Y-102835000D01*
X132860000Y-102165000D01*
X134440000Y-102165000D01*
X134440000Y-102835000D01*
X134440000Y-102835000D01*
G37*
G36*
X130139997Y-100894051D02*
G01*
X130173652Y-100904261D01*
X130204665Y-100920838D01*
X130231851Y-100943149D01*
X130254162Y-100970335D01*
X130270739Y-101001348D01*
X130280949Y-101035003D01*
X130285000Y-101076138D01*
X130285000Y-101773862D01*
X130280949Y-101814997D01*
X130270739Y-101848652D01*
X130254162Y-101879665D01*
X130231851Y-101906851D01*
X130204665Y-101929162D01*
X130173652Y-101945739D01*
X130139997Y-101955949D01*
X130098862Y-101960000D01*
X129501138Y-101960000D01*
X129460003Y-101955949D01*
X129426348Y-101945739D01*
X129395335Y-101929162D01*
X129368149Y-101906851D01*
X129345838Y-101879665D01*
X129329261Y-101848652D01*
X129319051Y-101814997D01*
X129315000Y-101773862D01*
X129315000Y-101076138D01*
X129319051Y-101035003D01*
X129329261Y-101001348D01*
X129345838Y-100970335D01*
X129368149Y-100943149D01*
X129395335Y-100920838D01*
X129426348Y-100904261D01*
X129460003Y-100894051D01*
X129501138Y-100890000D01*
X130098862Y-100890000D01*
X130139997Y-100894051D01*
X130139997Y-100894051D01*
G37*
G36*
X128539997Y-100894051D02*
G01*
X128573652Y-100904261D01*
X128604665Y-100920838D01*
X128631851Y-100943149D01*
X128654162Y-100970335D01*
X128670739Y-101001348D01*
X128680949Y-101035003D01*
X128685000Y-101076138D01*
X128685000Y-101773862D01*
X128680949Y-101814997D01*
X128670739Y-101848652D01*
X128654162Y-101879665D01*
X128631851Y-101906851D01*
X128604665Y-101929162D01*
X128573652Y-101945739D01*
X128539997Y-101955949D01*
X128498862Y-101960000D01*
X127901138Y-101960000D01*
X127860003Y-101955949D01*
X127826348Y-101945739D01*
X127795335Y-101929162D01*
X127768149Y-101906851D01*
X127745838Y-101879665D01*
X127729261Y-101848652D01*
X127719051Y-101814997D01*
X127715000Y-101773862D01*
X127715000Y-101076138D01*
X127719051Y-101035003D01*
X127729261Y-101001348D01*
X127745838Y-100970335D01*
X127768149Y-100943149D01*
X127795335Y-100920838D01*
X127826348Y-100904261D01*
X127860003Y-100894051D01*
X127901138Y-100890000D01*
X128498862Y-100890000D01*
X128539997Y-100894051D01*
X128539997Y-100894051D01*
G37*
G36*
X134440000Y-101885000D02*
G01*
X132860000Y-101885000D01*
X132860000Y-101215000D01*
X134440000Y-101215000D01*
X134440000Y-101885000D01*
X134440000Y-101885000D01*
G37*
G36*
X137140000Y-101885000D02*
G01*
X135560000Y-101885000D01*
X135560000Y-101215000D01*
X137140000Y-101215000D01*
X137140000Y-101885000D01*
X137140000Y-101885000D01*
G37*
G36*
X125125426Y-100786524D02*
G01*
X125203682Y-100818939D01*
X125274109Y-100865997D01*
X125334003Y-100925891D01*
X125381061Y-100996318D01*
X125413476Y-101074574D01*
X125430000Y-101157649D01*
X125430000Y-101242351D01*
X125413476Y-101325426D01*
X125381061Y-101403682D01*
X125334003Y-101474109D01*
X125274109Y-101534003D01*
X125203682Y-101581061D01*
X125125426Y-101613476D01*
X125042351Y-101630000D01*
X124957649Y-101630000D01*
X124874574Y-101613476D01*
X124796318Y-101581061D01*
X124725891Y-101534003D01*
X124665997Y-101474109D01*
X124618939Y-101403682D01*
X124586524Y-101325426D01*
X124570000Y-101242351D01*
X124570000Y-101157649D01*
X124586524Y-101074574D01*
X124618939Y-100996318D01*
X124665997Y-100925891D01*
X124725891Y-100865997D01*
X124796318Y-100818939D01*
X124874574Y-100786524D01*
X124957649Y-100770000D01*
X125042351Y-100770000D01*
X125125426Y-100786524D01*
X125125426Y-100786524D01*
G37*
G36*
X126125426Y-100136524D02*
G01*
X126203682Y-100168939D01*
X126274109Y-100215997D01*
X126334003Y-100275891D01*
X126381061Y-100346318D01*
X126413476Y-100424574D01*
X126430000Y-100507649D01*
X126430000Y-100592351D01*
X126413476Y-100675426D01*
X126381061Y-100753682D01*
X126334003Y-100824109D01*
X126274109Y-100884003D01*
X126203682Y-100931061D01*
X126125426Y-100963476D01*
X126042351Y-100980000D01*
X125957649Y-100980000D01*
X125874574Y-100963476D01*
X125796318Y-100931061D01*
X125725891Y-100884003D01*
X125665997Y-100824109D01*
X125618939Y-100753682D01*
X125586524Y-100675426D01*
X125570000Y-100592351D01*
X125570000Y-100507649D01*
X125586524Y-100424574D01*
X125618939Y-100346318D01*
X125665997Y-100275891D01*
X125725891Y-100215997D01*
X125796318Y-100168939D01*
X125874574Y-100136524D01*
X125957649Y-100120000D01*
X126042351Y-100120000D01*
X126125426Y-100136524D01*
X126125426Y-100136524D01*
G37*
G36*
X125125426Y-99486524D02*
G01*
X125203682Y-99518939D01*
X125274109Y-99565997D01*
X125334003Y-99625891D01*
X125381061Y-99696318D01*
X125413476Y-99774574D01*
X125430000Y-99857649D01*
X125430000Y-99942351D01*
X125413476Y-100025426D01*
X125381061Y-100103682D01*
X125334003Y-100174109D01*
X125274109Y-100234003D01*
X125203682Y-100281061D01*
X125125426Y-100313476D01*
X125042351Y-100330000D01*
X124957649Y-100330000D01*
X124874574Y-100313476D01*
X124796318Y-100281061D01*
X124725891Y-100234003D01*
X124665997Y-100174109D01*
X124618939Y-100103682D01*
X124586524Y-100025426D01*
X124570000Y-99942351D01*
X124570000Y-99857649D01*
X124586524Y-99774574D01*
X124618939Y-99696318D01*
X124665997Y-99625891D01*
X124725891Y-99565997D01*
X124796318Y-99518939D01*
X124874574Y-99486524D01*
X124957649Y-99470000D01*
X125042351Y-99470000D01*
X125125426Y-99486524D01*
X125125426Y-99486524D01*
G37*
G36*
X131639997Y-99244051D02*
G01*
X131673652Y-99254261D01*
X131704665Y-99270838D01*
X131731851Y-99293149D01*
X131754162Y-99320335D01*
X131770739Y-99351348D01*
X131780949Y-99385003D01*
X131785000Y-99426138D01*
X131785000Y-100123862D01*
X131780949Y-100164997D01*
X131770739Y-100198652D01*
X131754162Y-100229665D01*
X131731851Y-100256851D01*
X131704665Y-100279162D01*
X131673652Y-100295739D01*
X131639997Y-100305949D01*
X131598862Y-100310000D01*
X131001138Y-100310000D01*
X130960003Y-100305949D01*
X130926348Y-100295739D01*
X130895335Y-100279162D01*
X130868149Y-100256851D01*
X130845838Y-100229665D01*
X130829261Y-100198652D01*
X130819051Y-100164997D01*
X130815000Y-100123862D01*
X130815000Y-99426138D01*
X130819051Y-99385003D01*
X130829261Y-99351348D01*
X130845838Y-99320335D01*
X130868149Y-99293149D01*
X130895335Y-99270838D01*
X130926348Y-99254261D01*
X130960003Y-99244051D01*
X131001138Y-99240000D01*
X131598862Y-99240000D01*
X131639997Y-99244051D01*
X131639997Y-99244051D01*
G37*
G36*
X133239997Y-99244051D02*
G01*
X133273652Y-99254261D01*
X133304665Y-99270838D01*
X133331851Y-99293149D01*
X133354162Y-99320335D01*
X133370739Y-99351348D01*
X133380949Y-99385003D01*
X133385000Y-99426138D01*
X133385000Y-100123862D01*
X133380949Y-100164997D01*
X133370739Y-100198652D01*
X133354162Y-100229665D01*
X133331851Y-100256851D01*
X133304665Y-100279162D01*
X133273652Y-100295739D01*
X133239997Y-100305949D01*
X133198862Y-100310000D01*
X132601138Y-100310000D01*
X132560003Y-100305949D01*
X132526348Y-100295739D01*
X132495335Y-100279162D01*
X132468149Y-100256851D01*
X132445838Y-100229665D01*
X132429261Y-100198652D01*
X132419051Y-100164997D01*
X132415000Y-100123862D01*
X132415000Y-99426138D01*
X132419051Y-99385003D01*
X132429261Y-99351348D01*
X132445838Y-99320335D01*
X132468149Y-99293149D01*
X132495335Y-99270838D01*
X132526348Y-99254261D01*
X132560003Y-99244051D01*
X132601138Y-99240000D01*
X133198862Y-99240000D01*
X133239997Y-99244051D01*
X133239997Y-99244051D01*
G37*
G36*
X134839997Y-99244051D02*
G01*
X134873652Y-99254261D01*
X134904665Y-99270838D01*
X134931851Y-99293149D01*
X134954162Y-99320335D01*
X134970739Y-99351348D01*
X134980949Y-99385003D01*
X134985000Y-99426138D01*
X134985000Y-100123862D01*
X134980949Y-100164997D01*
X134970739Y-100198652D01*
X134954162Y-100229665D01*
X134931851Y-100256851D01*
X134904665Y-100279162D01*
X134873652Y-100295739D01*
X134839997Y-100305949D01*
X134798862Y-100310000D01*
X134201138Y-100310000D01*
X134160003Y-100305949D01*
X134126348Y-100295739D01*
X134095335Y-100279162D01*
X134068149Y-100256851D01*
X134045838Y-100229665D01*
X134029261Y-100198652D01*
X134019051Y-100164997D01*
X134015000Y-100123862D01*
X134015000Y-99426138D01*
X134019051Y-99385003D01*
X134029261Y-99351348D01*
X134045838Y-99320335D01*
X134068149Y-99293149D01*
X134095335Y-99270838D01*
X134126348Y-99254261D01*
X134160003Y-99244051D01*
X134201138Y-99240000D01*
X134798862Y-99240000D01*
X134839997Y-99244051D01*
X134839997Y-99244051D01*
G37*
G36*
X133239997Y-97494051D02*
G01*
X133273652Y-97504261D01*
X133304665Y-97520838D01*
X133331851Y-97543149D01*
X133354162Y-97570335D01*
X133370739Y-97601348D01*
X133380949Y-97635003D01*
X133385000Y-97676138D01*
X133385000Y-98373862D01*
X133380949Y-98414997D01*
X133370739Y-98448652D01*
X133354162Y-98479665D01*
X133331851Y-98506851D01*
X133304665Y-98529162D01*
X133273652Y-98545739D01*
X133239997Y-98555949D01*
X133198862Y-98560000D01*
X132601138Y-98560000D01*
X132560003Y-98555949D01*
X132526348Y-98545739D01*
X132495335Y-98529162D01*
X132468149Y-98506851D01*
X132445838Y-98479665D01*
X132429261Y-98448652D01*
X132419051Y-98414997D01*
X132415000Y-98373862D01*
X132415000Y-97676138D01*
X132419051Y-97635003D01*
X132429261Y-97601348D01*
X132445838Y-97570335D01*
X132468149Y-97543149D01*
X132495335Y-97520838D01*
X132526348Y-97504261D01*
X132560003Y-97494051D01*
X132601138Y-97490000D01*
X133198862Y-97490000D01*
X133239997Y-97494051D01*
X133239997Y-97494051D01*
G37*
G36*
X134839997Y-97494051D02*
G01*
X134873652Y-97504261D01*
X134904665Y-97520838D01*
X134931851Y-97543149D01*
X134954162Y-97570335D01*
X134970739Y-97601348D01*
X134980949Y-97635003D01*
X134985000Y-97676138D01*
X134985000Y-98373862D01*
X134980949Y-98414997D01*
X134970739Y-98448652D01*
X134954162Y-98479665D01*
X134931851Y-98506851D01*
X134904665Y-98529162D01*
X134873652Y-98545739D01*
X134839997Y-98555949D01*
X134798862Y-98560000D01*
X134201138Y-98560000D01*
X134160003Y-98555949D01*
X134126348Y-98545739D01*
X134095335Y-98529162D01*
X134068149Y-98506851D01*
X134045838Y-98479665D01*
X134029261Y-98448652D01*
X134019051Y-98414997D01*
X134015000Y-98373862D01*
X134015000Y-97676138D01*
X134019051Y-97635003D01*
X134029261Y-97601348D01*
X134045838Y-97570335D01*
X134068149Y-97543149D01*
X134095335Y-97520838D01*
X134126348Y-97504261D01*
X134160003Y-97494051D01*
X134201138Y-97490000D01*
X134798862Y-97490000D01*
X134839997Y-97494051D01*
X134839997Y-97494051D01*
G37*
G36*
X131639997Y-97494051D02*
G01*
X131673652Y-97504261D01*
X131704665Y-97520838D01*
X131731851Y-97543149D01*
X131754162Y-97570335D01*
X131770739Y-97601348D01*
X131780949Y-97635003D01*
X131785000Y-97676138D01*
X131785000Y-98373862D01*
X131780949Y-98414997D01*
X131770739Y-98448652D01*
X131754162Y-98479665D01*
X131731851Y-98506851D01*
X131704665Y-98529162D01*
X131673652Y-98545739D01*
X131639997Y-98555949D01*
X131598862Y-98560000D01*
X131001138Y-98560000D01*
X130960003Y-98555949D01*
X130926348Y-98545739D01*
X130895335Y-98529162D01*
X130868149Y-98506851D01*
X130845838Y-98479665D01*
X130829261Y-98448652D01*
X130819051Y-98414997D01*
X130815000Y-98373862D01*
X130815000Y-97676138D01*
X130819051Y-97635003D01*
X130829261Y-97601348D01*
X130845838Y-97570335D01*
X130868149Y-97543149D01*
X130895335Y-97520838D01*
X130926348Y-97504261D01*
X130960003Y-97494051D01*
X131001138Y-97490000D01*
X131598862Y-97490000D01*
X131639997Y-97494051D01*
X131639997Y-97494051D01*
G37*
G36*
X125805276Y-97196294D02*
G01*
X125887270Y-97221168D01*
X125962843Y-97261561D01*
X126029080Y-97315920D01*
X126083439Y-97382157D01*
X126123832Y-97457730D01*
X126148706Y-97539724D01*
X126157104Y-97625000D01*
X126148706Y-97710276D01*
X126123832Y-97792270D01*
X126083439Y-97867843D01*
X126029080Y-97934080D01*
X125962843Y-97988439D01*
X125887270Y-98028832D01*
X125805276Y-98053706D01*
X125741366Y-98060000D01*
X124698634Y-98060000D01*
X124634724Y-98053706D01*
X124552730Y-98028832D01*
X124477157Y-97988439D01*
X124410920Y-97934080D01*
X124356561Y-97867843D01*
X124316168Y-97792270D01*
X124291294Y-97710276D01*
X124282896Y-97625000D01*
X124291294Y-97539724D01*
X124316168Y-97457730D01*
X124356561Y-97382157D01*
X124410920Y-97315920D01*
X124477157Y-97261561D01*
X124552730Y-97221168D01*
X124634724Y-97196294D01*
X124698634Y-97190000D01*
X125741366Y-97190000D01*
X125805276Y-97196294D01*
X125805276Y-97196294D01*
G37*
G36*
X121425000Y-97025000D02*
G01*
X118850000Y-97025000D01*
X118850000Y-85075000D01*
X121425000Y-85075000D01*
X121425000Y-97025000D01*
X121425000Y-97025000D01*
G37*
G36*
X149206040Y-93210067D02*
G01*
X149382333Y-93245134D01*
X149519904Y-93302118D01*
X149714460Y-93382705D01*
X150013369Y-93582430D01*
X150267570Y-93836631D01*
X150467295Y-94135540D01*
X150604866Y-94467668D01*
X150675000Y-94820252D01*
X150675000Y-95179748D01*
X150604866Y-95532332D01*
X150467295Y-95864460D01*
X150267570Y-96163369D01*
X150013369Y-96417570D01*
X149714460Y-96617295D01*
X149519904Y-96697882D01*
X149382333Y-96754866D01*
X149206040Y-96789933D01*
X149029748Y-96825000D01*
X148670252Y-96825000D01*
X148493960Y-96789933D01*
X148317667Y-96754866D01*
X148180096Y-96697882D01*
X147985540Y-96617295D01*
X147686631Y-96417570D01*
X147432430Y-96163369D01*
X147232705Y-95864460D01*
X147095134Y-95532332D01*
X147025000Y-95179748D01*
X147025000Y-94820252D01*
X147095134Y-94467668D01*
X147232705Y-94135540D01*
X147432430Y-93836631D01*
X147686631Y-93582430D01*
X147985540Y-93382705D01*
X148180096Y-93302118D01*
X148317667Y-93245134D01*
X148493960Y-93210067D01*
X148670252Y-93175000D01*
X149029748Y-93175000D01*
X149206040Y-93210067D01*
X149206040Y-93210067D01*
G37*
G36*
X128320000Y-90160000D02*
G01*
X126600000Y-90160000D01*
X126600000Y-88440000D01*
X128320000Y-88440000D01*
X128320000Y-90160000D01*
X128320000Y-90160000D01*
G37*
G36*
X134568589Y-87992444D02*
G01*
X134730700Y-88041619D01*
X134880102Y-88121476D01*
X135011054Y-88228946D01*
X135118524Y-88359898D01*
X135198381Y-88509300D01*
X135247556Y-88671411D01*
X135264161Y-88840000D01*
X135247556Y-89008589D01*
X135198381Y-89170700D01*
X135118524Y-89320102D01*
X135011054Y-89451054D01*
X134880102Y-89558524D01*
X134730700Y-89638381D01*
X134568589Y-89687556D01*
X134442246Y-89700000D01*
X134357754Y-89700000D01*
X134231411Y-89687556D01*
X134069300Y-89638381D01*
X133919898Y-89558524D01*
X133788946Y-89451054D01*
X133681476Y-89320102D01*
X133601619Y-89170700D01*
X133552444Y-89008589D01*
X133535839Y-88840000D01*
X133552444Y-88671411D01*
X133601619Y-88509300D01*
X133681476Y-88359898D01*
X133788946Y-88228946D01*
X133919898Y-88121476D01*
X134069300Y-88041619D01*
X134231411Y-87992444D01*
X134357754Y-87980000D01*
X134442246Y-87980000D01*
X134568589Y-87992444D01*
X134568589Y-87992444D01*
G37*
G36*
X125088589Y-85452444D02*
G01*
X125250700Y-85501619D01*
X125400102Y-85581476D01*
X125531054Y-85688946D01*
X125638524Y-85819898D01*
X125718381Y-85969300D01*
X125767556Y-86131411D01*
X125784161Y-86300000D01*
X125767556Y-86468589D01*
X125718381Y-86630700D01*
X125638524Y-86780102D01*
X125531054Y-86911054D01*
X125400102Y-87018524D01*
X125250700Y-87098381D01*
X125088589Y-87147556D01*
X124962246Y-87160000D01*
X124877754Y-87160000D01*
X124751411Y-87147556D01*
X124589300Y-87098381D01*
X124439898Y-87018524D01*
X124308946Y-86911054D01*
X124201476Y-86780102D01*
X124121619Y-86630700D01*
X124072444Y-86468589D01*
X124055839Y-86300000D01*
X124072444Y-86131411D01*
X124121619Y-85969300D01*
X124201476Y-85819898D01*
X124308946Y-85688946D01*
X124439898Y-85581476D01*
X124589300Y-85501619D01*
X124751411Y-85452444D01*
X124877754Y-85440000D01*
X124962246Y-85440000D01*
X125088589Y-85452444D01*
X125088589Y-85452444D01*
G37*
G36*
X127628589Y-85452444D02*
G01*
X127790700Y-85501619D01*
X127940102Y-85581476D01*
X128071054Y-85688946D01*
X128178524Y-85819898D01*
X128258381Y-85969300D01*
X128307556Y-86131411D01*
X128324161Y-86300000D01*
X128307556Y-86468589D01*
X128258381Y-86630700D01*
X128178524Y-86780102D01*
X128071054Y-86911054D01*
X127940102Y-87018524D01*
X127790700Y-87098381D01*
X127628589Y-87147556D01*
X127502246Y-87160000D01*
X127417754Y-87160000D01*
X127291411Y-87147556D01*
X127129300Y-87098381D01*
X126979898Y-87018524D01*
X126848946Y-86911054D01*
X126741476Y-86780102D01*
X126661619Y-86630700D01*
X126612444Y-86468589D01*
X126595839Y-86300000D01*
X126612444Y-86131411D01*
X126661619Y-85969300D01*
X126741476Y-85819898D01*
X126848946Y-85688946D01*
X126979898Y-85581476D01*
X127129300Y-85501619D01*
X127291411Y-85452444D01*
X127417754Y-85440000D01*
X127502246Y-85440000D01*
X127628589Y-85452444D01*
X127628589Y-85452444D01*
G37*
G36*
X130860000Y-87160000D02*
G01*
X129140000Y-87160000D01*
X129140000Y-85440000D01*
X130860000Y-85440000D01*
X130860000Y-87160000D01*
X130860000Y-87160000D01*
G37*
G36*
X135260000Y-87160000D02*
G01*
X133540000Y-87160000D01*
X133540000Y-85440000D01*
X135260000Y-85440000D01*
X135260000Y-87160000D01*
X135260000Y-87160000D01*
G37*
M02*
