G04 #@! TF.GenerationSoftware,KiCad,Pcbnew,5.1.4-3.fc30*
G04 #@! TF.CreationDate,2019-12-05T18:34:15-05:00*
G04 #@! TF.ProjectId,librem5-m2-breakout,6c696272-656d-4352-9d6d-322d62726561,v0.5.0*
G04 #@! TF.SameCoordinates,Original*
G04 #@! TF.FileFunction,Copper,L4,Bot*
G04 #@! TF.FilePolarity,Positive*
%FSLAX46Y46*%
G04 Gerber Fmt 4.6, Leading zero omitted, Abs format (unit mm)*
G04 Created by KiCad (PCBNEW 5.1.4-3.fc30) date 2019-12-05 18:34:15*
%MOMM*%
%LPD*%
G04 APERTURE LIST*
%ADD10R,1.700000X1.700000*%
%ADD11O,1.700000X1.700000*%
%ADD12C,0.100000*%
%ADD13C,0.950000*%
%ADD14C,6.150000*%
%ADD15R,2.200000X0.350000*%
%ADD16R,1.560000X0.650000*%
%ADD17R,0.840000X0.840000*%
%ADD18C,0.840000*%
%ADD19O,1.850000X0.850000*%
%ADD20C,0.800000*%
%ADD21C,0.250000*%
%ADD22C,0.254000*%
G04 APERTURE END LIST*
D10*
X130000000Y-86300000D03*
D11*
X127460000Y-86300000D03*
X124920000Y-86300000D03*
D10*
X127460000Y-89300000D03*
D12*
G36*
X130060779Y-100901144D02*
G01*
X130083834Y-100904563D01*
X130106443Y-100910227D01*
X130128387Y-100918079D01*
X130149457Y-100928044D01*
X130169448Y-100940026D01*
X130188168Y-100953910D01*
X130205438Y-100969562D01*
X130221090Y-100986832D01*
X130234974Y-101005552D01*
X130246956Y-101025543D01*
X130256921Y-101046613D01*
X130264773Y-101068557D01*
X130270437Y-101091166D01*
X130273856Y-101114221D01*
X130275000Y-101137500D01*
X130275000Y-101712500D01*
X130273856Y-101735779D01*
X130270437Y-101758834D01*
X130264773Y-101781443D01*
X130256921Y-101803387D01*
X130246956Y-101824457D01*
X130234974Y-101844448D01*
X130221090Y-101863168D01*
X130205438Y-101880438D01*
X130188168Y-101896090D01*
X130169448Y-101909974D01*
X130149457Y-101921956D01*
X130128387Y-101931921D01*
X130106443Y-101939773D01*
X130083834Y-101945437D01*
X130060779Y-101948856D01*
X130037500Y-101950000D01*
X129562500Y-101950000D01*
X129539221Y-101948856D01*
X129516166Y-101945437D01*
X129493557Y-101939773D01*
X129471613Y-101931921D01*
X129450543Y-101921956D01*
X129430552Y-101909974D01*
X129411832Y-101896090D01*
X129394562Y-101880438D01*
X129378910Y-101863168D01*
X129365026Y-101844448D01*
X129353044Y-101824457D01*
X129343079Y-101803387D01*
X129335227Y-101781443D01*
X129329563Y-101758834D01*
X129326144Y-101735779D01*
X129325000Y-101712500D01*
X129325000Y-101137500D01*
X129326144Y-101114221D01*
X129329563Y-101091166D01*
X129335227Y-101068557D01*
X129343079Y-101046613D01*
X129353044Y-101025543D01*
X129365026Y-101005552D01*
X129378910Y-100986832D01*
X129394562Y-100969562D01*
X129411832Y-100953910D01*
X129430552Y-100940026D01*
X129450543Y-100928044D01*
X129471613Y-100918079D01*
X129493557Y-100910227D01*
X129516166Y-100904563D01*
X129539221Y-100901144D01*
X129562500Y-100900000D01*
X130037500Y-100900000D01*
X130060779Y-100901144D01*
X130060779Y-100901144D01*
G37*
D13*
X129800000Y-101425000D03*
D12*
G36*
X130060779Y-102651144D02*
G01*
X130083834Y-102654563D01*
X130106443Y-102660227D01*
X130128387Y-102668079D01*
X130149457Y-102678044D01*
X130169448Y-102690026D01*
X130188168Y-102703910D01*
X130205438Y-102719562D01*
X130221090Y-102736832D01*
X130234974Y-102755552D01*
X130246956Y-102775543D01*
X130256921Y-102796613D01*
X130264773Y-102818557D01*
X130270437Y-102841166D01*
X130273856Y-102864221D01*
X130275000Y-102887500D01*
X130275000Y-103462500D01*
X130273856Y-103485779D01*
X130270437Y-103508834D01*
X130264773Y-103531443D01*
X130256921Y-103553387D01*
X130246956Y-103574457D01*
X130234974Y-103594448D01*
X130221090Y-103613168D01*
X130205438Y-103630438D01*
X130188168Y-103646090D01*
X130169448Y-103659974D01*
X130149457Y-103671956D01*
X130128387Y-103681921D01*
X130106443Y-103689773D01*
X130083834Y-103695437D01*
X130060779Y-103698856D01*
X130037500Y-103700000D01*
X129562500Y-103700000D01*
X129539221Y-103698856D01*
X129516166Y-103695437D01*
X129493557Y-103689773D01*
X129471613Y-103681921D01*
X129450543Y-103671956D01*
X129430552Y-103659974D01*
X129411832Y-103646090D01*
X129394562Y-103630438D01*
X129378910Y-103613168D01*
X129365026Y-103594448D01*
X129353044Y-103574457D01*
X129343079Y-103553387D01*
X129335227Y-103531443D01*
X129329563Y-103508834D01*
X129326144Y-103485779D01*
X129325000Y-103462500D01*
X129325000Y-102887500D01*
X129326144Y-102864221D01*
X129329563Y-102841166D01*
X129335227Y-102818557D01*
X129343079Y-102796613D01*
X129353044Y-102775543D01*
X129365026Y-102755552D01*
X129378910Y-102736832D01*
X129394562Y-102719562D01*
X129411832Y-102703910D01*
X129430552Y-102690026D01*
X129450543Y-102678044D01*
X129471613Y-102668079D01*
X129493557Y-102660227D01*
X129516166Y-102654563D01*
X129539221Y-102651144D01*
X129562500Y-102650000D01*
X130037500Y-102650000D01*
X130060779Y-102651144D01*
X130060779Y-102651144D01*
G37*
D13*
X129800000Y-103175000D03*
D12*
G36*
X128460779Y-102651144D02*
G01*
X128483834Y-102654563D01*
X128506443Y-102660227D01*
X128528387Y-102668079D01*
X128549457Y-102678044D01*
X128569448Y-102690026D01*
X128588168Y-102703910D01*
X128605438Y-102719562D01*
X128621090Y-102736832D01*
X128634974Y-102755552D01*
X128646956Y-102775543D01*
X128656921Y-102796613D01*
X128664773Y-102818557D01*
X128670437Y-102841166D01*
X128673856Y-102864221D01*
X128675000Y-102887500D01*
X128675000Y-103462500D01*
X128673856Y-103485779D01*
X128670437Y-103508834D01*
X128664773Y-103531443D01*
X128656921Y-103553387D01*
X128646956Y-103574457D01*
X128634974Y-103594448D01*
X128621090Y-103613168D01*
X128605438Y-103630438D01*
X128588168Y-103646090D01*
X128569448Y-103659974D01*
X128549457Y-103671956D01*
X128528387Y-103681921D01*
X128506443Y-103689773D01*
X128483834Y-103695437D01*
X128460779Y-103698856D01*
X128437500Y-103700000D01*
X127962500Y-103700000D01*
X127939221Y-103698856D01*
X127916166Y-103695437D01*
X127893557Y-103689773D01*
X127871613Y-103681921D01*
X127850543Y-103671956D01*
X127830552Y-103659974D01*
X127811832Y-103646090D01*
X127794562Y-103630438D01*
X127778910Y-103613168D01*
X127765026Y-103594448D01*
X127753044Y-103574457D01*
X127743079Y-103553387D01*
X127735227Y-103531443D01*
X127729563Y-103508834D01*
X127726144Y-103485779D01*
X127725000Y-103462500D01*
X127725000Y-102887500D01*
X127726144Y-102864221D01*
X127729563Y-102841166D01*
X127735227Y-102818557D01*
X127743079Y-102796613D01*
X127753044Y-102775543D01*
X127765026Y-102755552D01*
X127778910Y-102736832D01*
X127794562Y-102719562D01*
X127811832Y-102703910D01*
X127830552Y-102690026D01*
X127850543Y-102678044D01*
X127871613Y-102668079D01*
X127893557Y-102660227D01*
X127916166Y-102654563D01*
X127939221Y-102651144D01*
X127962500Y-102650000D01*
X128437500Y-102650000D01*
X128460779Y-102651144D01*
X128460779Y-102651144D01*
G37*
D13*
X128200000Y-103175000D03*
D12*
G36*
X128460779Y-100901144D02*
G01*
X128483834Y-100904563D01*
X128506443Y-100910227D01*
X128528387Y-100918079D01*
X128549457Y-100928044D01*
X128569448Y-100940026D01*
X128588168Y-100953910D01*
X128605438Y-100969562D01*
X128621090Y-100986832D01*
X128634974Y-101005552D01*
X128646956Y-101025543D01*
X128656921Y-101046613D01*
X128664773Y-101068557D01*
X128670437Y-101091166D01*
X128673856Y-101114221D01*
X128675000Y-101137500D01*
X128675000Y-101712500D01*
X128673856Y-101735779D01*
X128670437Y-101758834D01*
X128664773Y-101781443D01*
X128656921Y-101803387D01*
X128646956Y-101824457D01*
X128634974Y-101844448D01*
X128621090Y-101863168D01*
X128605438Y-101880438D01*
X128588168Y-101896090D01*
X128569448Y-101909974D01*
X128549457Y-101921956D01*
X128528387Y-101931921D01*
X128506443Y-101939773D01*
X128483834Y-101945437D01*
X128460779Y-101948856D01*
X128437500Y-101950000D01*
X127962500Y-101950000D01*
X127939221Y-101948856D01*
X127916166Y-101945437D01*
X127893557Y-101939773D01*
X127871613Y-101931921D01*
X127850543Y-101921956D01*
X127830552Y-101909974D01*
X127811832Y-101896090D01*
X127794562Y-101880438D01*
X127778910Y-101863168D01*
X127765026Y-101844448D01*
X127753044Y-101824457D01*
X127743079Y-101803387D01*
X127735227Y-101781443D01*
X127729563Y-101758834D01*
X127726144Y-101735779D01*
X127725000Y-101712500D01*
X127725000Y-101137500D01*
X127726144Y-101114221D01*
X127729563Y-101091166D01*
X127735227Y-101068557D01*
X127743079Y-101046613D01*
X127753044Y-101025543D01*
X127765026Y-101005552D01*
X127778910Y-100986832D01*
X127794562Y-100969562D01*
X127811832Y-100953910D01*
X127830552Y-100940026D01*
X127850543Y-100928044D01*
X127871613Y-100918079D01*
X127893557Y-100910227D01*
X127916166Y-100904563D01*
X127939221Y-100901144D01*
X127962500Y-100900000D01*
X128437500Y-100900000D01*
X128460779Y-100901144D01*
X128460779Y-100901144D01*
G37*
D13*
X128200000Y-101425000D03*
D12*
G36*
X133160779Y-99251144D02*
G01*
X133183834Y-99254563D01*
X133206443Y-99260227D01*
X133228387Y-99268079D01*
X133249457Y-99278044D01*
X133269448Y-99290026D01*
X133288168Y-99303910D01*
X133305438Y-99319562D01*
X133321090Y-99336832D01*
X133334974Y-99355552D01*
X133346956Y-99375543D01*
X133356921Y-99396613D01*
X133364773Y-99418557D01*
X133370437Y-99441166D01*
X133373856Y-99464221D01*
X133375000Y-99487500D01*
X133375000Y-100062500D01*
X133373856Y-100085779D01*
X133370437Y-100108834D01*
X133364773Y-100131443D01*
X133356921Y-100153387D01*
X133346956Y-100174457D01*
X133334974Y-100194448D01*
X133321090Y-100213168D01*
X133305438Y-100230438D01*
X133288168Y-100246090D01*
X133269448Y-100259974D01*
X133249457Y-100271956D01*
X133228387Y-100281921D01*
X133206443Y-100289773D01*
X133183834Y-100295437D01*
X133160779Y-100298856D01*
X133137500Y-100300000D01*
X132662500Y-100300000D01*
X132639221Y-100298856D01*
X132616166Y-100295437D01*
X132593557Y-100289773D01*
X132571613Y-100281921D01*
X132550543Y-100271956D01*
X132530552Y-100259974D01*
X132511832Y-100246090D01*
X132494562Y-100230438D01*
X132478910Y-100213168D01*
X132465026Y-100194448D01*
X132453044Y-100174457D01*
X132443079Y-100153387D01*
X132435227Y-100131443D01*
X132429563Y-100108834D01*
X132426144Y-100085779D01*
X132425000Y-100062500D01*
X132425000Y-99487500D01*
X132426144Y-99464221D01*
X132429563Y-99441166D01*
X132435227Y-99418557D01*
X132443079Y-99396613D01*
X132453044Y-99375543D01*
X132465026Y-99355552D01*
X132478910Y-99336832D01*
X132494562Y-99319562D01*
X132511832Y-99303910D01*
X132530552Y-99290026D01*
X132550543Y-99278044D01*
X132571613Y-99268079D01*
X132593557Y-99260227D01*
X132616166Y-99254563D01*
X132639221Y-99251144D01*
X132662500Y-99250000D01*
X133137500Y-99250000D01*
X133160779Y-99251144D01*
X133160779Y-99251144D01*
G37*
D13*
X132900000Y-99775000D03*
D12*
G36*
X133160779Y-97501144D02*
G01*
X133183834Y-97504563D01*
X133206443Y-97510227D01*
X133228387Y-97518079D01*
X133249457Y-97528044D01*
X133269448Y-97540026D01*
X133288168Y-97553910D01*
X133305438Y-97569562D01*
X133321090Y-97586832D01*
X133334974Y-97605552D01*
X133346956Y-97625543D01*
X133356921Y-97646613D01*
X133364773Y-97668557D01*
X133370437Y-97691166D01*
X133373856Y-97714221D01*
X133375000Y-97737500D01*
X133375000Y-98312500D01*
X133373856Y-98335779D01*
X133370437Y-98358834D01*
X133364773Y-98381443D01*
X133356921Y-98403387D01*
X133346956Y-98424457D01*
X133334974Y-98444448D01*
X133321090Y-98463168D01*
X133305438Y-98480438D01*
X133288168Y-98496090D01*
X133269448Y-98509974D01*
X133249457Y-98521956D01*
X133228387Y-98531921D01*
X133206443Y-98539773D01*
X133183834Y-98545437D01*
X133160779Y-98548856D01*
X133137500Y-98550000D01*
X132662500Y-98550000D01*
X132639221Y-98548856D01*
X132616166Y-98545437D01*
X132593557Y-98539773D01*
X132571613Y-98531921D01*
X132550543Y-98521956D01*
X132530552Y-98509974D01*
X132511832Y-98496090D01*
X132494562Y-98480438D01*
X132478910Y-98463168D01*
X132465026Y-98444448D01*
X132453044Y-98424457D01*
X132443079Y-98403387D01*
X132435227Y-98381443D01*
X132429563Y-98358834D01*
X132426144Y-98335779D01*
X132425000Y-98312500D01*
X132425000Y-97737500D01*
X132426144Y-97714221D01*
X132429563Y-97691166D01*
X132435227Y-97668557D01*
X132443079Y-97646613D01*
X132453044Y-97625543D01*
X132465026Y-97605552D01*
X132478910Y-97586832D01*
X132494562Y-97569562D01*
X132511832Y-97553910D01*
X132530552Y-97540026D01*
X132550543Y-97528044D01*
X132571613Y-97518079D01*
X132593557Y-97510227D01*
X132616166Y-97504563D01*
X132639221Y-97501144D01*
X132662500Y-97500000D01*
X133137500Y-97500000D01*
X133160779Y-97501144D01*
X133160779Y-97501144D01*
G37*
D13*
X132900000Y-98025000D03*
D12*
G36*
X131560779Y-99251144D02*
G01*
X131583834Y-99254563D01*
X131606443Y-99260227D01*
X131628387Y-99268079D01*
X131649457Y-99278044D01*
X131669448Y-99290026D01*
X131688168Y-99303910D01*
X131705438Y-99319562D01*
X131721090Y-99336832D01*
X131734974Y-99355552D01*
X131746956Y-99375543D01*
X131756921Y-99396613D01*
X131764773Y-99418557D01*
X131770437Y-99441166D01*
X131773856Y-99464221D01*
X131775000Y-99487500D01*
X131775000Y-100062500D01*
X131773856Y-100085779D01*
X131770437Y-100108834D01*
X131764773Y-100131443D01*
X131756921Y-100153387D01*
X131746956Y-100174457D01*
X131734974Y-100194448D01*
X131721090Y-100213168D01*
X131705438Y-100230438D01*
X131688168Y-100246090D01*
X131669448Y-100259974D01*
X131649457Y-100271956D01*
X131628387Y-100281921D01*
X131606443Y-100289773D01*
X131583834Y-100295437D01*
X131560779Y-100298856D01*
X131537500Y-100300000D01*
X131062500Y-100300000D01*
X131039221Y-100298856D01*
X131016166Y-100295437D01*
X130993557Y-100289773D01*
X130971613Y-100281921D01*
X130950543Y-100271956D01*
X130930552Y-100259974D01*
X130911832Y-100246090D01*
X130894562Y-100230438D01*
X130878910Y-100213168D01*
X130865026Y-100194448D01*
X130853044Y-100174457D01*
X130843079Y-100153387D01*
X130835227Y-100131443D01*
X130829563Y-100108834D01*
X130826144Y-100085779D01*
X130825000Y-100062500D01*
X130825000Y-99487500D01*
X130826144Y-99464221D01*
X130829563Y-99441166D01*
X130835227Y-99418557D01*
X130843079Y-99396613D01*
X130853044Y-99375543D01*
X130865026Y-99355552D01*
X130878910Y-99336832D01*
X130894562Y-99319562D01*
X130911832Y-99303910D01*
X130930552Y-99290026D01*
X130950543Y-99278044D01*
X130971613Y-99268079D01*
X130993557Y-99260227D01*
X131016166Y-99254563D01*
X131039221Y-99251144D01*
X131062500Y-99250000D01*
X131537500Y-99250000D01*
X131560779Y-99251144D01*
X131560779Y-99251144D01*
G37*
D13*
X131300000Y-99775000D03*
D12*
G36*
X131560779Y-97501144D02*
G01*
X131583834Y-97504563D01*
X131606443Y-97510227D01*
X131628387Y-97518079D01*
X131649457Y-97528044D01*
X131669448Y-97540026D01*
X131688168Y-97553910D01*
X131705438Y-97569562D01*
X131721090Y-97586832D01*
X131734974Y-97605552D01*
X131746956Y-97625543D01*
X131756921Y-97646613D01*
X131764773Y-97668557D01*
X131770437Y-97691166D01*
X131773856Y-97714221D01*
X131775000Y-97737500D01*
X131775000Y-98312500D01*
X131773856Y-98335779D01*
X131770437Y-98358834D01*
X131764773Y-98381443D01*
X131756921Y-98403387D01*
X131746956Y-98424457D01*
X131734974Y-98444448D01*
X131721090Y-98463168D01*
X131705438Y-98480438D01*
X131688168Y-98496090D01*
X131669448Y-98509974D01*
X131649457Y-98521956D01*
X131628387Y-98531921D01*
X131606443Y-98539773D01*
X131583834Y-98545437D01*
X131560779Y-98548856D01*
X131537500Y-98550000D01*
X131062500Y-98550000D01*
X131039221Y-98548856D01*
X131016166Y-98545437D01*
X130993557Y-98539773D01*
X130971613Y-98531921D01*
X130950543Y-98521956D01*
X130930552Y-98509974D01*
X130911832Y-98496090D01*
X130894562Y-98480438D01*
X130878910Y-98463168D01*
X130865026Y-98444448D01*
X130853044Y-98424457D01*
X130843079Y-98403387D01*
X130835227Y-98381443D01*
X130829563Y-98358834D01*
X130826144Y-98335779D01*
X130825000Y-98312500D01*
X130825000Y-97737500D01*
X130826144Y-97714221D01*
X130829563Y-97691166D01*
X130835227Y-97668557D01*
X130843079Y-97646613D01*
X130853044Y-97625543D01*
X130865026Y-97605552D01*
X130878910Y-97586832D01*
X130894562Y-97569562D01*
X130911832Y-97553910D01*
X130930552Y-97540026D01*
X130950543Y-97528044D01*
X130971613Y-97518079D01*
X130993557Y-97510227D01*
X131016166Y-97504563D01*
X131039221Y-97501144D01*
X131062500Y-97500000D01*
X131537500Y-97500000D01*
X131560779Y-97501144D01*
X131560779Y-97501144D01*
G37*
D13*
X131300000Y-98025000D03*
D12*
G36*
X134760779Y-97501144D02*
G01*
X134783834Y-97504563D01*
X134806443Y-97510227D01*
X134828387Y-97518079D01*
X134849457Y-97528044D01*
X134869448Y-97540026D01*
X134888168Y-97553910D01*
X134905438Y-97569562D01*
X134921090Y-97586832D01*
X134934974Y-97605552D01*
X134946956Y-97625543D01*
X134956921Y-97646613D01*
X134964773Y-97668557D01*
X134970437Y-97691166D01*
X134973856Y-97714221D01*
X134975000Y-97737500D01*
X134975000Y-98312500D01*
X134973856Y-98335779D01*
X134970437Y-98358834D01*
X134964773Y-98381443D01*
X134956921Y-98403387D01*
X134946956Y-98424457D01*
X134934974Y-98444448D01*
X134921090Y-98463168D01*
X134905438Y-98480438D01*
X134888168Y-98496090D01*
X134869448Y-98509974D01*
X134849457Y-98521956D01*
X134828387Y-98531921D01*
X134806443Y-98539773D01*
X134783834Y-98545437D01*
X134760779Y-98548856D01*
X134737500Y-98550000D01*
X134262500Y-98550000D01*
X134239221Y-98548856D01*
X134216166Y-98545437D01*
X134193557Y-98539773D01*
X134171613Y-98531921D01*
X134150543Y-98521956D01*
X134130552Y-98509974D01*
X134111832Y-98496090D01*
X134094562Y-98480438D01*
X134078910Y-98463168D01*
X134065026Y-98444448D01*
X134053044Y-98424457D01*
X134043079Y-98403387D01*
X134035227Y-98381443D01*
X134029563Y-98358834D01*
X134026144Y-98335779D01*
X134025000Y-98312500D01*
X134025000Y-97737500D01*
X134026144Y-97714221D01*
X134029563Y-97691166D01*
X134035227Y-97668557D01*
X134043079Y-97646613D01*
X134053044Y-97625543D01*
X134065026Y-97605552D01*
X134078910Y-97586832D01*
X134094562Y-97569562D01*
X134111832Y-97553910D01*
X134130552Y-97540026D01*
X134150543Y-97528044D01*
X134171613Y-97518079D01*
X134193557Y-97510227D01*
X134216166Y-97504563D01*
X134239221Y-97501144D01*
X134262500Y-97500000D01*
X134737500Y-97500000D01*
X134760779Y-97501144D01*
X134760779Y-97501144D01*
G37*
D13*
X134500000Y-98025000D03*
D12*
G36*
X134760779Y-99251144D02*
G01*
X134783834Y-99254563D01*
X134806443Y-99260227D01*
X134828387Y-99268079D01*
X134849457Y-99278044D01*
X134869448Y-99290026D01*
X134888168Y-99303910D01*
X134905438Y-99319562D01*
X134921090Y-99336832D01*
X134934974Y-99355552D01*
X134946956Y-99375543D01*
X134956921Y-99396613D01*
X134964773Y-99418557D01*
X134970437Y-99441166D01*
X134973856Y-99464221D01*
X134975000Y-99487500D01*
X134975000Y-100062500D01*
X134973856Y-100085779D01*
X134970437Y-100108834D01*
X134964773Y-100131443D01*
X134956921Y-100153387D01*
X134946956Y-100174457D01*
X134934974Y-100194448D01*
X134921090Y-100213168D01*
X134905438Y-100230438D01*
X134888168Y-100246090D01*
X134869448Y-100259974D01*
X134849457Y-100271956D01*
X134828387Y-100281921D01*
X134806443Y-100289773D01*
X134783834Y-100295437D01*
X134760779Y-100298856D01*
X134737500Y-100300000D01*
X134262500Y-100300000D01*
X134239221Y-100298856D01*
X134216166Y-100295437D01*
X134193557Y-100289773D01*
X134171613Y-100281921D01*
X134150543Y-100271956D01*
X134130552Y-100259974D01*
X134111832Y-100246090D01*
X134094562Y-100230438D01*
X134078910Y-100213168D01*
X134065026Y-100194448D01*
X134053044Y-100174457D01*
X134043079Y-100153387D01*
X134035227Y-100131443D01*
X134029563Y-100108834D01*
X134026144Y-100085779D01*
X134025000Y-100062500D01*
X134025000Y-99487500D01*
X134026144Y-99464221D01*
X134029563Y-99441166D01*
X134035227Y-99418557D01*
X134043079Y-99396613D01*
X134053044Y-99375543D01*
X134065026Y-99355552D01*
X134078910Y-99336832D01*
X134094562Y-99319562D01*
X134111832Y-99303910D01*
X134130552Y-99290026D01*
X134150543Y-99278044D01*
X134171613Y-99268079D01*
X134193557Y-99260227D01*
X134216166Y-99254563D01*
X134239221Y-99251144D01*
X134262500Y-99250000D01*
X134737500Y-99250000D01*
X134760779Y-99251144D01*
X134760779Y-99251144D01*
G37*
D13*
X134500000Y-99775000D03*
D14*
X148850000Y-95000000D03*
D15*
X120250000Y-104000000D03*
X120250000Y-103500000D03*
X120250000Y-103000000D03*
X120250000Y-102500000D03*
X120250000Y-102000000D03*
X120250000Y-99500000D03*
X120250000Y-99000000D03*
X120250000Y-96500000D03*
X120250000Y-96000000D03*
X120250000Y-95500000D03*
X120250000Y-95000000D03*
X120250000Y-94500000D03*
X120250000Y-94000000D03*
X120250000Y-93500000D03*
X120250000Y-93000000D03*
X120250000Y-92500000D03*
X120250000Y-92000000D03*
X120250000Y-91500000D03*
X120250000Y-91000000D03*
X120250000Y-90500000D03*
X120250000Y-90000000D03*
X120250000Y-89500000D03*
X120250000Y-89000000D03*
X120250000Y-88500000D03*
X120250000Y-88000000D03*
X120250000Y-87500000D03*
X120250000Y-87000000D03*
X120250000Y-86500000D03*
X120250000Y-86000000D03*
X120250000Y-100500000D03*
X120250000Y-101500000D03*
X120250000Y-101000000D03*
X120250000Y-100000000D03*
D11*
X134400000Y-88840000D03*
D10*
X134400000Y-86300000D03*
D16*
X133650000Y-103450000D03*
X133650000Y-102500000D03*
X133650000Y-101550000D03*
X136350000Y-101550000D03*
X136350000Y-103450000D03*
D17*
X125000000Y-102500000D03*
D18*
X126000000Y-101850000D03*
X125000000Y-101200000D03*
X126000000Y-100550000D03*
X125000000Y-99900000D03*
D19*
X125220000Y-104775000D03*
X125220000Y-97625000D03*
D20*
X122300000Y-86200000D03*
X138900000Y-99000000D03*
X131300000Y-96800000D03*
X127200000Y-105400000D03*
X137724990Y-103289853D03*
X144400000Y-91100000D03*
X147100000Y-105200000D03*
X139900000Y-104200000D03*
X142400000Y-101300000D03*
X125300000Y-92000000D03*
X130400000Y-104875000D03*
X143200000Y-89600000D03*
X123000000Y-103000016D03*
X122000000Y-93900000D03*
X131300000Y-102250000D03*
X138800000Y-102000000D03*
X123400000Y-101900000D03*
X138900000Y-97800000D03*
X123799996Y-100900000D03*
X135600000Y-90100000D03*
X142400000Y-98700000D03*
X141400000Y-96000000D03*
X132600000Y-87600000D03*
X135400000Y-93300000D03*
X126696500Y-104594400D03*
X126674979Y-99825000D03*
X131100000Y-93774980D03*
X132500000Y-93700000D03*
X123900000Y-93900016D03*
X125300000Y-93900000D03*
X123700000Y-90900000D03*
X122700004Y-91900000D03*
X141600000Y-93975000D03*
X142800000Y-94000000D03*
X130500008Y-93000000D03*
X130500000Y-91999998D03*
D21*
X128200000Y-101425000D02*
X129800000Y-101425000D01*
X129800000Y-101425000D02*
X129800000Y-98600000D01*
X130375000Y-98025000D02*
X131300000Y-98025000D01*
X129800000Y-98600000D02*
X130375000Y-98025000D01*
X131300000Y-98025000D02*
X132900000Y-98025000D01*
X132900000Y-98025000D02*
X134500000Y-98025000D01*
X120250000Y-86500000D02*
X122000000Y-86500000D01*
X122000000Y-86500000D02*
X122300000Y-86200000D01*
X120250000Y-86000000D02*
X122100000Y-86000000D01*
X122100000Y-86000000D02*
X122300000Y-86200000D01*
X131300000Y-98025000D02*
X131300000Y-96800000D01*
X120250000Y-103500000D02*
X121800000Y-103500000D01*
X121800000Y-103500000D02*
X122300000Y-104000000D01*
X127000000Y-105600000D02*
X127200000Y-105400000D01*
X122300000Y-104000000D02*
X123900000Y-105600000D01*
X123900000Y-105600000D02*
X127000000Y-105600000D01*
X122300000Y-104000000D02*
X120250000Y-104000000D01*
X136350000Y-103450000D02*
X137564843Y-103450000D01*
X137564843Y-103450000D02*
X137724990Y-103289853D01*
X129800000Y-103175000D02*
X128200000Y-103175000D01*
X134500000Y-99775000D02*
X131300000Y-99775000D01*
X132900000Y-100800000D02*
X133650000Y-101550000D01*
X132900000Y-99775000D02*
X132900000Y-100800000D01*
X134105000Y-101550000D02*
X133650000Y-101550000D01*
X134680000Y-100880000D02*
X134680000Y-100975000D01*
X134680000Y-100975000D02*
X134105000Y-101550000D01*
X134500000Y-100700000D02*
X134680000Y-100880000D01*
X134500000Y-99775000D02*
X134500000Y-100700000D01*
X132620000Y-101550000D02*
X133650000Y-101550000D01*
X132450000Y-101550000D02*
X132620000Y-101550000D01*
X131300000Y-100400000D02*
X132450000Y-101550000D01*
X131300000Y-99775000D02*
X131300000Y-100400000D01*
X124309302Y-97625000D02*
X125220000Y-97625000D01*
X121934302Y-100000000D02*
X124309302Y-97625000D01*
X120250000Y-100000000D02*
X121934302Y-100000000D01*
X130375000Y-103175000D02*
X131300000Y-102250000D01*
X131300000Y-102250000D02*
X131300000Y-100400000D01*
X129800000Y-103175000D02*
X130375000Y-103175000D01*
X124250011Y-103650011D02*
X123675001Y-103075001D01*
X123675001Y-103075001D02*
X123675001Y-102175001D01*
X126706813Y-103650011D02*
X124250011Y-103650011D01*
X123675001Y-102175001D02*
X123400000Y-101900000D01*
X128656802Y-105600000D02*
X126706813Y-103650011D01*
X138800000Y-103800000D02*
X137000000Y-105600000D01*
X137000000Y-105600000D02*
X128656802Y-105600000D01*
X138800000Y-102000000D02*
X138800000Y-103800000D01*
X138900000Y-97800000D02*
X138100000Y-98600000D01*
X124100000Y-101200004D02*
X123799996Y-100900000D01*
X138100000Y-98600000D02*
X138100000Y-101900000D01*
X138100000Y-102400000D02*
X138399990Y-102699990D01*
X138100000Y-101900000D02*
X138100000Y-102400000D01*
X137834302Y-104200000D02*
X127822502Y-104200000D01*
X138399990Y-103634312D02*
X137834302Y-104200000D01*
X124100000Y-102917150D02*
X124100000Y-101200004D01*
X127822502Y-104200000D02*
X126872502Y-103250000D01*
X138399990Y-102699990D02*
X138399990Y-103634312D01*
X126872502Y-103250000D02*
X124432850Y-103250000D01*
X138100000Y-101900000D02*
X138100000Y-102200000D01*
X124432850Y-103250000D02*
X124100000Y-102917150D01*
X138000000Y-94300000D02*
X142400000Y-98700000D01*
X135600000Y-90100000D02*
X138000000Y-92500000D01*
X138000000Y-92500000D02*
X138000000Y-94300000D01*
X139500000Y-94100000D02*
X139500000Y-90900000D01*
X141400000Y-96000000D02*
X139500000Y-94100000D01*
X139500000Y-90900000D02*
X136200000Y-87600000D01*
X136200000Y-87600000D02*
X132600000Y-87600000D01*
X126152122Y-104050022D02*
X126696500Y-104594400D01*
X123050022Y-104050022D02*
X126152122Y-104050022D01*
X121500000Y-102500000D02*
X123050022Y-104050022D01*
X120250000Y-102500000D02*
X121500000Y-102500000D01*
X130599979Y-95900000D02*
X127074978Y-99425001D01*
X127074978Y-99425001D02*
X126674979Y-99825000D01*
X135400000Y-93300000D02*
X132800000Y-95900000D01*
X132800000Y-95900000D02*
X130599979Y-95900000D01*
X130700001Y-94174979D02*
X131100000Y-93774980D01*
X126750000Y-99150000D02*
X130700001Y-95199999D01*
X124481400Y-99150000D02*
X126750000Y-99150000D01*
X121631400Y-102000000D02*
X124481400Y-99150000D01*
X130700001Y-95199999D02*
X130700001Y-94174979D01*
X120250000Y-102000000D02*
X121631400Y-102000000D01*
X132500000Y-93134315D02*
X132500000Y-93700000D01*
X121765700Y-99500000D02*
X123200000Y-98065700D01*
X120250000Y-99500000D02*
X121765700Y-99500000D01*
X123200000Y-98065700D02*
X123200000Y-97023637D01*
X132500000Y-93034327D02*
X132500000Y-93134315D01*
X130790670Y-91324997D02*
X132500000Y-93034327D01*
X128898640Y-91324997D02*
X130790670Y-91324997D01*
X123200000Y-97023637D02*
X128898640Y-91324997D01*
X129000000Y-87300000D02*
X130000000Y-86300000D01*
X126300000Y-87500000D02*
X128800000Y-87500000D01*
X128800000Y-87500000D02*
X129000000Y-87300000D01*
X124600000Y-89200000D02*
X126300000Y-87500000D01*
X120250000Y-99000000D02*
X121700000Y-99000000D01*
X122800000Y-97900000D02*
X122800000Y-96857937D01*
X121700000Y-99000000D02*
X122800000Y-97900000D01*
X122800000Y-96857937D02*
X124600000Y-95057937D01*
X124600000Y-95057937D02*
X124600000Y-89200000D01*
X134300002Y-102500000D02*
X135000000Y-101800002D01*
X136300000Y-93050498D02*
X132549502Y-89300000D01*
X133650000Y-102500000D02*
X134300002Y-102500000D01*
X135000000Y-101800002D02*
X135000000Y-101300000D01*
X132549502Y-89300000D02*
X127460000Y-89300000D01*
X135000000Y-101300000D02*
X136300000Y-100000000D01*
X136300000Y-100000000D02*
X136300000Y-93050498D01*
X120250000Y-96500000D02*
X121865701Y-96500000D01*
X125699999Y-93500001D02*
X125300000Y-93900000D01*
X127460000Y-91740000D02*
X125699999Y-93500001D01*
X127460000Y-89300000D02*
X127460000Y-91740000D01*
X123900000Y-94465701D02*
X123900000Y-93900016D01*
X121865701Y-96500000D02*
X123900000Y-94465701D01*
X123224999Y-94375001D02*
X123224999Y-93075999D01*
X121600000Y-96000000D02*
X123224999Y-94375001D01*
X120250000Y-96000000D02*
X121600000Y-96000000D01*
X123700000Y-92600998D02*
X123700000Y-91465685D01*
X123224999Y-93075999D02*
X123700000Y-92600998D01*
X123700000Y-91465685D02*
X123700000Y-90900000D01*
X121480410Y-95500000D02*
X122700004Y-94280406D01*
X122700004Y-94280406D02*
X122700004Y-92199996D01*
X120250000Y-95500000D02*
X121480410Y-95500000D01*
X122700004Y-92199996D02*
X122700004Y-91900000D01*
X122000000Y-91000000D02*
X123500000Y-89500000D01*
X141600000Y-91004998D02*
X141600000Y-93975000D01*
X120250000Y-91000000D02*
X122000000Y-91000000D01*
X123500000Y-85800000D02*
X124600000Y-84700000D01*
X135295002Y-84700000D02*
X141600000Y-91004998D01*
X124600000Y-84700000D02*
X135295002Y-84700000D01*
X123500000Y-89500000D02*
X123500000Y-85800000D01*
X121600000Y-90500000D02*
X120250000Y-90500000D01*
X123000000Y-85400000D02*
X123000000Y-89100000D01*
X142800000Y-94000000D02*
X142800000Y-91639300D01*
X123000000Y-89100000D02*
X121600000Y-90500000D01*
X135460700Y-84300000D02*
X124100000Y-84300000D01*
X142800000Y-91639300D02*
X135460700Y-84300000D01*
X124100000Y-84300000D02*
X123000000Y-85400000D01*
X120250000Y-101500000D02*
X121565700Y-101500000D01*
X121565700Y-101500000D02*
X124315711Y-98749989D01*
X126584311Y-98749989D02*
X130100009Y-95234291D01*
X124315711Y-98749989D02*
X126584311Y-98749989D01*
X130100009Y-95234291D02*
X130100009Y-93399999D01*
X130100009Y-93399999D02*
X130500008Y-93000000D01*
X121500000Y-101000000D02*
X124150022Y-98349978D01*
X129699998Y-95068602D02*
X129699999Y-92799999D01*
X130100001Y-92399997D02*
X130500000Y-91999998D01*
X120250000Y-101000000D02*
X121500000Y-101000000D01*
X126418622Y-98349978D02*
X129699998Y-95068602D01*
X124150022Y-98349978D02*
X126418622Y-98349978D01*
X129699999Y-92799999D02*
X130100001Y-92399997D01*
X137200000Y-93300000D02*
X137200000Y-101100000D01*
X128660000Y-85100000D02*
X130995002Y-85100000D01*
X127460000Y-86300000D02*
X128660000Y-85100000D01*
X136750000Y-101550000D02*
X136350000Y-101550000D01*
X131900000Y-86004998D02*
X131900000Y-88000000D01*
X130995002Y-85100000D02*
X131900000Y-86004998D01*
X137200000Y-101100000D02*
X136750000Y-101550000D01*
X131900000Y-88000000D02*
X137200000Y-93300000D01*
D22*
G36*
X148190000Y-105340000D02*
G01*
X138334802Y-105340000D01*
X139311008Y-104363795D01*
X139340001Y-104340001D01*
X139363795Y-104311008D01*
X139363799Y-104311004D01*
X139434973Y-104224277D01*
X139440568Y-104213810D01*
X139505546Y-104092247D01*
X139549003Y-103948986D01*
X139560000Y-103837333D01*
X139560000Y-103837324D01*
X139563676Y-103800001D01*
X139560000Y-103762678D01*
X139560000Y-102703711D01*
X139603937Y-102659774D01*
X139717205Y-102490256D01*
X139795226Y-102301898D01*
X139835000Y-102101939D01*
X139835000Y-101898061D01*
X139795226Y-101698102D01*
X139717205Y-101509744D01*
X139603937Y-101340226D01*
X139459774Y-101196063D01*
X139290256Y-101082795D01*
X139101898Y-101004774D01*
X138901939Y-100965000D01*
X138860000Y-100965000D01*
X138860000Y-100035000D01*
X139001939Y-100035000D01*
X139201898Y-99995226D01*
X139390256Y-99917205D01*
X139559774Y-99803937D01*
X139703937Y-99659774D01*
X139817205Y-99490256D01*
X139895226Y-99301898D01*
X139935000Y-99101939D01*
X139935000Y-98898061D01*
X139895226Y-98698102D01*
X139817205Y-98509744D01*
X139743877Y-98400000D01*
X139817205Y-98290256D01*
X139895226Y-98101898D01*
X139935000Y-97901939D01*
X139935000Y-97698061D01*
X139895226Y-97498102D01*
X139817205Y-97309744D01*
X139703937Y-97140226D01*
X139559774Y-96996063D01*
X139390256Y-96882795D01*
X139201898Y-96804774D01*
X139001939Y-96765000D01*
X138798061Y-96765000D01*
X138598102Y-96804774D01*
X138409744Y-96882795D01*
X138240226Y-96996063D01*
X138096063Y-97140226D01*
X137982795Y-97309744D01*
X137960000Y-97364776D01*
X137960000Y-95334801D01*
X141365000Y-98739802D01*
X141365000Y-98801939D01*
X141404774Y-99001898D01*
X141482795Y-99190256D01*
X141596063Y-99359774D01*
X141740226Y-99503937D01*
X141909744Y-99617205D01*
X142098102Y-99695226D01*
X142298061Y-99735000D01*
X142501939Y-99735000D01*
X142701898Y-99695226D01*
X142890256Y-99617205D01*
X143059774Y-99503937D01*
X143203937Y-99359774D01*
X143317205Y-99190256D01*
X143395226Y-99001898D01*
X143435000Y-98801939D01*
X143435000Y-98598061D01*
X143395226Y-98398102D01*
X143317205Y-98209744D01*
X143203937Y-98040226D01*
X143059774Y-97896063D01*
X142890256Y-97782795D01*
X142701898Y-97704774D01*
X142501939Y-97665000D01*
X142439802Y-97665000D01*
X141750073Y-96975271D01*
X141890256Y-96917205D01*
X142059774Y-96803937D01*
X142203937Y-96659774D01*
X142317205Y-96490256D01*
X142395226Y-96301898D01*
X142435000Y-96101939D01*
X142435000Y-95898061D01*
X142395226Y-95698102D01*
X142317205Y-95509744D01*
X142203937Y-95340226D01*
X142059774Y-95196063D01*
X141890256Y-95082795D01*
X141710435Y-95008310D01*
X141901898Y-94970226D01*
X142090256Y-94892205D01*
X142181292Y-94831377D01*
X142309744Y-94917205D01*
X142498102Y-94995226D01*
X142698061Y-95035000D01*
X142901939Y-95035000D01*
X143101898Y-94995226D01*
X143290256Y-94917205D01*
X143459774Y-94803937D01*
X143603937Y-94659774D01*
X143717205Y-94490256D01*
X143795226Y-94301898D01*
X143835000Y-94101939D01*
X143835000Y-93898061D01*
X143795226Y-93698102D01*
X143717205Y-93509744D01*
X143603937Y-93340226D01*
X143560000Y-93296289D01*
X143560000Y-91676633D01*
X143563677Y-91639300D01*
X143549003Y-91490314D01*
X143505546Y-91347053D01*
X143434974Y-91215024D01*
X143363799Y-91128297D01*
X143340001Y-91099299D01*
X143311003Y-91075501D01*
X136895501Y-84660000D01*
X148190001Y-84660000D01*
X148190000Y-105340000D01*
X148190000Y-105340000D01*
G37*
X148190000Y-105340000D02*
X138334802Y-105340000D01*
X139311008Y-104363795D01*
X139340001Y-104340001D01*
X139363795Y-104311008D01*
X139363799Y-104311004D01*
X139434973Y-104224277D01*
X139440568Y-104213810D01*
X139505546Y-104092247D01*
X139549003Y-103948986D01*
X139560000Y-103837333D01*
X139560000Y-103837324D01*
X139563676Y-103800001D01*
X139560000Y-103762678D01*
X139560000Y-102703711D01*
X139603937Y-102659774D01*
X139717205Y-102490256D01*
X139795226Y-102301898D01*
X139835000Y-102101939D01*
X139835000Y-101898061D01*
X139795226Y-101698102D01*
X139717205Y-101509744D01*
X139603937Y-101340226D01*
X139459774Y-101196063D01*
X139290256Y-101082795D01*
X139101898Y-101004774D01*
X138901939Y-100965000D01*
X138860000Y-100965000D01*
X138860000Y-100035000D01*
X139001939Y-100035000D01*
X139201898Y-99995226D01*
X139390256Y-99917205D01*
X139559774Y-99803937D01*
X139703937Y-99659774D01*
X139817205Y-99490256D01*
X139895226Y-99301898D01*
X139935000Y-99101939D01*
X139935000Y-98898061D01*
X139895226Y-98698102D01*
X139817205Y-98509744D01*
X139743877Y-98400000D01*
X139817205Y-98290256D01*
X139895226Y-98101898D01*
X139935000Y-97901939D01*
X139935000Y-97698061D01*
X139895226Y-97498102D01*
X139817205Y-97309744D01*
X139703937Y-97140226D01*
X139559774Y-96996063D01*
X139390256Y-96882795D01*
X139201898Y-96804774D01*
X139001939Y-96765000D01*
X138798061Y-96765000D01*
X138598102Y-96804774D01*
X138409744Y-96882795D01*
X138240226Y-96996063D01*
X138096063Y-97140226D01*
X137982795Y-97309744D01*
X137960000Y-97364776D01*
X137960000Y-95334801D01*
X141365000Y-98739802D01*
X141365000Y-98801939D01*
X141404774Y-99001898D01*
X141482795Y-99190256D01*
X141596063Y-99359774D01*
X141740226Y-99503937D01*
X141909744Y-99617205D01*
X142098102Y-99695226D01*
X142298061Y-99735000D01*
X142501939Y-99735000D01*
X142701898Y-99695226D01*
X142890256Y-99617205D01*
X143059774Y-99503937D01*
X143203937Y-99359774D01*
X143317205Y-99190256D01*
X143395226Y-99001898D01*
X143435000Y-98801939D01*
X143435000Y-98598061D01*
X143395226Y-98398102D01*
X143317205Y-98209744D01*
X143203937Y-98040226D01*
X143059774Y-97896063D01*
X142890256Y-97782795D01*
X142701898Y-97704774D01*
X142501939Y-97665000D01*
X142439802Y-97665000D01*
X141750073Y-96975271D01*
X141890256Y-96917205D01*
X142059774Y-96803937D01*
X142203937Y-96659774D01*
X142317205Y-96490256D01*
X142395226Y-96301898D01*
X142435000Y-96101939D01*
X142435000Y-95898061D01*
X142395226Y-95698102D01*
X142317205Y-95509744D01*
X142203937Y-95340226D01*
X142059774Y-95196063D01*
X141890256Y-95082795D01*
X141710435Y-95008310D01*
X141901898Y-94970226D01*
X142090256Y-94892205D01*
X142181292Y-94831377D01*
X142309744Y-94917205D01*
X142498102Y-94995226D01*
X142698061Y-95035000D01*
X142901939Y-95035000D01*
X143101898Y-94995226D01*
X143290256Y-94917205D01*
X143459774Y-94803937D01*
X143603937Y-94659774D01*
X143717205Y-94490256D01*
X143795226Y-94301898D01*
X143835000Y-94101939D01*
X143835000Y-93898061D01*
X143795226Y-93698102D01*
X143717205Y-93509744D01*
X143603937Y-93340226D01*
X143560000Y-93296289D01*
X143560000Y-91676633D01*
X143563677Y-91639300D01*
X143549003Y-91490314D01*
X143505546Y-91347053D01*
X143434974Y-91215024D01*
X143363799Y-91128297D01*
X143340001Y-91099299D01*
X143311003Y-91075501D01*
X136895501Y-84660000D01*
X148190001Y-84660000D01*
X148190000Y-105340000D01*
G36*
X125367000Y-104840000D02*
G01*
X125073000Y-104840000D01*
X125073000Y-104810022D01*
X125367000Y-104810022D01*
X125367000Y-104840000D01*
X125367000Y-104840000D01*
G37*
X125367000Y-104840000D02*
X125073000Y-104840000D01*
X125073000Y-104810022D01*
X125367000Y-104810022D01*
X125367000Y-104840000D01*
G36*
X131427000Y-99648000D02*
G01*
X132773000Y-99648000D01*
X132773000Y-99628000D01*
X133027000Y-99628000D01*
X133027000Y-99648000D01*
X134373000Y-99648000D01*
X134373000Y-99628000D01*
X134627000Y-99628000D01*
X134627000Y-99648000D01*
X134647000Y-99648000D01*
X134647000Y-99902000D01*
X134627000Y-99902000D01*
X134627000Y-99922000D01*
X134373000Y-99922000D01*
X134373000Y-99902000D01*
X133027000Y-99902000D01*
X133027000Y-99922000D01*
X132773000Y-99922000D01*
X132773000Y-99902000D01*
X131427000Y-99902000D01*
X131427000Y-100776250D01*
X131585750Y-100935000D01*
X131775000Y-100938072D01*
X131899482Y-100925812D01*
X132019180Y-100889502D01*
X132100000Y-100846302D01*
X132180820Y-100889502D01*
X132300518Y-100925812D01*
X132309432Y-100926690D01*
X132280498Y-100980820D01*
X132244188Y-101100518D01*
X132231928Y-101225000D01*
X132235000Y-101264250D01*
X132393750Y-101423000D01*
X133523000Y-101423000D01*
X133523000Y-101403000D01*
X133777000Y-101403000D01*
X133777000Y-101423000D01*
X133797000Y-101423000D01*
X133797000Y-101536928D01*
X132870000Y-101536928D01*
X132745518Y-101549188D01*
X132625820Y-101585498D01*
X132515506Y-101644463D01*
X132475859Y-101677000D01*
X132393750Y-101677000D01*
X132235000Y-101835750D01*
X132231928Y-101875000D01*
X132244188Y-101999482D01*
X132251929Y-102025000D01*
X132244188Y-102050518D01*
X132231928Y-102175000D01*
X132231928Y-102825000D01*
X132244188Y-102949482D01*
X132251929Y-102975000D01*
X132244188Y-103000518D01*
X132231928Y-103125000D01*
X132231928Y-103440000D01*
X130889250Y-103440000D01*
X130751250Y-103302000D01*
X129927000Y-103302000D01*
X129927000Y-103322000D01*
X129673000Y-103322000D01*
X129673000Y-103302000D01*
X128327000Y-103302000D01*
X128327000Y-103322000D01*
X128073000Y-103322000D01*
X128073000Y-103302000D01*
X128053000Y-103302000D01*
X128053000Y-103048000D01*
X128073000Y-103048000D01*
X128073000Y-103028000D01*
X128327000Y-103028000D01*
X128327000Y-103048000D01*
X129673000Y-103048000D01*
X129673000Y-103028000D01*
X129927000Y-103028000D01*
X129927000Y-103048000D01*
X130751250Y-103048000D01*
X130910000Y-102889250D01*
X130913072Y-102650000D01*
X130900812Y-102525518D01*
X130864502Y-102405820D01*
X130805537Y-102295506D01*
X130745901Y-102222839D01*
X130765512Y-102198942D01*
X130846423Y-102047567D01*
X130896248Y-101883316D01*
X130913072Y-101712500D01*
X130913072Y-101137500D01*
X130896248Y-100966684D01*
X130887262Y-100937061D01*
X131014250Y-100935000D01*
X131173000Y-100776250D01*
X131173000Y-99902000D01*
X131153000Y-99902000D01*
X131153000Y-99648000D01*
X131173000Y-99648000D01*
X131173000Y-99628000D01*
X131427000Y-99628000D01*
X131427000Y-99648000D01*
X131427000Y-99648000D01*
G37*
X131427000Y-99648000D02*
X132773000Y-99648000D01*
X132773000Y-99628000D01*
X133027000Y-99628000D01*
X133027000Y-99648000D01*
X134373000Y-99648000D01*
X134373000Y-99628000D01*
X134627000Y-99628000D01*
X134627000Y-99648000D01*
X134647000Y-99648000D01*
X134647000Y-99902000D01*
X134627000Y-99902000D01*
X134627000Y-99922000D01*
X134373000Y-99922000D01*
X134373000Y-99902000D01*
X133027000Y-99902000D01*
X133027000Y-99922000D01*
X132773000Y-99922000D01*
X132773000Y-99902000D01*
X131427000Y-99902000D01*
X131427000Y-100776250D01*
X131585750Y-100935000D01*
X131775000Y-100938072D01*
X131899482Y-100925812D01*
X132019180Y-100889502D01*
X132100000Y-100846302D01*
X132180820Y-100889502D01*
X132300518Y-100925812D01*
X132309432Y-100926690D01*
X132280498Y-100980820D01*
X132244188Y-101100518D01*
X132231928Y-101225000D01*
X132235000Y-101264250D01*
X132393750Y-101423000D01*
X133523000Y-101423000D01*
X133523000Y-101403000D01*
X133777000Y-101403000D01*
X133777000Y-101423000D01*
X133797000Y-101423000D01*
X133797000Y-101536928D01*
X132870000Y-101536928D01*
X132745518Y-101549188D01*
X132625820Y-101585498D01*
X132515506Y-101644463D01*
X132475859Y-101677000D01*
X132393750Y-101677000D01*
X132235000Y-101835750D01*
X132231928Y-101875000D01*
X132244188Y-101999482D01*
X132251929Y-102025000D01*
X132244188Y-102050518D01*
X132231928Y-102175000D01*
X132231928Y-102825000D01*
X132244188Y-102949482D01*
X132251929Y-102975000D01*
X132244188Y-103000518D01*
X132231928Y-103125000D01*
X132231928Y-103440000D01*
X130889250Y-103440000D01*
X130751250Y-103302000D01*
X129927000Y-103302000D01*
X129927000Y-103322000D01*
X129673000Y-103322000D01*
X129673000Y-103302000D01*
X128327000Y-103302000D01*
X128327000Y-103322000D01*
X128073000Y-103322000D01*
X128073000Y-103302000D01*
X128053000Y-103302000D01*
X128053000Y-103048000D01*
X128073000Y-103048000D01*
X128073000Y-103028000D01*
X128327000Y-103028000D01*
X128327000Y-103048000D01*
X129673000Y-103048000D01*
X129673000Y-103028000D01*
X129927000Y-103028000D01*
X129927000Y-103048000D01*
X130751250Y-103048000D01*
X130910000Y-102889250D01*
X130913072Y-102650000D01*
X130900812Y-102525518D01*
X130864502Y-102405820D01*
X130805537Y-102295506D01*
X130745901Y-102222839D01*
X130765512Y-102198942D01*
X130846423Y-102047567D01*
X130896248Y-101883316D01*
X130913072Y-101712500D01*
X130913072Y-101137500D01*
X130896248Y-100966684D01*
X130887262Y-100937061D01*
X131014250Y-100935000D01*
X131173000Y-100776250D01*
X131173000Y-99902000D01*
X131153000Y-99902000D01*
X131153000Y-99648000D01*
X131173000Y-99648000D01*
X131173000Y-99628000D01*
X131427000Y-99628000D01*
X131427000Y-99648000D01*
G36*
X122909744Y-102817205D02*
G01*
X122915001Y-102819383D01*
X122915001Y-102840199D01*
X122856289Y-102781488D01*
X122909744Y-102817205D01*
X122909744Y-102817205D01*
G37*
X122909744Y-102817205D02*
X122915001Y-102819383D01*
X122915001Y-102840199D01*
X122856289Y-102781488D01*
X122909744Y-102817205D01*
G36*
X125871042Y-100484774D02*
G01*
X126015205Y-100628937D01*
X126083392Y-100674498D01*
X126014143Y-100743748D01*
X126000000Y-100729605D01*
X125985858Y-100743748D01*
X125919925Y-100677815D01*
X125819472Y-100527477D01*
X125817053Y-100525058D01*
X125865552Y-100476558D01*
X125871042Y-100484774D01*
X125871042Y-100484774D01*
G37*
X125871042Y-100484774D02*
X126015205Y-100628937D01*
X126083392Y-100674498D01*
X126014143Y-100743748D01*
X126000000Y-100729605D01*
X125985858Y-100743748D01*
X125919925Y-100677815D01*
X125819472Y-100527477D01*
X125817053Y-100525058D01*
X125865552Y-100476558D01*
X125871042Y-100484774D01*
G36*
X125189141Y-99918749D02*
G01*
X125014143Y-100093748D01*
X125000000Y-100079605D01*
X124985858Y-100093748D01*
X124806253Y-99914143D01*
X124810395Y-99910000D01*
X125180392Y-99910000D01*
X125189141Y-99918749D01*
X125189141Y-99918749D01*
G37*
X125189141Y-99918749D02*
X125014143Y-100093748D01*
X125000000Y-100079605D01*
X124985858Y-100093748D01*
X124806253Y-99914143D01*
X124810395Y-99910000D01*
X125180392Y-99910000D01*
X125189141Y-99918749D01*
G36*
X129188997Y-92236200D02*
G01*
X129159999Y-92259998D01*
X129136201Y-92288996D01*
X129136200Y-92288997D01*
X129065025Y-92375723D01*
X128994453Y-92507753D01*
X128977089Y-92564997D01*
X128950997Y-92651013D01*
X128941249Y-92749983D01*
X128936323Y-92799999D01*
X128940000Y-92837331D01*
X128939998Y-94753799D01*
X126625245Y-97068554D01*
X126559336Y-96965269D01*
X126414501Y-96814199D01*
X126242977Y-96694288D01*
X126051355Y-96610144D01*
X125847000Y-96565000D01*
X125347000Y-96565000D01*
X125347000Y-97498000D01*
X125367000Y-97498000D01*
X125367000Y-97589978D01*
X125073000Y-97589978D01*
X125073000Y-97498000D01*
X125093000Y-97498000D01*
X125093000Y-96565000D01*
X124733438Y-96565000D01*
X129213442Y-92084997D01*
X129340200Y-92084997D01*
X129188997Y-92236200D01*
X129188997Y-92236200D01*
G37*
X129188997Y-92236200D02*
X129159999Y-92259998D01*
X129136201Y-92288996D01*
X129136200Y-92288997D01*
X129065025Y-92375723D01*
X128994453Y-92507753D01*
X128977089Y-92564997D01*
X128950997Y-92651013D01*
X128941249Y-92749983D01*
X128936323Y-92799999D01*
X128940000Y-92837331D01*
X128939998Y-94753799D01*
X126625245Y-97068554D01*
X126559336Y-96965269D01*
X126414501Y-96814199D01*
X126242977Y-96694288D01*
X126051355Y-96610144D01*
X125847000Y-96565000D01*
X125347000Y-96565000D01*
X125347000Y-97498000D01*
X125367000Y-97498000D01*
X125367000Y-97589978D01*
X125073000Y-97589978D01*
X125073000Y-97498000D01*
X125093000Y-97498000D01*
X125093000Y-96565000D01*
X124733438Y-96565000D01*
X129213442Y-92084997D01*
X129340200Y-92084997D01*
X129188997Y-92236200D01*
G36*
X125971928Y-90150000D02*
G01*
X125984188Y-90274482D01*
X126020498Y-90394180D01*
X126079463Y-90504494D01*
X126158815Y-90601185D01*
X126255506Y-90680537D01*
X126365820Y-90739502D01*
X126485518Y-90775812D01*
X126610000Y-90788072D01*
X126700001Y-90788072D01*
X126700001Y-91425197D01*
X125360000Y-92765199D01*
X125360000Y-89514801D01*
X125971928Y-88902873D01*
X125971928Y-90150000D01*
X125971928Y-90150000D01*
G37*
X125971928Y-90150000D02*
X125984188Y-90274482D01*
X126020498Y-90394180D01*
X126079463Y-90504494D01*
X126158815Y-90601185D01*
X126255506Y-90680537D01*
X126365820Y-90739502D01*
X126485518Y-90775812D01*
X126610000Y-90788072D01*
X126700001Y-90788072D01*
X126700001Y-91425197D01*
X125360000Y-92765199D01*
X125360000Y-89514801D01*
X125971928Y-88902873D01*
X125971928Y-90150000D01*
G36*
X138740001Y-91214803D02*
G01*
X138740001Y-92321336D01*
X138705546Y-92207753D01*
X138634974Y-92075724D01*
X138563799Y-91988997D01*
X138540001Y-91959999D01*
X138511004Y-91936202D01*
X136635000Y-90060199D01*
X136635000Y-89998061D01*
X136595226Y-89798102D01*
X136517205Y-89609744D01*
X136403937Y-89440226D01*
X136259774Y-89296063D01*
X136090256Y-89182795D01*
X135901898Y-89104774D01*
X135780075Y-89080542D01*
X135720155Y-88967000D01*
X134527000Y-88967000D01*
X134527000Y-88987000D01*
X134273000Y-88987000D01*
X134273000Y-88967000D01*
X134253000Y-88967000D01*
X134253000Y-88713000D01*
X134273000Y-88713000D01*
X134273000Y-88693000D01*
X134527000Y-88693000D01*
X134527000Y-88713000D01*
X135720155Y-88713000D01*
X135841476Y-88483110D01*
X135804135Y-88360000D01*
X135885199Y-88360000D01*
X138740001Y-91214803D01*
X138740001Y-91214803D01*
G37*
X138740001Y-91214803D02*
X138740001Y-92321336D01*
X138705546Y-92207753D01*
X138634974Y-92075724D01*
X138563799Y-91988997D01*
X138540001Y-91959999D01*
X138511004Y-91936202D01*
X136635000Y-90060199D01*
X136635000Y-89998061D01*
X136595226Y-89798102D01*
X136517205Y-89609744D01*
X136403937Y-89440226D01*
X136259774Y-89296063D01*
X136090256Y-89182795D01*
X135901898Y-89104774D01*
X135780075Y-89080542D01*
X135720155Y-88967000D01*
X134527000Y-88967000D01*
X134527000Y-88987000D01*
X134273000Y-88987000D01*
X134273000Y-88967000D01*
X134253000Y-88967000D01*
X134253000Y-88713000D01*
X134273000Y-88713000D01*
X134273000Y-88693000D01*
X134527000Y-88693000D01*
X134527000Y-88713000D01*
X135720155Y-88713000D01*
X135841476Y-88483110D01*
X135804135Y-88360000D01*
X135885199Y-88360000D01*
X138740001Y-91214803D01*
G36*
X125047000Y-86173000D02*
G01*
X125067000Y-86173000D01*
X125067000Y-86427000D01*
X125047000Y-86427000D01*
X125047000Y-87620155D01*
X125084993Y-87640205D01*
X124260000Y-88465199D01*
X124260000Y-87622568D01*
X124415901Y-87696825D01*
X124563110Y-87741476D01*
X124793000Y-87620155D01*
X124793000Y-86427000D01*
X124773000Y-86427000D01*
X124773000Y-86173000D01*
X124793000Y-86173000D01*
X124793000Y-86153000D01*
X125047000Y-86153000D01*
X125047000Y-86173000D01*
X125047000Y-86173000D01*
G37*
X125047000Y-86173000D02*
X125067000Y-86173000D01*
X125067000Y-86427000D01*
X125047000Y-86427000D01*
X125047000Y-87620155D01*
X125084993Y-87640205D01*
X124260000Y-88465199D01*
X124260000Y-87622568D01*
X124415901Y-87696825D01*
X124563110Y-87741476D01*
X124793000Y-87620155D01*
X124793000Y-86427000D01*
X124773000Y-86427000D01*
X124773000Y-86173000D01*
X124793000Y-86173000D01*
X124793000Y-86153000D01*
X125047000Y-86153000D01*
X125047000Y-86173000D01*
M02*
