G04 #@! TF.GenerationSoftware,KiCad,Pcbnew,5.1.4-3.fc30*
G04 #@! TF.CreationDate,2019-12-03T21:39:27-05:00*
G04 #@! TF.ProjectId,librem5-m2-breakout,6c696272-656d-4352-9d6d-322d62726561,rev?*
G04 #@! TF.SameCoordinates,Original*
G04 #@! TF.FileFunction,Soldermask,Top*
G04 #@! TF.FilePolarity,Negative*
%FSLAX46Y46*%
G04 Gerber Fmt 4.6, Leading zero omitted, Abs format (unit mm)*
G04 Created by KiCad (PCBNEW 5.1.4-3.fc30) date 2019-12-03 21:39:27*
%MOMM*%
%LPD*%
G04 APERTURE LIST*
%ADD10C,1.000000*%
%ADD11C,0.100000*%
G04 APERTURE END LIST*
D10*
X148850000Y-92750000D02*
G75*
G03X148850000Y-97250000I0J-2250000D01*
G01*
D11*
G36*
X140606000Y-105383500D02*
G01*
X135874000Y-105383500D01*
X135874000Y-104861500D01*
X140606000Y-104861500D01*
X140606000Y-105383500D01*
X140606000Y-105383500D01*
G37*
G36*
X125813312Y-104305887D02*
G01*
X125903039Y-104333106D01*
X125985731Y-104377306D01*
X126058211Y-104436789D01*
X126117694Y-104509269D01*
X126161894Y-104591961D01*
X126189113Y-104681688D01*
X126198303Y-104775000D01*
X126189113Y-104868312D01*
X126161894Y-104958039D01*
X126117694Y-105040731D01*
X126058211Y-105113211D01*
X125985731Y-105172694D01*
X125903039Y-105216894D01*
X125813312Y-105244113D01*
X125743384Y-105251000D01*
X124696616Y-105251000D01*
X124626688Y-105244113D01*
X124536961Y-105216894D01*
X124454269Y-105172694D01*
X124381789Y-105113211D01*
X124322306Y-105040731D01*
X124278106Y-104958039D01*
X124250887Y-104868312D01*
X124241697Y-104775000D01*
X124250887Y-104681688D01*
X124278106Y-104591961D01*
X124322306Y-104509269D01*
X124381789Y-104436789D01*
X124454269Y-104377306D01*
X124536961Y-104333106D01*
X124626688Y-104305887D01*
X124696616Y-104299000D01*
X125743384Y-104299000D01*
X125813312Y-104305887D01*
X125813312Y-104305887D01*
G37*
G36*
X120925000Y-104925000D02*
G01*
X118850000Y-104925000D01*
X118850000Y-98225000D01*
X120925000Y-98225000D01*
X120925000Y-104925000D01*
X120925000Y-104925000D01*
G37*
G36*
X143276000Y-104883500D02*
G01*
X142024000Y-104883500D01*
X142024000Y-104036500D01*
X143276000Y-104036500D01*
X143276000Y-104883500D01*
X143276000Y-104883500D01*
G37*
G36*
X147691000Y-104701000D02*
G01*
X146849000Y-104701000D01*
X146849000Y-102199000D01*
X147691000Y-102199000D01*
X147691000Y-104701000D01*
X147691000Y-104701000D01*
G37*
G36*
X146421000Y-104701000D02*
G01*
X145579000Y-104701000D01*
X145579000Y-102199000D01*
X146421000Y-102199000D01*
X146421000Y-104701000D01*
X146421000Y-104701000D01*
G37*
G36*
X145151000Y-104701000D02*
G01*
X144309000Y-104701000D01*
X144309000Y-102199000D01*
X145151000Y-102199000D01*
X145151000Y-104701000D01*
X145151000Y-104701000D01*
G37*
G36*
X128426000Y-101936501D02*
G01*
X128428402Y-101960887D01*
X128435515Y-101984336D01*
X128447066Y-102005947D01*
X128462611Y-102024889D01*
X128481553Y-102040434D01*
X128503164Y-102051985D01*
X128526000Y-102058912D01*
X128526000Y-103363500D01*
X127574000Y-103363500D01*
X127574000Y-101099000D01*
X128426000Y-101099000D01*
X128426000Y-101936501D01*
X128426000Y-101936501D01*
G37*
G36*
X140376000Y-103176000D02*
G01*
X139524000Y-103176000D01*
X139524000Y-95374000D01*
X140376000Y-95374000D01*
X140376000Y-103176000D01*
X140376000Y-103176000D01*
G37*
G36*
X126107054Y-101391067D02*
G01*
X126137386Y-101397100D01*
X126223102Y-101432605D01*
X126300245Y-101484150D01*
X126365850Y-101549755D01*
X126376604Y-101565850D01*
X126417396Y-101626900D01*
X126452900Y-101712615D01*
X126471000Y-101803609D01*
X126471000Y-101896391D01*
X126459971Y-101951836D01*
X126452900Y-101987386D01*
X126417395Y-102073102D01*
X126365850Y-102150245D01*
X126300245Y-102215850D01*
X126223102Y-102267395D01*
X126137386Y-102302900D01*
X126107054Y-102308933D01*
X126046391Y-102321000D01*
X125953609Y-102321000D01*
X125892946Y-102308933D01*
X125862614Y-102302900D01*
X125776898Y-102267395D01*
X125699755Y-102215850D01*
X125684381Y-102200476D01*
X125665445Y-102184936D01*
X125643834Y-102173385D01*
X125620385Y-102166272D01*
X125595999Y-102163870D01*
X125571613Y-102166272D01*
X125548164Y-102173385D01*
X125526553Y-102184936D01*
X125507611Y-102200481D01*
X125492066Y-102219423D01*
X125480515Y-102241034D01*
X125473402Y-102264483D01*
X125471000Y-102288869D01*
X125471000Y-102971000D01*
X124529000Y-102971000D01*
X124529000Y-102029000D01*
X125404001Y-102029000D01*
X125428387Y-102026598D01*
X125451836Y-102019485D01*
X125473447Y-102007934D01*
X125492389Y-101992389D01*
X125507934Y-101973447D01*
X125519485Y-101951836D01*
X125526598Y-101928387D01*
X125529000Y-101904001D01*
X125529000Y-101803609D01*
X125547100Y-101712615D01*
X125582604Y-101626900D01*
X125623396Y-101565850D01*
X125634150Y-101549755D01*
X125699755Y-101484150D01*
X125776898Y-101432605D01*
X125862614Y-101397100D01*
X125892946Y-101391067D01*
X125953609Y-101379000D01*
X126046391Y-101379000D01*
X126107054Y-101391067D01*
X126107054Y-101391067D01*
G37*
G36*
X141526000Y-101676000D02*
G01*
X140774000Y-101676000D01*
X140774000Y-100874000D01*
X141526000Y-100874000D01*
X141526000Y-101676000D01*
X141526000Y-101676000D01*
G37*
G36*
X125107054Y-100741067D02*
G01*
X125137386Y-100747100D01*
X125223102Y-100782605D01*
X125300245Y-100834150D01*
X125365850Y-100899755D01*
X125417395Y-100976898D01*
X125452900Y-101062614D01*
X125471000Y-101153611D01*
X125471000Y-101246389D01*
X125452900Y-101337386D01*
X125417395Y-101423102D01*
X125365850Y-101500245D01*
X125300245Y-101565850D01*
X125223102Y-101617395D01*
X125137386Y-101652900D01*
X125107054Y-101658933D01*
X125046391Y-101671000D01*
X124953609Y-101671000D01*
X124892946Y-101658933D01*
X124862614Y-101652900D01*
X124776898Y-101617395D01*
X124699755Y-101565850D01*
X124634150Y-101500245D01*
X124582605Y-101423102D01*
X124547100Y-101337386D01*
X124529000Y-101246389D01*
X124529000Y-101153611D01*
X124547100Y-101062614D01*
X124582605Y-100976898D01*
X124634150Y-100899755D01*
X124699755Y-100834150D01*
X124776898Y-100782605D01*
X124862614Y-100747100D01*
X124892946Y-100741067D01*
X124953609Y-100729000D01*
X125046391Y-100729000D01*
X125107054Y-100741067D01*
X125107054Y-100741067D01*
G37*
G36*
X126107054Y-100091067D02*
G01*
X126137386Y-100097100D01*
X126223102Y-100132605D01*
X126300245Y-100184150D01*
X126365850Y-100249755D01*
X126417395Y-100326898D01*
X126452900Y-100412614D01*
X126471000Y-100503611D01*
X126471000Y-100596389D01*
X126452900Y-100687386D01*
X126417395Y-100773102D01*
X126365850Y-100850245D01*
X126300245Y-100915850D01*
X126223102Y-100967395D01*
X126137386Y-101002900D01*
X126107054Y-101008933D01*
X126046391Y-101021000D01*
X125953609Y-101021000D01*
X125892946Y-101008933D01*
X125862614Y-101002900D01*
X125776898Y-100967395D01*
X125699755Y-100915850D01*
X125634150Y-100850245D01*
X125582605Y-100773102D01*
X125547100Y-100687386D01*
X125529000Y-100596389D01*
X125529000Y-100503611D01*
X125547100Y-100412614D01*
X125582605Y-100326898D01*
X125634150Y-100249755D01*
X125699755Y-100184150D01*
X125776898Y-100132605D01*
X125862614Y-100097100D01*
X125892946Y-100091067D01*
X125953609Y-100079000D01*
X126046391Y-100079000D01*
X126107054Y-100091067D01*
X126107054Y-100091067D01*
G37*
G36*
X145151000Y-100801000D02*
G01*
X144309000Y-100801000D01*
X144309000Y-98299000D01*
X145151000Y-98299000D01*
X145151000Y-100801000D01*
X145151000Y-100801000D01*
G37*
G36*
X146421000Y-100801000D02*
G01*
X145579000Y-100801000D01*
X145579000Y-98299000D01*
X146421000Y-98299000D01*
X146421000Y-100801000D01*
X146421000Y-100801000D01*
G37*
G36*
X147691000Y-100801000D02*
G01*
X146849000Y-100801000D01*
X146849000Y-98299000D01*
X147691000Y-98299000D01*
X147691000Y-100801000D01*
X147691000Y-100801000D01*
G37*
G36*
X125107054Y-99441067D02*
G01*
X125137386Y-99447100D01*
X125223102Y-99482605D01*
X125300245Y-99534150D01*
X125365850Y-99599755D01*
X125417395Y-99676898D01*
X125452900Y-99762614D01*
X125471000Y-99853611D01*
X125471000Y-99946389D01*
X125452900Y-100037386D01*
X125417395Y-100123102D01*
X125365850Y-100200245D01*
X125300245Y-100265850D01*
X125223102Y-100317395D01*
X125137386Y-100352900D01*
X125107054Y-100358933D01*
X125046391Y-100371000D01*
X124953609Y-100371000D01*
X124892946Y-100358933D01*
X124862614Y-100352900D01*
X124776898Y-100317395D01*
X124699755Y-100265850D01*
X124634150Y-100200245D01*
X124582605Y-100123102D01*
X124547100Y-100037386D01*
X124529000Y-99946389D01*
X124529000Y-99853611D01*
X124547100Y-99762614D01*
X124582605Y-99676898D01*
X124634150Y-99599755D01*
X124699755Y-99534150D01*
X124776898Y-99482605D01*
X124862614Y-99447100D01*
X124892946Y-99441067D01*
X124953609Y-99429000D01*
X125046391Y-99429000D01*
X125107054Y-99441067D01*
X125107054Y-99441067D01*
G37*
G36*
X125813312Y-97155887D02*
G01*
X125903039Y-97183106D01*
X125985731Y-97227306D01*
X126058211Y-97286789D01*
X126117694Y-97359269D01*
X126161894Y-97441961D01*
X126189113Y-97531688D01*
X126198303Y-97625000D01*
X126189113Y-97718312D01*
X126161894Y-97808039D01*
X126117694Y-97890731D01*
X126058211Y-97963211D01*
X125985731Y-98022694D01*
X125903039Y-98066894D01*
X125813312Y-98094113D01*
X125743384Y-98101000D01*
X124696616Y-98101000D01*
X124626688Y-98094113D01*
X124536961Y-98066894D01*
X124454269Y-98022694D01*
X124381789Y-97963211D01*
X124322306Y-97890731D01*
X124278106Y-97808039D01*
X124250887Y-97718312D01*
X124241697Y-97625000D01*
X124250887Y-97531688D01*
X124278106Y-97441961D01*
X124322306Y-97359269D01*
X124381789Y-97286789D01*
X124454269Y-97227306D01*
X124536961Y-97183106D01*
X124626688Y-97155887D01*
X124696616Y-97149000D01*
X125743384Y-97149000D01*
X125813312Y-97155887D01*
X125813312Y-97155887D01*
G37*
G36*
X141526000Y-97676000D02*
G01*
X140774000Y-97676000D01*
X140774000Y-96874000D01*
X141526000Y-96874000D01*
X141526000Y-97676000D01*
X141526000Y-97676000D01*
G37*
G36*
X120925000Y-97025000D02*
G01*
X118850000Y-97025000D01*
X118850000Y-85075000D01*
X120925000Y-85075000D01*
X120925000Y-97025000D01*
X120925000Y-97025000D01*
G37*
G36*
X149206040Y-93210067D02*
G01*
X149382333Y-93245134D01*
X149519904Y-93302118D01*
X149714460Y-93382705D01*
X150013369Y-93582430D01*
X150267570Y-93836631D01*
X150467295Y-94135540D01*
X150547882Y-94330096D01*
X150604866Y-94467667D01*
X150675000Y-94820253D01*
X150675000Y-95179747D01*
X150611099Y-95501000D01*
X150604866Y-95532332D01*
X150467295Y-95864460D01*
X150267570Y-96163369D01*
X150013369Y-96417570D01*
X149714460Y-96617295D01*
X149519904Y-96697882D01*
X149382333Y-96754866D01*
X149206040Y-96789933D01*
X149029748Y-96825000D01*
X148670252Y-96825000D01*
X148493960Y-96789933D01*
X148317667Y-96754866D01*
X148180096Y-96697882D01*
X147985540Y-96617295D01*
X147686631Y-96417570D01*
X147432430Y-96163369D01*
X147232705Y-95864460D01*
X147095134Y-95532332D01*
X147088902Y-95501000D01*
X147025000Y-95179747D01*
X147025000Y-94820253D01*
X147095134Y-94467667D01*
X147152118Y-94330096D01*
X147232705Y-94135540D01*
X147432430Y-93836631D01*
X147686631Y-93582430D01*
X147985540Y-93382705D01*
X148180096Y-93302118D01*
X148317667Y-93245134D01*
X148493960Y-93210067D01*
X148670252Y-93175000D01*
X149029748Y-93175000D01*
X149206040Y-93210067D01*
X149206040Y-93210067D01*
G37*
G36*
X128426000Y-95501000D02*
G01*
X127574000Y-95501000D01*
X127574000Y-94749000D01*
X128426000Y-94749000D01*
X128426000Y-95501000D01*
X128426000Y-95501000D01*
G37*
G36*
X128526000Y-92688500D02*
G01*
X127574000Y-92688500D01*
X127574000Y-91286500D01*
X128526000Y-91286500D01*
X128526000Y-92688500D01*
X128526000Y-92688500D01*
G37*
G36*
X143226000Y-91951000D02*
G01*
X142224000Y-91951000D01*
X142224000Y-90899000D01*
X143226000Y-90899000D01*
X143226000Y-91951000D01*
X143226000Y-91951000D01*
G37*
G36*
X139511000Y-90351000D02*
G01*
X138759000Y-90351000D01*
X138759000Y-87249000D01*
X139511000Y-87249000D01*
X139511000Y-90351000D01*
X139511000Y-90351000D01*
G37*
G36*
X128361000Y-90201000D02*
G01*
X126559000Y-90201000D01*
X126559000Y-88399000D01*
X128361000Y-88399000D01*
X128361000Y-90201000D01*
X128361000Y-90201000D01*
G37*
G36*
X134510442Y-87945518D02*
G01*
X134576627Y-87952037D01*
X134746466Y-88003557D01*
X134902991Y-88087222D01*
X134938729Y-88116552D01*
X135040186Y-88199814D01*
X135123448Y-88301271D01*
X135152778Y-88337009D01*
X135236443Y-88493534D01*
X135287963Y-88663373D01*
X135305359Y-88840000D01*
X135287963Y-89016627D01*
X135236443Y-89186466D01*
X135152778Y-89342991D01*
X135123448Y-89378729D01*
X135040186Y-89480186D01*
X134938729Y-89563448D01*
X134902991Y-89592778D01*
X134746466Y-89676443D01*
X134576627Y-89727963D01*
X134510443Y-89734481D01*
X134444260Y-89741000D01*
X134355740Y-89741000D01*
X134289557Y-89734481D01*
X134223373Y-89727963D01*
X134053534Y-89676443D01*
X133897009Y-89592778D01*
X133861271Y-89563448D01*
X133759814Y-89480186D01*
X133676552Y-89378729D01*
X133647222Y-89342991D01*
X133563557Y-89186466D01*
X133512037Y-89016627D01*
X133494641Y-88840000D01*
X133512037Y-88663373D01*
X133563557Y-88493534D01*
X133647222Y-88337009D01*
X133676552Y-88301271D01*
X133759814Y-88199814D01*
X133861271Y-88116552D01*
X133897009Y-88087222D01*
X134053534Y-88003557D01*
X134223373Y-87952037D01*
X134289558Y-87945518D01*
X134355740Y-87939000D01*
X134444260Y-87939000D01*
X134510442Y-87945518D01*
X134510442Y-87945518D01*
G37*
G36*
X147701000Y-88891000D02*
G01*
X145199000Y-88891000D01*
X145199000Y-88049000D01*
X147701000Y-88049000D01*
X147701000Y-88891000D01*
X147701000Y-88891000D01*
G37*
G36*
X143801000Y-88891000D02*
G01*
X141299000Y-88891000D01*
X141299000Y-88049000D01*
X143801000Y-88049000D01*
X143801000Y-88891000D01*
X143801000Y-88891000D01*
G37*
G36*
X147701000Y-87621000D02*
G01*
X145199000Y-87621000D01*
X145199000Y-86779000D01*
X147701000Y-86779000D01*
X147701000Y-87621000D01*
X147701000Y-87621000D01*
G37*
G36*
X143801000Y-87621000D02*
G01*
X141299000Y-87621000D01*
X141299000Y-86779000D01*
X143801000Y-86779000D01*
X143801000Y-87621000D01*
X143801000Y-87621000D01*
G37*
G36*
X138241000Y-87351000D02*
G01*
X137489000Y-87351000D01*
X137489000Y-84249000D01*
X138241000Y-84249000D01*
X138241000Y-87351000D01*
X138241000Y-87351000D01*
G37*
G36*
X127570443Y-85405519D02*
G01*
X127636627Y-85412037D01*
X127806466Y-85463557D01*
X127962991Y-85547222D01*
X127998729Y-85576552D01*
X128100186Y-85659814D01*
X128183448Y-85761271D01*
X128212778Y-85797009D01*
X128296443Y-85953534D01*
X128347963Y-86123373D01*
X128365359Y-86300000D01*
X128347963Y-86476627D01*
X128296443Y-86646466D01*
X128212778Y-86802991D01*
X128183448Y-86838729D01*
X128100186Y-86940186D01*
X128027301Y-87000000D01*
X127962991Y-87052778D01*
X127806466Y-87136443D01*
X127636627Y-87187963D01*
X127570443Y-87194481D01*
X127504260Y-87201000D01*
X127415740Y-87201000D01*
X127349557Y-87194481D01*
X127283373Y-87187963D01*
X127113534Y-87136443D01*
X126957009Y-87052778D01*
X126892699Y-87000000D01*
X126819814Y-86940186D01*
X126736552Y-86838729D01*
X126707222Y-86802991D01*
X126623557Y-86646466D01*
X126572037Y-86476627D01*
X126554641Y-86300000D01*
X126572037Y-86123373D01*
X126623557Y-85953534D01*
X126707222Y-85797009D01*
X126736552Y-85761271D01*
X126819814Y-85659814D01*
X126921271Y-85576552D01*
X126957009Y-85547222D01*
X127113534Y-85463557D01*
X127283373Y-85412037D01*
X127349557Y-85405519D01*
X127415740Y-85399000D01*
X127504260Y-85399000D01*
X127570443Y-85405519D01*
X127570443Y-85405519D01*
G37*
G36*
X135301000Y-87201000D02*
G01*
X133499000Y-87201000D01*
X133499000Y-85399000D01*
X135301000Y-85399000D01*
X135301000Y-87201000D01*
X135301000Y-87201000D01*
G37*
G36*
X130901000Y-87201000D02*
G01*
X129099000Y-87201000D01*
X129099000Y-85399000D01*
X130901000Y-85399000D01*
X130901000Y-87201000D01*
X130901000Y-87201000D01*
G37*
G36*
X125030443Y-85405519D02*
G01*
X125096627Y-85412037D01*
X125266466Y-85463557D01*
X125422991Y-85547222D01*
X125458729Y-85576552D01*
X125560186Y-85659814D01*
X125643448Y-85761271D01*
X125672778Y-85797009D01*
X125756443Y-85953534D01*
X125807963Y-86123373D01*
X125825359Y-86300000D01*
X125807963Y-86476627D01*
X125756443Y-86646466D01*
X125672778Y-86802991D01*
X125643448Y-86838729D01*
X125560186Y-86940186D01*
X125487301Y-87000000D01*
X125422991Y-87052778D01*
X125266466Y-87136443D01*
X125096627Y-87187963D01*
X125030443Y-87194481D01*
X124964260Y-87201000D01*
X124875740Y-87201000D01*
X124809557Y-87194481D01*
X124743373Y-87187963D01*
X124573534Y-87136443D01*
X124417009Y-87052778D01*
X124352699Y-87000000D01*
X124279814Y-86940186D01*
X124196552Y-86838729D01*
X124167222Y-86802991D01*
X124083557Y-86646466D01*
X124032037Y-86476627D01*
X124014641Y-86300000D01*
X124032037Y-86123373D01*
X124083557Y-85953534D01*
X124167222Y-85797009D01*
X124196552Y-85761271D01*
X124279814Y-85659814D01*
X124381271Y-85576552D01*
X124417009Y-85547222D01*
X124573534Y-85463557D01*
X124743373Y-85412037D01*
X124809557Y-85405519D01*
X124875740Y-85399000D01*
X124964260Y-85399000D01*
X125030443Y-85405519D01*
X125030443Y-85405519D01*
G37*
G36*
X147701000Y-86351000D02*
G01*
X145199000Y-86351000D01*
X145199000Y-85509000D01*
X147701000Y-85509000D01*
X147701000Y-86351000D01*
X147701000Y-86351000D01*
G37*
G36*
X143801000Y-86351000D02*
G01*
X141299000Y-86351000D01*
X141299000Y-85509000D01*
X143801000Y-85509000D01*
X143801000Y-86351000D01*
X143801000Y-86351000D01*
G37*
M02*
