G04 #@! TF.GenerationSoftware,KiCad,Pcbnew,5.1.4-3.fc30*
G04 #@! TF.CreationDate,2019-12-03T21:39:27-05:00*
G04 #@! TF.ProjectId,librem5-m2-breakout,6c696272-656d-4352-9d6d-322d62726561,rev?*
G04 #@! TF.SameCoordinates,Original*
G04 #@! TF.FileFunction,Paste,Bot*
G04 #@! TF.FilePolarity,Positive*
%FSLAX46Y46*%
G04 Gerber Fmt 4.6, Leading zero omitted, Abs format (unit mm)*
G04 Created by KiCad (PCBNEW 5.1.4-3.fc30) date 2019-12-03 21:39:27*
%MOMM*%
%LPD*%
G04 APERTURE LIST*
%ADD10C,0.100000*%
%ADD11C,0.950000*%
%ADD12R,1.560000X0.650000*%
G04 APERTURE END LIST*
D10*
G36*
X130060779Y-100901144D02*
G01*
X130083834Y-100904563D01*
X130106443Y-100910227D01*
X130128387Y-100918079D01*
X130149457Y-100928044D01*
X130169448Y-100940026D01*
X130188168Y-100953910D01*
X130205438Y-100969562D01*
X130221090Y-100986832D01*
X130234974Y-101005552D01*
X130246956Y-101025543D01*
X130256921Y-101046613D01*
X130264773Y-101068557D01*
X130270437Y-101091166D01*
X130273856Y-101114221D01*
X130275000Y-101137500D01*
X130275000Y-101712500D01*
X130273856Y-101735779D01*
X130270437Y-101758834D01*
X130264773Y-101781443D01*
X130256921Y-101803387D01*
X130246956Y-101824457D01*
X130234974Y-101844448D01*
X130221090Y-101863168D01*
X130205438Y-101880438D01*
X130188168Y-101896090D01*
X130169448Y-101909974D01*
X130149457Y-101921956D01*
X130128387Y-101931921D01*
X130106443Y-101939773D01*
X130083834Y-101945437D01*
X130060779Y-101948856D01*
X130037500Y-101950000D01*
X129562500Y-101950000D01*
X129539221Y-101948856D01*
X129516166Y-101945437D01*
X129493557Y-101939773D01*
X129471613Y-101931921D01*
X129450543Y-101921956D01*
X129430552Y-101909974D01*
X129411832Y-101896090D01*
X129394562Y-101880438D01*
X129378910Y-101863168D01*
X129365026Y-101844448D01*
X129353044Y-101824457D01*
X129343079Y-101803387D01*
X129335227Y-101781443D01*
X129329563Y-101758834D01*
X129326144Y-101735779D01*
X129325000Y-101712500D01*
X129325000Y-101137500D01*
X129326144Y-101114221D01*
X129329563Y-101091166D01*
X129335227Y-101068557D01*
X129343079Y-101046613D01*
X129353044Y-101025543D01*
X129365026Y-101005552D01*
X129378910Y-100986832D01*
X129394562Y-100969562D01*
X129411832Y-100953910D01*
X129430552Y-100940026D01*
X129450543Y-100928044D01*
X129471613Y-100918079D01*
X129493557Y-100910227D01*
X129516166Y-100904563D01*
X129539221Y-100901144D01*
X129562500Y-100900000D01*
X130037500Y-100900000D01*
X130060779Y-100901144D01*
X130060779Y-100901144D01*
G37*
D11*
X129800000Y-101425000D03*
D10*
G36*
X130060779Y-102651144D02*
G01*
X130083834Y-102654563D01*
X130106443Y-102660227D01*
X130128387Y-102668079D01*
X130149457Y-102678044D01*
X130169448Y-102690026D01*
X130188168Y-102703910D01*
X130205438Y-102719562D01*
X130221090Y-102736832D01*
X130234974Y-102755552D01*
X130246956Y-102775543D01*
X130256921Y-102796613D01*
X130264773Y-102818557D01*
X130270437Y-102841166D01*
X130273856Y-102864221D01*
X130275000Y-102887500D01*
X130275000Y-103462500D01*
X130273856Y-103485779D01*
X130270437Y-103508834D01*
X130264773Y-103531443D01*
X130256921Y-103553387D01*
X130246956Y-103574457D01*
X130234974Y-103594448D01*
X130221090Y-103613168D01*
X130205438Y-103630438D01*
X130188168Y-103646090D01*
X130169448Y-103659974D01*
X130149457Y-103671956D01*
X130128387Y-103681921D01*
X130106443Y-103689773D01*
X130083834Y-103695437D01*
X130060779Y-103698856D01*
X130037500Y-103700000D01*
X129562500Y-103700000D01*
X129539221Y-103698856D01*
X129516166Y-103695437D01*
X129493557Y-103689773D01*
X129471613Y-103681921D01*
X129450543Y-103671956D01*
X129430552Y-103659974D01*
X129411832Y-103646090D01*
X129394562Y-103630438D01*
X129378910Y-103613168D01*
X129365026Y-103594448D01*
X129353044Y-103574457D01*
X129343079Y-103553387D01*
X129335227Y-103531443D01*
X129329563Y-103508834D01*
X129326144Y-103485779D01*
X129325000Y-103462500D01*
X129325000Y-102887500D01*
X129326144Y-102864221D01*
X129329563Y-102841166D01*
X129335227Y-102818557D01*
X129343079Y-102796613D01*
X129353044Y-102775543D01*
X129365026Y-102755552D01*
X129378910Y-102736832D01*
X129394562Y-102719562D01*
X129411832Y-102703910D01*
X129430552Y-102690026D01*
X129450543Y-102678044D01*
X129471613Y-102668079D01*
X129493557Y-102660227D01*
X129516166Y-102654563D01*
X129539221Y-102651144D01*
X129562500Y-102650000D01*
X130037500Y-102650000D01*
X130060779Y-102651144D01*
X130060779Y-102651144D01*
G37*
D11*
X129800000Y-103175000D03*
D10*
G36*
X128460779Y-102651144D02*
G01*
X128483834Y-102654563D01*
X128506443Y-102660227D01*
X128528387Y-102668079D01*
X128549457Y-102678044D01*
X128569448Y-102690026D01*
X128588168Y-102703910D01*
X128605438Y-102719562D01*
X128621090Y-102736832D01*
X128634974Y-102755552D01*
X128646956Y-102775543D01*
X128656921Y-102796613D01*
X128664773Y-102818557D01*
X128670437Y-102841166D01*
X128673856Y-102864221D01*
X128675000Y-102887500D01*
X128675000Y-103462500D01*
X128673856Y-103485779D01*
X128670437Y-103508834D01*
X128664773Y-103531443D01*
X128656921Y-103553387D01*
X128646956Y-103574457D01*
X128634974Y-103594448D01*
X128621090Y-103613168D01*
X128605438Y-103630438D01*
X128588168Y-103646090D01*
X128569448Y-103659974D01*
X128549457Y-103671956D01*
X128528387Y-103681921D01*
X128506443Y-103689773D01*
X128483834Y-103695437D01*
X128460779Y-103698856D01*
X128437500Y-103700000D01*
X127962500Y-103700000D01*
X127939221Y-103698856D01*
X127916166Y-103695437D01*
X127893557Y-103689773D01*
X127871613Y-103681921D01*
X127850543Y-103671956D01*
X127830552Y-103659974D01*
X127811832Y-103646090D01*
X127794562Y-103630438D01*
X127778910Y-103613168D01*
X127765026Y-103594448D01*
X127753044Y-103574457D01*
X127743079Y-103553387D01*
X127735227Y-103531443D01*
X127729563Y-103508834D01*
X127726144Y-103485779D01*
X127725000Y-103462500D01*
X127725000Y-102887500D01*
X127726144Y-102864221D01*
X127729563Y-102841166D01*
X127735227Y-102818557D01*
X127743079Y-102796613D01*
X127753044Y-102775543D01*
X127765026Y-102755552D01*
X127778910Y-102736832D01*
X127794562Y-102719562D01*
X127811832Y-102703910D01*
X127830552Y-102690026D01*
X127850543Y-102678044D01*
X127871613Y-102668079D01*
X127893557Y-102660227D01*
X127916166Y-102654563D01*
X127939221Y-102651144D01*
X127962500Y-102650000D01*
X128437500Y-102650000D01*
X128460779Y-102651144D01*
X128460779Y-102651144D01*
G37*
D11*
X128200000Y-103175000D03*
D10*
G36*
X128460779Y-100901144D02*
G01*
X128483834Y-100904563D01*
X128506443Y-100910227D01*
X128528387Y-100918079D01*
X128549457Y-100928044D01*
X128569448Y-100940026D01*
X128588168Y-100953910D01*
X128605438Y-100969562D01*
X128621090Y-100986832D01*
X128634974Y-101005552D01*
X128646956Y-101025543D01*
X128656921Y-101046613D01*
X128664773Y-101068557D01*
X128670437Y-101091166D01*
X128673856Y-101114221D01*
X128675000Y-101137500D01*
X128675000Y-101712500D01*
X128673856Y-101735779D01*
X128670437Y-101758834D01*
X128664773Y-101781443D01*
X128656921Y-101803387D01*
X128646956Y-101824457D01*
X128634974Y-101844448D01*
X128621090Y-101863168D01*
X128605438Y-101880438D01*
X128588168Y-101896090D01*
X128569448Y-101909974D01*
X128549457Y-101921956D01*
X128528387Y-101931921D01*
X128506443Y-101939773D01*
X128483834Y-101945437D01*
X128460779Y-101948856D01*
X128437500Y-101950000D01*
X127962500Y-101950000D01*
X127939221Y-101948856D01*
X127916166Y-101945437D01*
X127893557Y-101939773D01*
X127871613Y-101931921D01*
X127850543Y-101921956D01*
X127830552Y-101909974D01*
X127811832Y-101896090D01*
X127794562Y-101880438D01*
X127778910Y-101863168D01*
X127765026Y-101844448D01*
X127753044Y-101824457D01*
X127743079Y-101803387D01*
X127735227Y-101781443D01*
X127729563Y-101758834D01*
X127726144Y-101735779D01*
X127725000Y-101712500D01*
X127725000Y-101137500D01*
X127726144Y-101114221D01*
X127729563Y-101091166D01*
X127735227Y-101068557D01*
X127743079Y-101046613D01*
X127753044Y-101025543D01*
X127765026Y-101005552D01*
X127778910Y-100986832D01*
X127794562Y-100969562D01*
X127811832Y-100953910D01*
X127830552Y-100940026D01*
X127850543Y-100928044D01*
X127871613Y-100918079D01*
X127893557Y-100910227D01*
X127916166Y-100904563D01*
X127939221Y-100901144D01*
X127962500Y-100900000D01*
X128437500Y-100900000D01*
X128460779Y-100901144D01*
X128460779Y-100901144D01*
G37*
D11*
X128200000Y-101425000D03*
D10*
G36*
X133160779Y-99251144D02*
G01*
X133183834Y-99254563D01*
X133206443Y-99260227D01*
X133228387Y-99268079D01*
X133249457Y-99278044D01*
X133269448Y-99290026D01*
X133288168Y-99303910D01*
X133305438Y-99319562D01*
X133321090Y-99336832D01*
X133334974Y-99355552D01*
X133346956Y-99375543D01*
X133356921Y-99396613D01*
X133364773Y-99418557D01*
X133370437Y-99441166D01*
X133373856Y-99464221D01*
X133375000Y-99487500D01*
X133375000Y-100062500D01*
X133373856Y-100085779D01*
X133370437Y-100108834D01*
X133364773Y-100131443D01*
X133356921Y-100153387D01*
X133346956Y-100174457D01*
X133334974Y-100194448D01*
X133321090Y-100213168D01*
X133305438Y-100230438D01*
X133288168Y-100246090D01*
X133269448Y-100259974D01*
X133249457Y-100271956D01*
X133228387Y-100281921D01*
X133206443Y-100289773D01*
X133183834Y-100295437D01*
X133160779Y-100298856D01*
X133137500Y-100300000D01*
X132662500Y-100300000D01*
X132639221Y-100298856D01*
X132616166Y-100295437D01*
X132593557Y-100289773D01*
X132571613Y-100281921D01*
X132550543Y-100271956D01*
X132530552Y-100259974D01*
X132511832Y-100246090D01*
X132494562Y-100230438D01*
X132478910Y-100213168D01*
X132465026Y-100194448D01*
X132453044Y-100174457D01*
X132443079Y-100153387D01*
X132435227Y-100131443D01*
X132429563Y-100108834D01*
X132426144Y-100085779D01*
X132425000Y-100062500D01*
X132425000Y-99487500D01*
X132426144Y-99464221D01*
X132429563Y-99441166D01*
X132435227Y-99418557D01*
X132443079Y-99396613D01*
X132453044Y-99375543D01*
X132465026Y-99355552D01*
X132478910Y-99336832D01*
X132494562Y-99319562D01*
X132511832Y-99303910D01*
X132530552Y-99290026D01*
X132550543Y-99278044D01*
X132571613Y-99268079D01*
X132593557Y-99260227D01*
X132616166Y-99254563D01*
X132639221Y-99251144D01*
X132662500Y-99250000D01*
X133137500Y-99250000D01*
X133160779Y-99251144D01*
X133160779Y-99251144D01*
G37*
D11*
X132900000Y-99775000D03*
D10*
G36*
X133160779Y-97501144D02*
G01*
X133183834Y-97504563D01*
X133206443Y-97510227D01*
X133228387Y-97518079D01*
X133249457Y-97528044D01*
X133269448Y-97540026D01*
X133288168Y-97553910D01*
X133305438Y-97569562D01*
X133321090Y-97586832D01*
X133334974Y-97605552D01*
X133346956Y-97625543D01*
X133356921Y-97646613D01*
X133364773Y-97668557D01*
X133370437Y-97691166D01*
X133373856Y-97714221D01*
X133375000Y-97737500D01*
X133375000Y-98312500D01*
X133373856Y-98335779D01*
X133370437Y-98358834D01*
X133364773Y-98381443D01*
X133356921Y-98403387D01*
X133346956Y-98424457D01*
X133334974Y-98444448D01*
X133321090Y-98463168D01*
X133305438Y-98480438D01*
X133288168Y-98496090D01*
X133269448Y-98509974D01*
X133249457Y-98521956D01*
X133228387Y-98531921D01*
X133206443Y-98539773D01*
X133183834Y-98545437D01*
X133160779Y-98548856D01*
X133137500Y-98550000D01*
X132662500Y-98550000D01*
X132639221Y-98548856D01*
X132616166Y-98545437D01*
X132593557Y-98539773D01*
X132571613Y-98531921D01*
X132550543Y-98521956D01*
X132530552Y-98509974D01*
X132511832Y-98496090D01*
X132494562Y-98480438D01*
X132478910Y-98463168D01*
X132465026Y-98444448D01*
X132453044Y-98424457D01*
X132443079Y-98403387D01*
X132435227Y-98381443D01*
X132429563Y-98358834D01*
X132426144Y-98335779D01*
X132425000Y-98312500D01*
X132425000Y-97737500D01*
X132426144Y-97714221D01*
X132429563Y-97691166D01*
X132435227Y-97668557D01*
X132443079Y-97646613D01*
X132453044Y-97625543D01*
X132465026Y-97605552D01*
X132478910Y-97586832D01*
X132494562Y-97569562D01*
X132511832Y-97553910D01*
X132530552Y-97540026D01*
X132550543Y-97528044D01*
X132571613Y-97518079D01*
X132593557Y-97510227D01*
X132616166Y-97504563D01*
X132639221Y-97501144D01*
X132662500Y-97500000D01*
X133137500Y-97500000D01*
X133160779Y-97501144D01*
X133160779Y-97501144D01*
G37*
D11*
X132900000Y-98025000D03*
D10*
G36*
X131560779Y-99251144D02*
G01*
X131583834Y-99254563D01*
X131606443Y-99260227D01*
X131628387Y-99268079D01*
X131649457Y-99278044D01*
X131669448Y-99290026D01*
X131688168Y-99303910D01*
X131705438Y-99319562D01*
X131721090Y-99336832D01*
X131734974Y-99355552D01*
X131746956Y-99375543D01*
X131756921Y-99396613D01*
X131764773Y-99418557D01*
X131770437Y-99441166D01*
X131773856Y-99464221D01*
X131775000Y-99487500D01*
X131775000Y-100062500D01*
X131773856Y-100085779D01*
X131770437Y-100108834D01*
X131764773Y-100131443D01*
X131756921Y-100153387D01*
X131746956Y-100174457D01*
X131734974Y-100194448D01*
X131721090Y-100213168D01*
X131705438Y-100230438D01*
X131688168Y-100246090D01*
X131669448Y-100259974D01*
X131649457Y-100271956D01*
X131628387Y-100281921D01*
X131606443Y-100289773D01*
X131583834Y-100295437D01*
X131560779Y-100298856D01*
X131537500Y-100300000D01*
X131062500Y-100300000D01*
X131039221Y-100298856D01*
X131016166Y-100295437D01*
X130993557Y-100289773D01*
X130971613Y-100281921D01*
X130950543Y-100271956D01*
X130930552Y-100259974D01*
X130911832Y-100246090D01*
X130894562Y-100230438D01*
X130878910Y-100213168D01*
X130865026Y-100194448D01*
X130853044Y-100174457D01*
X130843079Y-100153387D01*
X130835227Y-100131443D01*
X130829563Y-100108834D01*
X130826144Y-100085779D01*
X130825000Y-100062500D01*
X130825000Y-99487500D01*
X130826144Y-99464221D01*
X130829563Y-99441166D01*
X130835227Y-99418557D01*
X130843079Y-99396613D01*
X130853044Y-99375543D01*
X130865026Y-99355552D01*
X130878910Y-99336832D01*
X130894562Y-99319562D01*
X130911832Y-99303910D01*
X130930552Y-99290026D01*
X130950543Y-99278044D01*
X130971613Y-99268079D01*
X130993557Y-99260227D01*
X131016166Y-99254563D01*
X131039221Y-99251144D01*
X131062500Y-99250000D01*
X131537500Y-99250000D01*
X131560779Y-99251144D01*
X131560779Y-99251144D01*
G37*
D11*
X131300000Y-99775000D03*
D10*
G36*
X131560779Y-97501144D02*
G01*
X131583834Y-97504563D01*
X131606443Y-97510227D01*
X131628387Y-97518079D01*
X131649457Y-97528044D01*
X131669448Y-97540026D01*
X131688168Y-97553910D01*
X131705438Y-97569562D01*
X131721090Y-97586832D01*
X131734974Y-97605552D01*
X131746956Y-97625543D01*
X131756921Y-97646613D01*
X131764773Y-97668557D01*
X131770437Y-97691166D01*
X131773856Y-97714221D01*
X131775000Y-97737500D01*
X131775000Y-98312500D01*
X131773856Y-98335779D01*
X131770437Y-98358834D01*
X131764773Y-98381443D01*
X131756921Y-98403387D01*
X131746956Y-98424457D01*
X131734974Y-98444448D01*
X131721090Y-98463168D01*
X131705438Y-98480438D01*
X131688168Y-98496090D01*
X131669448Y-98509974D01*
X131649457Y-98521956D01*
X131628387Y-98531921D01*
X131606443Y-98539773D01*
X131583834Y-98545437D01*
X131560779Y-98548856D01*
X131537500Y-98550000D01*
X131062500Y-98550000D01*
X131039221Y-98548856D01*
X131016166Y-98545437D01*
X130993557Y-98539773D01*
X130971613Y-98531921D01*
X130950543Y-98521956D01*
X130930552Y-98509974D01*
X130911832Y-98496090D01*
X130894562Y-98480438D01*
X130878910Y-98463168D01*
X130865026Y-98444448D01*
X130853044Y-98424457D01*
X130843079Y-98403387D01*
X130835227Y-98381443D01*
X130829563Y-98358834D01*
X130826144Y-98335779D01*
X130825000Y-98312500D01*
X130825000Y-97737500D01*
X130826144Y-97714221D01*
X130829563Y-97691166D01*
X130835227Y-97668557D01*
X130843079Y-97646613D01*
X130853044Y-97625543D01*
X130865026Y-97605552D01*
X130878910Y-97586832D01*
X130894562Y-97569562D01*
X130911832Y-97553910D01*
X130930552Y-97540026D01*
X130950543Y-97528044D01*
X130971613Y-97518079D01*
X130993557Y-97510227D01*
X131016166Y-97504563D01*
X131039221Y-97501144D01*
X131062500Y-97500000D01*
X131537500Y-97500000D01*
X131560779Y-97501144D01*
X131560779Y-97501144D01*
G37*
D11*
X131300000Y-98025000D03*
D10*
G36*
X134760779Y-97501144D02*
G01*
X134783834Y-97504563D01*
X134806443Y-97510227D01*
X134828387Y-97518079D01*
X134849457Y-97528044D01*
X134869448Y-97540026D01*
X134888168Y-97553910D01*
X134905438Y-97569562D01*
X134921090Y-97586832D01*
X134934974Y-97605552D01*
X134946956Y-97625543D01*
X134956921Y-97646613D01*
X134964773Y-97668557D01*
X134970437Y-97691166D01*
X134973856Y-97714221D01*
X134975000Y-97737500D01*
X134975000Y-98312500D01*
X134973856Y-98335779D01*
X134970437Y-98358834D01*
X134964773Y-98381443D01*
X134956921Y-98403387D01*
X134946956Y-98424457D01*
X134934974Y-98444448D01*
X134921090Y-98463168D01*
X134905438Y-98480438D01*
X134888168Y-98496090D01*
X134869448Y-98509974D01*
X134849457Y-98521956D01*
X134828387Y-98531921D01*
X134806443Y-98539773D01*
X134783834Y-98545437D01*
X134760779Y-98548856D01*
X134737500Y-98550000D01*
X134262500Y-98550000D01*
X134239221Y-98548856D01*
X134216166Y-98545437D01*
X134193557Y-98539773D01*
X134171613Y-98531921D01*
X134150543Y-98521956D01*
X134130552Y-98509974D01*
X134111832Y-98496090D01*
X134094562Y-98480438D01*
X134078910Y-98463168D01*
X134065026Y-98444448D01*
X134053044Y-98424457D01*
X134043079Y-98403387D01*
X134035227Y-98381443D01*
X134029563Y-98358834D01*
X134026144Y-98335779D01*
X134025000Y-98312500D01*
X134025000Y-97737500D01*
X134026144Y-97714221D01*
X134029563Y-97691166D01*
X134035227Y-97668557D01*
X134043079Y-97646613D01*
X134053044Y-97625543D01*
X134065026Y-97605552D01*
X134078910Y-97586832D01*
X134094562Y-97569562D01*
X134111832Y-97553910D01*
X134130552Y-97540026D01*
X134150543Y-97528044D01*
X134171613Y-97518079D01*
X134193557Y-97510227D01*
X134216166Y-97504563D01*
X134239221Y-97501144D01*
X134262500Y-97500000D01*
X134737500Y-97500000D01*
X134760779Y-97501144D01*
X134760779Y-97501144D01*
G37*
D11*
X134500000Y-98025000D03*
D10*
G36*
X134760779Y-99251144D02*
G01*
X134783834Y-99254563D01*
X134806443Y-99260227D01*
X134828387Y-99268079D01*
X134849457Y-99278044D01*
X134869448Y-99290026D01*
X134888168Y-99303910D01*
X134905438Y-99319562D01*
X134921090Y-99336832D01*
X134934974Y-99355552D01*
X134946956Y-99375543D01*
X134956921Y-99396613D01*
X134964773Y-99418557D01*
X134970437Y-99441166D01*
X134973856Y-99464221D01*
X134975000Y-99487500D01*
X134975000Y-100062500D01*
X134973856Y-100085779D01*
X134970437Y-100108834D01*
X134964773Y-100131443D01*
X134956921Y-100153387D01*
X134946956Y-100174457D01*
X134934974Y-100194448D01*
X134921090Y-100213168D01*
X134905438Y-100230438D01*
X134888168Y-100246090D01*
X134869448Y-100259974D01*
X134849457Y-100271956D01*
X134828387Y-100281921D01*
X134806443Y-100289773D01*
X134783834Y-100295437D01*
X134760779Y-100298856D01*
X134737500Y-100300000D01*
X134262500Y-100300000D01*
X134239221Y-100298856D01*
X134216166Y-100295437D01*
X134193557Y-100289773D01*
X134171613Y-100281921D01*
X134150543Y-100271956D01*
X134130552Y-100259974D01*
X134111832Y-100246090D01*
X134094562Y-100230438D01*
X134078910Y-100213168D01*
X134065026Y-100194448D01*
X134053044Y-100174457D01*
X134043079Y-100153387D01*
X134035227Y-100131443D01*
X134029563Y-100108834D01*
X134026144Y-100085779D01*
X134025000Y-100062500D01*
X134025000Y-99487500D01*
X134026144Y-99464221D01*
X134029563Y-99441166D01*
X134035227Y-99418557D01*
X134043079Y-99396613D01*
X134053044Y-99375543D01*
X134065026Y-99355552D01*
X134078910Y-99336832D01*
X134094562Y-99319562D01*
X134111832Y-99303910D01*
X134130552Y-99290026D01*
X134150543Y-99278044D01*
X134171613Y-99268079D01*
X134193557Y-99260227D01*
X134216166Y-99254563D01*
X134239221Y-99251144D01*
X134262500Y-99250000D01*
X134737500Y-99250000D01*
X134760779Y-99251144D01*
X134760779Y-99251144D01*
G37*
D11*
X134500000Y-99775000D03*
D12*
X133650000Y-103450000D03*
X133650000Y-102500000D03*
X133650000Y-101550000D03*
X136350000Y-101550000D03*
X136350000Y-103450000D03*
M02*
