G04 #@! TF.GenerationSoftware,KiCad,Pcbnew,5.1.4-3.fc30*
G04 #@! TF.CreationDate,2019-12-05T18:34:15-05:00*
G04 #@! TF.ProjectId,librem5-m2-breakout,6c696272-656d-4352-9d6d-322d62726561,v0.5.0*
G04 #@! TF.SameCoordinates,Original*
G04 #@! TF.FileFunction,Soldermask,Top*
G04 #@! TF.FilePolarity,Negative*
%FSLAX46Y46*%
G04 Gerber Fmt 4.6, Leading zero omitted, Abs format (unit mm)*
G04 Created by KiCad (PCBNEW 5.1.4-3.fc30) date 2019-12-05 18:34:15*
%MOMM*%
%LPD*%
G04 APERTURE LIST*
%ADD10C,1.000000*%
%ADD11C,0.100000*%
G04 APERTURE END LIST*
D10*
X148850000Y-92750000D02*
G75*
G03X148850000Y-97250000I0J-2250000D01*
G01*
D11*
G36*
X140565000Y-105342500D02*
G01*
X135915000Y-105342500D01*
X135915000Y-104902500D01*
X140565000Y-104902500D01*
X140565000Y-105342500D01*
X140565000Y-105342500D01*
G37*
G36*
X125805276Y-104346294D02*
G01*
X125887270Y-104371168D01*
X125962843Y-104411561D01*
X126029080Y-104465920D01*
X126083439Y-104532157D01*
X126123832Y-104607730D01*
X126148706Y-104689724D01*
X126157104Y-104775000D01*
X126148706Y-104860276D01*
X126123832Y-104942270D01*
X126083439Y-105017843D01*
X126029080Y-105084080D01*
X125962843Y-105138439D01*
X125887270Y-105178832D01*
X125805276Y-105203706D01*
X125741366Y-105210000D01*
X124698634Y-105210000D01*
X124634724Y-105203706D01*
X124552730Y-105178832D01*
X124477157Y-105138439D01*
X124410920Y-105084080D01*
X124356561Y-105017843D01*
X124316168Y-104942270D01*
X124291294Y-104860276D01*
X124282896Y-104775000D01*
X124291294Y-104689724D01*
X124316168Y-104607730D01*
X124356561Y-104532157D01*
X124410920Y-104465920D01*
X124477157Y-104411561D01*
X124552730Y-104371168D01*
X124634724Y-104346294D01*
X124698634Y-104340000D01*
X125741366Y-104340000D01*
X125805276Y-104346294D01*
X125805276Y-104346294D01*
G37*
G36*
X120925000Y-104925000D02*
G01*
X118850000Y-104925000D01*
X118850000Y-98225000D01*
X120925000Y-98225000D01*
X120925000Y-104925000D01*
X120925000Y-104925000D01*
G37*
G36*
X143235000Y-104842500D02*
G01*
X142065000Y-104842500D01*
X142065000Y-104077500D01*
X143235000Y-104077500D01*
X143235000Y-104842500D01*
X143235000Y-104842500D01*
G37*
G36*
X147650000Y-104660000D02*
G01*
X146890000Y-104660000D01*
X146890000Y-102240000D01*
X147650000Y-102240000D01*
X147650000Y-104660000D01*
X147650000Y-104660000D01*
G37*
G36*
X146380000Y-104660000D02*
G01*
X145620000Y-104660000D01*
X145620000Y-102240000D01*
X146380000Y-102240000D01*
X146380000Y-104660000D01*
X146380000Y-104660000D01*
G37*
G36*
X145110000Y-104660000D02*
G01*
X144350000Y-104660000D01*
X144350000Y-102240000D01*
X145110000Y-102240000D01*
X145110000Y-104660000D01*
X145110000Y-104660000D01*
G37*
G36*
X128485000Y-103322500D02*
G01*
X127615000Y-103322500D01*
X127615000Y-102102500D01*
X128485000Y-102102500D01*
X128485000Y-103322500D01*
X128485000Y-103322500D01*
G37*
G36*
X140335000Y-103135000D02*
G01*
X139565000Y-103135000D01*
X139565000Y-102415000D01*
X140335000Y-102415000D01*
X140335000Y-103135000D01*
X140335000Y-103135000D01*
G37*
G36*
X126125426Y-101436524D02*
G01*
X126203682Y-101468939D01*
X126274109Y-101515997D01*
X126334003Y-101575891D01*
X126381061Y-101646318D01*
X126413476Y-101724574D01*
X126430000Y-101807649D01*
X126430000Y-101892351D01*
X126413476Y-101975426D01*
X126381061Y-102053682D01*
X126334003Y-102124109D01*
X126274109Y-102184003D01*
X126203682Y-102231061D01*
X126125426Y-102263476D01*
X126042351Y-102280000D01*
X125957649Y-102280000D01*
X125874574Y-102263476D01*
X125796318Y-102231061D01*
X125725891Y-102184003D01*
X125665997Y-102124109D01*
X125658929Y-102113532D01*
X125643388Y-102094594D01*
X125624446Y-102079048D01*
X125602836Y-102067497D01*
X125579387Y-102060383D01*
X125555001Y-102057981D01*
X125530615Y-102060382D01*
X125507166Y-102067495D01*
X125485555Y-102079046D01*
X125466613Y-102094591D01*
X125451067Y-102113533D01*
X125439516Y-102135143D01*
X125432402Y-102158592D01*
X125430000Y-102182980D01*
X125430000Y-102930000D01*
X124570000Y-102930000D01*
X124570000Y-102070000D01*
X125453025Y-102070000D01*
X125477411Y-102067598D01*
X125500860Y-102060485D01*
X125522471Y-102048934D01*
X125541413Y-102033389D01*
X125556958Y-102014447D01*
X125568509Y-101992836D01*
X125575622Y-101969387D01*
X125578024Y-101945001D01*
X125575622Y-101920614D01*
X125570000Y-101892351D01*
X125570000Y-101807649D01*
X125586524Y-101724574D01*
X125618939Y-101646318D01*
X125665997Y-101575891D01*
X125725891Y-101515997D01*
X125796318Y-101468939D01*
X125874574Y-101436524D01*
X125957649Y-101420000D01*
X126042351Y-101420000D01*
X126125426Y-101436524D01*
X126125426Y-101436524D01*
G37*
G36*
X140335000Y-102135000D02*
G01*
X139565000Y-102135000D01*
X139565000Y-101415000D01*
X140335000Y-101415000D01*
X140335000Y-102135000D01*
X140335000Y-102135000D01*
G37*
G36*
X128385000Y-101810000D02*
G01*
X127615000Y-101810000D01*
X127615000Y-101140000D01*
X128385000Y-101140000D01*
X128385000Y-101810000D01*
X128385000Y-101810000D01*
G37*
G36*
X141485000Y-101635000D02*
G01*
X140815000Y-101635000D01*
X140815000Y-100915000D01*
X141485000Y-100915000D01*
X141485000Y-101635000D01*
X141485000Y-101635000D01*
G37*
G36*
X125125426Y-100786524D02*
G01*
X125203682Y-100818939D01*
X125274109Y-100865997D01*
X125334003Y-100925891D01*
X125381061Y-100996318D01*
X125413476Y-101074574D01*
X125430000Y-101157649D01*
X125430000Y-101242351D01*
X125413476Y-101325426D01*
X125381061Y-101403682D01*
X125334003Y-101474109D01*
X125274109Y-101534003D01*
X125203682Y-101581061D01*
X125125426Y-101613476D01*
X125042351Y-101630000D01*
X124957649Y-101630000D01*
X124874574Y-101613476D01*
X124796318Y-101581061D01*
X124725891Y-101534003D01*
X124665997Y-101474109D01*
X124618939Y-101403682D01*
X124586524Y-101325426D01*
X124570000Y-101242351D01*
X124570000Y-101157649D01*
X124586524Y-101074574D01*
X124618939Y-100996318D01*
X124665997Y-100925891D01*
X124725891Y-100865997D01*
X124796318Y-100818939D01*
X124874574Y-100786524D01*
X124957649Y-100770000D01*
X125042351Y-100770000D01*
X125125426Y-100786524D01*
X125125426Y-100786524D01*
G37*
G36*
X140335000Y-101135000D02*
G01*
X139565000Y-101135000D01*
X139565000Y-100415000D01*
X140335000Y-100415000D01*
X140335000Y-101135000D01*
X140335000Y-101135000D01*
G37*
G36*
X126125426Y-100136524D02*
G01*
X126203682Y-100168939D01*
X126274109Y-100215997D01*
X126334003Y-100275891D01*
X126381061Y-100346318D01*
X126413476Y-100424574D01*
X126430000Y-100507649D01*
X126430000Y-100592351D01*
X126413476Y-100675426D01*
X126381061Y-100753682D01*
X126334003Y-100824109D01*
X126274109Y-100884003D01*
X126203682Y-100931061D01*
X126125426Y-100963476D01*
X126042351Y-100980000D01*
X125957649Y-100980000D01*
X125874574Y-100963476D01*
X125796318Y-100931061D01*
X125725891Y-100884003D01*
X125665997Y-100824109D01*
X125618939Y-100753682D01*
X125586524Y-100675426D01*
X125570000Y-100592351D01*
X125570000Y-100507649D01*
X125586524Y-100424574D01*
X125618939Y-100346318D01*
X125665997Y-100275891D01*
X125725891Y-100215997D01*
X125796318Y-100168939D01*
X125874574Y-100136524D01*
X125957649Y-100120000D01*
X126042351Y-100120000D01*
X126125426Y-100136524D01*
X126125426Y-100136524D01*
G37*
G36*
X145110000Y-100760000D02*
G01*
X144350000Y-100760000D01*
X144350000Y-98340000D01*
X145110000Y-98340000D01*
X145110000Y-100760000D01*
X145110000Y-100760000D01*
G37*
G36*
X146380000Y-100760000D02*
G01*
X145620000Y-100760000D01*
X145620000Y-98340000D01*
X146380000Y-98340000D01*
X146380000Y-100760000D01*
X146380000Y-100760000D01*
G37*
G36*
X147650000Y-100760000D02*
G01*
X146890000Y-100760000D01*
X146890000Y-98340000D01*
X147650000Y-98340000D01*
X147650000Y-100760000D01*
X147650000Y-100760000D01*
G37*
G36*
X125125426Y-99486524D02*
G01*
X125203682Y-99518939D01*
X125274109Y-99565997D01*
X125334003Y-99625891D01*
X125381061Y-99696318D01*
X125413476Y-99774574D01*
X125430000Y-99857649D01*
X125430000Y-99942351D01*
X125413476Y-100025426D01*
X125381061Y-100103682D01*
X125334003Y-100174109D01*
X125274109Y-100234003D01*
X125203682Y-100281061D01*
X125125426Y-100313476D01*
X125042351Y-100330000D01*
X124957649Y-100330000D01*
X124874574Y-100313476D01*
X124796318Y-100281061D01*
X124725891Y-100234003D01*
X124665997Y-100174109D01*
X124618939Y-100103682D01*
X124586524Y-100025426D01*
X124570000Y-99942351D01*
X124570000Y-99857649D01*
X124586524Y-99774574D01*
X124618939Y-99696318D01*
X124665997Y-99625891D01*
X124725891Y-99565997D01*
X124796318Y-99518939D01*
X124874574Y-99486524D01*
X124957649Y-99470000D01*
X125042351Y-99470000D01*
X125125426Y-99486524D01*
X125125426Y-99486524D01*
G37*
G36*
X140335000Y-100135000D02*
G01*
X139565000Y-100135000D01*
X139565000Y-99415000D01*
X140335000Y-99415000D01*
X140335000Y-100135000D01*
X140335000Y-100135000D01*
G37*
G36*
X140335000Y-99135000D02*
G01*
X139565000Y-99135000D01*
X139565000Y-98415000D01*
X140335000Y-98415000D01*
X140335000Y-99135000D01*
X140335000Y-99135000D01*
G37*
G36*
X140335000Y-98135000D02*
G01*
X139565000Y-98135000D01*
X139565000Y-97415000D01*
X140335000Y-97415000D01*
X140335000Y-98135000D01*
X140335000Y-98135000D01*
G37*
G36*
X125805276Y-97196294D02*
G01*
X125887270Y-97221168D01*
X125962843Y-97261561D01*
X126029080Y-97315920D01*
X126083439Y-97382157D01*
X126123832Y-97457730D01*
X126148706Y-97539724D01*
X126157104Y-97625000D01*
X126148706Y-97710276D01*
X126123832Y-97792270D01*
X126083439Y-97867843D01*
X126029080Y-97934080D01*
X125962843Y-97988439D01*
X125887270Y-98028832D01*
X125805276Y-98053706D01*
X125741366Y-98060000D01*
X124698634Y-98060000D01*
X124634724Y-98053706D01*
X124552730Y-98028832D01*
X124477157Y-97988439D01*
X124410920Y-97934080D01*
X124356561Y-97867843D01*
X124316168Y-97792270D01*
X124291294Y-97710276D01*
X124282896Y-97625000D01*
X124291294Y-97539724D01*
X124316168Y-97457730D01*
X124356561Y-97382157D01*
X124410920Y-97315920D01*
X124477157Y-97261561D01*
X124552730Y-97221168D01*
X124634724Y-97196294D01*
X124698634Y-97190000D01*
X125741366Y-97190000D01*
X125805276Y-97196294D01*
X125805276Y-97196294D01*
G37*
G36*
X141485000Y-97635000D02*
G01*
X140815000Y-97635000D01*
X140815000Y-96915000D01*
X141485000Y-96915000D01*
X141485000Y-97635000D01*
X141485000Y-97635000D01*
G37*
G36*
X140335000Y-97135000D02*
G01*
X139565000Y-97135000D01*
X139565000Y-96415000D01*
X140335000Y-96415000D01*
X140335000Y-97135000D01*
X140335000Y-97135000D01*
G37*
G36*
X120925000Y-97025000D02*
G01*
X118850000Y-97025000D01*
X118850000Y-85075000D01*
X120925000Y-85075000D01*
X120925000Y-97025000D01*
X120925000Y-97025000D01*
G37*
G36*
X149206040Y-93210067D02*
G01*
X149382333Y-93245134D01*
X149519904Y-93302118D01*
X149714460Y-93382705D01*
X150013369Y-93582430D01*
X150267570Y-93836631D01*
X150467295Y-94135540D01*
X150604866Y-94467668D01*
X150675000Y-94820252D01*
X150675000Y-95179748D01*
X150604866Y-95532332D01*
X150467295Y-95864460D01*
X150267570Y-96163369D01*
X150013369Y-96417570D01*
X149714460Y-96617295D01*
X149519904Y-96697882D01*
X149382333Y-96754866D01*
X149206040Y-96789933D01*
X149029748Y-96825000D01*
X148670252Y-96825000D01*
X148493960Y-96789933D01*
X148317667Y-96754866D01*
X148180096Y-96697882D01*
X147985540Y-96617295D01*
X147686631Y-96417570D01*
X147432430Y-96163369D01*
X147232705Y-95864460D01*
X147095134Y-95532332D01*
X147025000Y-95179748D01*
X147025000Y-94820252D01*
X147095134Y-94467668D01*
X147232705Y-94135540D01*
X147432430Y-93836631D01*
X147686631Y-93582430D01*
X147985540Y-93382705D01*
X148180096Y-93302118D01*
X148317667Y-93245134D01*
X148493960Y-93210067D01*
X148670252Y-93175000D01*
X149029748Y-93175000D01*
X149206040Y-93210067D01*
X149206040Y-93210067D01*
G37*
G36*
X140335000Y-96135000D02*
G01*
X139565000Y-96135000D01*
X139565000Y-95415000D01*
X140335000Y-95415000D01*
X140335000Y-96135000D01*
X140335000Y-96135000D01*
G37*
G36*
X128385000Y-95460000D02*
G01*
X127615000Y-95460000D01*
X127615000Y-94790000D01*
X128385000Y-94790000D01*
X128385000Y-95460000D01*
X128385000Y-95460000D01*
G37*
G36*
X128485000Y-92647500D02*
G01*
X127615000Y-92647500D01*
X127615000Y-91327500D01*
X128485000Y-91327500D01*
X128485000Y-92647500D01*
X128485000Y-92647500D01*
G37*
G36*
X143185000Y-91910000D02*
G01*
X142265000Y-91910000D01*
X142265000Y-90940000D01*
X143185000Y-90940000D01*
X143185000Y-91910000D01*
X143185000Y-91910000D01*
G37*
G36*
X139470000Y-90310000D02*
G01*
X138800000Y-90310000D01*
X138800000Y-87290000D01*
X139470000Y-87290000D01*
X139470000Y-90310000D01*
X139470000Y-90310000D01*
G37*
G36*
X128320000Y-90160000D02*
G01*
X126600000Y-90160000D01*
X126600000Y-88440000D01*
X128320000Y-88440000D01*
X128320000Y-90160000D01*
X128320000Y-90160000D01*
G37*
G36*
X134568589Y-87992444D02*
G01*
X134730700Y-88041619D01*
X134880102Y-88121476D01*
X135011054Y-88228946D01*
X135118524Y-88359898D01*
X135198381Y-88509300D01*
X135247556Y-88671411D01*
X135264161Y-88840000D01*
X135247556Y-89008589D01*
X135198381Y-89170700D01*
X135118524Y-89320102D01*
X135011054Y-89451054D01*
X134880102Y-89558524D01*
X134730700Y-89638381D01*
X134568589Y-89687556D01*
X134442246Y-89700000D01*
X134357754Y-89700000D01*
X134231411Y-89687556D01*
X134069300Y-89638381D01*
X133919898Y-89558524D01*
X133788946Y-89451054D01*
X133681476Y-89320102D01*
X133601619Y-89170700D01*
X133552444Y-89008589D01*
X133535839Y-88840000D01*
X133552444Y-88671411D01*
X133601619Y-88509300D01*
X133681476Y-88359898D01*
X133788946Y-88228946D01*
X133919898Y-88121476D01*
X134069300Y-88041619D01*
X134231411Y-87992444D01*
X134357754Y-87980000D01*
X134442246Y-87980000D01*
X134568589Y-87992444D01*
X134568589Y-87992444D01*
G37*
G36*
X147660000Y-88850000D02*
G01*
X145240000Y-88850000D01*
X145240000Y-88090000D01*
X147660000Y-88090000D01*
X147660000Y-88850000D01*
X147660000Y-88850000D01*
G37*
G36*
X143760000Y-88850000D02*
G01*
X141340000Y-88850000D01*
X141340000Y-88090000D01*
X143760000Y-88090000D01*
X143760000Y-88850000D01*
X143760000Y-88850000D01*
G37*
G36*
X147660000Y-87580000D02*
G01*
X145240000Y-87580000D01*
X145240000Y-86820000D01*
X147660000Y-86820000D01*
X147660000Y-87580000D01*
X147660000Y-87580000D01*
G37*
G36*
X143760000Y-87580000D02*
G01*
X141340000Y-87580000D01*
X141340000Y-86820000D01*
X143760000Y-86820000D01*
X143760000Y-87580000D01*
X143760000Y-87580000D01*
G37*
G36*
X138200000Y-87310000D02*
G01*
X137530000Y-87310000D01*
X137530000Y-84290000D01*
X138200000Y-84290000D01*
X138200000Y-87310000D01*
X138200000Y-87310000D01*
G37*
G36*
X130860000Y-87160000D02*
G01*
X129140000Y-87160000D01*
X129140000Y-85440000D01*
X130860000Y-85440000D01*
X130860000Y-87160000D01*
X130860000Y-87160000D01*
G37*
G36*
X135260000Y-87160000D02*
G01*
X133540000Y-87160000D01*
X133540000Y-85440000D01*
X135260000Y-85440000D01*
X135260000Y-87160000D01*
X135260000Y-87160000D01*
G37*
G36*
X127628589Y-85452444D02*
G01*
X127790700Y-85501619D01*
X127940102Y-85581476D01*
X128071054Y-85688946D01*
X128178524Y-85819898D01*
X128258381Y-85969300D01*
X128307556Y-86131411D01*
X128324161Y-86300000D01*
X128307556Y-86468589D01*
X128258381Y-86630700D01*
X128178524Y-86780102D01*
X128071054Y-86911054D01*
X127940102Y-87018524D01*
X127790700Y-87098381D01*
X127628589Y-87147556D01*
X127502246Y-87160000D01*
X127417754Y-87160000D01*
X127291411Y-87147556D01*
X127129300Y-87098381D01*
X126979898Y-87018524D01*
X126848946Y-86911054D01*
X126741476Y-86780102D01*
X126661619Y-86630700D01*
X126612444Y-86468589D01*
X126595839Y-86300000D01*
X126612444Y-86131411D01*
X126661619Y-85969300D01*
X126741476Y-85819898D01*
X126848946Y-85688946D01*
X126979898Y-85581476D01*
X127129300Y-85501619D01*
X127291411Y-85452444D01*
X127417754Y-85440000D01*
X127502246Y-85440000D01*
X127628589Y-85452444D01*
X127628589Y-85452444D01*
G37*
G36*
X125088589Y-85452444D02*
G01*
X125250700Y-85501619D01*
X125400102Y-85581476D01*
X125531054Y-85688946D01*
X125638524Y-85819898D01*
X125718381Y-85969300D01*
X125767556Y-86131411D01*
X125784161Y-86300000D01*
X125767556Y-86468589D01*
X125718381Y-86630700D01*
X125638524Y-86780102D01*
X125531054Y-86911054D01*
X125400102Y-87018524D01*
X125250700Y-87098381D01*
X125088589Y-87147556D01*
X124962246Y-87160000D01*
X124877754Y-87160000D01*
X124751411Y-87147556D01*
X124589300Y-87098381D01*
X124439898Y-87018524D01*
X124308946Y-86911054D01*
X124201476Y-86780102D01*
X124121619Y-86630700D01*
X124072444Y-86468589D01*
X124055839Y-86300000D01*
X124072444Y-86131411D01*
X124121619Y-85969300D01*
X124201476Y-85819898D01*
X124308946Y-85688946D01*
X124439898Y-85581476D01*
X124589300Y-85501619D01*
X124751411Y-85452444D01*
X124877754Y-85440000D01*
X124962246Y-85440000D01*
X125088589Y-85452444D01*
X125088589Y-85452444D01*
G37*
G36*
X147660000Y-86310000D02*
G01*
X145240000Y-86310000D01*
X145240000Y-85550000D01*
X147660000Y-85550000D01*
X147660000Y-86310000D01*
X147660000Y-86310000D01*
G37*
G36*
X143760000Y-86310000D02*
G01*
X141340000Y-86310000D01*
X141340000Y-85550000D01*
X143760000Y-85550000D01*
X143760000Y-86310000D01*
X143760000Y-86310000D01*
G37*
M02*
