G04 #@! TF.GenerationSoftware,KiCad,Pcbnew,5.1.4-3.fc30*
G04 #@! TF.CreationDate,2019-12-03T21:39:27-05:00*
G04 #@! TF.ProjectId,librem5-m2-breakout,6c696272-656d-4352-9d6d-322d62726561,rev?*
G04 #@! TF.SameCoordinates,Original*
G04 #@! TF.FileFunction,Copper,L2,Inr*
G04 #@! TF.FilePolarity,Positive*
%FSLAX46Y46*%
G04 Gerber Fmt 4.6, Leading zero omitted, Abs format (unit mm)*
G04 Created by KiCad (PCBNEW 5.1.4-3.fc30) date 2019-12-03 21:39:27*
%MOMM*%
%LPD*%
G04 APERTURE LIST*
%ADD10R,1.700000X1.700000*%
%ADD11O,1.700000X1.700000*%
%ADD12C,6.150000*%
%ADD13R,0.840000X0.840000*%
%ADD14C,0.840000*%
%ADD15O,1.850000X0.850000*%
%ADD16C,0.800000*%
%ADD17C,0.250000*%
%ADD18C,0.254000*%
G04 APERTURE END LIST*
D10*
X130000000Y-86300000D03*
D11*
X127460000Y-86300000D03*
X124920000Y-86300000D03*
D10*
X127460000Y-89300000D03*
D12*
X148850000Y-95000000D03*
D11*
X134400000Y-88840000D03*
D10*
X134400000Y-86300000D03*
D13*
X125000000Y-102500000D03*
D14*
X126000000Y-101850000D03*
X125000000Y-101200000D03*
X126000000Y-100550000D03*
X125000000Y-99900000D03*
D15*
X125220000Y-104775000D03*
X125220000Y-97625000D03*
D16*
X122300000Y-86200000D03*
X138900000Y-99000000D03*
X131300000Y-96800000D03*
X127200000Y-105400000D03*
X137724990Y-103289853D03*
X144400000Y-91100000D03*
X147100000Y-105200000D03*
X139900000Y-104200000D03*
X142400000Y-101300000D03*
X125300000Y-92000000D03*
X130400000Y-104875000D03*
X143200000Y-89600000D03*
X123000000Y-103000016D03*
X122000000Y-93900000D03*
X131300000Y-102250000D03*
X138800000Y-102000000D03*
X123400000Y-101900000D03*
X138900000Y-97800000D03*
X123799996Y-100900000D03*
X135600000Y-90100000D03*
X142400000Y-98700000D03*
X141400000Y-96000000D03*
X132600000Y-87600000D03*
X135400000Y-93300000D03*
X126696500Y-104594400D03*
X126674979Y-99825000D03*
X131100000Y-93774980D03*
X132500000Y-93700000D03*
X123900000Y-93900016D03*
X125300000Y-93900000D03*
X123700000Y-90900000D03*
X122700004Y-91900000D03*
X141600000Y-93975000D03*
X142800000Y-94000000D03*
X130500008Y-93000000D03*
X130500000Y-91999998D03*
D17*
X125650000Y-100550000D02*
X125000000Y-99900000D01*
X126000000Y-100550000D02*
X125650000Y-100550000D01*
X127950000Y-102250000D02*
X131300000Y-102250000D01*
X126000000Y-100550000D02*
X126250000Y-100550000D01*
X126250000Y-100550000D02*
X127950000Y-102250000D01*
D18*
G36*
X148190000Y-105340000D02*
G01*
X128235000Y-105340000D01*
X128235000Y-105298061D01*
X128195226Y-105098102D01*
X128117205Y-104909744D01*
X128003937Y-104740226D01*
X127859774Y-104596063D01*
X127731500Y-104510353D01*
X127731500Y-104492461D01*
X127691726Y-104292502D01*
X127613705Y-104104144D01*
X127500437Y-103934626D01*
X127356274Y-103790463D01*
X127186756Y-103677195D01*
X126998398Y-103599174D01*
X126798439Y-103559400D01*
X126594561Y-103559400D01*
X126394602Y-103599174D01*
X126206244Y-103677195D01*
X126069909Y-103768291D01*
X126051355Y-103760144D01*
X125847000Y-103715000D01*
X125347000Y-103715000D01*
X125347000Y-104648000D01*
X125367000Y-104648000D01*
X125367000Y-104902000D01*
X125347000Y-104902000D01*
X125347000Y-104922000D01*
X125093000Y-104922000D01*
X125093000Y-104902000D01*
X123827743Y-104902000D01*
X123700460Y-105065062D01*
X123768084Y-105258308D01*
X123820214Y-105340000D01*
X123505057Y-105340000D01*
X123501311Y-105304360D01*
X123500450Y-105295617D01*
X123500362Y-105295325D01*
X123496173Y-105255473D01*
X123484140Y-105196854D01*
X123472936Y-105138116D01*
X123470272Y-105129294D01*
X123441416Y-105036075D01*
X123418238Y-104980937D01*
X123395825Y-104925463D01*
X123391498Y-104917327D01*
X123345085Y-104831489D01*
X123311645Y-104781913D01*
X123278881Y-104731844D01*
X123273057Y-104724703D01*
X123210855Y-104649514D01*
X123168406Y-104607361D01*
X123126561Y-104564629D01*
X123119460Y-104558755D01*
X123043839Y-104497079D01*
X123025566Y-104484938D01*
X123700460Y-104484938D01*
X123827743Y-104648000D01*
X125093000Y-104648000D01*
X125093000Y-103715000D01*
X124593000Y-103715000D01*
X124388645Y-103760144D01*
X124197023Y-103844288D01*
X124025499Y-103964199D01*
X123880664Y-104115269D01*
X123768084Y-104291692D01*
X123700460Y-104484938D01*
X123025566Y-104484938D01*
X122994034Y-104463988D01*
X122944650Y-104430174D01*
X122936544Y-104425792D01*
X122850383Y-104379980D01*
X122795091Y-104357191D01*
X122740102Y-104333622D01*
X122731299Y-104330897D01*
X122637881Y-104302692D01*
X122579174Y-104291067D01*
X122520684Y-104278635D01*
X122511530Y-104277673D01*
X122511524Y-104277672D01*
X122511519Y-104277672D01*
X122414402Y-104268150D01*
X122382419Y-104265000D01*
X119510000Y-104265000D01*
X119510000Y-101798061D01*
X122365000Y-101798061D01*
X122365000Y-102001939D01*
X122404774Y-102201898D01*
X122482795Y-102390256D01*
X122596063Y-102559774D01*
X122740226Y-102703937D01*
X122909744Y-102817205D01*
X123098102Y-102895226D01*
X123298061Y-102935000D01*
X123501939Y-102935000D01*
X123701898Y-102895226D01*
X123890256Y-102817205D01*
X123941928Y-102782679D01*
X123941928Y-102920000D01*
X123954188Y-103044482D01*
X123990498Y-103164180D01*
X124049463Y-103274494D01*
X124128815Y-103371185D01*
X124225506Y-103450537D01*
X124335820Y-103509502D01*
X124455518Y-103545812D01*
X124580000Y-103558072D01*
X125420000Y-103558072D01*
X125544482Y-103545812D01*
X125664180Y-103509502D01*
X125774494Y-103450537D01*
X125871185Y-103371185D01*
X125950537Y-103274494D01*
X125996815Y-103187914D01*
X136689990Y-103187914D01*
X136689990Y-103391792D01*
X136729764Y-103591751D01*
X136807785Y-103780109D01*
X136921053Y-103949627D01*
X137065216Y-104093790D01*
X137234734Y-104207058D01*
X137423092Y-104285079D01*
X137623051Y-104324853D01*
X137826929Y-104324853D01*
X138026888Y-104285079D01*
X138215246Y-104207058D01*
X138384764Y-104093790D01*
X138528927Y-103949627D01*
X138642195Y-103780109D01*
X138720216Y-103591751D01*
X138759990Y-103391792D01*
X138759990Y-103187914D01*
X138729574Y-103035000D01*
X138901939Y-103035000D01*
X139101898Y-102995226D01*
X139290256Y-102917205D01*
X139459774Y-102803937D01*
X139603937Y-102659774D01*
X139717205Y-102490256D01*
X139795226Y-102301898D01*
X139835000Y-102101939D01*
X139835000Y-101898061D01*
X139795226Y-101698102D01*
X139717205Y-101509744D01*
X139603937Y-101340226D01*
X139459774Y-101196063D01*
X139290256Y-101082795D01*
X139101898Y-101004774D01*
X138901939Y-100965000D01*
X138698061Y-100965000D01*
X138498102Y-101004774D01*
X138309744Y-101082795D01*
X138140226Y-101196063D01*
X137996063Y-101340226D01*
X137882795Y-101509744D01*
X137804774Y-101698102D01*
X137765000Y-101898061D01*
X137765000Y-102101939D01*
X137795416Y-102254853D01*
X137623051Y-102254853D01*
X137423092Y-102294627D01*
X137234734Y-102372648D01*
X137065216Y-102485916D01*
X136921053Y-102630079D01*
X136807785Y-102799597D01*
X136729764Y-102987955D01*
X136689990Y-103187914D01*
X125996815Y-103187914D01*
X126009502Y-103164180D01*
X126045812Y-103044482D01*
X126058072Y-102920000D01*
X126058072Y-102905000D01*
X126103908Y-102905000D01*
X126307732Y-102864457D01*
X126499730Y-102784929D01*
X126672523Y-102669472D01*
X126819472Y-102522523D01*
X126934929Y-102349730D01*
X127014457Y-102157732D01*
X127055000Y-101953908D01*
X127055000Y-101746092D01*
X127014457Y-101542268D01*
X126934929Y-101350270D01*
X126819472Y-101177477D01*
X126731828Y-101089833D01*
X126926115Y-101065881D01*
X127008963Y-100875292D01*
X127025263Y-100800184D01*
X127165235Y-100742205D01*
X127334753Y-100628937D01*
X127478916Y-100484774D01*
X127592184Y-100315256D01*
X127670205Y-100126898D01*
X127709979Y-99926939D01*
X127709979Y-99723061D01*
X127670205Y-99523102D01*
X127592184Y-99334744D01*
X127478916Y-99165226D01*
X127334753Y-99021063D01*
X127165235Y-98907795D01*
X126976877Y-98829774D01*
X126776918Y-98790000D01*
X126573040Y-98790000D01*
X126373081Y-98829774D01*
X126184723Y-98907795D01*
X126015205Y-99021063D01*
X125871042Y-99165226D01*
X125757774Y-99334744D01*
X125746494Y-99361975D01*
X125720798Y-99358807D01*
X125179605Y-99900000D01*
X125193748Y-99914143D01*
X125014143Y-100093748D01*
X125000000Y-100079605D01*
X124985858Y-100093748D01*
X124806253Y-99914143D01*
X124820395Y-99900000D01*
X124279202Y-99358807D01*
X124073885Y-99384119D01*
X123991037Y-99574708D01*
X123946962Y-99777796D01*
X123945298Y-99873625D01*
X123901935Y-99865000D01*
X123698057Y-99865000D01*
X123498098Y-99904774D01*
X123309740Y-99982795D01*
X123140222Y-100096063D01*
X122996059Y-100240226D01*
X122882791Y-100409744D01*
X122804770Y-100598102D01*
X122764996Y-100798061D01*
X122764996Y-101001939D01*
X122778616Y-101070412D01*
X122740226Y-101096063D01*
X122596063Y-101240226D01*
X122482795Y-101409744D01*
X122404774Y-101598102D01*
X122365000Y-101798061D01*
X119510000Y-101798061D01*
X119510000Y-99179202D01*
X124458807Y-99179202D01*
X125000000Y-99720395D01*
X125541193Y-99179202D01*
X125515881Y-98973885D01*
X125325292Y-98891037D01*
X125122204Y-98846962D01*
X124914418Y-98843355D01*
X124709921Y-98880354D01*
X124516572Y-98956538D01*
X124484119Y-98973885D01*
X124458807Y-99179202D01*
X119510000Y-99179202D01*
X119510000Y-98885000D01*
X121782419Y-98885000D01*
X121814991Y-98881792D01*
X121822782Y-98881792D01*
X121831947Y-98880829D01*
X121948317Y-98867776D01*
X122006834Y-98855337D01*
X122065512Y-98843719D01*
X122074315Y-98840994D01*
X122185933Y-98805586D01*
X122240904Y-98782024D01*
X122296216Y-98759227D01*
X122304322Y-98754844D01*
X122406937Y-98698431D01*
X122456298Y-98664632D01*
X122506118Y-98631533D01*
X122513218Y-98625659D01*
X122602922Y-98550389D01*
X122644767Y-98507659D01*
X122687223Y-98465498D01*
X122693047Y-98458357D01*
X122766422Y-98367097D01*
X122799178Y-98317041D01*
X122832629Y-98267447D01*
X122836955Y-98259310D01*
X122891206Y-98155536D01*
X122913608Y-98100087D01*
X122936794Y-98044931D01*
X122939457Y-98036109D01*
X122972519Y-97923775D01*
X122974181Y-97915062D01*
X123700460Y-97915062D01*
X123768084Y-98108308D01*
X123880664Y-98284731D01*
X124025499Y-98435801D01*
X124197023Y-98555712D01*
X124388645Y-98639856D01*
X124593000Y-98685000D01*
X125093000Y-98685000D01*
X125093000Y-97752000D01*
X125347000Y-97752000D01*
X125347000Y-98685000D01*
X125847000Y-98685000D01*
X126051355Y-98639856D01*
X126242977Y-98555712D01*
X126414501Y-98435801D01*
X126559336Y-98284731D01*
X126671916Y-98108308D01*
X126739540Y-97915062D01*
X126612257Y-97752000D01*
X125347000Y-97752000D01*
X125093000Y-97752000D01*
X123827743Y-97752000D01*
X123700460Y-97915062D01*
X122974181Y-97915062D01*
X122983724Y-97865034D01*
X122995757Y-97806417D01*
X122996656Y-97797246D01*
X123007269Y-97680628D01*
X123006851Y-97620811D01*
X123007269Y-97560994D01*
X123006370Y-97551823D01*
X122994130Y-97435365D01*
X122982098Y-97376753D01*
X122974123Y-97334938D01*
X123700460Y-97334938D01*
X123827743Y-97498000D01*
X125093000Y-97498000D01*
X125093000Y-96565000D01*
X125347000Y-96565000D01*
X125347000Y-97498000D01*
X126612257Y-97498000D01*
X126739540Y-97334938D01*
X126671916Y-97141692D01*
X126559336Y-96965269D01*
X126414501Y-96814199D01*
X126248375Y-96698061D01*
X130265000Y-96698061D01*
X130265000Y-96901939D01*
X130304774Y-97101898D01*
X130382795Y-97290256D01*
X130496063Y-97459774D01*
X130640226Y-97603937D01*
X130809744Y-97717205D01*
X130998102Y-97795226D01*
X131198061Y-97835000D01*
X131401939Y-97835000D01*
X131601898Y-97795226D01*
X131790256Y-97717205D01*
X131818907Y-97698061D01*
X137865000Y-97698061D01*
X137865000Y-97901939D01*
X137904774Y-98101898D01*
X137982795Y-98290256D01*
X138056123Y-98400000D01*
X137982795Y-98509744D01*
X137904774Y-98698102D01*
X137865000Y-98898061D01*
X137865000Y-99101939D01*
X137904774Y-99301898D01*
X137982795Y-99490256D01*
X138096063Y-99659774D01*
X138240226Y-99803937D01*
X138409744Y-99917205D01*
X138598102Y-99995226D01*
X138798061Y-100035000D01*
X139001939Y-100035000D01*
X139201898Y-99995226D01*
X139390256Y-99917205D01*
X139559774Y-99803937D01*
X139703937Y-99659774D01*
X139817205Y-99490256D01*
X139895226Y-99301898D01*
X139935000Y-99101939D01*
X139935000Y-98898061D01*
X139895226Y-98698102D01*
X139853788Y-98598061D01*
X141365000Y-98598061D01*
X141365000Y-98801939D01*
X141404774Y-99001898D01*
X141482795Y-99190256D01*
X141596063Y-99359774D01*
X141740226Y-99503937D01*
X141909744Y-99617205D01*
X142098102Y-99695226D01*
X142298061Y-99735000D01*
X142501939Y-99735000D01*
X142701898Y-99695226D01*
X142890256Y-99617205D01*
X143059774Y-99503937D01*
X143203937Y-99359774D01*
X143317205Y-99190256D01*
X143395226Y-99001898D01*
X143435000Y-98801939D01*
X143435000Y-98598061D01*
X143395226Y-98398102D01*
X143317205Y-98209744D01*
X143203937Y-98040226D01*
X143059774Y-97896063D01*
X142890256Y-97782795D01*
X142701898Y-97704774D01*
X142501939Y-97665000D01*
X142298061Y-97665000D01*
X142098102Y-97704774D01*
X141909744Y-97782795D01*
X141740226Y-97896063D01*
X141596063Y-98040226D01*
X141482795Y-98209744D01*
X141404774Y-98398102D01*
X141365000Y-98598061D01*
X139853788Y-98598061D01*
X139817205Y-98509744D01*
X139743877Y-98400000D01*
X139817205Y-98290256D01*
X139895226Y-98101898D01*
X139935000Y-97901939D01*
X139935000Y-97698061D01*
X139895226Y-97498102D01*
X139817205Y-97309744D01*
X139703937Y-97140226D01*
X139559774Y-96996063D01*
X139390256Y-96882795D01*
X139201898Y-96804774D01*
X139001939Y-96765000D01*
X138798061Y-96765000D01*
X138598102Y-96804774D01*
X138409744Y-96882795D01*
X138240226Y-96996063D01*
X138096063Y-97140226D01*
X137982795Y-97309744D01*
X137904774Y-97498102D01*
X137865000Y-97698061D01*
X131818907Y-97698061D01*
X131959774Y-97603937D01*
X132103937Y-97459774D01*
X132217205Y-97290256D01*
X132295226Y-97101898D01*
X132335000Y-96901939D01*
X132335000Y-96698061D01*
X132295226Y-96498102D01*
X132217205Y-96309744D01*
X132103937Y-96140226D01*
X131959774Y-95996063D01*
X131813104Y-95898061D01*
X140365000Y-95898061D01*
X140365000Y-96101939D01*
X140404774Y-96301898D01*
X140482795Y-96490256D01*
X140596063Y-96659774D01*
X140740226Y-96803937D01*
X140909744Y-96917205D01*
X141098102Y-96995226D01*
X141298061Y-97035000D01*
X141501939Y-97035000D01*
X141701898Y-96995226D01*
X141890256Y-96917205D01*
X142059774Y-96803937D01*
X142203937Y-96659774D01*
X142317205Y-96490256D01*
X142395226Y-96301898D01*
X142435000Y-96101939D01*
X142435000Y-95898061D01*
X142395226Y-95698102D01*
X142317205Y-95509744D01*
X142203937Y-95340226D01*
X142059774Y-95196063D01*
X141890256Y-95082795D01*
X141710435Y-95008310D01*
X141901898Y-94970226D01*
X142090256Y-94892205D01*
X142181292Y-94831377D01*
X142309744Y-94917205D01*
X142498102Y-94995226D01*
X142698061Y-95035000D01*
X142901939Y-95035000D01*
X143101898Y-94995226D01*
X143290256Y-94917205D01*
X143459774Y-94803937D01*
X143603937Y-94659774D01*
X143717205Y-94490256D01*
X143795226Y-94301898D01*
X143835000Y-94101939D01*
X143835000Y-93898061D01*
X143795226Y-93698102D01*
X143717205Y-93509744D01*
X143603937Y-93340226D01*
X143459774Y-93196063D01*
X143290256Y-93082795D01*
X143101898Y-93004774D01*
X142901939Y-92965000D01*
X142698061Y-92965000D01*
X142498102Y-93004774D01*
X142309744Y-93082795D01*
X142218708Y-93143623D01*
X142090256Y-93057795D01*
X141901898Y-92979774D01*
X141701939Y-92940000D01*
X141498061Y-92940000D01*
X141298102Y-92979774D01*
X141109744Y-93057795D01*
X140940226Y-93171063D01*
X140796063Y-93315226D01*
X140682795Y-93484744D01*
X140604774Y-93673102D01*
X140565000Y-93873061D01*
X140565000Y-94076939D01*
X140604774Y-94276898D01*
X140682795Y-94465256D01*
X140796063Y-94634774D01*
X140940226Y-94778937D01*
X141109744Y-94892205D01*
X141289565Y-94966690D01*
X141098102Y-95004774D01*
X140909744Y-95082795D01*
X140740226Y-95196063D01*
X140596063Y-95340226D01*
X140482795Y-95509744D01*
X140404774Y-95698102D01*
X140365000Y-95898061D01*
X131813104Y-95898061D01*
X131790256Y-95882795D01*
X131601898Y-95804774D01*
X131401939Y-95765000D01*
X131198061Y-95765000D01*
X130998102Y-95804774D01*
X130809744Y-95882795D01*
X130640226Y-95996063D01*
X130496063Y-96140226D01*
X130382795Y-96309744D01*
X130304774Y-96498102D01*
X130265000Y-96698061D01*
X126248375Y-96698061D01*
X126242977Y-96694288D01*
X126051355Y-96610144D01*
X125847000Y-96565000D01*
X125347000Y-96565000D01*
X125093000Y-96565000D01*
X124593000Y-96565000D01*
X124388645Y-96610144D01*
X124197023Y-96694288D01*
X124025499Y-96814199D01*
X123880664Y-96965269D01*
X123768084Y-97141692D01*
X123700460Y-97334938D01*
X122974123Y-97334938D01*
X122970893Y-97318008D01*
X122968229Y-97309186D01*
X122933602Y-97197324D01*
X122910416Y-97142168D01*
X122888014Y-97086719D01*
X122883688Y-97078582D01*
X122827993Y-96975575D01*
X122794557Y-96926005D01*
X122761785Y-96875923D01*
X122755960Y-96868782D01*
X122681318Y-96778556D01*
X122638884Y-96736418D01*
X122597022Y-96693669D01*
X122589921Y-96687796D01*
X122589918Y-96687793D01*
X122589914Y-96687791D01*
X122499176Y-96613785D01*
X122449376Y-96580698D01*
X122399993Y-96546884D01*
X122391891Y-96542505D01*
X122391887Y-96542502D01*
X122391883Y-96542500D01*
X122288493Y-96487527D01*
X122233234Y-96464751D01*
X122178205Y-96441165D01*
X122169402Y-96438441D01*
X122057301Y-96404596D01*
X121998628Y-96392979D01*
X121940111Y-96380540D01*
X121930946Y-96379577D01*
X121814405Y-96368150D01*
X121814402Y-96368150D01*
X121782419Y-96365000D01*
X119510000Y-96365000D01*
X119510000Y-93798077D01*
X122865000Y-93798077D01*
X122865000Y-94001955D01*
X122904774Y-94201914D01*
X122982795Y-94390272D01*
X123096063Y-94559790D01*
X123240226Y-94703953D01*
X123409744Y-94817221D01*
X123598102Y-94895242D01*
X123798061Y-94935016D01*
X124001939Y-94935016D01*
X124201898Y-94895242D01*
X124390256Y-94817221D01*
X124559774Y-94703953D01*
X124600008Y-94663719D01*
X124640226Y-94703937D01*
X124809744Y-94817205D01*
X124998102Y-94895226D01*
X125198061Y-94935000D01*
X125401939Y-94935000D01*
X125601898Y-94895226D01*
X125790256Y-94817205D01*
X125959774Y-94703937D01*
X126103937Y-94559774D01*
X126217205Y-94390256D01*
X126295226Y-94201898D01*
X126335000Y-94001939D01*
X126335000Y-93798061D01*
X126295226Y-93598102D01*
X126217205Y-93409744D01*
X126103937Y-93240226D01*
X125959774Y-93096063D01*
X125790256Y-92982795D01*
X125601898Y-92904774D01*
X125401939Y-92865000D01*
X125198061Y-92865000D01*
X124998102Y-92904774D01*
X124809744Y-92982795D01*
X124640226Y-93096063D01*
X124599992Y-93136297D01*
X124559774Y-93096079D01*
X124390256Y-92982811D01*
X124201898Y-92904790D01*
X124001939Y-92865016D01*
X123798061Y-92865016D01*
X123598102Y-92904790D01*
X123409744Y-92982811D01*
X123240226Y-93096079D01*
X123096063Y-93240242D01*
X122982795Y-93409760D01*
X122904774Y-93598118D01*
X122865000Y-93798077D01*
X119510000Y-93798077D01*
X119510000Y-91798061D01*
X121665004Y-91798061D01*
X121665004Y-92001939D01*
X121704778Y-92201898D01*
X121782799Y-92390256D01*
X121896067Y-92559774D01*
X122040230Y-92703937D01*
X122209748Y-92817205D01*
X122398106Y-92895226D01*
X122598065Y-92935000D01*
X122801943Y-92935000D01*
X123001902Y-92895226D01*
X123190260Y-92817205D01*
X123359778Y-92703937D01*
X123503941Y-92559774D01*
X123617209Y-92390256D01*
X123695230Y-92201898D01*
X123735004Y-92001939D01*
X123735004Y-91935000D01*
X123801939Y-91935000D01*
X123987655Y-91898059D01*
X129465000Y-91898059D01*
X129465000Y-92101937D01*
X129504774Y-92301896D01*
X129582795Y-92490254D01*
X129589310Y-92500005D01*
X129582803Y-92509744D01*
X129504782Y-92698102D01*
X129465008Y-92898061D01*
X129465008Y-93101939D01*
X129504782Y-93301898D01*
X129582803Y-93490256D01*
X129696071Y-93659774D01*
X129840234Y-93803937D01*
X130009752Y-93917205D01*
X130078694Y-93945762D01*
X130104774Y-94076878D01*
X130182795Y-94265236D01*
X130296063Y-94434754D01*
X130440226Y-94578917D01*
X130609744Y-94692185D01*
X130798102Y-94770206D01*
X130998061Y-94809980D01*
X131201939Y-94809980D01*
X131401898Y-94770206D01*
X131590256Y-94692185D01*
X131759774Y-94578917D01*
X131837490Y-94501201D01*
X131840226Y-94503937D01*
X132009744Y-94617205D01*
X132198102Y-94695226D01*
X132398061Y-94735000D01*
X132601939Y-94735000D01*
X132801898Y-94695226D01*
X132990256Y-94617205D01*
X133159774Y-94503937D01*
X133303937Y-94359774D01*
X133417205Y-94190256D01*
X133495226Y-94001898D01*
X133535000Y-93801939D01*
X133535000Y-93598061D01*
X133495226Y-93398102D01*
X133417205Y-93209744D01*
X133409399Y-93198061D01*
X134365000Y-93198061D01*
X134365000Y-93401939D01*
X134404774Y-93601898D01*
X134482795Y-93790256D01*
X134596063Y-93959774D01*
X134740226Y-94103937D01*
X134909744Y-94217205D01*
X135098102Y-94295226D01*
X135298061Y-94335000D01*
X135501939Y-94335000D01*
X135701898Y-94295226D01*
X135890256Y-94217205D01*
X136059774Y-94103937D01*
X136203937Y-93959774D01*
X136317205Y-93790256D01*
X136395226Y-93601898D01*
X136435000Y-93401939D01*
X136435000Y-93198061D01*
X136395226Y-92998102D01*
X136317205Y-92809744D01*
X136203937Y-92640226D01*
X136059774Y-92496063D01*
X135890256Y-92382795D01*
X135701898Y-92304774D01*
X135501939Y-92265000D01*
X135298061Y-92265000D01*
X135098102Y-92304774D01*
X134909744Y-92382795D01*
X134740226Y-92496063D01*
X134596063Y-92640226D01*
X134482795Y-92809744D01*
X134404774Y-92998102D01*
X134365000Y-93198061D01*
X133409399Y-93198061D01*
X133303937Y-93040226D01*
X133159774Y-92896063D01*
X132990256Y-92782795D01*
X132801898Y-92704774D01*
X132601939Y-92665000D01*
X132398061Y-92665000D01*
X132198102Y-92704774D01*
X132009744Y-92782795D01*
X131840226Y-92896063D01*
X131762510Y-92973779D01*
X131759774Y-92971043D01*
X131590256Y-92857775D01*
X131521314Y-92829218D01*
X131495234Y-92698102D01*
X131417213Y-92509744D01*
X131410698Y-92499993D01*
X131417205Y-92490254D01*
X131495226Y-92301896D01*
X131535000Y-92101937D01*
X131535000Y-91898059D01*
X131495226Y-91698100D01*
X131417205Y-91509742D01*
X131303937Y-91340224D01*
X131159774Y-91196061D01*
X130990256Y-91082793D01*
X130801898Y-91004772D01*
X130601939Y-90964998D01*
X130398061Y-90964998D01*
X130198102Y-91004772D01*
X130009744Y-91082793D01*
X129840226Y-91196061D01*
X129696063Y-91340224D01*
X129582795Y-91509742D01*
X129504774Y-91698100D01*
X129465000Y-91898059D01*
X123987655Y-91898059D01*
X124001898Y-91895226D01*
X124190256Y-91817205D01*
X124359774Y-91703937D01*
X124503937Y-91559774D01*
X124617205Y-91390256D01*
X124695226Y-91201898D01*
X124735000Y-91001939D01*
X124735000Y-90798061D01*
X124695226Y-90598102D01*
X124617205Y-90409744D01*
X124503937Y-90240226D01*
X124359774Y-90096063D01*
X124190256Y-89982795D01*
X124001898Y-89904774D01*
X123801939Y-89865000D01*
X123598061Y-89865000D01*
X123398102Y-89904774D01*
X123209744Y-89982795D01*
X123040226Y-90096063D01*
X122896063Y-90240226D01*
X122782795Y-90409744D01*
X122704774Y-90598102D01*
X122665000Y-90798061D01*
X122665000Y-90865000D01*
X122598065Y-90865000D01*
X122398106Y-90904774D01*
X122209748Y-90982795D01*
X122040230Y-91096063D01*
X121896067Y-91240226D01*
X121782799Y-91409744D01*
X121704778Y-91598102D01*
X121665004Y-91798061D01*
X119510000Y-91798061D01*
X119510000Y-88450000D01*
X125971928Y-88450000D01*
X125971928Y-90150000D01*
X125984188Y-90274482D01*
X126020498Y-90394180D01*
X126079463Y-90504494D01*
X126158815Y-90601185D01*
X126255506Y-90680537D01*
X126365820Y-90739502D01*
X126485518Y-90775812D01*
X126610000Y-90788072D01*
X128310000Y-90788072D01*
X128434482Y-90775812D01*
X128554180Y-90739502D01*
X128664494Y-90680537D01*
X128761185Y-90601185D01*
X128840537Y-90504494D01*
X128899502Y-90394180D01*
X128935812Y-90274482D01*
X128948072Y-90150000D01*
X128948072Y-89196890D01*
X132958524Y-89196890D01*
X133003175Y-89344099D01*
X133128359Y-89606920D01*
X133302412Y-89840269D01*
X133518645Y-90035178D01*
X133768748Y-90184157D01*
X134043109Y-90281481D01*
X134273000Y-90160814D01*
X134273000Y-88967000D01*
X134527000Y-88967000D01*
X134527000Y-90160814D01*
X134565000Y-90180760D01*
X134565000Y-90201939D01*
X134604774Y-90401898D01*
X134682795Y-90590256D01*
X134796063Y-90759774D01*
X134940226Y-90903937D01*
X135109744Y-91017205D01*
X135298102Y-91095226D01*
X135498061Y-91135000D01*
X135701939Y-91135000D01*
X135901898Y-91095226D01*
X136090256Y-91017205D01*
X136259774Y-90903937D01*
X136403937Y-90759774D01*
X136517205Y-90590256D01*
X136595226Y-90401898D01*
X136635000Y-90201939D01*
X136635000Y-89998061D01*
X136595226Y-89798102D01*
X136517205Y-89609744D01*
X136403937Y-89440226D01*
X136259774Y-89296063D01*
X136090256Y-89182795D01*
X135901898Y-89104774D01*
X135780075Y-89080542D01*
X135720155Y-88967000D01*
X134527000Y-88967000D01*
X134273000Y-88967000D01*
X133079845Y-88967000D01*
X132958524Y-89196890D01*
X128948072Y-89196890D01*
X128948072Y-88450000D01*
X128935812Y-88325518D01*
X128899502Y-88205820D01*
X128840537Y-88095506D01*
X128761185Y-87998815D01*
X128664494Y-87919463D01*
X128554180Y-87860498D01*
X128434482Y-87824188D01*
X128310000Y-87811928D01*
X126610000Y-87811928D01*
X126485518Y-87824188D01*
X126365820Y-87860498D01*
X126255506Y-87919463D01*
X126158815Y-87998815D01*
X126079463Y-88095506D01*
X126020498Y-88205820D01*
X125984188Y-88325518D01*
X125971928Y-88450000D01*
X119510000Y-88450000D01*
X119510000Y-85735000D01*
X121372334Y-85735000D01*
X121304774Y-85898102D01*
X121265000Y-86098061D01*
X121265000Y-86301939D01*
X121304774Y-86501898D01*
X121382795Y-86690256D01*
X121496063Y-86859774D01*
X121640226Y-87003937D01*
X121809744Y-87117205D01*
X121998102Y-87195226D01*
X122198061Y-87235000D01*
X122401939Y-87235000D01*
X122601898Y-87195226D01*
X122790256Y-87117205D01*
X122959774Y-87003937D01*
X123103937Y-86859774D01*
X123217205Y-86690256D01*
X123231025Y-86656891D01*
X123478519Y-86656891D01*
X123575843Y-86931252D01*
X123724822Y-87181355D01*
X123919731Y-87397588D01*
X124153080Y-87571641D01*
X124415901Y-87696825D01*
X124563110Y-87741476D01*
X124793000Y-87620155D01*
X124793000Y-86427000D01*
X123599186Y-86427000D01*
X123478519Y-86656891D01*
X123231025Y-86656891D01*
X123295226Y-86501898D01*
X123335000Y-86301939D01*
X123335000Y-86098061D01*
X123304179Y-85943109D01*
X123478519Y-85943109D01*
X123599186Y-86173000D01*
X124793000Y-86173000D01*
X124793000Y-84979845D01*
X125047000Y-84979845D01*
X125047000Y-86173000D01*
X125067000Y-86173000D01*
X125067000Y-86427000D01*
X125047000Y-86427000D01*
X125047000Y-87620155D01*
X125276890Y-87741476D01*
X125424099Y-87696825D01*
X125686920Y-87571641D01*
X125920269Y-87397588D01*
X126115178Y-87181355D01*
X126184799Y-87064477D01*
X126219294Y-87129014D01*
X126404866Y-87355134D01*
X126630986Y-87540706D01*
X126888966Y-87678599D01*
X127168889Y-87763513D01*
X127387050Y-87785000D01*
X127532950Y-87785000D01*
X127751111Y-87763513D01*
X128031034Y-87678599D01*
X128289014Y-87540706D01*
X128515134Y-87355134D01*
X128539607Y-87325313D01*
X128560498Y-87394180D01*
X128619463Y-87504494D01*
X128698815Y-87601185D01*
X128795506Y-87680537D01*
X128905820Y-87739502D01*
X129025518Y-87775812D01*
X129150000Y-87788072D01*
X130850000Y-87788072D01*
X130974482Y-87775812D01*
X131094180Y-87739502D01*
X131204494Y-87680537D01*
X131301185Y-87601185D01*
X131380537Y-87504494D01*
X131383975Y-87498061D01*
X131565000Y-87498061D01*
X131565000Y-87701939D01*
X131604774Y-87901898D01*
X131682795Y-88090256D01*
X131796063Y-88259774D01*
X131940226Y-88403937D01*
X132109744Y-88517205D01*
X132298102Y-88595226D01*
X132498061Y-88635000D01*
X132701939Y-88635000D01*
X132901898Y-88595226D01*
X132996920Y-88555866D01*
X133079845Y-88713000D01*
X134273000Y-88713000D01*
X134273000Y-88693000D01*
X134527000Y-88693000D01*
X134527000Y-88713000D01*
X135720155Y-88713000D01*
X135841476Y-88483110D01*
X135796825Y-88335901D01*
X135671641Y-88073080D01*
X135497588Y-87839731D01*
X135413534Y-87763966D01*
X135494180Y-87739502D01*
X135604494Y-87680537D01*
X135701185Y-87601185D01*
X135780537Y-87504494D01*
X135839502Y-87394180D01*
X135875812Y-87274482D01*
X135888072Y-87150000D01*
X135888072Y-85450000D01*
X135875812Y-85325518D01*
X135839502Y-85205820D01*
X135780537Y-85095506D01*
X135701185Y-84998815D01*
X135604494Y-84919463D01*
X135494180Y-84860498D01*
X135374482Y-84824188D01*
X135250000Y-84811928D01*
X133550000Y-84811928D01*
X133425518Y-84824188D01*
X133305820Y-84860498D01*
X133195506Y-84919463D01*
X133098815Y-84998815D01*
X133019463Y-85095506D01*
X132960498Y-85205820D01*
X132924188Y-85325518D01*
X132911928Y-85450000D01*
X132911928Y-86608929D01*
X132901898Y-86604774D01*
X132701939Y-86565000D01*
X132498061Y-86565000D01*
X132298102Y-86604774D01*
X132109744Y-86682795D01*
X131940226Y-86796063D01*
X131796063Y-86940226D01*
X131682795Y-87109744D01*
X131604774Y-87298102D01*
X131565000Y-87498061D01*
X131383975Y-87498061D01*
X131439502Y-87394180D01*
X131475812Y-87274482D01*
X131488072Y-87150000D01*
X131488072Y-85450000D01*
X131475812Y-85325518D01*
X131439502Y-85205820D01*
X131380537Y-85095506D01*
X131301185Y-84998815D01*
X131204494Y-84919463D01*
X131094180Y-84860498D01*
X130974482Y-84824188D01*
X130850000Y-84811928D01*
X129150000Y-84811928D01*
X129025518Y-84824188D01*
X128905820Y-84860498D01*
X128795506Y-84919463D01*
X128698815Y-84998815D01*
X128619463Y-85095506D01*
X128560498Y-85205820D01*
X128539607Y-85274687D01*
X128515134Y-85244866D01*
X128289014Y-85059294D01*
X128031034Y-84921401D01*
X127751111Y-84836487D01*
X127532950Y-84815000D01*
X127387050Y-84815000D01*
X127168889Y-84836487D01*
X126888966Y-84921401D01*
X126630986Y-85059294D01*
X126404866Y-85244866D01*
X126219294Y-85470986D01*
X126184799Y-85535523D01*
X126115178Y-85418645D01*
X125920269Y-85202412D01*
X125686920Y-85028359D01*
X125424099Y-84903175D01*
X125276890Y-84858524D01*
X125047000Y-84979845D01*
X124793000Y-84979845D01*
X124563110Y-84858524D01*
X124415901Y-84903175D01*
X124153080Y-85028359D01*
X123919731Y-85202412D01*
X123724822Y-85418645D01*
X123575843Y-85668748D01*
X123478519Y-85943109D01*
X123304179Y-85943109D01*
X123295226Y-85898102D01*
X123217205Y-85709744D01*
X123103937Y-85540226D01*
X123056575Y-85492864D01*
X123125486Y-85435855D01*
X123167639Y-85393406D01*
X123210371Y-85351561D01*
X123216245Y-85344460D01*
X123277921Y-85268840D01*
X123311052Y-85218975D01*
X123344825Y-85169650D01*
X123349208Y-85161544D01*
X123395020Y-85075383D01*
X123417809Y-85020091D01*
X123441378Y-84965102D01*
X123444103Y-84956299D01*
X123472308Y-84862881D01*
X123483933Y-84804174D01*
X123496365Y-84745684D01*
X123497327Y-84736530D01*
X123497328Y-84736524D01*
X123497328Y-84736519D01*
X123504830Y-84660000D01*
X148190001Y-84660000D01*
X148190000Y-105340000D01*
X148190000Y-105340000D01*
G37*
X148190000Y-105340000D02*
X128235000Y-105340000D01*
X128235000Y-105298061D01*
X128195226Y-105098102D01*
X128117205Y-104909744D01*
X128003937Y-104740226D01*
X127859774Y-104596063D01*
X127731500Y-104510353D01*
X127731500Y-104492461D01*
X127691726Y-104292502D01*
X127613705Y-104104144D01*
X127500437Y-103934626D01*
X127356274Y-103790463D01*
X127186756Y-103677195D01*
X126998398Y-103599174D01*
X126798439Y-103559400D01*
X126594561Y-103559400D01*
X126394602Y-103599174D01*
X126206244Y-103677195D01*
X126069909Y-103768291D01*
X126051355Y-103760144D01*
X125847000Y-103715000D01*
X125347000Y-103715000D01*
X125347000Y-104648000D01*
X125367000Y-104648000D01*
X125367000Y-104902000D01*
X125347000Y-104902000D01*
X125347000Y-104922000D01*
X125093000Y-104922000D01*
X125093000Y-104902000D01*
X123827743Y-104902000D01*
X123700460Y-105065062D01*
X123768084Y-105258308D01*
X123820214Y-105340000D01*
X123505057Y-105340000D01*
X123501311Y-105304360D01*
X123500450Y-105295617D01*
X123500362Y-105295325D01*
X123496173Y-105255473D01*
X123484140Y-105196854D01*
X123472936Y-105138116D01*
X123470272Y-105129294D01*
X123441416Y-105036075D01*
X123418238Y-104980937D01*
X123395825Y-104925463D01*
X123391498Y-104917327D01*
X123345085Y-104831489D01*
X123311645Y-104781913D01*
X123278881Y-104731844D01*
X123273057Y-104724703D01*
X123210855Y-104649514D01*
X123168406Y-104607361D01*
X123126561Y-104564629D01*
X123119460Y-104558755D01*
X123043839Y-104497079D01*
X123025566Y-104484938D01*
X123700460Y-104484938D01*
X123827743Y-104648000D01*
X125093000Y-104648000D01*
X125093000Y-103715000D01*
X124593000Y-103715000D01*
X124388645Y-103760144D01*
X124197023Y-103844288D01*
X124025499Y-103964199D01*
X123880664Y-104115269D01*
X123768084Y-104291692D01*
X123700460Y-104484938D01*
X123025566Y-104484938D01*
X122994034Y-104463988D01*
X122944650Y-104430174D01*
X122936544Y-104425792D01*
X122850383Y-104379980D01*
X122795091Y-104357191D01*
X122740102Y-104333622D01*
X122731299Y-104330897D01*
X122637881Y-104302692D01*
X122579174Y-104291067D01*
X122520684Y-104278635D01*
X122511530Y-104277673D01*
X122511524Y-104277672D01*
X122511519Y-104277672D01*
X122414402Y-104268150D01*
X122382419Y-104265000D01*
X119510000Y-104265000D01*
X119510000Y-101798061D01*
X122365000Y-101798061D01*
X122365000Y-102001939D01*
X122404774Y-102201898D01*
X122482795Y-102390256D01*
X122596063Y-102559774D01*
X122740226Y-102703937D01*
X122909744Y-102817205D01*
X123098102Y-102895226D01*
X123298061Y-102935000D01*
X123501939Y-102935000D01*
X123701898Y-102895226D01*
X123890256Y-102817205D01*
X123941928Y-102782679D01*
X123941928Y-102920000D01*
X123954188Y-103044482D01*
X123990498Y-103164180D01*
X124049463Y-103274494D01*
X124128815Y-103371185D01*
X124225506Y-103450537D01*
X124335820Y-103509502D01*
X124455518Y-103545812D01*
X124580000Y-103558072D01*
X125420000Y-103558072D01*
X125544482Y-103545812D01*
X125664180Y-103509502D01*
X125774494Y-103450537D01*
X125871185Y-103371185D01*
X125950537Y-103274494D01*
X125996815Y-103187914D01*
X136689990Y-103187914D01*
X136689990Y-103391792D01*
X136729764Y-103591751D01*
X136807785Y-103780109D01*
X136921053Y-103949627D01*
X137065216Y-104093790D01*
X137234734Y-104207058D01*
X137423092Y-104285079D01*
X137623051Y-104324853D01*
X137826929Y-104324853D01*
X138026888Y-104285079D01*
X138215246Y-104207058D01*
X138384764Y-104093790D01*
X138528927Y-103949627D01*
X138642195Y-103780109D01*
X138720216Y-103591751D01*
X138759990Y-103391792D01*
X138759990Y-103187914D01*
X138729574Y-103035000D01*
X138901939Y-103035000D01*
X139101898Y-102995226D01*
X139290256Y-102917205D01*
X139459774Y-102803937D01*
X139603937Y-102659774D01*
X139717205Y-102490256D01*
X139795226Y-102301898D01*
X139835000Y-102101939D01*
X139835000Y-101898061D01*
X139795226Y-101698102D01*
X139717205Y-101509744D01*
X139603937Y-101340226D01*
X139459774Y-101196063D01*
X139290256Y-101082795D01*
X139101898Y-101004774D01*
X138901939Y-100965000D01*
X138698061Y-100965000D01*
X138498102Y-101004774D01*
X138309744Y-101082795D01*
X138140226Y-101196063D01*
X137996063Y-101340226D01*
X137882795Y-101509744D01*
X137804774Y-101698102D01*
X137765000Y-101898061D01*
X137765000Y-102101939D01*
X137795416Y-102254853D01*
X137623051Y-102254853D01*
X137423092Y-102294627D01*
X137234734Y-102372648D01*
X137065216Y-102485916D01*
X136921053Y-102630079D01*
X136807785Y-102799597D01*
X136729764Y-102987955D01*
X136689990Y-103187914D01*
X125996815Y-103187914D01*
X126009502Y-103164180D01*
X126045812Y-103044482D01*
X126058072Y-102920000D01*
X126058072Y-102905000D01*
X126103908Y-102905000D01*
X126307732Y-102864457D01*
X126499730Y-102784929D01*
X126672523Y-102669472D01*
X126819472Y-102522523D01*
X126934929Y-102349730D01*
X127014457Y-102157732D01*
X127055000Y-101953908D01*
X127055000Y-101746092D01*
X127014457Y-101542268D01*
X126934929Y-101350270D01*
X126819472Y-101177477D01*
X126731828Y-101089833D01*
X126926115Y-101065881D01*
X127008963Y-100875292D01*
X127025263Y-100800184D01*
X127165235Y-100742205D01*
X127334753Y-100628937D01*
X127478916Y-100484774D01*
X127592184Y-100315256D01*
X127670205Y-100126898D01*
X127709979Y-99926939D01*
X127709979Y-99723061D01*
X127670205Y-99523102D01*
X127592184Y-99334744D01*
X127478916Y-99165226D01*
X127334753Y-99021063D01*
X127165235Y-98907795D01*
X126976877Y-98829774D01*
X126776918Y-98790000D01*
X126573040Y-98790000D01*
X126373081Y-98829774D01*
X126184723Y-98907795D01*
X126015205Y-99021063D01*
X125871042Y-99165226D01*
X125757774Y-99334744D01*
X125746494Y-99361975D01*
X125720798Y-99358807D01*
X125179605Y-99900000D01*
X125193748Y-99914143D01*
X125014143Y-100093748D01*
X125000000Y-100079605D01*
X124985858Y-100093748D01*
X124806253Y-99914143D01*
X124820395Y-99900000D01*
X124279202Y-99358807D01*
X124073885Y-99384119D01*
X123991037Y-99574708D01*
X123946962Y-99777796D01*
X123945298Y-99873625D01*
X123901935Y-99865000D01*
X123698057Y-99865000D01*
X123498098Y-99904774D01*
X123309740Y-99982795D01*
X123140222Y-100096063D01*
X122996059Y-100240226D01*
X122882791Y-100409744D01*
X122804770Y-100598102D01*
X122764996Y-100798061D01*
X122764996Y-101001939D01*
X122778616Y-101070412D01*
X122740226Y-101096063D01*
X122596063Y-101240226D01*
X122482795Y-101409744D01*
X122404774Y-101598102D01*
X122365000Y-101798061D01*
X119510000Y-101798061D01*
X119510000Y-99179202D01*
X124458807Y-99179202D01*
X125000000Y-99720395D01*
X125541193Y-99179202D01*
X125515881Y-98973885D01*
X125325292Y-98891037D01*
X125122204Y-98846962D01*
X124914418Y-98843355D01*
X124709921Y-98880354D01*
X124516572Y-98956538D01*
X124484119Y-98973885D01*
X124458807Y-99179202D01*
X119510000Y-99179202D01*
X119510000Y-98885000D01*
X121782419Y-98885000D01*
X121814991Y-98881792D01*
X121822782Y-98881792D01*
X121831947Y-98880829D01*
X121948317Y-98867776D01*
X122006834Y-98855337D01*
X122065512Y-98843719D01*
X122074315Y-98840994D01*
X122185933Y-98805586D01*
X122240904Y-98782024D01*
X122296216Y-98759227D01*
X122304322Y-98754844D01*
X122406937Y-98698431D01*
X122456298Y-98664632D01*
X122506118Y-98631533D01*
X122513218Y-98625659D01*
X122602922Y-98550389D01*
X122644767Y-98507659D01*
X122687223Y-98465498D01*
X122693047Y-98458357D01*
X122766422Y-98367097D01*
X122799178Y-98317041D01*
X122832629Y-98267447D01*
X122836955Y-98259310D01*
X122891206Y-98155536D01*
X122913608Y-98100087D01*
X122936794Y-98044931D01*
X122939457Y-98036109D01*
X122972519Y-97923775D01*
X122974181Y-97915062D01*
X123700460Y-97915062D01*
X123768084Y-98108308D01*
X123880664Y-98284731D01*
X124025499Y-98435801D01*
X124197023Y-98555712D01*
X124388645Y-98639856D01*
X124593000Y-98685000D01*
X125093000Y-98685000D01*
X125093000Y-97752000D01*
X125347000Y-97752000D01*
X125347000Y-98685000D01*
X125847000Y-98685000D01*
X126051355Y-98639856D01*
X126242977Y-98555712D01*
X126414501Y-98435801D01*
X126559336Y-98284731D01*
X126671916Y-98108308D01*
X126739540Y-97915062D01*
X126612257Y-97752000D01*
X125347000Y-97752000D01*
X125093000Y-97752000D01*
X123827743Y-97752000D01*
X123700460Y-97915062D01*
X122974181Y-97915062D01*
X122983724Y-97865034D01*
X122995757Y-97806417D01*
X122996656Y-97797246D01*
X123007269Y-97680628D01*
X123006851Y-97620811D01*
X123007269Y-97560994D01*
X123006370Y-97551823D01*
X122994130Y-97435365D01*
X122982098Y-97376753D01*
X122974123Y-97334938D01*
X123700460Y-97334938D01*
X123827743Y-97498000D01*
X125093000Y-97498000D01*
X125093000Y-96565000D01*
X125347000Y-96565000D01*
X125347000Y-97498000D01*
X126612257Y-97498000D01*
X126739540Y-97334938D01*
X126671916Y-97141692D01*
X126559336Y-96965269D01*
X126414501Y-96814199D01*
X126248375Y-96698061D01*
X130265000Y-96698061D01*
X130265000Y-96901939D01*
X130304774Y-97101898D01*
X130382795Y-97290256D01*
X130496063Y-97459774D01*
X130640226Y-97603937D01*
X130809744Y-97717205D01*
X130998102Y-97795226D01*
X131198061Y-97835000D01*
X131401939Y-97835000D01*
X131601898Y-97795226D01*
X131790256Y-97717205D01*
X131818907Y-97698061D01*
X137865000Y-97698061D01*
X137865000Y-97901939D01*
X137904774Y-98101898D01*
X137982795Y-98290256D01*
X138056123Y-98400000D01*
X137982795Y-98509744D01*
X137904774Y-98698102D01*
X137865000Y-98898061D01*
X137865000Y-99101939D01*
X137904774Y-99301898D01*
X137982795Y-99490256D01*
X138096063Y-99659774D01*
X138240226Y-99803937D01*
X138409744Y-99917205D01*
X138598102Y-99995226D01*
X138798061Y-100035000D01*
X139001939Y-100035000D01*
X139201898Y-99995226D01*
X139390256Y-99917205D01*
X139559774Y-99803937D01*
X139703937Y-99659774D01*
X139817205Y-99490256D01*
X139895226Y-99301898D01*
X139935000Y-99101939D01*
X139935000Y-98898061D01*
X139895226Y-98698102D01*
X139853788Y-98598061D01*
X141365000Y-98598061D01*
X141365000Y-98801939D01*
X141404774Y-99001898D01*
X141482795Y-99190256D01*
X141596063Y-99359774D01*
X141740226Y-99503937D01*
X141909744Y-99617205D01*
X142098102Y-99695226D01*
X142298061Y-99735000D01*
X142501939Y-99735000D01*
X142701898Y-99695226D01*
X142890256Y-99617205D01*
X143059774Y-99503937D01*
X143203937Y-99359774D01*
X143317205Y-99190256D01*
X143395226Y-99001898D01*
X143435000Y-98801939D01*
X143435000Y-98598061D01*
X143395226Y-98398102D01*
X143317205Y-98209744D01*
X143203937Y-98040226D01*
X143059774Y-97896063D01*
X142890256Y-97782795D01*
X142701898Y-97704774D01*
X142501939Y-97665000D01*
X142298061Y-97665000D01*
X142098102Y-97704774D01*
X141909744Y-97782795D01*
X141740226Y-97896063D01*
X141596063Y-98040226D01*
X141482795Y-98209744D01*
X141404774Y-98398102D01*
X141365000Y-98598061D01*
X139853788Y-98598061D01*
X139817205Y-98509744D01*
X139743877Y-98400000D01*
X139817205Y-98290256D01*
X139895226Y-98101898D01*
X139935000Y-97901939D01*
X139935000Y-97698061D01*
X139895226Y-97498102D01*
X139817205Y-97309744D01*
X139703937Y-97140226D01*
X139559774Y-96996063D01*
X139390256Y-96882795D01*
X139201898Y-96804774D01*
X139001939Y-96765000D01*
X138798061Y-96765000D01*
X138598102Y-96804774D01*
X138409744Y-96882795D01*
X138240226Y-96996063D01*
X138096063Y-97140226D01*
X137982795Y-97309744D01*
X137904774Y-97498102D01*
X137865000Y-97698061D01*
X131818907Y-97698061D01*
X131959774Y-97603937D01*
X132103937Y-97459774D01*
X132217205Y-97290256D01*
X132295226Y-97101898D01*
X132335000Y-96901939D01*
X132335000Y-96698061D01*
X132295226Y-96498102D01*
X132217205Y-96309744D01*
X132103937Y-96140226D01*
X131959774Y-95996063D01*
X131813104Y-95898061D01*
X140365000Y-95898061D01*
X140365000Y-96101939D01*
X140404774Y-96301898D01*
X140482795Y-96490256D01*
X140596063Y-96659774D01*
X140740226Y-96803937D01*
X140909744Y-96917205D01*
X141098102Y-96995226D01*
X141298061Y-97035000D01*
X141501939Y-97035000D01*
X141701898Y-96995226D01*
X141890256Y-96917205D01*
X142059774Y-96803937D01*
X142203937Y-96659774D01*
X142317205Y-96490256D01*
X142395226Y-96301898D01*
X142435000Y-96101939D01*
X142435000Y-95898061D01*
X142395226Y-95698102D01*
X142317205Y-95509744D01*
X142203937Y-95340226D01*
X142059774Y-95196063D01*
X141890256Y-95082795D01*
X141710435Y-95008310D01*
X141901898Y-94970226D01*
X142090256Y-94892205D01*
X142181292Y-94831377D01*
X142309744Y-94917205D01*
X142498102Y-94995226D01*
X142698061Y-95035000D01*
X142901939Y-95035000D01*
X143101898Y-94995226D01*
X143290256Y-94917205D01*
X143459774Y-94803937D01*
X143603937Y-94659774D01*
X143717205Y-94490256D01*
X143795226Y-94301898D01*
X143835000Y-94101939D01*
X143835000Y-93898061D01*
X143795226Y-93698102D01*
X143717205Y-93509744D01*
X143603937Y-93340226D01*
X143459774Y-93196063D01*
X143290256Y-93082795D01*
X143101898Y-93004774D01*
X142901939Y-92965000D01*
X142698061Y-92965000D01*
X142498102Y-93004774D01*
X142309744Y-93082795D01*
X142218708Y-93143623D01*
X142090256Y-93057795D01*
X141901898Y-92979774D01*
X141701939Y-92940000D01*
X141498061Y-92940000D01*
X141298102Y-92979774D01*
X141109744Y-93057795D01*
X140940226Y-93171063D01*
X140796063Y-93315226D01*
X140682795Y-93484744D01*
X140604774Y-93673102D01*
X140565000Y-93873061D01*
X140565000Y-94076939D01*
X140604774Y-94276898D01*
X140682795Y-94465256D01*
X140796063Y-94634774D01*
X140940226Y-94778937D01*
X141109744Y-94892205D01*
X141289565Y-94966690D01*
X141098102Y-95004774D01*
X140909744Y-95082795D01*
X140740226Y-95196063D01*
X140596063Y-95340226D01*
X140482795Y-95509744D01*
X140404774Y-95698102D01*
X140365000Y-95898061D01*
X131813104Y-95898061D01*
X131790256Y-95882795D01*
X131601898Y-95804774D01*
X131401939Y-95765000D01*
X131198061Y-95765000D01*
X130998102Y-95804774D01*
X130809744Y-95882795D01*
X130640226Y-95996063D01*
X130496063Y-96140226D01*
X130382795Y-96309744D01*
X130304774Y-96498102D01*
X130265000Y-96698061D01*
X126248375Y-96698061D01*
X126242977Y-96694288D01*
X126051355Y-96610144D01*
X125847000Y-96565000D01*
X125347000Y-96565000D01*
X125093000Y-96565000D01*
X124593000Y-96565000D01*
X124388645Y-96610144D01*
X124197023Y-96694288D01*
X124025499Y-96814199D01*
X123880664Y-96965269D01*
X123768084Y-97141692D01*
X123700460Y-97334938D01*
X122974123Y-97334938D01*
X122970893Y-97318008D01*
X122968229Y-97309186D01*
X122933602Y-97197324D01*
X122910416Y-97142168D01*
X122888014Y-97086719D01*
X122883688Y-97078582D01*
X122827993Y-96975575D01*
X122794557Y-96926005D01*
X122761785Y-96875923D01*
X122755960Y-96868782D01*
X122681318Y-96778556D01*
X122638884Y-96736418D01*
X122597022Y-96693669D01*
X122589921Y-96687796D01*
X122589918Y-96687793D01*
X122589914Y-96687791D01*
X122499176Y-96613785D01*
X122449376Y-96580698D01*
X122399993Y-96546884D01*
X122391891Y-96542505D01*
X122391887Y-96542502D01*
X122391883Y-96542500D01*
X122288493Y-96487527D01*
X122233234Y-96464751D01*
X122178205Y-96441165D01*
X122169402Y-96438441D01*
X122057301Y-96404596D01*
X121998628Y-96392979D01*
X121940111Y-96380540D01*
X121930946Y-96379577D01*
X121814405Y-96368150D01*
X121814402Y-96368150D01*
X121782419Y-96365000D01*
X119510000Y-96365000D01*
X119510000Y-93798077D01*
X122865000Y-93798077D01*
X122865000Y-94001955D01*
X122904774Y-94201914D01*
X122982795Y-94390272D01*
X123096063Y-94559790D01*
X123240226Y-94703953D01*
X123409744Y-94817221D01*
X123598102Y-94895242D01*
X123798061Y-94935016D01*
X124001939Y-94935016D01*
X124201898Y-94895242D01*
X124390256Y-94817221D01*
X124559774Y-94703953D01*
X124600008Y-94663719D01*
X124640226Y-94703937D01*
X124809744Y-94817205D01*
X124998102Y-94895226D01*
X125198061Y-94935000D01*
X125401939Y-94935000D01*
X125601898Y-94895226D01*
X125790256Y-94817205D01*
X125959774Y-94703937D01*
X126103937Y-94559774D01*
X126217205Y-94390256D01*
X126295226Y-94201898D01*
X126335000Y-94001939D01*
X126335000Y-93798061D01*
X126295226Y-93598102D01*
X126217205Y-93409744D01*
X126103937Y-93240226D01*
X125959774Y-93096063D01*
X125790256Y-92982795D01*
X125601898Y-92904774D01*
X125401939Y-92865000D01*
X125198061Y-92865000D01*
X124998102Y-92904774D01*
X124809744Y-92982795D01*
X124640226Y-93096063D01*
X124599992Y-93136297D01*
X124559774Y-93096079D01*
X124390256Y-92982811D01*
X124201898Y-92904790D01*
X124001939Y-92865016D01*
X123798061Y-92865016D01*
X123598102Y-92904790D01*
X123409744Y-92982811D01*
X123240226Y-93096079D01*
X123096063Y-93240242D01*
X122982795Y-93409760D01*
X122904774Y-93598118D01*
X122865000Y-93798077D01*
X119510000Y-93798077D01*
X119510000Y-91798061D01*
X121665004Y-91798061D01*
X121665004Y-92001939D01*
X121704778Y-92201898D01*
X121782799Y-92390256D01*
X121896067Y-92559774D01*
X122040230Y-92703937D01*
X122209748Y-92817205D01*
X122398106Y-92895226D01*
X122598065Y-92935000D01*
X122801943Y-92935000D01*
X123001902Y-92895226D01*
X123190260Y-92817205D01*
X123359778Y-92703937D01*
X123503941Y-92559774D01*
X123617209Y-92390256D01*
X123695230Y-92201898D01*
X123735004Y-92001939D01*
X123735004Y-91935000D01*
X123801939Y-91935000D01*
X123987655Y-91898059D01*
X129465000Y-91898059D01*
X129465000Y-92101937D01*
X129504774Y-92301896D01*
X129582795Y-92490254D01*
X129589310Y-92500005D01*
X129582803Y-92509744D01*
X129504782Y-92698102D01*
X129465008Y-92898061D01*
X129465008Y-93101939D01*
X129504782Y-93301898D01*
X129582803Y-93490256D01*
X129696071Y-93659774D01*
X129840234Y-93803937D01*
X130009752Y-93917205D01*
X130078694Y-93945762D01*
X130104774Y-94076878D01*
X130182795Y-94265236D01*
X130296063Y-94434754D01*
X130440226Y-94578917D01*
X130609744Y-94692185D01*
X130798102Y-94770206D01*
X130998061Y-94809980D01*
X131201939Y-94809980D01*
X131401898Y-94770206D01*
X131590256Y-94692185D01*
X131759774Y-94578917D01*
X131837490Y-94501201D01*
X131840226Y-94503937D01*
X132009744Y-94617205D01*
X132198102Y-94695226D01*
X132398061Y-94735000D01*
X132601939Y-94735000D01*
X132801898Y-94695226D01*
X132990256Y-94617205D01*
X133159774Y-94503937D01*
X133303937Y-94359774D01*
X133417205Y-94190256D01*
X133495226Y-94001898D01*
X133535000Y-93801939D01*
X133535000Y-93598061D01*
X133495226Y-93398102D01*
X133417205Y-93209744D01*
X133409399Y-93198061D01*
X134365000Y-93198061D01*
X134365000Y-93401939D01*
X134404774Y-93601898D01*
X134482795Y-93790256D01*
X134596063Y-93959774D01*
X134740226Y-94103937D01*
X134909744Y-94217205D01*
X135098102Y-94295226D01*
X135298061Y-94335000D01*
X135501939Y-94335000D01*
X135701898Y-94295226D01*
X135890256Y-94217205D01*
X136059774Y-94103937D01*
X136203937Y-93959774D01*
X136317205Y-93790256D01*
X136395226Y-93601898D01*
X136435000Y-93401939D01*
X136435000Y-93198061D01*
X136395226Y-92998102D01*
X136317205Y-92809744D01*
X136203937Y-92640226D01*
X136059774Y-92496063D01*
X135890256Y-92382795D01*
X135701898Y-92304774D01*
X135501939Y-92265000D01*
X135298061Y-92265000D01*
X135098102Y-92304774D01*
X134909744Y-92382795D01*
X134740226Y-92496063D01*
X134596063Y-92640226D01*
X134482795Y-92809744D01*
X134404774Y-92998102D01*
X134365000Y-93198061D01*
X133409399Y-93198061D01*
X133303937Y-93040226D01*
X133159774Y-92896063D01*
X132990256Y-92782795D01*
X132801898Y-92704774D01*
X132601939Y-92665000D01*
X132398061Y-92665000D01*
X132198102Y-92704774D01*
X132009744Y-92782795D01*
X131840226Y-92896063D01*
X131762510Y-92973779D01*
X131759774Y-92971043D01*
X131590256Y-92857775D01*
X131521314Y-92829218D01*
X131495234Y-92698102D01*
X131417213Y-92509744D01*
X131410698Y-92499993D01*
X131417205Y-92490254D01*
X131495226Y-92301896D01*
X131535000Y-92101937D01*
X131535000Y-91898059D01*
X131495226Y-91698100D01*
X131417205Y-91509742D01*
X131303937Y-91340224D01*
X131159774Y-91196061D01*
X130990256Y-91082793D01*
X130801898Y-91004772D01*
X130601939Y-90964998D01*
X130398061Y-90964998D01*
X130198102Y-91004772D01*
X130009744Y-91082793D01*
X129840226Y-91196061D01*
X129696063Y-91340224D01*
X129582795Y-91509742D01*
X129504774Y-91698100D01*
X129465000Y-91898059D01*
X123987655Y-91898059D01*
X124001898Y-91895226D01*
X124190256Y-91817205D01*
X124359774Y-91703937D01*
X124503937Y-91559774D01*
X124617205Y-91390256D01*
X124695226Y-91201898D01*
X124735000Y-91001939D01*
X124735000Y-90798061D01*
X124695226Y-90598102D01*
X124617205Y-90409744D01*
X124503937Y-90240226D01*
X124359774Y-90096063D01*
X124190256Y-89982795D01*
X124001898Y-89904774D01*
X123801939Y-89865000D01*
X123598061Y-89865000D01*
X123398102Y-89904774D01*
X123209744Y-89982795D01*
X123040226Y-90096063D01*
X122896063Y-90240226D01*
X122782795Y-90409744D01*
X122704774Y-90598102D01*
X122665000Y-90798061D01*
X122665000Y-90865000D01*
X122598065Y-90865000D01*
X122398106Y-90904774D01*
X122209748Y-90982795D01*
X122040230Y-91096063D01*
X121896067Y-91240226D01*
X121782799Y-91409744D01*
X121704778Y-91598102D01*
X121665004Y-91798061D01*
X119510000Y-91798061D01*
X119510000Y-88450000D01*
X125971928Y-88450000D01*
X125971928Y-90150000D01*
X125984188Y-90274482D01*
X126020498Y-90394180D01*
X126079463Y-90504494D01*
X126158815Y-90601185D01*
X126255506Y-90680537D01*
X126365820Y-90739502D01*
X126485518Y-90775812D01*
X126610000Y-90788072D01*
X128310000Y-90788072D01*
X128434482Y-90775812D01*
X128554180Y-90739502D01*
X128664494Y-90680537D01*
X128761185Y-90601185D01*
X128840537Y-90504494D01*
X128899502Y-90394180D01*
X128935812Y-90274482D01*
X128948072Y-90150000D01*
X128948072Y-89196890D01*
X132958524Y-89196890D01*
X133003175Y-89344099D01*
X133128359Y-89606920D01*
X133302412Y-89840269D01*
X133518645Y-90035178D01*
X133768748Y-90184157D01*
X134043109Y-90281481D01*
X134273000Y-90160814D01*
X134273000Y-88967000D01*
X134527000Y-88967000D01*
X134527000Y-90160814D01*
X134565000Y-90180760D01*
X134565000Y-90201939D01*
X134604774Y-90401898D01*
X134682795Y-90590256D01*
X134796063Y-90759774D01*
X134940226Y-90903937D01*
X135109744Y-91017205D01*
X135298102Y-91095226D01*
X135498061Y-91135000D01*
X135701939Y-91135000D01*
X135901898Y-91095226D01*
X136090256Y-91017205D01*
X136259774Y-90903937D01*
X136403937Y-90759774D01*
X136517205Y-90590256D01*
X136595226Y-90401898D01*
X136635000Y-90201939D01*
X136635000Y-89998061D01*
X136595226Y-89798102D01*
X136517205Y-89609744D01*
X136403937Y-89440226D01*
X136259774Y-89296063D01*
X136090256Y-89182795D01*
X135901898Y-89104774D01*
X135780075Y-89080542D01*
X135720155Y-88967000D01*
X134527000Y-88967000D01*
X134273000Y-88967000D01*
X133079845Y-88967000D01*
X132958524Y-89196890D01*
X128948072Y-89196890D01*
X128948072Y-88450000D01*
X128935812Y-88325518D01*
X128899502Y-88205820D01*
X128840537Y-88095506D01*
X128761185Y-87998815D01*
X128664494Y-87919463D01*
X128554180Y-87860498D01*
X128434482Y-87824188D01*
X128310000Y-87811928D01*
X126610000Y-87811928D01*
X126485518Y-87824188D01*
X126365820Y-87860498D01*
X126255506Y-87919463D01*
X126158815Y-87998815D01*
X126079463Y-88095506D01*
X126020498Y-88205820D01*
X125984188Y-88325518D01*
X125971928Y-88450000D01*
X119510000Y-88450000D01*
X119510000Y-85735000D01*
X121372334Y-85735000D01*
X121304774Y-85898102D01*
X121265000Y-86098061D01*
X121265000Y-86301939D01*
X121304774Y-86501898D01*
X121382795Y-86690256D01*
X121496063Y-86859774D01*
X121640226Y-87003937D01*
X121809744Y-87117205D01*
X121998102Y-87195226D01*
X122198061Y-87235000D01*
X122401939Y-87235000D01*
X122601898Y-87195226D01*
X122790256Y-87117205D01*
X122959774Y-87003937D01*
X123103937Y-86859774D01*
X123217205Y-86690256D01*
X123231025Y-86656891D01*
X123478519Y-86656891D01*
X123575843Y-86931252D01*
X123724822Y-87181355D01*
X123919731Y-87397588D01*
X124153080Y-87571641D01*
X124415901Y-87696825D01*
X124563110Y-87741476D01*
X124793000Y-87620155D01*
X124793000Y-86427000D01*
X123599186Y-86427000D01*
X123478519Y-86656891D01*
X123231025Y-86656891D01*
X123295226Y-86501898D01*
X123335000Y-86301939D01*
X123335000Y-86098061D01*
X123304179Y-85943109D01*
X123478519Y-85943109D01*
X123599186Y-86173000D01*
X124793000Y-86173000D01*
X124793000Y-84979845D01*
X125047000Y-84979845D01*
X125047000Y-86173000D01*
X125067000Y-86173000D01*
X125067000Y-86427000D01*
X125047000Y-86427000D01*
X125047000Y-87620155D01*
X125276890Y-87741476D01*
X125424099Y-87696825D01*
X125686920Y-87571641D01*
X125920269Y-87397588D01*
X126115178Y-87181355D01*
X126184799Y-87064477D01*
X126219294Y-87129014D01*
X126404866Y-87355134D01*
X126630986Y-87540706D01*
X126888966Y-87678599D01*
X127168889Y-87763513D01*
X127387050Y-87785000D01*
X127532950Y-87785000D01*
X127751111Y-87763513D01*
X128031034Y-87678599D01*
X128289014Y-87540706D01*
X128515134Y-87355134D01*
X128539607Y-87325313D01*
X128560498Y-87394180D01*
X128619463Y-87504494D01*
X128698815Y-87601185D01*
X128795506Y-87680537D01*
X128905820Y-87739502D01*
X129025518Y-87775812D01*
X129150000Y-87788072D01*
X130850000Y-87788072D01*
X130974482Y-87775812D01*
X131094180Y-87739502D01*
X131204494Y-87680537D01*
X131301185Y-87601185D01*
X131380537Y-87504494D01*
X131383975Y-87498061D01*
X131565000Y-87498061D01*
X131565000Y-87701939D01*
X131604774Y-87901898D01*
X131682795Y-88090256D01*
X131796063Y-88259774D01*
X131940226Y-88403937D01*
X132109744Y-88517205D01*
X132298102Y-88595226D01*
X132498061Y-88635000D01*
X132701939Y-88635000D01*
X132901898Y-88595226D01*
X132996920Y-88555866D01*
X133079845Y-88713000D01*
X134273000Y-88713000D01*
X134273000Y-88693000D01*
X134527000Y-88693000D01*
X134527000Y-88713000D01*
X135720155Y-88713000D01*
X135841476Y-88483110D01*
X135796825Y-88335901D01*
X135671641Y-88073080D01*
X135497588Y-87839731D01*
X135413534Y-87763966D01*
X135494180Y-87739502D01*
X135604494Y-87680537D01*
X135701185Y-87601185D01*
X135780537Y-87504494D01*
X135839502Y-87394180D01*
X135875812Y-87274482D01*
X135888072Y-87150000D01*
X135888072Y-85450000D01*
X135875812Y-85325518D01*
X135839502Y-85205820D01*
X135780537Y-85095506D01*
X135701185Y-84998815D01*
X135604494Y-84919463D01*
X135494180Y-84860498D01*
X135374482Y-84824188D01*
X135250000Y-84811928D01*
X133550000Y-84811928D01*
X133425518Y-84824188D01*
X133305820Y-84860498D01*
X133195506Y-84919463D01*
X133098815Y-84998815D01*
X133019463Y-85095506D01*
X132960498Y-85205820D01*
X132924188Y-85325518D01*
X132911928Y-85450000D01*
X132911928Y-86608929D01*
X132901898Y-86604774D01*
X132701939Y-86565000D01*
X132498061Y-86565000D01*
X132298102Y-86604774D01*
X132109744Y-86682795D01*
X131940226Y-86796063D01*
X131796063Y-86940226D01*
X131682795Y-87109744D01*
X131604774Y-87298102D01*
X131565000Y-87498061D01*
X131383975Y-87498061D01*
X131439502Y-87394180D01*
X131475812Y-87274482D01*
X131488072Y-87150000D01*
X131488072Y-85450000D01*
X131475812Y-85325518D01*
X131439502Y-85205820D01*
X131380537Y-85095506D01*
X131301185Y-84998815D01*
X131204494Y-84919463D01*
X131094180Y-84860498D01*
X130974482Y-84824188D01*
X130850000Y-84811928D01*
X129150000Y-84811928D01*
X129025518Y-84824188D01*
X128905820Y-84860498D01*
X128795506Y-84919463D01*
X128698815Y-84998815D01*
X128619463Y-85095506D01*
X128560498Y-85205820D01*
X128539607Y-85274687D01*
X128515134Y-85244866D01*
X128289014Y-85059294D01*
X128031034Y-84921401D01*
X127751111Y-84836487D01*
X127532950Y-84815000D01*
X127387050Y-84815000D01*
X127168889Y-84836487D01*
X126888966Y-84921401D01*
X126630986Y-85059294D01*
X126404866Y-85244866D01*
X126219294Y-85470986D01*
X126184799Y-85535523D01*
X126115178Y-85418645D01*
X125920269Y-85202412D01*
X125686920Y-85028359D01*
X125424099Y-84903175D01*
X125276890Y-84858524D01*
X125047000Y-84979845D01*
X124793000Y-84979845D01*
X124563110Y-84858524D01*
X124415901Y-84903175D01*
X124153080Y-85028359D01*
X123919731Y-85202412D01*
X123724822Y-85418645D01*
X123575843Y-85668748D01*
X123478519Y-85943109D01*
X123304179Y-85943109D01*
X123295226Y-85898102D01*
X123217205Y-85709744D01*
X123103937Y-85540226D01*
X123056575Y-85492864D01*
X123125486Y-85435855D01*
X123167639Y-85393406D01*
X123210371Y-85351561D01*
X123216245Y-85344460D01*
X123277921Y-85268840D01*
X123311052Y-85218975D01*
X123344825Y-85169650D01*
X123349208Y-85161544D01*
X123395020Y-85075383D01*
X123417809Y-85020091D01*
X123441378Y-84965102D01*
X123444103Y-84956299D01*
X123472308Y-84862881D01*
X123483933Y-84804174D01*
X123496365Y-84745684D01*
X123497327Y-84736530D01*
X123497328Y-84736524D01*
X123497328Y-84736519D01*
X123504830Y-84660000D01*
X148190001Y-84660000D01*
X148190000Y-105340000D01*
G36*
X125871042Y-100484774D02*
G01*
X126015205Y-100628937D01*
X126083392Y-100674498D01*
X126014143Y-100743748D01*
X126000000Y-100729605D01*
X125985858Y-100743748D01*
X125919925Y-100677815D01*
X125819472Y-100527477D01*
X125731828Y-100439833D01*
X125832704Y-100427397D01*
X125871042Y-100484774D01*
X125871042Y-100484774D01*
G37*
X125871042Y-100484774D02*
X126015205Y-100628937D01*
X126083392Y-100674498D01*
X126014143Y-100743748D01*
X126000000Y-100729605D01*
X125985858Y-100743748D01*
X125919925Y-100677815D01*
X125819472Y-100527477D01*
X125731828Y-100439833D01*
X125832704Y-100427397D01*
X125871042Y-100484774D01*
M02*
