G04 #@! TF.GenerationSoftware,KiCad,Pcbnew,5.1.4-3.fc30*
G04 #@! TF.CreationDate,2019-12-05T18:34:14-05:00*
G04 #@! TF.ProjectId,librem5-m2-breakout,6c696272-656d-4352-9d6d-322d62726561,v0.5.0*
G04 #@! TF.SameCoordinates,Original*
G04 #@! TF.FileFunction,Copper,L1,Top*
G04 #@! TF.FilePolarity,Positive*
%FSLAX46Y46*%
G04 Gerber Fmt 4.6, Leading zero omitted, Abs format (unit mm)*
G04 Created by KiCad (PCBNEW 5.1.4-3.fc30) date 2019-12-05 18:34:14*
%MOMM*%
%LPD*%
G04 APERTURE LIST*
%ADD10R,2.400000X0.740000*%
%ADD11R,0.740000X2.400000*%
%ADD12R,1.700000X1.700000*%
%ADD13O,1.700000X1.700000*%
%ADD14C,6.150000*%
%ADD15R,1.700000X0.350000*%
%ADD16R,0.850000X1.300000*%
%ADD17R,0.750000X0.650000*%
%ADD18R,0.850000X1.200000*%
%ADD19R,4.630000X0.420000*%
%ADD20R,0.900000X0.950000*%
%ADD21R,1.150000X0.745000*%
%ADD22R,0.650000X0.700000*%
%ADD23R,0.750000X0.700000*%
%ADD24R,0.650000X3.000000*%
%ADD25R,0.840000X0.840000*%
%ADD26C,0.840000*%
%ADD27O,1.850000X0.850000*%
%ADD28C,0.800000*%
%ADD29C,0.250000*%
%ADD30C,0.246000*%
%ADD31C,0.254000*%
G04 APERTURE END LIST*
D10*
X146450000Y-88470000D03*
X142550000Y-88470000D03*
X146450000Y-87200000D03*
X142550000Y-87200000D03*
X146450000Y-85930000D03*
X142550000Y-85930000D03*
D11*
X147270000Y-99550000D03*
X147270000Y-103450000D03*
X146000000Y-99550000D03*
X146000000Y-103450000D03*
X144730000Y-99550000D03*
X144730000Y-103450000D03*
D12*
X130000000Y-86300000D03*
D13*
X127460000Y-86300000D03*
X124920000Y-86300000D03*
D12*
X127460000Y-89300000D03*
D14*
X148850000Y-95000000D03*
D15*
X120000000Y-104250000D03*
X120000000Y-103750000D03*
X120000000Y-103250000D03*
X120000000Y-102750000D03*
X120000000Y-102250000D03*
X120000000Y-101750000D03*
X120000000Y-99250000D03*
X120000000Y-98750000D03*
X120000000Y-96250000D03*
X120000000Y-95750000D03*
X120000000Y-95250000D03*
X120000000Y-94750000D03*
X120000000Y-94250000D03*
X120000000Y-93750000D03*
X120000000Y-93250000D03*
X120000000Y-92750000D03*
X120000000Y-92250000D03*
X120000000Y-91750000D03*
X120000000Y-91250000D03*
X120000000Y-90750000D03*
X120000000Y-90250000D03*
X120000000Y-89750000D03*
X120000000Y-89250000D03*
X120000000Y-88750000D03*
X120000000Y-88250000D03*
X120000000Y-87750000D03*
X120000000Y-87250000D03*
X120000000Y-86750000D03*
X120000000Y-86250000D03*
X120000000Y-85750000D03*
X120000000Y-101250000D03*
X120000000Y-100750000D03*
X120000000Y-100250000D03*
X120000000Y-99750000D03*
D13*
X134400000Y-88840000D03*
D12*
X134400000Y-86300000D03*
D16*
X128050000Y-91987500D03*
D17*
X128000000Y-95125000D03*
X128000000Y-101475000D03*
D18*
X128050000Y-102712500D03*
D19*
X138240000Y-105122500D03*
D20*
X142725000Y-91425000D03*
D21*
X142650000Y-104460000D03*
D22*
X141150000Y-101275000D03*
X141150000Y-97275000D03*
D23*
X139950000Y-102775000D03*
X139950000Y-101775000D03*
X139950000Y-100775000D03*
X139950000Y-99775000D03*
X139950000Y-98775000D03*
X139950000Y-97775000D03*
X139950000Y-96775000D03*
X139950000Y-95775000D03*
D24*
X137865000Y-85800000D03*
X139135000Y-88800000D03*
D25*
X125000000Y-102500000D03*
D26*
X126000000Y-101850000D03*
X125000000Y-101200000D03*
X126000000Y-100550000D03*
X125000000Y-99900000D03*
D27*
X125220000Y-104775000D03*
X125220000Y-97625000D03*
D28*
X122300000Y-86200000D03*
X138900000Y-99000000D03*
X131300000Y-96800000D03*
X127200000Y-105400000D03*
X137724990Y-103289853D03*
X144400000Y-91100000D03*
X147100000Y-105200000D03*
X139900000Y-104200000D03*
X142400000Y-101300000D03*
X125300000Y-92000000D03*
X130400000Y-104875000D03*
X143200000Y-89600000D03*
X123000000Y-103000016D03*
X122000000Y-93900000D03*
X131300000Y-102250000D03*
X138800000Y-102000000D03*
X123400000Y-101900000D03*
X138900000Y-97800000D03*
X123799996Y-100900000D03*
X135600000Y-90100000D03*
X142400000Y-98700000D03*
X141400000Y-96000000D03*
X132600000Y-87600000D03*
X135400000Y-93300000D03*
X126696500Y-104594400D03*
X126674979Y-99825000D03*
X131100000Y-93774980D03*
X132500000Y-93700000D03*
X123900000Y-93900016D03*
X125300000Y-93900000D03*
X123700000Y-90900000D03*
X122700004Y-91900000D03*
X141600000Y-93975000D03*
X142800000Y-94000000D03*
X130500008Y-93000000D03*
X130500000Y-91999998D03*
D29*
X139950000Y-98775000D02*
X139125000Y-98775000D01*
X139125000Y-98775000D02*
X138900000Y-99000000D01*
X142725000Y-91425000D02*
X144075000Y-91425000D01*
X144075000Y-91425000D02*
X144400000Y-91100000D01*
X147270000Y-103450000D02*
X147270000Y-105030000D01*
X147270000Y-105030000D02*
X147100000Y-105200000D01*
X138240000Y-105122500D02*
X138977500Y-105122500D01*
X138977500Y-105122500D02*
X139900000Y-104200000D01*
X141150000Y-101275000D02*
X142375000Y-101275000D01*
X142375000Y-101275000D02*
X142400000Y-101300000D01*
X123970000Y-87250000D02*
X124920000Y-86300000D01*
X120000000Y-87250000D02*
X123970000Y-87250000D01*
X122470000Y-88750000D02*
X124920000Y-86300000D01*
X120000000Y-88750000D02*
X122470000Y-88750000D01*
X124920000Y-86430000D02*
X124920000Y-86300000D01*
X120000000Y-90250000D02*
X121100000Y-90250000D01*
X124070001Y-85450001D02*
X124920000Y-86300000D01*
X121399999Y-85450001D02*
X124070001Y-85450001D01*
X120000000Y-85750000D02*
X121100000Y-85750000D01*
X121100000Y-85750000D02*
X121399999Y-85450001D01*
X128050000Y-91987500D02*
X125312500Y-91987500D01*
X125312500Y-91987500D02*
X125300000Y-92000000D01*
X125450000Y-97625000D02*
X125220000Y-97625000D01*
X127950000Y-95125000D02*
X125450000Y-97625000D01*
X128000000Y-95125000D02*
X127950000Y-95125000D01*
X130037500Y-104875000D02*
X130400000Y-104875000D01*
X128050000Y-102712500D02*
X128050000Y-102887500D01*
X128050000Y-102887500D02*
X130037500Y-104875000D01*
X122975998Y-104775000D02*
X124045000Y-104775000D01*
X122800998Y-104600000D02*
X122975998Y-104775000D01*
X122012664Y-104600000D02*
X122800998Y-104600000D01*
X120000000Y-104250000D02*
X121662664Y-104250000D01*
X121662664Y-104250000D02*
X122012664Y-104600000D01*
X124045000Y-104775000D02*
X125220000Y-104775000D01*
X142550000Y-88470000D02*
X142550000Y-88950000D01*
X142550000Y-88950000D02*
X143200000Y-89600000D01*
X142200000Y-100300000D02*
X142400000Y-100500000D01*
X142400000Y-100500000D02*
X142400000Y-101300000D01*
X141050000Y-100300000D02*
X142200000Y-100300000D01*
X139950000Y-100775000D02*
X140575000Y-100775000D01*
X140575000Y-100775000D02*
X141050000Y-100300000D01*
X121199990Y-90150010D02*
X121525000Y-89825000D01*
X120000000Y-91750000D02*
X121100000Y-91750000D01*
X121100000Y-91750000D02*
X121199990Y-91650010D01*
X121525000Y-89825000D02*
X124920000Y-86430000D01*
X121100000Y-90250000D02*
X121525000Y-89825000D01*
X120000000Y-93250000D02*
X121100000Y-93250000D01*
X121100000Y-93250000D02*
X121199990Y-93150010D01*
X121199990Y-91650010D02*
X121199990Y-91400010D01*
X121199990Y-91400010D02*
X121199990Y-90150010D01*
X121100000Y-94750000D02*
X121199990Y-94650010D01*
X120000000Y-94750000D02*
X121100000Y-94750000D01*
X121199990Y-93150010D02*
X121199990Y-92900010D01*
X121199990Y-92900010D02*
X121199990Y-91400010D01*
X120000000Y-96250000D02*
X121100000Y-96250000D01*
X121100000Y-96250000D02*
X121199990Y-96150010D01*
X121199990Y-94650010D02*
X121199990Y-94500010D01*
X121199990Y-94500010D02*
X121199990Y-92900010D01*
X121199990Y-94899990D02*
X121199990Y-94500010D01*
X121199990Y-96150010D02*
X121199990Y-94899990D01*
X148200000Y-103140000D02*
X148200000Y-95349990D01*
X148200000Y-95349990D02*
X148549990Y-95000000D01*
X147270000Y-103450000D02*
X147890000Y-103450000D01*
X147890000Y-103450000D02*
X148200000Y-103140000D01*
X120000000Y-102750000D02*
X122749984Y-102750000D01*
X122749984Y-102750000D02*
X123000000Y-103000016D01*
X121199990Y-94700010D02*
X122000000Y-93900000D01*
X121199990Y-94899990D02*
X121199990Y-94700010D01*
D30*
X125644001Y-103200001D02*
X125700001Y-103144001D01*
X122116534Y-103701500D02*
X122594325Y-104179291D01*
X123670709Y-104179291D02*
X124649999Y-103200001D01*
X125700001Y-102149999D02*
X126000000Y-101850000D01*
X125700001Y-103144001D02*
X125700001Y-102149999D01*
X120000000Y-103750000D02*
X121275001Y-103750000D01*
X121323501Y-103701500D02*
X122116534Y-103701500D01*
X124649999Y-103200001D02*
X125644001Y-103200001D01*
X121275001Y-103750000D02*
X121323501Y-103701500D01*
X122594325Y-104179291D02*
X123670709Y-104179291D01*
X123503780Y-103776291D02*
X123652535Y-103627536D01*
X121275001Y-103250000D02*
X121323501Y-103298500D01*
X120000000Y-103250000D02*
X121275001Y-103250000D01*
X124075000Y-102550000D02*
X124075000Y-102300000D01*
X122761257Y-103776291D02*
X123503780Y-103776291D01*
X122283466Y-103298500D02*
X122761257Y-103776291D01*
X124190035Y-103090035D02*
X124299999Y-102980072D01*
X121323501Y-103298500D02*
X122283466Y-103298500D01*
X123652535Y-103627536D02*
X123652535Y-103302535D01*
X124299999Y-102075001D02*
X124299999Y-101855999D01*
X125000000Y-101799999D02*
X125000000Y-101200000D01*
X123652535Y-103302535D02*
X123865035Y-103090035D01*
X124075000Y-102300000D02*
X124299999Y-102075001D01*
X124299999Y-102774999D02*
X124075000Y-102550000D01*
X124299999Y-102980072D02*
X124299999Y-102774999D01*
X123865035Y-103090035D02*
X124190035Y-103090035D01*
X124299999Y-101855999D02*
X124355999Y-101799999D01*
X124355999Y-101799999D02*
X125000000Y-101799999D01*
D29*
X138800000Y-100300000D02*
X138800000Y-102000000D01*
X139950000Y-99775000D02*
X139325000Y-99775000D01*
X139325000Y-99775000D02*
X138800000Y-100300000D01*
X120000000Y-102250000D02*
X123050000Y-102250000D01*
X123050000Y-102250000D02*
X123400000Y-101900000D01*
X139950000Y-97775000D02*
X138925000Y-97775000D01*
X138925000Y-97775000D02*
X138900000Y-97800000D01*
X120000000Y-101750000D02*
X122550000Y-101750000D01*
X122550000Y-101750000D02*
X123400000Y-100900000D01*
X123400000Y-100900000D02*
X123799996Y-100900000D01*
X143500001Y-99800001D02*
X143500001Y-104500001D01*
X142400000Y-98700000D02*
X143500001Y-99800001D01*
X143500001Y-104500001D02*
X144400000Y-105400000D01*
X144400000Y-105400000D02*
X145700000Y-105400000D01*
X146000000Y-105100000D02*
X146000000Y-103450000D01*
X145700000Y-105400000D02*
X146000000Y-105100000D01*
X128530001Y-88174999D02*
X125325999Y-88174999D01*
X121100000Y-99250000D02*
X120000000Y-99250000D01*
X130455002Y-90100000D02*
X128530001Y-88174999D01*
X121975602Y-99250000D02*
X121100000Y-99250000D01*
X123224999Y-93424999D02*
X123224999Y-98000603D01*
X122000011Y-91500987D02*
X122000011Y-92200011D01*
X135600000Y-90100000D02*
X130455002Y-90100000D01*
X125325999Y-88174999D02*
X122000011Y-91500987D01*
X122000011Y-92200011D02*
X123224999Y-93424999D01*
X123224999Y-98000603D02*
X121975602Y-99250000D01*
X144084999Y-98684999D02*
X141400000Y-96000000D01*
X144084999Y-101354999D02*
X144084999Y-98684999D01*
X144730000Y-103450000D02*
X144730000Y-102000000D01*
X144730000Y-102000000D02*
X144084999Y-101354999D01*
X122824988Y-93624988D02*
X122824988Y-97834914D01*
X132600000Y-87600000D02*
X124900000Y-87600000D01*
X124900000Y-87600000D02*
X121600000Y-90900000D01*
X121600000Y-90900000D02*
X121600000Y-92400000D01*
X121600000Y-92400000D02*
X122824988Y-93624988D01*
X122824988Y-97834914D02*
X121909902Y-98750000D01*
X121909902Y-98750000D02*
X121100000Y-98750000D01*
X121100000Y-98750000D02*
X120000000Y-98750000D01*
X148100000Y-89300000D02*
X148100000Y-87400000D01*
X135400000Y-93300000D02*
X144100000Y-93300000D01*
X147900000Y-87200000D02*
X146450000Y-87200000D01*
X148100000Y-87400000D02*
X147900000Y-87200000D01*
X144100000Y-93300000D02*
X148100000Y-89300000D01*
X126696500Y-104594400D02*
X126696500Y-99846521D01*
X126696500Y-99846521D02*
X126674979Y-99825000D01*
X145620000Y-85930000D02*
X146450000Y-85930000D01*
X144600000Y-86950000D02*
X145620000Y-85930000D01*
X144600000Y-89200000D02*
X144600000Y-86950000D01*
X132274980Y-92600000D02*
X139800000Y-92600000D01*
X131100000Y-93774980D02*
X132274980Y-92600000D01*
X143400000Y-90400000D02*
X144600000Y-89200000D01*
X142000000Y-90400000D02*
X143400000Y-90400000D01*
X139800000Y-92600000D02*
X142000000Y-90400000D01*
X140630000Y-94000000D02*
X132800000Y-94000000D01*
X132800000Y-94000000D02*
X132500000Y-93700000D01*
X144730000Y-99550000D02*
X144730000Y-98100000D01*
X144730000Y-98100000D02*
X140630000Y-94000000D01*
X125300000Y-93900000D02*
X123900016Y-93900000D01*
X123900016Y-93900000D02*
X123900000Y-93900016D01*
X137865000Y-88835000D02*
X135800000Y-90900000D01*
X124265685Y-90900000D02*
X123700000Y-90900000D01*
X137865000Y-85800000D02*
X137865000Y-88835000D01*
X135800000Y-90900000D02*
X124265685Y-90900000D01*
X139135000Y-88800000D02*
X138560000Y-88800000D01*
X138560000Y-88800000D02*
X136035002Y-91324998D01*
X125000000Y-93100000D02*
X123800000Y-91900000D01*
X129400249Y-92399751D02*
X128700000Y-93100000D01*
X128700000Y-93100000D02*
X125000000Y-93100000D01*
X136035002Y-91324998D02*
X130025500Y-91324998D01*
X130025500Y-91324998D02*
X129400249Y-91950249D01*
X129400249Y-91950249D02*
X129400249Y-92399751D01*
X123800000Y-91900000D02*
X122700004Y-91900000D01*
X141600000Y-94320000D02*
X141600000Y-93975000D01*
X146000000Y-99550000D02*
X146000000Y-98720000D01*
X146000000Y-98720000D02*
X141600000Y-94320000D01*
X142800000Y-94250000D02*
X142800000Y-94000000D01*
X147270000Y-99550000D02*
X147270000Y-98720000D01*
X147270000Y-98720000D02*
X142800000Y-94250000D01*
X141100000Y-102300000D02*
X140575000Y-101775000D01*
X120000000Y-101250000D02*
X122450996Y-101250000D01*
X141100000Y-105282502D02*
X141100000Y-102300000D01*
X140775001Y-105607501D02*
X141100000Y-105282502D01*
X127349979Y-99125032D02*
X127349979Y-103532481D01*
X129424999Y-105607501D02*
X140775001Y-105607501D01*
X122450996Y-101250000D02*
X124575965Y-99125032D01*
X140575000Y-101775000D02*
X139950000Y-101775000D01*
X127349979Y-103532481D02*
X129424999Y-105607501D01*
X124575965Y-99125032D02*
X127349979Y-99125032D01*
X139925000Y-102775000D02*
X139950000Y-102775000D01*
X132211074Y-104600000D02*
X138100000Y-104600000D01*
X128599990Y-100988916D02*
X132211074Y-104600000D01*
X128599990Y-100438916D02*
X128599990Y-100988916D01*
X127640700Y-98725021D02*
X127749990Y-98834311D01*
X124410276Y-98725021D02*
X127640700Y-98725021D01*
X138100000Y-104600000D02*
X139925000Y-102775000D01*
X122385296Y-100750000D02*
X124410276Y-98725021D01*
X127749990Y-98834311D02*
X127749990Y-99588916D01*
X120000000Y-100750000D02*
X122385296Y-100750000D01*
X127749990Y-99588916D02*
X128599990Y-100438916D01*
X129484973Y-94849990D02*
X138399990Y-94849990D01*
X139325000Y-95775000D02*
X139950000Y-95775000D01*
X138399990Y-94849990D02*
X139325000Y-95775000D01*
X122319596Y-100250000D02*
X124244586Y-98325010D01*
X124244586Y-98325010D02*
X126009953Y-98325010D01*
X120000000Y-100250000D02*
X122319596Y-100250000D01*
X126009953Y-98325010D02*
X129484973Y-94849990D01*
X131065693Y-93000000D02*
X130500008Y-93000000D01*
X131865693Y-92200000D02*
X131065693Y-93000000D01*
X141720000Y-87200000D02*
X140500000Y-88420000D01*
X142550000Y-87200000D02*
X141720000Y-87200000D01*
X140500000Y-88420000D02*
X140500000Y-90600000D01*
X140500000Y-90600000D02*
X138900000Y-92200000D01*
X138900000Y-92200000D02*
X131865693Y-92200000D01*
X130699998Y-91800000D02*
X130500000Y-91999998D01*
X141720000Y-85930000D02*
X139900000Y-87750000D01*
X142550000Y-85930000D02*
X141720000Y-85930000D01*
X139900000Y-87750000D02*
X139900000Y-90355002D01*
X138455002Y-91800000D02*
X130699998Y-91800000D01*
X139900000Y-90355002D02*
X138455002Y-91800000D01*
X139844982Y-94449980D02*
X126905057Y-94449980D01*
X122041302Y-99750000D02*
X121100000Y-99750000D01*
X124019990Y-97771312D02*
X122041302Y-99750000D01*
X140600001Y-95204999D02*
X139844982Y-94449980D01*
X139950000Y-96775000D02*
X140575000Y-96775000D01*
X126905057Y-94449980D02*
X124019990Y-97335047D01*
X140575000Y-96775000D02*
X140600001Y-96749999D01*
X124019990Y-97335047D02*
X124019990Y-97771312D01*
X140600001Y-96749999D02*
X140600001Y-95204999D01*
X121100000Y-99750000D02*
X120000000Y-99750000D01*
D31*
G36*
X148190000Y-101931918D02*
G01*
X148170537Y-101895506D01*
X148091185Y-101798815D01*
X147994494Y-101719463D01*
X147884180Y-101660498D01*
X147764482Y-101624188D01*
X147640000Y-101611928D01*
X147555750Y-101615000D01*
X147397000Y-101773750D01*
X147397000Y-103323000D01*
X147417000Y-103323000D01*
X147417000Y-103577000D01*
X147397000Y-103577000D01*
X147397000Y-105126250D01*
X147555750Y-105285000D01*
X147640000Y-105288072D01*
X147764482Y-105275812D01*
X147884180Y-105239502D01*
X147994494Y-105180537D01*
X148091185Y-105101185D01*
X148170537Y-105004494D01*
X148190000Y-104968082D01*
X148190000Y-105340000D01*
X146721395Y-105340000D01*
X146743786Y-105266186D01*
X146775518Y-105275812D01*
X146900000Y-105288072D01*
X146984250Y-105285000D01*
X147143000Y-105126250D01*
X147143000Y-103577000D01*
X147123000Y-103577000D01*
X147123000Y-103323000D01*
X147143000Y-103323000D01*
X147143000Y-101773750D01*
X146984250Y-101615000D01*
X146900000Y-101611928D01*
X146775518Y-101624188D01*
X146655820Y-101660498D01*
X146635000Y-101671627D01*
X146614180Y-101660498D01*
X146494482Y-101624188D01*
X146370000Y-101611928D01*
X145630000Y-101611928D01*
X145505518Y-101624188D01*
X145406874Y-101654111D01*
X145364974Y-101575724D01*
X145270001Y-101459999D01*
X145241002Y-101436200D01*
X145184547Y-101379745D01*
X145224482Y-101375812D01*
X145344180Y-101339502D01*
X145365000Y-101328373D01*
X145385820Y-101339502D01*
X145505518Y-101375812D01*
X145630000Y-101388072D01*
X146370000Y-101388072D01*
X146494482Y-101375812D01*
X146614180Y-101339502D01*
X146635000Y-101328373D01*
X146655820Y-101339502D01*
X146775518Y-101375812D01*
X146900000Y-101388072D01*
X147640000Y-101388072D01*
X147764482Y-101375812D01*
X147884180Y-101339502D01*
X147994494Y-101280537D01*
X148091185Y-101201185D01*
X148170537Y-101104494D01*
X148190000Y-101068081D01*
X148190000Y-101931918D01*
X148190000Y-101931918D01*
G37*
X148190000Y-101931918D02*
X148170537Y-101895506D01*
X148091185Y-101798815D01*
X147994494Y-101719463D01*
X147884180Y-101660498D01*
X147764482Y-101624188D01*
X147640000Y-101611928D01*
X147555750Y-101615000D01*
X147397000Y-101773750D01*
X147397000Y-103323000D01*
X147417000Y-103323000D01*
X147417000Y-103577000D01*
X147397000Y-103577000D01*
X147397000Y-105126250D01*
X147555750Y-105285000D01*
X147640000Y-105288072D01*
X147764482Y-105275812D01*
X147884180Y-105239502D01*
X147994494Y-105180537D01*
X148091185Y-105101185D01*
X148170537Y-105004494D01*
X148190000Y-104968082D01*
X148190000Y-105340000D01*
X146721395Y-105340000D01*
X146743786Y-105266186D01*
X146775518Y-105275812D01*
X146900000Y-105288072D01*
X146984250Y-105285000D01*
X147143000Y-105126250D01*
X147143000Y-103577000D01*
X147123000Y-103577000D01*
X147123000Y-103323000D01*
X147143000Y-103323000D01*
X147143000Y-101773750D01*
X146984250Y-101615000D01*
X146900000Y-101611928D01*
X146775518Y-101624188D01*
X146655820Y-101660498D01*
X146635000Y-101671627D01*
X146614180Y-101660498D01*
X146494482Y-101624188D01*
X146370000Y-101611928D01*
X145630000Y-101611928D01*
X145505518Y-101624188D01*
X145406874Y-101654111D01*
X145364974Y-101575724D01*
X145270001Y-101459999D01*
X145241002Y-101436200D01*
X145184547Y-101379745D01*
X145224482Y-101375812D01*
X145344180Y-101339502D01*
X145365000Y-101328373D01*
X145385820Y-101339502D01*
X145505518Y-101375812D01*
X145630000Y-101388072D01*
X146370000Y-101388072D01*
X146494482Y-101375812D01*
X146614180Y-101339502D01*
X146635000Y-101328373D01*
X146655820Y-101339502D01*
X146775518Y-101375812D01*
X146900000Y-101388072D01*
X147640000Y-101388072D01*
X147764482Y-101375812D01*
X147884180Y-101339502D01*
X147994494Y-101280537D01*
X148091185Y-101201185D01*
X148170537Y-101104494D01*
X148190000Y-101068081D01*
X148190000Y-101931918D01*
G36*
X125347000Y-104648000D02*
G01*
X125367000Y-104648000D01*
X125367000Y-104902000D01*
X125347000Y-104902000D01*
X125347000Y-104922000D01*
X125093000Y-104922000D01*
X125093000Y-104902000D01*
X125073000Y-104902000D01*
X125073000Y-104648000D01*
X125093000Y-104648000D01*
X125093000Y-104628000D01*
X125347000Y-104628000D01*
X125347000Y-104648000D01*
X125347000Y-104648000D01*
G37*
X125347000Y-104648000D02*
X125367000Y-104648000D01*
X125367000Y-104902000D01*
X125347000Y-104902000D01*
X125347000Y-104922000D01*
X125093000Y-104922000D01*
X125093000Y-104902000D01*
X125073000Y-104902000D01*
X125073000Y-104648000D01*
X125093000Y-104648000D01*
X125093000Y-104628000D01*
X125347000Y-104628000D01*
X125347000Y-104648000D01*
G36*
X131383773Y-104847501D02*
G01*
X129739802Y-104847501D01*
X128768135Y-103875835D01*
X128829494Y-103843037D01*
X128926185Y-103763685D01*
X129005537Y-103666994D01*
X129064502Y-103556680D01*
X129100812Y-103436982D01*
X129113072Y-103312500D01*
X129110000Y-102998250D01*
X128951250Y-102839500D01*
X128177000Y-102839500D01*
X128177000Y-102859500D01*
X128109979Y-102859500D01*
X128109979Y-102565500D01*
X128177000Y-102565500D01*
X128177000Y-102585500D01*
X128951250Y-102585500D01*
X129036511Y-102500239D01*
X131383773Y-104847501D01*
X131383773Y-104847501D01*
G37*
X131383773Y-104847501D02*
X129739802Y-104847501D01*
X128768135Y-103875835D01*
X128829494Y-103843037D01*
X128926185Y-103763685D01*
X129005537Y-103666994D01*
X129064502Y-103556680D01*
X129100812Y-103436982D01*
X129113072Y-103312500D01*
X129110000Y-102998250D01*
X128951250Y-102839500D01*
X128177000Y-102839500D01*
X128177000Y-102859500D01*
X128109979Y-102859500D01*
X128109979Y-102565500D01*
X128177000Y-102565500D01*
X128177000Y-102585500D01*
X128951250Y-102585500D01*
X129036511Y-102500239D01*
X131383773Y-104847501D01*
G36*
X141277000Y-97148000D02*
G01*
X141297000Y-97148000D01*
X141297000Y-97402000D01*
X141277000Y-97402000D01*
X141277000Y-98101250D01*
X141435750Y-98260000D01*
X141461155Y-98261988D01*
X141404774Y-98398102D01*
X141365000Y-98598061D01*
X141365000Y-98801939D01*
X141404774Y-99001898D01*
X141482795Y-99190256D01*
X141596063Y-99359774D01*
X141740226Y-99503937D01*
X141909744Y-99617205D01*
X142098102Y-99695226D01*
X142298061Y-99735000D01*
X142360199Y-99735000D01*
X142740001Y-100114803D01*
X142740002Y-104462669D01*
X142736325Y-104500001D01*
X142740002Y-104537334D01*
X142746864Y-104607000D01*
X142523000Y-104607000D01*
X142523000Y-104587000D01*
X142503000Y-104587000D01*
X142503000Y-104333000D01*
X142523000Y-104333000D01*
X142523000Y-103611250D01*
X142364250Y-103452500D01*
X142075000Y-103449428D01*
X141950518Y-103461688D01*
X141860000Y-103489146D01*
X141860000Y-102337322D01*
X141863676Y-102299999D01*
X141860000Y-102262676D01*
X141860000Y-102262667D01*
X141849003Y-102151014D01*
X141846213Y-102141816D01*
X141926185Y-102076185D01*
X142005537Y-101979494D01*
X142064502Y-101869180D01*
X142100812Y-101749482D01*
X142113072Y-101625000D01*
X142110000Y-101560750D01*
X141951250Y-101402000D01*
X141277000Y-101402000D01*
X141277000Y-101402199D01*
X141138803Y-101264002D01*
X141115001Y-101234999D01*
X141008992Y-101148000D01*
X141023000Y-101148000D01*
X141023000Y-100448750D01*
X141277000Y-100448750D01*
X141277000Y-101148000D01*
X141951250Y-101148000D01*
X142110000Y-100989250D01*
X142113072Y-100925000D01*
X142100812Y-100800518D01*
X142064502Y-100680820D01*
X142005537Y-100570506D01*
X141926185Y-100473815D01*
X141829494Y-100394463D01*
X141719180Y-100335498D01*
X141599482Y-100299188D01*
X141475000Y-100286928D01*
X141435750Y-100290000D01*
X141277000Y-100448750D01*
X141023000Y-100448750D01*
X140959120Y-100384870D01*
X140950812Y-100300518D01*
X140943071Y-100275000D01*
X140950812Y-100249482D01*
X140963072Y-100125000D01*
X140963072Y-99425000D01*
X140950812Y-99300518D01*
X140943071Y-99275000D01*
X140950812Y-99249482D01*
X140963072Y-99125000D01*
X140963072Y-98425000D01*
X140950812Y-98300518D01*
X140943071Y-98275000D01*
X140950812Y-98249482D01*
X140959120Y-98165130D01*
X141023000Y-98101250D01*
X141023000Y-97402000D01*
X141008992Y-97402000D01*
X141115001Y-97315001D01*
X141126271Y-97301269D01*
X141140002Y-97290000D01*
X141234975Y-97174275D01*
X141259710Y-97128000D01*
X141277000Y-97128000D01*
X141277000Y-97148000D01*
X141277000Y-97148000D01*
G37*
X141277000Y-97148000D02*
X141297000Y-97148000D01*
X141297000Y-97402000D01*
X141277000Y-97402000D01*
X141277000Y-98101250D01*
X141435750Y-98260000D01*
X141461155Y-98261988D01*
X141404774Y-98398102D01*
X141365000Y-98598061D01*
X141365000Y-98801939D01*
X141404774Y-99001898D01*
X141482795Y-99190256D01*
X141596063Y-99359774D01*
X141740226Y-99503937D01*
X141909744Y-99617205D01*
X142098102Y-99695226D01*
X142298061Y-99735000D01*
X142360199Y-99735000D01*
X142740001Y-100114803D01*
X142740002Y-104462669D01*
X142736325Y-104500001D01*
X142740002Y-104537334D01*
X142746864Y-104607000D01*
X142523000Y-104607000D01*
X142523000Y-104587000D01*
X142503000Y-104587000D01*
X142503000Y-104333000D01*
X142523000Y-104333000D01*
X142523000Y-103611250D01*
X142364250Y-103452500D01*
X142075000Y-103449428D01*
X141950518Y-103461688D01*
X141860000Y-103489146D01*
X141860000Y-102337322D01*
X141863676Y-102299999D01*
X141860000Y-102262676D01*
X141860000Y-102262667D01*
X141849003Y-102151014D01*
X141846213Y-102141816D01*
X141926185Y-102076185D01*
X142005537Y-101979494D01*
X142064502Y-101869180D01*
X142100812Y-101749482D01*
X142113072Y-101625000D01*
X142110000Y-101560750D01*
X141951250Y-101402000D01*
X141277000Y-101402000D01*
X141277000Y-101402199D01*
X141138803Y-101264002D01*
X141115001Y-101234999D01*
X141008992Y-101148000D01*
X141023000Y-101148000D01*
X141023000Y-100448750D01*
X141277000Y-100448750D01*
X141277000Y-101148000D01*
X141951250Y-101148000D01*
X142110000Y-100989250D01*
X142113072Y-100925000D01*
X142100812Y-100800518D01*
X142064502Y-100680820D01*
X142005537Y-100570506D01*
X141926185Y-100473815D01*
X141829494Y-100394463D01*
X141719180Y-100335498D01*
X141599482Y-100299188D01*
X141475000Y-100286928D01*
X141435750Y-100290000D01*
X141277000Y-100448750D01*
X141023000Y-100448750D01*
X140959120Y-100384870D01*
X140950812Y-100300518D01*
X140943071Y-100275000D01*
X140950812Y-100249482D01*
X140963072Y-100125000D01*
X140963072Y-99425000D01*
X140950812Y-99300518D01*
X140943071Y-99275000D01*
X140950812Y-99249482D01*
X140963072Y-99125000D01*
X140963072Y-98425000D01*
X140950812Y-98300518D01*
X140943071Y-98275000D01*
X140950812Y-98249482D01*
X140959120Y-98165130D01*
X141023000Y-98101250D01*
X141023000Y-97402000D01*
X141008992Y-97402000D01*
X141115001Y-97315001D01*
X141126271Y-97301269D01*
X141140002Y-97290000D01*
X141234975Y-97174275D01*
X141259710Y-97128000D01*
X141277000Y-97128000D01*
X141277000Y-97148000D01*
G36*
X140340000Y-104274759D02*
G01*
X139498772Y-104276030D01*
X140011730Y-103763072D01*
X140325000Y-103763072D01*
X140340001Y-103761595D01*
X140340000Y-104274759D01*
X140340000Y-104274759D01*
G37*
X140340000Y-104274759D02*
X139498772Y-104276030D01*
X140011730Y-103763072D01*
X140325000Y-103763072D01*
X140340001Y-103761595D01*
X140340000Y-104274759D01*
G36*
X148190000Y-103322998D02*
G01*
X148116252Y-103322998D01*
X148190000Y-103249250D01*
X148190000Y-103322998D01*
X148190000Y-103322998D01*
G37*
X148190000Y-103322998D02*
X148116252Y-103322998D01*
X148190000Y-103249250D01*
X148190000Y-103322998D01*
G36*
X130496063Y-97459774D02*
G01*
X130640226Y-97603937D01*
X130809744Y-97717205D01*
X130998102Y-97795226D01*
X131198061Y-97835000D01*
X131401939Y-97835000D01*
X131601898Y-97795226D01*
X131790256Y-97717205D01*
X131898000Y-97645213D01*
X131898000Y-103212124D01*
X129359990Y-100674115D01*
X129359990Y-100627000D01*
X130275000Y-100627000D01*
X130299776Y-100624560D01*
X130323601Y-100617333D01*
X130345557Y-100605597D01*
X130364803Y-100589803D01*
X130380597Y-100570557D01*
X130392333Y-100548601D01*
X130399560Y-100524776D01*
X130402000Y-100500000D01*
X130402000Y-97318998D01*
X130496063Y-97459774D01*
X130496063Y-97459774D01*
G37*
X130496063Y-97459774D02*
X130640226Y-97603937D01*
X130809744Y-97717205D01*
X130998102Y-97795226D01*
X131198061Y-97835000D01*
X131401939Y-97835000D01*
X131601898Y-97795226D01*
X131790256Y-97717205D01*
X131898000Y-97645213D01*
X131898000Y-103212124D01*
X129359990Y-100674115D01*
X129359990Y-100627000D01*
X130275000Y-100627000D01*
X130299776Y-100624560D01*
X130323601Y-100617333D01*
X130345557Y-100605597D01*
X130364803Y-100589803D01*
X130380597Y-100570557D01*
X130392333Y-100548601D01*
X130399560Y-100524776D01*
X130402000Y-100500000D01*
X130402000Y-97318998D01*
X130496063Y-97459774D01*
G36*
X140097000Y-100786928D02*
G01*
X139803000Y-100786928D01*
X139803000Y-100763072D01*
X140097000Y-100763072D01*
X140097000Y-100786928D01*
X140097000Y-100786928D01*
G37*
X140097000Y-100786928D02*
X139803000Y-100786928D01*
X139803000Y-100763072D01*
X140097000Y-100763072D01*
X140097000Y-100786928D01*
G36*
X125871042Y-100484774D02*
G01*
X125936501Y-100550233D01*
X125936501Y-100694391D01*
X125919925Y-100677815D01*
X125819472Y-100527477D01*
X125817053Y-100525058D01*
X125865552Y-100476558D01*
X125871042Y-100484774D01*
X125871042Y-100484774D01*
G37*
X125871042Y-100484774D02*
X125936501Y-100550233D01*
X125936501Y-100694391D01*
X125919925Y-100677815D01*
X125819472Y-100527477D01*
X125817053Y-100525058D01*
X125865552Y-100476558D01*
X125871042Y-100484774D01*
G36*
X125161023Y-99890631D02*
G01*
X125189141Y-99918749D01*
X125014143Y-100093748D01*
X125000000Y-100079605D01*
X124985858Y-100093748D01*
X124833955Y-99941845D01*
X124890768Y-99885032D01*
X125166622Y-99885032D01*
X125161023Y-99890631D01*
X125161023Y-99890631D01*
G37*
X125161023Y-99890631D02*
X125189141Y-99918749D01*
X125014143Y-100093748D01*
X125000000Y-100079605D01*
X124985858Y-100093748D01*
X124833955Y-99941845D01*
X124890768Y-99885032D01*
X125166622Y-99885032D01*
X125161023Y-99890631D01*
G36*
X148190000Y-98031919D02*
G01*
X148170537Y-97995506D01*
X148091185Y-97898815D01*
X147994494Y-97819463D01*
X147884180Y-97760498D01*
X147764482Y-97724188D01*
X147640000Y-97711928D01*
X147336730Y-97711928D01*
X143817039Y-94192238D01*
X143835000Y-94101939D01*
X143835000Y-94060000D01*
X144062678Y-94060000D01*
X144100000Y-94063676D01*
X144137322Y-94060000D01*
X144137333Y-94060000D01*
X144248986Y-94049003D01*
X144392247Y-94005546D01*
X144524276Y-93934974D01*
X144640001Y-93840001D01*
X144663804Y-93810997D01*
X148190001Y-90284801D01*
X148190000Y-98031919D01*
X148190000Y-98031919D01*
G37*
X148190000Y-98031919D02*
X148170537Y-97995506D01*
X148091185Y-97898815D01*
X147994494Y-97819463D01*
X147884180Y-97760498D01*
X147764482Y-97724188D01*
X147640000Y-97711928D01*
X147336730Y-97711928D01*
X143817039Y-94192238D01*
X143835000Y-94101939D01*
X143835000Y-94060000D01*
X144062678Y-94060000D01*
X144100000Y-94063676D01*
X144137322Y-94060000D01*
X144137333Y-94060000D01*
X144248986Y-94049003D01*
X144392247Y-94005546D01*
X144524276Y-93934974D01*
X144640001Y-93840001D01*
X144663804Y-93810997D01*
X148190001Y-90284801D01*
X148190000Y-98031919D01*
G36*
X125347000Y-97498000D02*
G01*
X125367000Y-97498000D01*
X125367000Y-97565010D01*
X125073000Y-97565010D01*
X125073000Y-97498000D01*
X125093000Y-97498000D01*
X125093000Y-97478000D01*
X125347000Y-97478000D01*
X125347000Y-97498000D01*
X125347000Y-97498000D01*
G37*
X125347000Y-97498000D02*
X125367000Y-97498000D01*
X125367000Y-97565010D01*
X125073000Y-97565010D01*
X125073000Y-97498000D01*
X125093000Y-97498000D01*
X125093000Y-97478000D01*
X125347000Y-97478000D01*
X125347000Y-97498000D01*
G36*
X122064988Y-93939790D02*
G01*
X122064989Y-96406917D01*
X122057301Y-96404596D01*
X121998628Y-96392979D01*
X121940111Y-96380540D01*
X121930946Y-96379577D01*
X121814405Y-96368150D01*
X121814402Y-96368150D01*
X121782419Y-96365000D01*
X121393250Y-96365000D01*
X121347725Y-96319475D01*
X121380537Y-96279494D01*
X121439502Y-96169180D01*
X121474525Y-96053725D01*
X121485000Y-96043250D01*
X121480514Y-96001738D01*
X121488072Y-95925000D01*
X121488072Y-95575000D01*
X121480685Y-95500000D01*
X121488072Y-95425000D01*
X121488072Y-95075000D01*
X121480514Y-94998262D01*
X121485000Y-94956750D01*
X121474525Y-94946275D01*
X121439502Y-94830820D01*
X121396302Y-94750000D01*
X121439502Y-94669180D01*
X121474525Y-94553725D01*
X121485000Y-94543250D01*
X121480514Y-94501738D01*
X121488072Y-94425000D01*
X121488072Y-94075000D01*
X121480685Y-93999999D01*
X121488072Y-93925000D01*
X121488072Y-93575000D01*
X121480514Y-93498262D01*
X121485000Y-93456750D01*
X121474525Y-93446275D01*
X121453511Y-93377002D01*
X121485000Y-93377002D01*
X121485000Y-93359801D01*
X122064988Y-93939790D01*
X122064988Y-93939790D01*
G37*
X122064988Y-93939790D02*
X122064989Y-96406917D01*
X122057301Y-96404596D01*
X121998628Y-96392979D01*
X121940111Y-96380540D01*
X121930946Y-96379577D01*
X121814405Y-96368150D01*
X121814402Y-96368150D01*
X121782419Y-96365000D01*
X121393250Y-96365000D01*
X121347725Y-96319475D01*
X121380537Y-96279494D01*
X121439502Y-96169180D01*
X121474525Y-96053725D01*
X121485000Y-96043250D01*
X121480514Y-96001738D01*
X121488072Y-95925000D01*
X121488072Y-95575000D01*
X121480685Y-95500000D01*
X121488072Y-95425000D01*
X121488072Y-95075000D01*
X121480514Y-94998262D01*
X121485000Y-94956750D01*
X121474525Y-94946275D01*
X121439502Y-94830820D01*
X121396302Y-94750000D01*
X121439502Y-94669180D01*
X121474525Y-94553725D01*
X121485000Y-94543250D01*
X121480514Y-94501738D01*
X121488072Y-94425000D01*
X121488072Y-94075000D01*
X121480685Y-93999999D01*
X121488072Y-93925000D01*
X121488072Y-93575000D01*
X121480514Y-93498262D01*
X121485000Y-93456750D01*
X121474525Y-93446275D01*
X121453511Y-93377002D01*
X121485000Y-93377002D01*
X121485000Y-93359801D01*
X122064988Y-93939790D01*
G36*
X127988161Y-95272000D02*
G01*
X127873000Y-95272000D01*
X127873000Y-95252000D01*
X127853000Y-95252000D01*
X127853000Y-95209980D01*
X128050181Y-95209980D01*
X127988161Y-95272000D01*
X127988161Y-95272000D01*
G37*
X127988161Y-95272000D02*
X127873000Y-95272000D01*
X127873000Y-95252000D01*
X127853000Y-95252000D01*
X127853000Y-95209980D01*
X128050181Y-95209980D01*
X127988161Y-95272000D01*
G36*
X146577000Y-88343000D02*
G01*
X146597000Y-88343000D01*
X146597000Y-88597000D01*
X146577000Y-88597000D01*
X146577000Y-89316250D01*
X146735750Y-89475000D01*
X146849815Y-89475383D01*
X143785199Y-92540000D01*
X140934801Y-92540000D01*
X141637953Y-91836848D01*
X141636928Y-91900000D01*
X141649188Y-92024482D01*
X141685498Y-92144180D01*
X141744463Y-92254494D01*
X141823815Y-92351185D01*
X141920506Y-92430537D01*
X142030820Y-92489502D01*
X142150518Y-92525812D01*
X142275000Y-92538072D01*
X142439250Y-92535000D01*
X142598000Y-92376250D01*
X142598000Y-91552000D01*
X142852000Y-91552000D01*
X142852000Y-92376250D01*
X143010750Y-92535000D01*
X143175000Y-92538072D01*
X143299482Y-92525812D01*
X143419180Y-92489502D01*
X143529494Y-92430537D01*
X143626185Y-92351185D01*
X143705537Y-92254494D01*
X143764502Y-92144180D01*
X143800812Y-92024482D01*
X143813072Y-91900000D01*
X143810000Y-91710750D01*
X143651250Y-91552000D01*
X142852000Y-91552000D01*
X142598000Y-91552000D01*
X142578000Y-91552000D01*
X142578000Y-91298000D01*
X142598000Y-91298000D01*
X142598000Y-91278000D01*
X142852000Y-91278000D01*
X142852000Y-91298000D01*
X143651250Y-91298000D01*
X143810000Y-91139250D01*
X143811583Y-91041759D01*
X143824276Y-91034974D01*
X143940001Y-90940001D01*
X143963804Y-90910997D01*
X145111004Y-89763798D01*
X145140001Y-89740001D01*
X145234974Y-89624276D01*
X145305546Y-89492247D01*
X145309907Y-89477871D01*
X146164250Y-89475000D01*
X146323000Y-89316250D01*
X146323000Y-88597000D01*
X146303000Y-88597000D01*
X146303000Y-88343000D01*
X146323000Y-88343000D01*
X146323000Y-88323000D01*
X146577000Y-88323000D01*
X146577000Y-88343000D01*
X146577000Y-88343000D01*
G37*
X146577000Y-88343000D02*
X146597000Y-88343000D01*
X146597000Y-88597000D01*
X146577000Y-88597000D01*
X146577000Y-89316250D01*
X146735750Y-89475000D01*
X146849815Y-89475383D01*
X143785199Y-92540000D01*
X140934801Y-92540000D01*
X141637953Y-91836848D01*
X141636928Y-91900000D01*
X141649188Y-92024482D01*
X141685498Y-92144180D01*
X141744463Y-92254494D01*
X141823815Y-92351185D01*
X141920506Y-92430537D01*
X142030820Y-92489502D01*
X142150518Y-92525812D01*
X142275000Y-92538072D01*
X142439250Y-92535000D01*
X142598000Y-92376250D01*
X142598000Y-91552000D01*
X142852000Y-91552000D01*
X142852000Y-92376250D01*
X143010750Y-92535000D01*
X143175000Y-92538072D01*
X143299482Y-92525812D01*
X143419180Y-92489502D01*
X143529494Y-92430537D01*
X143626185Y-92351185D01*
X143705537Y-92254494D01*
X143764502Y-92144180D01*
X143800812Y-92024482D01*
X143813072Y-91900000D01*
X143810000Y-91710750D01*
X143651250Y-91552000D01*
X142852000Y-91552000D01*
X142598000Y-91552000D01*
X142578000Y-91552000D01*
X142578000Y-91298000D01*
X142598000Y-91298000D01*
X142598000Y-91278000D01*
X142852000Y-91278000D01*
X142852000Y-91298000D01*
X143651250Y-91298000D01*
X143810000Y-91139250D01*
X143811583Y-91041759D01*
X143824276Y-91034974D01*
X143940001Y-90940001D01*
X143963804Y-90910997D01*
X145111004Y-89763798D01*
X145140001Y-89740001D01*
X145234974Y-89624276D01*
X145305546Y-89492247D01*
X145309907Y-89477871D01*
X146164250Y-89475000D01*
X146323000Y-89316250D01*
X146323000Y-88597000D01*
X146303000Y-88597000D01*
X146303000Y-88343000D01*
X146323000Y-88343000D01*
X146323000Y-88323000D01*
X146577000Y-88323000D01*
X146577000Y-88343000D01*
G36*
X126990000Y-91701750D02*
G01*
X127148750Y-91860500D01*
X127923000Y-91860500D01*
X127923000Y-91840500D01*
X128177000Y-91840500D01*
X128177000Y-91860500D01*
X128197000Y-91860500D01*
X128197000Y-92114500D01*
X128177000Y-92114500D01*
X128177000Y-92134500D01*
X127923000Y-92134500D01*
X127923000Y-92114500D01*
X127148750Y-92114500D01*
X126990000Y-92273250D01*
X126989437Y-92340000D01*
X125314802Y-92340000D01*
X124634801Y-91660000D01*
X126989648Y-91660000D01*
X126990000Y-91701750D01*
X126990000Y-91701750D01*
G37*
X126990000Y-91701750D02*
X127148750Y-91860500D01*
X127923000Y-91860500D01*
X127923000Y-91840500D01*
X128177000Y-91840500D01*
X128177000Y-91860500D01*
X128197000Y-91860500D01*
X128197000Y-92114500D01*
X128177000Y-92114500D01*
X128177000Y-92134500D01*
X127923000Y-92134500D01*
X127923000Y-92114500D01*
X127148750Y-92114500D01*
X126990000Y-92273250D01*
X126989437Y-92340000D01*
X125314802Y-92340000D01*
X124634801Y-91660000D01*
X126989648Y-91660000D01*
X126990000Y-91701750D01*
G36*
X142677000Y-88343000D02*
G01*
X142697000Y-88343000D01*
X142697000Y-88597000D01*
X142677000Y-88597000D01*
X142677000Y-89316250D01*
X142835750Y-89475000D01*
X143248811Y-89476388D01*
X143085199Y-89640000D01*
X142037323Y-89640000D01*
X142000000Y-89636324D01*
X141962677Y-89640000D01*
X141962667Y-89640000D01*
X141851014Y-89650997D01*
X141707753Y-89694454D01*
X141575724Y-89765026D01*
X141459999Y-89859999D01*
X141436201Y-89888997D01*
X141260000Y-90065198D01*
X141260000Y-89469208D01*
X141350000Y-89478072D01*
X142264250Y-89475000D01*
X142423000Y-89316250D01*
X142423000Y-88597000D01*
X142403000Y-88597000D01*
X142403000Y-88343000D01*
X142423000Y-88343000D01*
X142423000Y-88323000D01*
X142677000Y-88323000D01*
X142677000Y-88343000D01*
X142677000Y-88343000D01*
G37*
X142677000Y-88343000D02*
X142697000Y-88343000D01*
X142697000Y-88597000D01*
X142677000Y-88597000D01*
X142677000Y-89316250D01*
X142835750Y-89475000D01*
X143248811Y-89476388D01*
X143085199Y-89640000D01*
X142037323Y-89640000D01*
X142000000Y-89636324D01*
X141962677Y-89640000D01*
X141962667Y-89640000D01*
X141851014Y-89650997D01*
X141707753Y-89694454D01*
X141575724Y-89765026D01*
X141459999Y-89859999D01*
X141436201Y-89888997D01*
X141260000Y-90065198D01*
X141260000Y-89469208D01*
X141350000Y-89478072D01*
X142264250Y-89475000D01*
X142423000Y-89316250D01*
X142423000Y-88597000D01*
X142403000Y-88597000D01*
X142403000Y-88343000D01*
X142423000Y-88343000D01*
X142423000Y-88323000D01*
X142677000Y-88323000D01*
X142677000Y-88343000D01*
G36*
X136901928Y-87300000D02*
G01*
X136914188Y-87424482D01*
X136950498Y-87544180D01*
X137009463Y-87654494D01*
X137088815Y-87751185D01*
X137105001Y-87764468D01*
X137105001Y-88520197D01*
X136294455Y-89330744D01*
X136259774Y-89296063D01*
X136090256Y-89182795D01*
X135901898Y-89104774D01*
X135780075Y-89080542D01*
X135720155Y-88967000D01*
X134527000Y-88967000D01*
X134527000Y-88987000D01*
X134273000Y-88987000D01*
X134273000Y-88967000D01*
X133079845Y-88967000D01*
X132958524Y-89196890D01*
X133001932Y-89340000D01*
X130769804Y-89340000D01*
X129789803Y-88360000D01*
X131896289Y-88360000D01*
X131940226Y-88403937D01*
X132109744Y-88517205D01*
X132298102Y-88595226D01*
X132498061Y-88635000D01*
X132701939Y-88635000D01*
X132901898Y-88595226D01*
X132996920Y-88555866D01*
X133079845Y-88713000D01*
X134273000Y-88713000D01*
X134273000Y-88693000D01*
X134527000Y-88693000D01*
X134527000Y-88713000D01*
X135720155Y-88713000D01*
X135841476Y-88483110D01*
X135796825Y-88335901D01*
X135671641Y-88073080D01*
X135497588Y-87839731D01*
X135413534Y-87763966D01*
X135494180Y-87739502D01*
X135604494Y-87680537D01*
X135701185Y-87601185D01*
X135780537Y-87504494D01*
X135839502Y-87394180D01*
X135875812Y-87274482D01*
X135888072Y-87150000D01*
X135888072Y-85450000D01*
X135875812Y-85325518D01*
X135839502Y-85205820D01*
X135780537Y-85095506D01*
X135701185Y-84998815D01*
X135604494Y-84919463D01*
X135494180Y-84860498D01*
X135374482Y-84824188D01*
X135250000Y-84811928D01*
X133550000Y-84811928D01*
X133425518Y-84824188D01*
X133305820Y-84860498D01*
X133195506Y-84919463D01*
X133098815Y-84998815D01*
X133019463Y-85095506D01*
X132960498Y-85205820D01*
X132924188Y-85325518D01*
X132911928Y-85450000D01*
X132911928Y-86608929D01*
X132901898Y-86604774D01*
X132701939Y-86565000D01*
X132498061Y-86565000D01*
X132298102Y-86604774D01*
X132109744Y-86682795D01*
X131940226Y-86796063D01*
X131896289Y-86840000D01*
X131488072Y-86840000D01*
X131488072Y-85450000D01*
X131475812Y-85325518D01*
X131439502Y-85205820D01*
X131380537Y-85095506D01*
X131301185Y-84998815D01*
X131204494Y-84919463D01*
X131094180Y-84860498D01*
X130974482Y-84824188D01*
X130850000Y-84811928D01*
X129150000Y-84811928D01*
X129025518Y-84824188D01*
X128905820Y-84860498D01*
X128795506Y-84919463D01*
X128698815Y-84998815D01*
X128619463Y-85095506D01*
X128560498Y-85205820D01*
X128539607Y-85274687D01*
X128515134Y-85244866D01*
X128289014Y-85059294D01*
X128031034Y-84921401D01*
X127751111Y-84836487D01*
X127532950Y-84815000D01*
X127387050Y-84815000D01*
X127168889Y-84836487D01*
X126888966Y-84921401D01*
X126630986Y-85059294D01*
X126404866Y-85244866D01*
X126219294Y-85470986D01*
X126184799Y-85535523D01*
X126115178Y-85418645D01*
X125920269Y-85202412D01*
X125686920Y-85028359D01*
X125424099Y-84903175D01*
X125276890Y-84858524D01*
X125047000Y-84979845D01*
X125047000Y-86173000D01*
X125067000Y-86173000D01*
X125067000Y-86427000D01*
X125047000Y-86427000D01*
X125047000Y-86447000D01*
X124793000Y-86447000D01*
X124793000Y-86427000D01*
X123599186Y-86427000D01*
X123478519Y-86656891D01*
X123575843Y-86931252D01*
X123724822Y-87181355D01*
X123919731Y-87397588D01*
X123981521Y-87443677D01*
X121486747Y-89938452D01*
X121488072Y-89925000D01*
X121488072Y-89575000D01*
X121480685Y-89500000D01*
X121488072Y-89425000D01*
X121488072Y-89075000D01*
X121480514Y-88998262D01*
X121485000Y-88956750D01*
X121474525Y-88946275D01*
X121439502Y-88830820D01*
X121396302Y-88750000D01*
X121439502Y-88669180D01*
X121474525Y-88553725D01*
X121485000Y-88543250D01*
X121480514Y-88501738D01*
X121488072Y-88425000D01*
X121488072Y-88075000D01*
X121480685Y-88000000D01*
X121488072Y-87925000D01*
X121488072Y-87575000D01*
X121480514Y-87498262D01*
X121485000Y-87456750D01*
X121474525Y-87446275D01*
X121439502Y-87330820D01*
X121396302Y-87250000D01*
X121439502Y-87169180D01*
X121474525Y-87053725D01*
X121485000Y-87043250D01*
X121480514Y-87001738D01*
X121488072Y-86925000D01*
X121488072Y-86847815D01*
X121496063Y-86859774D01*
X121640226Y-87003937D01*
X121809744Y-87117205D01*
X121998102Y-87195226D01*
X122198061Y-87235000D01*
X122401939Y-87235000D01*
X122601898Y-87195226D01*
X122790256Y-87117205D01*
X122959774Y-87003937D01*
X123103937Y-86859774D01*
X123217205Y-86690256D01*
X123295226Y-86501898D01*
X123335000Y-86301939D01*
X123335000Y-86098061D01*
X123304179Y-85943109D01*
X123478519Y-85943109D01*
X123599186Y-86173000D01*
X124793000Y-86173000D01*
X124793000Y-84979845D01*
X124563110Y-84858524D01*
X124415901Y-84903175D01*
X124153080Y-85028359D01*
X123919731Y-85202412D01*
X123724822Y-85418645D01*
X123575843Y-85668748D01*
X123478519Y-85943109D01*
X123304179Y-85943109D01*
X123295226Y-85898102D01*
X123217205Y-85709744D01*
X123103937Y-85540226D01*
X123056575Y-85492864D01*
X123125486Y-85435855D01*
X123167639Y-85393406D01*
X123210371Y-85351561D01*
X123216245Y-85344460D01*
X123277921Y-85268840D01*
X123311052Y-85218975D01*
X123344825Y-85169650D01*
X123349208Y-85161544D01*
X123395020Y-85075383D01*
X123417809Y-85020091D01*
X123441378Y-84965102D01*
X123444103Y-84956299D01*
X123472308Y-84862881D01*
X123483933Y-84804174D01*
X123496365Y-84745684D01*
X123497327Y-84736530D01*
X123497328Y-84736524D01*
X123497328Y-84736519D01*
X123504830Y-84660000D01*
X136901928Y-84660000D01*
X136901928Y-87300000D01*
X136901928Y-87300000D01*
G37*
X136901928Y-87300000D02*
X136914188Y-87424482D01*
X136950498Y-87544180D01*
X137009463Y-87654494D01*
X137088815Y-87751185D01*
X137105001Y-87764468D01*
X137105001Y-88520197D01*
X136294455Y-89330744D01*
X136259774Y-89296063D01*
X136090256Y-89182795D01*
X135901898Y-89104774D01*
X135780075Y-89080542D01*
X135720155Y-88967000D01*
X134527000Y-88967000D01*
X134527000Y-88987000D01*
X134273000Y-88987000D01*
X134273000Y-88967000D01*
X133079845Y-88967000D01*
X132958524Y-89196890D01*
X133001932Y-89340000D01*
X130769804Y-89340000D01*
X129789803Y-88360000D01*
X131896289Y-88360000D01*
X131940226Y-88403937D01*
X132109744Y-88517205D01*
X132298102Y-88595226D01*
X132498061Y-88635000D01*
X132701939Y-88635000D01*
X132901898Y-88595226D01*
X132996920Y-88555866D01*
X133079845Y-88713000D01*
X134273000Y-88713000D01*
X134273000Y-88693000D01*
X134527000Y-88693000D01*
X134527000Y-88713000D01*
X135720155Y-88713000D01*
X135841476Y-88483110D01*
X135796825Y-88335901D01*
X135671641Y-88073080D01*
X135497588Y-87839731D01*
X135413534Y-87763966D01*
X135494180Y-87739502D01*
X135604494Y-87680537D01*
X135701185Y-87601185D01*
X135780537Y-87504494D01*
X135839502Y-87394180D01*
X135875812Y-87274482D01*
X135888072Y-87150000D01*
X135888072Y-85450000D01*
X135875812Y-85325518D01*
X135839502Y-85205820D01*
X135780537Y-85095506D01*
X135701185Y-84998815D01*
X135604494Y-84919463D01*
X135494180Y-84860498D01*
X135374482Y-84824188D01*
X135250000Y-84811928D01*
X133550000Y-84811928D01*
X133425518Y-84824188D01*
X133305820Y-84860498D01*
X133195506Y-84919463D01*
X133098815Y-84998815D01*
X133019463Y-85095506D01*
X132960498Y-85205820D01*
X132924188Y-85325518D01*
X132911928Y-85450000D01*
X132911928Y-86608929D01*
X132901898Y-86604774D01*
X132701939Y-86565000D01*
X132498061Y-86565000D01*
X132298102Y-86604774D01*
X132109744Y-86682795D01*
X131940226Y-86796063D01*
X131896289Y-86840000D01*
X131488072Y-86840000D01*
X131488072Y-85450000D01*
X131475812Y-85325518D01*
X131439502Y-85205820D01*
X131380537Y-85095506D01*
X131301185Y-84998815D01*
X131204494Y-84919463D01*
X131094180Y-84860498D01*
X130974482Y-84824188D01*
X130850000Y-84811928D01*
X129150000Y-84811928D01*
X129025518Y-84824188D01*
X128905820Y-84860498D01*
X128795506Y-84919463D01*
X128698815Y-84998815D01*
X128619463Y-85095506D01*
X128560498Y-85205820D01*
X128539607Y-85274687D01*
X128515134Y-85244866D01*
X128289014Y-85059294D01*
X128031034Y-84921401D01*
X127751111Y-84836487D01*
X127532950Y-84815000D01*
X127387050Y-84815000D01*
X127168889Y-84836487D01*
X126888966Y-84921401D01*
X126630986Y-85059294D01*
X126404866Y-85244866D01*
X126219294Y-85470986D01*
X126184799Y-85535523D01*
X126115178Y-85418645D01*
X125920269Y-85202412D01*
X125686920Y-85028359D01*
X125424099Y-84903175D01*
X125276890Y-84858524D01*
X125047000Y-84979845D01*
X125047000Y-86173000D01*
X125067000Y-86173000D01*
X125067000Y-86427000D01*
X125047000Y-86427000D01*
X125047000Y-86447000D01*
X124793000Y-86447000D01*
X124793000Y-86427000D01*
X123599186Y-86427000D01*
X123478519Y-86656891D01*
X123575843Y-86931252D01*
X123724822Y-87181355D01*
X123919731Y-87397588D01*
X123981521Y-87443677D01*
X121486747Y-89938452D01*
X121488072Y-89925000D01*
X121488072Y-89575000D01*
X121480685Y-89500000D01*
X121488072Y-89425000D01*
X121488072Y-89075000D01*
X121480514Y-88998262D01*
X121485000Y-88956750D01*
X121474525Y-88946275D01*
X121439502Y-88830820D01*
X121396302Y-88750000D01*
X121439502Y-88669180D01*
X121474525Y-88553725D01*
X121485000Y-88543250D01*
X121480514Y-88501738D01*
X121488072Y-88425000D01*
X121488072Y-88075000D01*
X121480685Y-88000000D01*
X121488072Y-87925000D01*
X121488072Y-87575000D01*
X121480514Y-87498262D01*
X121485000Y-87456750D01*
X121474525Y-87446275D01*
X121439502Y-87330820D01*
X121396302Y-87250000D01*
X121439502Y-87169180D01*
X121474525Y-87053725D01*
X121485000Y-87043250D01*
X121480514Y-87001738D01*
X121488072Y-86925000D01*
X121488072Y-86847815D01*
X121496063Y-86859774D01*
X121640226Y-87003937D01*
X121809744Y-87117205D01*
X121998102Y-87195226D01*
X122198061Y-87235000D01*
X122401939Y-87235000D01*
X122601898Y-87195226D01*
X122790256Y-87117205D01*
X122959774Y-87003937D01*
X123103937Y-86859774D01*
X123217205Y-86690256D01*
X123295226Y-86501898D01*
X123335000Y-86301939D01*
X123335000Y-86098061D01*
X123304179Y-85943109D01*
X123478519Y-85943109D01*
X123599186Y-86173000D01*
X124793000Y-86173000D01*
X124793000Y-84979845D01*
X124563110Y-84858524D01*
X124415901Y-84903175D01*
X124153080Y-85028359D01*
X123919731Y-85202412D01*
X123724822Y-85418645D01*
X123575843Y-85668748D01*
X123478519Y-85943109D01*
X123304179Y-85943109D01*
X123295226Y-85898102D01*
X123217205Y-85709744D01*
X123103937Y-85540226D01*
X123056575Y-85492864D01*
X123125486Y-85435855D01*
X123167639Y-85393406D01*
X123210371Y-85351561D01*
X123216245Y-85344460D01*
X123277921Y-85268840D01*
X123311052Y-85218975D01*
X123344825Y-85169650D01*
X123349208Y-85161544D01*
X123395020Y-85075383D01*
X123417809Y-85020091D01*
X123441378Y-84965102D01*
X123444103Y-84956299D01*
X123472308Y-84862881D01*
X123483933Y-84804174D01*
X123496365Y-84745684D01*
X123497327Y-84736530D01*
X123497328Y-84736524D01*
X123497328Y-84736519D01*
X123504830Y-84660000D01*
X136901928Y-84660000D01*
X136901928Y-87300000D01*
M02*
