G04 #@! TF.GenerationSoftware,KiCad,Pcbnew,7.0.2-1.fc38*
G04 #@! TF.CreationDate,2023-05-11T21:02:33-04:00*
G04 #@! TF.ProjectId,m2-sd-card,6d322d73-642d-4636-9172-642e6b696361,v0.5.0*
G04 #@! TF.SameCoordinates,PX71581d0PY6410748*
G04 #@! TF.FileFunction,Legend,Bot*
G04 #@! TF.FilePolarity,Positive*
%FSLAX46Y46*%
G04 Gerber Fmt 4.6, Leading zero omitted, Abs format (unit mm)*
G04 Created by KiCad (PCBNEW 7.0.2-1.fc38) date 2023-05-11 21:02:33*
%MOMM*%
%LPD*%
G01*
G04 APERTURE LIST*
%ADD10C,0.150000*%
G04 APERTURE END LIST*
D10*
X23802619Y14115476D02*
X22802619Y14115476D01*
X22802619Y14115476D02*
X22802619Y13734524D01*
X22802619Y13734524D02*
X22850238Y13639286D01*
X22850238Y13639286D02*
X22897857Y13591667D01*
X22897857Y13591667D02*
X22993095Y13544048D01*
X22993095Y13544048D02*
X23135952Y13544048D01*
X23135952Y13544048D02*
X23231190Y13591667D01*
X23231190Y13591667D02*
X23278809Y13639286D01*
X23278809Y13639286D02*
X23326428Y13734524D01*
X23326428Y13734524D02*
X23326428Y14115476D01*
X23135952Y12686905D02*
X23802619Y12686905D01*
X23135952Y13115476D02*
X23659761Y13115476D01*
X23659761Y13115476D02*
X23755000Y13067857D01*
X23755000Y13067857D02*
X23802619Y12972619D01*
X23802619Y12972619D02*
X23802619Y12829762D01*
X23802619Y12829762D02*
X23755000Y12734524D01*
X23755000Y12734524D02*
X23707380Y12686905D01*
X23802619Y12210714D02*
X23135952Y12210714D01*
X23326428Y12210714D02*
X23231190Y12163095D01*
X23231190Y12163095D02*
X23183571Y12115476D01*
X23183571Y12115476D02*
X23135952Y12020238D01*
X23135952Y12020238D02*
X23135952Y11925000D01*
X23802619Y11591666D02*
X23135952Y11591666D01*
X22802619Y11591666D02*
X22850238Y11639285D01*
X22850238Y11639285D02*
X22897857Y11591666D01*
X22897857Y11591666D02*
X22850238Y11544047D01*
X22850238Y11544047D02*
X22802619Y11591666D01*
X22802619Y11591666D02*
X22897857Y11591666D01*
X23755000Y11163095D02*
X23802619Y11067857D01*
X23802619Y11067857D02*
X23802619Y10877381D01*
X23802619Y10877381D02*
X23755000Y10782143D01*
X23755000Y10782143D02*
X23659761Y10734524D01*
X23659761Y10734524D02*
X23612142Y10734524D01*
X23612142Y10734524D02*
X23516904Y10782143D01*
X23516904Y10782143D02*
X23469285Y10877381D01*
X23469285Y10877381D02*
X23469285Y11020238D01*
X23469285Y11020238D02*
X23421666Y11115476D01*
X23421666Y11115476D02*
X23326428Y11163095D01*
X23326428Y11163095D02*
X23278809Y11163095D01*
X23278809Y11163095D02*
X23183571Y11115476D01*
X23183571Y11115476D02*
X23135952Y11020238D01*
X23135952Y11020238D02*
X23135952Y10877381D01*
X23135952Y10877381D02*
X23183571Y10782143D01*
X23802619Y10305952D02*
X23135952Y10305952D01*
X23231190Y10305952D02*
X23183571Y10258333D01*
X23183571Y10258333D02*
X23135952Y10163095D01*
X23135952Y10163095D02*
X23135952Y10020238D01*
X23135952Y10020238D02*
X23183571Y9925000D01*
X23183571Y9925000D02*
X23278809Y9877381D01*
X23278809Y9877381D02*
X23802619Y9877381D01*
X23278809Y9877381D02*
X23183571Y9829762D01*
X23183571Y9829762D02*
X23135952Y9734524D01*
X23135952Y9734524D02*
X23135952Y9591667D01*
X23135952Y9591667D02*
X23183571Y9496428D01*
X23183571Y9496428D02*
X23278809Y9448809D01*
X23278809Y9448809D02*
X23802619Y9448809D01*
X23755000Y8258333D02*
X23802619Y8115476D01*
X23802619Y8115476D02*
X23802619Y7877381D01*
X23802619Y7877381D02*
X23755000Y7782143D01*
X23755000Y7782143D02*
X23707380Y7734524D01*
X23707380Y7734524D02*
X23612142Y7686905D01*
X23612142Y7686905D02*
X23516904Y7686905D01*
X23516904Y7686905D02*
X23421666Y7734524D01*
X23421666Y7734524D02*
X23374047Y7782143D01*
X23374047Y7782143D02*
X23326428Y7877381D01*
X23326428Y7877381D02*
X23278809Y8067857D01*
X23278809Y8067857D02*
X23231190Y8163095D01*
X23231190Y8163095D02*
X23183571Y8210714D01*
X23183571Y8210714D02*
X23088333Y8258333D01*
X23088333Y8258333D02*
X22993095Y8258333D01*
X22993095Y8258333D02*
X22897857Y8210714D01*
X22897857Y8210714D02*
X22850238Y8163095D01*
X22850238Y8163095D02*
X22802619Y8067857D01*
X22802619Y8067857D02*
X22802619Y7829762D01*
X22802619Y7829762D02*
X22850238Y7686905D01*
X23802619Y7258333D02*
X22802619Y7258333D01*
X22802619Y7258333D02*
X22802619Y6877381D01*
X22802619Y6877381D02*
X22850238Y6782143D01*
X22850238Y6782143D02*
X22897857Y6734524D01*
X22897857Y6734524D02*
X22993095Y6686905D01*
X22993095Y6686905D02*
X23135952Y6686905D01*
X23135952Y6686905D02*
X23231190Y6734524D01*
X23231190Y6734524D02*
X23278809Y6782143D01*
X23278809Y6782143D02*
X23326428Y6877381D01*
X23326428Y6877381D02*
X23326428Y7258333D01*
X23707380Y5686905D02*
X23755000Y5734524D01*
X23755000Y5734524D02*
X23802619Y5877381D01*
X23802619Y5877381D02*
X23802619Y5972619D01*
X23802619Y5972619D02*
X23755000Y6115476D01*
X23755000Y6115476D02*
X23659761Y6210714D01*
X23659761Y6210714D02*
X23564523Y6258333D01*
X23564523Y6258333D02*
X23374047Y6305952D01*
X23374047Y6305952D02*
X23231190Y6305952D01*
X23231190Y6305952D02*
X23040714Y6258333D01*
X23040714Y6258333D02*
X22945476Y6210714D01*
X22945476Y6210714D02*
X22850238Y6115476D01*
X22850238Y6115476D02*
X22802619Y5972619D01*
X22802619Y5972619D02*
X22802619Y5877381D01*
X22802619Y5877381D02*
X22850238Y5734524D01*
X22850238Y5734524D02*
X22897857Y5686905D01*
X24470238Y12044048D02*
X24422619Y12139286D01*
X24422619Y12139286D02*
X24422619Y12282143D01*
X24422619Y12282143D02*
X24470238Y12425000D01*
X24470238Y12425000D02*
X24565476Y12520238D01*
X24565476Y12520238D02*
X24660714Y12567857D01*
X24660714Y12567857D02*
X24851190Y12615476D01*
X24851190Y12615476D02*
X24994047Y12615476D01*
X24994047Y12615476D02*
X25184523Y12567857D01*
X25184523Y12567857D02*
X25279761Y12520238D01*
X25279761Y12520238D02*
X25375000Y12425000D01*
X25375000Y12425000D02*
X25422619Y12282143D01*
X25422619Y12282143D02*
X25422619Y12186905D01*
X25422619Y12186905D02*
X25375000Y12044048D01*
X25375000Y12044048D02*
X25327380Y11996429D01*
X25327380Y11996429D02*
X24994047Y11996429D01*
X24994047Y11996429D02*
X24994047Y12186905D01*
X25422619Y11567857D02*
X24422619Y11567857D01*
X24422619Y11567857D02*
X24422619Y11186905D01*
X24422619Y11186905D02*
X24470238Y11091667D01*
X24470238Y11091667D02*
X24517857Y11044048D01*
X24517857Y11044048D02*
X24613095Y10996429D01*
X24613095Y10996429D02*
X24755952Y10996429D01*
X24755952Y10996429D02*
X24851190Y11044048D01*
X24851190Y11044048D02*
X24898809Y11091667D01*
X24898809Y11091667D02*
X24946428Y11186905D01*
X24946428Y11186905D02*
X24946428Y11567857D01*
X25422619Y10091667D02*
X25422619Y10567857D01*
X25422619Y10567857D02*
X24422619Y10567857D01*
X24755952Y9853571D02*
X25422619Y9615476D01*
X25422619Y9615476D02*
X24755952Y9377381D01*
X24422619Y9091666D02*
X24422619Y8472619D01*
X24422619Y8472619D02*
X24803571Y8805952D01*
X24803571Y8805952D02*
X24803571Y8663095D01*
X24803571Y8663095D02*
X24851190Y8567857D01*
X24851190Y8567857D02*
X24898809Y8520238D01*
X24898809Y8520238D02*
X24994047Y8472619D01*
X24994047Y8472619D02*
X25232142Y8472619D01*
X25232142Y8472619D02*
X25327380Y8520238D01*
X25327380Y8520238D02*
X25375000Y8567857D01*
X25375000Y8567857D02*
X25422619Y8663095D01*
X25422619Y8663095D02*
X25422619Y8948809D01*
X25422619Y8948809D02*
X25375000Y9044047D01*
X25375000Y9044047D02*
X25327380Y9091666D01*
X25041666Y8044047D02*
X25041666Y7282142D01*
X25422619Y7663095D02*
X24660714Y7663095D01*
X19612619Y14948810D02*
X18612619Y14948810D01*
X18612619Y14948810D02*
X19326904Y14615477D01*
X19326904Y14615477D02*
X18612619Y14282144D01*
X18612619Y14282144D02*
X19612619Y14282144D01*
X19517380Y13805953D02*
X19565000Y13758334D01*
X19565000Y13758334D02*
X19612619Y13805953D01*
X19612619Y13805953D02*
X19565000Y13853572D01*
X19565000Y13853572D02*
X19517380Y13805953D01*
X19517380Y13805953D02*
X19612619Y13805953D01*
X18707857Y13377382D02*
X18660238Y13329763D01*
X18660238Y13329763D02*
X18612619Y13234525D01*
X18612619Y13234525D02*
X18612619Y12996430D01*
X18612619Y12996430D02*
X18660238Y12901192D01*
X18660238Y12901192D02*
X18707857Y12853573D01*
X18707857Y12853573D02*
X18803095Y12805954D01*
X18803095Y12805954D02*
X18898333Y12805954D01*
X18898333Y12805954D02*
X19041190Y12853573D01*
X19041190Y12853573D02*
X19612619Y13425001D01*
X19612619Y13425001D02*
X19612619Y12805954D01*
X18945952Y11615477D02*
X19945952Y11615477D01*
X19469761Y11139287D02*
X19565000Y11091668D01*
X19565000Y11091668D02*
X19612619Y10996430D01*
X19469761Y11615477D02*
X19565000Y11567858D01*
X19565000Y11567858D02*
X19612619Y11472620D01*
X19612619Y11472620D02*
X19612619Y11282144D01*
X19612619Y11282144D02*
X19565000Y11186906D01*
X19565000Y11186906D02*
X19469761Y11139287D01*
X19469761Y11139287D02*
X18945952Y11139287D01*
X19565000Y10615477D02*
X19612619Y10472620D01*
X19612619Y10472620D02*
X19612619Y10234525D01*
X19612619Y10234525D02*
X19565000Y10139287D01*
X19565000Y10139287D02*
X19517380Y10091668D01*
X19517380Y10091668D02*
X19422142Y10044049D01*
X19422142Y10044049D02*
X19326904Y10044049D01*
X19326904Y10044049D02*
X19231666Y10091668D01*
X19231666Y10091668D02*
X19184047Y10139287D01*
X19184047Y10139287D02*
X19136428Y10234525D01*
X19136428Y10234525D02*
X19088809Y10425001D01*
X19088809Y10425001D02*
X19041190Y10520239D01*
X19041190Y10520239D02*
X18993571Y10567858D01*
X18993571Y10567858D02*
X18898333Y10615477D01*
X18898333Y10615477D02*
X18803095Y10615477D01*
X18803095Y10615477D02*
X18707857Y10567858D01*
X18707857Y10567858D02*
X18660238Y10520239D01*
X18660238Y10520239D02*
X18612619Y10425001D01*
X18612619Y10425001D02*
X18612619Y10186906D01*
X18612619Y10186906D02*
X18660238Y10044049D01*
X19612619Y9615477D02*
X18612619Y9615477D01*
X18612619Y9615477D02*
X18612619Y9377382D01*
X18612619Y9377382D02*
X18660238Y9234525D01*
X18660238Y9234525D02*
X18755476Y9139287D01*
X18755476Y9139287D02*
X18850714Y9091668D01*
X18850714Y9091668D02*
X19041190Y9044049D01*
X19041190Y9044049D02*
X19184047Y9044049D01*
X19184047Y9044049D02*
X19374523Y9091668D01*
X19374523Y9091668D02*
X19469761Y9139287D01*
X19469761Y9139287D02*
X19565000Y9234525D01*
X19565000Y9234525D02*
X19612619Y9377382D01*
X19612619Y9377382D02*
X19612619Y9615477D01*
X19517380Y7282144D02*
X19565000Y7329763D01*
X19565000Y7329763D02*
X19612619Y7472620D01*
X19612619Y7472620D02*
X19612619Y7567858D01*
X19612619Y7567858D02*
X19565000Y7710715D01*
X19565000Y7710715D02*
X19469761Y7805953D01*
X19469761Y7805953D02*
X19374523Y7853572D01*
X19374523Y7853572D02*
X19184047Y7901191D01*
X19184047Y7901191D02*
X19041190Y7901191D01*
X19041190Y7901191D02*
X18850714Y7853572D01*
X18850714Y7853572D02*
X18755476Y7805953D01*
X18755476Y7805953D02*
X18660238Y7710715D01*
X18660238Y7710715D02*
X18612619Y7567858D01*
X18612619Y7567858D02*
X18612619Y7472620D01*
X18612619Y7472620D02*
X18660238Y7329763D01*
X18660238Y7329763D02*
X18707857Y7282144D01*
X19612619Y6425001D02*
X19088809Y6425001D01*
X19088809Y6425001D02*
X18993571Y6472620D01*
X18993571Y6472620D02*
X18945952Y6567858D01*
X18945952Y6567858D02*
X18945952Y6758334D01*
X18945952Y6758334D02*
X18993571Y6853572D01*
X19565000Y6425001D02*
X19612619Y6520239D01*
X19612619Y6520239D02*
X19612619Y6758334D01*
X19612619Y6758334D02*
X19565000Y6853572D01*
X19565000Y6853572D02*
X19469761Y6901191D01*
X19469761Y6901191D02*
X19374523Y6901191D01*
X19374523Y6901191D02*
X19279285Y6853572D01*
X19279285Y6853572D02*
X19231666Y6758334D01*
X19231666Y6758334D02*
X19231666Y6520239D01*
X19231666Y6520239D02*
X19184047Y6425001D01*
X19612619Y5948810D02*
X18945952Y5948810D01*
X19136428Y5948810D02*
X19041190Y5901191D01*
X19041190Y5901191D02*
X18993571Y5853572D01*
X18993571Y5853572D02*
X18945952Y5758334D01*
X18945952Y5758334D02*
X18945952Y5663096D01*
X19612619Y4901191D02*
X18612619Y4901191D01*
X19565000Y4901191D02*
X19612619Y4996429D01*
X19612619Y4996429D02*
X19612619Y5186905D01*
X19612619Y5186905D02*
X19565000Y5282143D01*
X19565000Y5282143D02*
X19517380Y5329762D01*
X19517380Y5329762D02*
X19422142Y5377381D01*
X19422142Y5377381D02*
X19136428Y5377381D01*
X19136428Y5377381D02*
X19041190Y5329762D01*
X19041190Y5329762D02*
X18993571Y5282143D01*
X18993571Y5282143D02*
X18945952Y5186905D01*
X18945952Y5186905D02*
X18945952Y4996429D01*
X18945952Y4996429D02*
X18993571Y4901191D01*
X20945952Y12067857D02*
X21612619Y11829762D01*
X21612619Y11829762D02*
X20945952Y11591667D01*
X20612619Y11020238D02*
X20612619Y10925000D01*
X20612619Y10925000D02*
X20660238Y10829762D01*
X20660238Y10829762D02*
X20707857Y10782143D01*
X20707857Y10782143D02*
X20803095Y10734524D01*
X20803095Y10734524D02*
X20993571Y10686905D01*
X20993571Y10686905D02*
X21231666Y10686905D01*
X21231666Y10686905D02*
X21422142Y10734524D01*
X21422142Y10734524D02*
X21517380Y10782143D01*
X21517380Y10782143D02*
X21565000Y10829762D01*
X21565000Y10829762D02*
X21612619Y10925000D01*
X21612619Y10925000D02*
X21612619Y11020238D01*
X21612619Y11020238D02*
X21565000Y11115476D01*
X21565000Y11115476D02*
X21517380Y11163095D01*
X21517380Y11163095D02*
X21422142Y11210714D01*
X21422142Y11210714D02*
X21231666Y11258333D01*
X21231666Y11258333D02*
X20993571Y11258333D01*
X20993571Y11258333D02*
X20803095Y11210714D01*
X20803095Y11210714D02*
X20707857Y11163095D01*
X20707857Y11163095D02*
X20660238Y11115476D01*
X20660238Y11115476D02*
X20612619Y11020238D01*
X21517380Y10258333D02*
X21565000Y10210714D01*
X21565000Y10210714D02*
X21612619Y10258333D01*
X21612619Y10258333D02*
X21565000Y10305952D01*
X21565000Y10305952D02*
X21517380Y10258333D01*
X21517380Y10258333D02*
X21612619Y10258333D01*
X20612619Y9305953D02*
X20612619Y9782143D01*
X20612619Y9782143D02*
X21088809Y9829762D01*
X21088809Y9829762D02*
X21041190Y9782143D01*
X21041190Y9782143D02*
X20993571Y9686905D01*
X20993571Y9686905D02*
X20993571Y9448810D01*
X20993571Y9448810D02*
X21041190Y9353572D01*
X21041190Y9353572D02*
X21088809Y9305953D01*
X21088809Y9305953D02*
X21184047Y9258334D01*
X21184047Y9258334D02*
X21422142Y9258334D01*
X21422142Y9258334D02*
X21517380Y9305953D01*
X21517380Y9305953D02*
X21565000Y9353572D01*
X21565000Y9353572D02*
X21612619Y9448810D01*
X21612619Y9448810D02*
X21612619Y9686905D01*
X21612619Y9686905D02*
X21565000Y9782143D01*
X21565000Y9782143D02*
X21517380Y9829762D01*
X21517380Y8829762D02*
X21565000Y8782143D01*
X21565000Y8782143D02*
X21612619Y8829762D01*
X21612619Y8829762D02*
X21565000Y8877381D01*
X21565000Y8877381D02*
X21517380Y8829762D01*
X21517380Y8829762D02*
X21612619Y8829762D01*
X20612619Y8163096D02*
X20612619Y8067858D01*
X20612619Y8067858D02*
X20660238Y7972620D01*
X20660238Y7972620D02*
X20707857Y7925001D01*
X20707857Y7925001D02*
X20803095Y7877382D01*
X20803095Y7877382D02*
X20993571Y7829763D01*
X20993571Y7829763D02*
X21231666Y7829763D01*
X21231666Y7829763D02*
X21422142Y7877382D01*
X21422142Y7877382D02*
X21517380Y7925001D01*
X21517380Y7925001D02*
X21565000Y7972620D01*
X21565000Y7972620D02*
X21612619Y8067858D01*
X21612619Y8067858D02*
X21612619Y8163096D01*
X21612619Y8163096D02*
X21565000Y8258334D01*
X21565000Y8258334D02*
X21517380Y8305953D01*
X21517380Y8305953D02*
X21422142Y8353572D01*
X21422142Y8353572D02*
X21231666Y8401191D01*
X21231666Y8401191D02*
X20993571Y8401191D01*
X20993571Y8401191D02*
X20803095Y8353572D01*
X20803095Y8353572D02*
X20707857Y8305953D01*
X20707857Y8305953D02*
X20660238Y8258334D01*
X20660238Y8258334D02*
X20612619Y8163096D01*
X17612619Y12567858D02*
X17612619Y13044048D01*
X17612619Y13044048D02*
X16612619Y13044048D01*
X17612619Y12234524D02*
X16945952Y12234524D01*
X16612619Y12234524D02*
X16660238Y12282143D01*
X16660238Y12282143D02*
X16707857Y12234524D01*
X16707857Y12234524D02*
X16660238Y12186905D01*
X16660238Y12186905D02*
X16612619Y12234524D01*
X16612619Y12234524D02*
X16707857Y12234524D01*
X17612619Y11758334D02*
X16612619Y11758334D01*
X16993571Y11758334D02*
X16945952Y11663096D01*
X16945952Y11663096D02*
X16945952Y11472620D01*
X16945952Y11472620D02*
X16993571Y11377382D01*
X16993571Y11377382D02*
X17041190Y11329763D01*
X17041190Y11329763D02*
X17136428Y11282144D01*
X17136428Y11282144D02*
X17422142Y11282144D01*
X17422142Y11282144D02*
X17517380Y11329763D01*
X17517380Y11329763D02*
X17565000Y11377382D01*
X17565000Y11377382D02*
X17612619Y11472620D01*
X17612619Y11472620D02*
X17612619Y11663096D01*
X17612619Y11663096D02*
X17565000Y11758334D01*
X17612619Y10853572D02*
X16945952Y10853572D01*
X17136428Y10853572D02*
X17041190Y10805953D01*
X17041190Y10805953D02*
X16993571Y10758334D01*
X16993571Y10758334D02*
X16945952Y10663096D01*
X16945952Y10663096D02*
X16945952Y10567858D01*
X17565000Y9853572D02*
X17612619Y9948810D01*
X17612619Y9948810D02*
X17612619Y10139286D01*
X17612619Y10139286D02*
X17565000Y10234524D01*
X17565000Y10234524D02*
X17469761Y10282143D01*
X17469761Y10282143D02*
X17088809Y10282143D01*
X17088809Y10282143D02*
X16993571Y10234524D01*
X16993571Y10234524D02*
X16945952Y10139286D01*
X16945952Y10139286D02*
X16945952Y9948810D01*
X16945952Y9948810D02*
X16993571Y9853572D01*
X16993571Y9853572D02*
X17088809Y9805953D01*
X17088809Y9805953D02*
X17184047Y9805953D01*
X17184047Y9805953D02*
X17279285Y10282143D01*
X17612619Y9377381D02*
X16945952Y9377381D01*
X17041190Y9377381D02*
X16993571Y9329762D01*
X16993571Y9329762D02*
X16945952Y9234524D01*
X16945952Y9234524D02*
X16945952Y9091667D01*
X16945952Y9091667D02*
X16993571Y8996429D01*
X16993571Y8996429D02*
X17088809Y8948810D01*
X17088809Y8948810D02*
X17612619Y8948810D01*
X17088809Y8948810D02*
X16993571Y8901191D01*
X16993571Y8901191D02*
X16945952Y8805953D01*
X16945952Y8805953D02*
X16945952Y8663096D01*
X16945952Y8663096D02*
X16993571Y8567857D01*
X16993571Y8567857D02*
X17088809Y8520238D01*
X17088809Y8520238D02*
X17612619Y8520238D01*
X16612619Y6805953D02*
X16612619Y7282143D01*
X16612619Y7282143D02*
X17088809Y7329762D01*
X17088809Y7329762D02*
X17041190Y7282143D01*
X17041190Y7282143D02*
X16993571Y7186905D01*
X16993571Y7186905D02*
X16993571Y6948810D01*
X16993571Y6948810D02*
X17041190Y6853572D01*
X17041190Y6853572D02*
X17088809Y6805953D01*
X17088809Y6805953D02*
X17184047Y6758334D01*
X17184047Y6758334D02*
X17422142Y6758334D01*
X17422142Y6758334D02*
X17517380Y6805953D01*
X17517380Y6805953D02*
X17565000Y6853572D01*
X17565000Y6853572D02*
X17612619Y6948810D01*
X17612619Y6948810D02*
X17612619Y7186905D01*
X17612619Y7186905D02*
X17565000Y7282143D01*
X17565000Y7282143D02*
X17517380Y7329762D01*
M02*
