G04 #@! TF.GenerationSoftware,KiCad,Pcbnew,7.0.2-1.fc38*
G04 #@! TF.CreationDate,2023-05-11T21:02:33-04:00*
G04 #@! TF.ProjectId,m2-sd-card,6d322d73-642d-4636-9172-642e6b696361,v0.5.0*
G04 #@! TF.SameCoordinates,PX71581d0PY6410748*
G04 #@! TF.FileFunction,Soldermask,Bot*
G04 #@! TF.FilePolarity,Negative*
%FSLAX46Y46*%
G04 Gerber Fmt 4.6, Leading zero omitted, Abs format (unit mm)*
G04 Created by KiCad (PCBNEW 7.0.2-1.fc38) date 2023-05-11 21:02:33*
%MOMM*%
%LPD*%
G01*
G04 APERTURE LIST*
G04 APERTURE END LIST*
G36*
X2575576Y6700577D02*
G01*
X2580000Y6689896D01*
X2580000Y10105D01*
X2575576Y-576D01*
X2564896Y-5000D01*
X10104Y-5000D01*
X-577Y-576D01*
X-5000Y10105D01*
X-5000Y6689896D01*
X-577Y6700577D01*
X10104Y6705000D01*
X2564896Y6705000D01*
X2575576Y6700577D01*
G37*
G36*
X2575576Y19850577D02*
G01*
X2580000Y19839896D01*
X2580000Y7910105D01*
X2575576Y7899424D01*
X2564896Y7895000D01*
X10104Y7895000D01*
X-577Y7899424D01*
X-5000Y7910105D01*
X-5000Y19839896D01*
X-577Y19850577D01*
X10104Y19855000D01*
X2564896Y19855000D01*
X2575576Y19850577D01*
G37*
G36*
X30078333Y12920072D02*
G01*
X30114952Y12910670D01*
X30149483Y12906477D01*
X30187633Y12892009D01*
X30230078Y12881110D01*
X30260575Y12864344D01*
X30290278Y12853079D01*
X30326322Y12828200D01*
X30367366Y12805636D01*
X30390539Y12783875D01*
X30414203Y12767541D01*
X30445243Y12732504D01*
X30481571Y12698390D01*
X30496987Y12674099D01*
X30514060Y12654827D01*
X30537212Y12610713D01*
X30565517Y12566112D01*
X30573475Y12541620D01*
X30584035Y12521499D01*
X30596674Y12470219D01*
X30613930Y12417113D01*
X30615357Y12394422D01*
X30620073Y12375291D01*
X30620073Y12319472D01*
X30623767Y12260756D01*
X30620073Y12241392D01*
X30620073Y12224710D01*
X30605996Y12167600D01*
X30594410Y12106864D01*
X30587303Y12091762D01*
X30584035Y12078502D01*
X30555303Y12023758D01*
X30527705Y11965108D01*
X30518998Y11954584D01*
X30514060Y11945174D01*
X30471076Y11896657D01*
X30427842Y11844395D01*
X30419238Y11838145D01*
X30414202Y11832459D01*
X30358416Y11793954D01*
X30334855Y11776837D01*
X30347445Y11713084D01*
X30406101Y11704243D01*
X30458816Y11687983D01*
X30514126Y11675951D01*
X30592065Y11646882D01*
X30666747Y11623845D01*
X30711121Y11602476D01*
X30758079Y11584961D01*
X30837184Y11541767D01*
X30912500Y11505496D01*
X30948265Y11481112D01*
X30986595Y11460182D01*
X31064477Y11401880D01*
X31137869Y11351842D01*
X31165219Y11326465D01*
X31195040Y11304141D01*
X31269145Y11230036D01*
X31337820Y11166315D01*
X31357326Y11141855D01*
X31379140Y11120041D01*
X31446800Y11029659D01*
X31507886Y10953059D01*
X31520508Y10931196D01*
X31535181Y10911596D01*
X31593718Y10804394D01*
X31644268Y10716838D01*
X31651273Y10698989D01*
X31659960Y10683080D01*
X31706716Y10557722D01*
X31743920Y10462928D01*
X31746833Y10450165D01*
X31750950Y10439127D01*
X31783394Y10289980D01*
X31804616Y10197002D01*
X31805139Y10190018D01*
X31806294Y10184710D01*
X31822129Y9963303D01*
X31825000Y9925000D01*
X31822126Y9886659D01*
X31806294Y9665291D01*
X31805139Y9659984D01*
X31804616Y9652998D01*
X31783389Y9560001D01*
X31750950Y9410874D01*
X31746833Y9399838D01*
X31743920Y9387072D01*
X31706709Y9292260D01*
X31659960Y9166921D01*
X31651274Y9151016D01*
X31644268Y9133162D01*
X31593707Y9045590D01*
X31535181Y8938405D01*
X31520511Y8918809D01*
X31507886Y8896941D01*
X31446787Y8820327D01*
X31379140Y8729960D01*
X31357330Y8708151D01*
X31337820Y8683685D01*
X31269131Y8619952D01*
X31195040Y8545860D01*
X31165225Y8523541D01*
X31137869Y8498158D01*
X31064462Y8448111D01*
X30986595Y8389819D01*
X30948273Y8368894D01*
X30912500Y8344504D01*
X30837168Y8308227D01*
X30758079Y8265040D01*
X30711130Y8247530D01*
X30666747Y8226155D01*
X30592049Y8203115D01*
X30514126Y8174050D01*
X30458827Y8162021D01*
X30406101Y8145757D01*
X30347445Y8136916D01*
X30334916Y8073475D01*
X30367366Y8055636D01*
X30390538Y8033876D01*
X30414203Y8017541D01*
X30445243Y7982504D01*
X30481571Y7948390D01*
X30496987Y7924099D01*
X30514060Y7904827D01*
X30537212Y7860713D01*
X30565517Y7816112D01*
X30573475Y7791620D01*
X30584035Y7771499D01*
X30596674Y7720219D01*
X30613930Y7667113D01*
X30615357Y7644422D01*
X30620073Y7625291D01*
X30620073Y7569472D01*
X30623767Y7510756D01*
X30620073Y7491392D01*
X30620073Y7474710D01*
X30605996Y7417600D01*
X30594410Y7356864D01*
X30587303Y7341762D01*
X30584035Y7328502D01*
X30555303Y7273758D01*
X30527705Y7215108D01*
X30518998Y7204584D01*
X30514060Y7195174D01*
X30471075Y7146656D01*
X30427842Y7094395D01*
X30419239Y7088145D01*
X30414203Y7082460D01*
X30358412Y7043952D01*
X30301096Y7002308D01*
X30294025Y6999509D01*
X30290278Y6996922D01*
X30224082Y6971817D01*
X30155431Y6944636D01*
X30150908Y6944065D01*
X30149483Y6943524D01*
X30076056Y6934609D01*
X30000000Y6925000D01*
X29000000Y6925000D01*
X28831528Y6925000D01*
X28831524Y6925000D01*
X28496690Y6962727D01*
X28168185Y7037706D01*
X28040285Y7082460D01*
X27850140Y7148994D01*
X27546561Y7295190D01*
X27386717Y7395627D01*
X27261251Y7474462D01*
X26997810Y7684549D01*
X26997806Y7684552D01*
X26759551Y7922807D01*
X26638103Y8075099D01*
X26549462Y8186251D01*
X26408061Y8411290D01*
X26370189Y8471562D01*
X26223993Y8775141D01*
X26112705Y9093186D01*
X26037728Y9421683D01*
X26017050Y9605203D01*
X26000000Y9756524D01*
X26000000Y10093476D01*
X26037727Y10428310D01*
X26037727Y10428311D01*
X26037728Y10428318D01*
X26112705Y10756815D01*
X26223993Y11074860D01*
X26370189Y11378439D01*
X26542729Y11653033D01*
X26549462Y11663749D01*
X26549464Y11663752D01*
X26759551Y11927194D01*
X26997806Y12165449D01*
X27261248Y12375536D01*
X27546561Y12554811D01*
X27850140Y12701007D01*
X28168185Y12812295D01*
X28496682Y12887272D01*
X28496689Y12887273D01*
X28496690Y12887273D01*
X28831524Y12925000D01*
X29000000Y12925000D01*
X29075889Y12925000D01*
X29996924Y12925000D01*
X30000000Y12925000D01*
X30078333Y12920072D01*
G37*
M02*
