M48
; DRILL file {KiCad 7.0.2-1.fc38} date Thu 11 May 2023 09:02:44 PM EDT
; FORMAT={-:-/ absolute / inch / decimal}
; #@! TF.CreationDate,2023-05-11T21:02:44-04:00
; #@! TF.GenerationSoftware,Kicad,Pcbnew,7.0.2-1.fc38
; #@! TF.FileFunction,MixedPlating,1,4
FMAT,2
INCH
; #@! TA.AperFunction,Plated,PTH,ViaDrill
T1C0.0100
; #@! TA.AperFunction,Plated,PTH,ViaDrill
T2C0.0118
; #@! TA.AperFunction,Plated,PTH,ComponentDrill
T3C0.1378
%
G90
G05
T1
X0.1178Y0.5131
X0.1189Y0.1153
X0.1215Y0.1618
X0.1331Y0.0522
X0.1462Y0.1938
X0.1515Y0.0882
X0.1542Y0.1393
X0.1626Y0.2293
T2
X0.1209Y0.7352
X0.1472Y0.3632
X0.1516Y0.4616
X0.1581Y0.0266
X0.187Y0.5482
X0.1917Y0.6533
X0.1949Y0.7943
X0.1949Y0.5876
X0.2115Y0.6942
X0.2429Y0.5577
X0.2539Y0.4311
X0.2539Y0.3701
X0.2539Y0.3268
X0.2539Y0.2835
X0.2539Y0.2402
X0.2539Y0.1969
X0.2539Y0.1535
X0.2539Y0.1102
X0.2563Y0.6907
X0.2794Y0.5339
X0.2824Y0.7746
X0.3091Y0.2136
X0.318Y0.6781
X0.3209Y0.7481
X0.3222Y0.4662
X0.3602Y0.4262
X0.3608Y0.6872
X0.3765Y0.0563
X0.3839Y0.6073
X0.4075Y0.497
X0.4181Y0.5603
X0.4519Y0.454
X0.4862Y0.7923
X0.5453Y0.6309
X0.5453Y0.5915
X0.5728Y0.7923
X0.5728Y0.749
X0.6122Y0.749
X0.628Y0.627
X0.7343Y0.675
T3
X1.1811Y0.3907
T0
M30
