G04 #@! TF.GenerationSoftware,KiCad,Pcbnew,7.0.2-1.fc38*
G04 #@! TF.CreationDate,2023-05-11T21:02:33-04:00*
G04 #@! TF.ProjectId,m2-sd-card,6d322d73-642d-4636-9172-642e6b696361,v0.5.0*
G04 #@! TF.SameCoordinates,PX71581d0PY6410748*
G04 #@! TF.FileFunction,Copper,L1,Top*
G04 #@! TF.FilePolarity,Positive*
%FSLAX46Y46*%
G04 Gerber Fmt 4.6, Leading zero omitted, Abs format (unit mm)*
G04 Created by KiCad (PCBNEW 7.0.2-1.fc38) date 2023-05-11 21:02:33*
%MOMM*%
%LPD*%
G01*
G04 APERTURE LIST*
G04 Aperture macros list*
%AMRoundRect*
0 Rectangle with rounded corners*
0 $1 Rounding radius*
0 $2 $3 $4 $5 $6 $7 $8 $9 X,Y pos of 4 corners*
0 Add a 4 corners polygon primitive as box body*
4,1,4,$2,$3,$4,$5,$6,$7,$8,$9,$2,$3,0*
0 Add four circle primitives for the rounded corners*
1,1,$1+$1,$2,$3*
1,1,$1+$1,$4,$5*
1,1,$1+$1,$6,$7*
1,1,$1+$1,$8,$9*
0 Add four rect primitives between the rounded corners*
20,1,$1+$1,$2,$3,$4,$5,0*
20,1,$1+$1,$4,$5,$6,$7,0*
20,1,$1+$1,$6,$7,$8,$9,0*
20,1,$1+$1,$8,$9,$2,$3,0*%
G04 Aperture macros list end*
G04 #@! TA.AperFunction,SMDPad,CuDef*
%ADD10RoundRect,0.140000X0.170000X-0.140000X0.170000X0.140000X-0.170000X0.140000X-0.170000X-0.140000X0*%
G04 #@! TD*
G04 #@! TA.AperFunction,SMDPad,CuDef*
%ADD11RoundRect,0.140000X-0.140000X-0.170000X0.140000X-0.170000X0.140000X0.170000X-0.140000X0.170000X0*%
G04 #@! TD*
G04 #@! TA.AperFunction,ComponentPad*
%ADD12C,6.150000*%
G04 #@! TD*
G04 #@! TA.AperFunction,SMDPad,CuDef*
%ADD13R,1.700000X0.350000*%
G04 #@! TD*
G04 #@! TA.AperFunction,SMDPad,CuDef*
%ADD14RoundRect,0.150000X-0.150000X0.587500X-0.150000X-0.587500X0.150000X-0.587500X0.150000X0.587500X0*%
G04 #@! TD*
G04 #@! TA.AperFunction,SMDPad,CuDef*
%ADD15R,1.200000X0.700000*%
G04 #@! TD*
G04 #@! TA.AperFunction,SMDPad,CuDef*
%ADD16R,0.800000X1.000000*%
G04 #@! TD*
G04 #@! TA.AperFunction,SMDPad,CuDef*
%ADD17R,1.200000X1.000000*%
G04 #@! TD*
G04 #@! TA.AperFunction,SMDPad,CuDef*
%ADD18R,2.800000X1.000000*%
G04 #@! TD*
G04 #@! TA.AperFunction,SMDPad,CuDef*
%ADD19R,1.900000X1.300000*%
G04 #@! TD*
G04 #@! TA.AperFunction,SMDPad,CuDef*
%ADD20RoundRect,0.135000X-0.135000X-0.185000X0.135000X-0.185000X0.135000X0.185000X-0.135000X0.185000X0*%
G04 #@! TD*
G04 #@! TA.AperFunction,SMDPad,CuDef*
%ADD21C,0.500000*%
G04 #@! TD*
G04 #@! TA.AperFunction,SMDPad,CuDef*
%ADD22C,0.221000*%
G04 #@! TD*
G04 #@! TA.AperFunction,SMDPad,CuDef*
%ADD23RoundRect,0.140000X-0.170000X0.140000X-0.170000X-0.140000X0.170000X-0.140000X0.170000X0.140000X0*%
G04 #@! TD*
G04 #@! TA.AperFunction,SMDPad,CuDef*
%ADD24RoundRect,0.135000X0.185000X-0.135000X0.185000X0.135000X-0.185000X0.135000X-0.185000X-0.135000X0*%
G04 #@! TD*
G04 #@! TA.AperFunction,SMDPad,CuDef*
%ADD25RoundRect,0.140000X0.140000X0.170000X-0.140000X0.170000X-0.140000X-0.170000X0.140000X-0.170000X0*%
G04 #@! TD*
G04 #@! TA.AperFunction,SMDPad,CuDef*
%ADD26RoundRect,0.140000X0.219203X0.021213X0.021213X0.219203X-0.219203X-0.021213X-0.021213X-0.219203X0*%
G04 #@! TD*
G04 #@! TA.AperFunction,ViaPad*
%ADD27C,0.700000*%
G04 #@! TD*
G04 #@! TA.AperFunction,ViaPad*
%ADD28C,0.600000*%
G04 #@! TD*
G04 #@! TA.AperFunction,ViaPad*
%ADD29C,0.221000*%
G04 #@! TD*
G04 #@! TA.AperFunction,Conductor*
%ADD30C,0.203321*%
G04 #@! TD*
G04 #@! TA.AperFunction,Conductor*
%ADD31C,0.175000*%
G04 #@! TD*
G04 #@! TA.AperFunction,Conductor*
%ADD32C,0.508000*%
G04 #@! TD*
G04 APERTURE END LIST*
D10*
X14550000Y17145000D03*
X14550000Y18105000D03*
D11*
X11970000Y16025000D03*
X12930000Y16025000D03*
D10*
X3650000Y9990000D03*
X3650000Y10950000D03*
D12*
X30000000Y9925000D03*
D13*
X1150000Y675000D03*
X1150000Y1175000D03*
X1150000Y1675000D03*
X1150000Y2175000D03*
X1150000Y2675000D03*
X1150000Y3175000D03*
X1150000Y3675000D03*
X1150000Y4175000D03*
X1150000Y4675000D03*
X1150000Y5175000D03*
X1150000Y5675000D03*
X1150000Y6175000D03*
X1150000Y8675000D03*
X1150000Y9175000D03*
X1150000Y9675000D03*
X1150000Y10175000D03*
X1150000Y10675000D03*
X1150000Y11175000D03*
X1150000Y11675000D03*
X1150000Y12175000D03*
X1150000Y12675000D03*
X1150000Y13175000D03*
X1150000Y13675000D03*
X1150000Y14175000D03*
X1150000Y14675000D03*
X1150000Y15175000D03*
X1150000Y15675000D03*
X1150000Y16175000D03*
X1150000Y16675000D03*
X1150000Y17175000D03*
X1150000Y17675000D03*
X1150000Y18175000D03*
X1150000Y18675000D03*
X1150000Y19175000D03*
D11*
X11970000Y15025000D03*
X12930000Y15025000D03*
D14*
X13300000Y19462500D03*
X11400000Y19462500D03*
X12350000Y17587500D03*
D15*
X5225000Y9400000D03*
X5225000Y8300000D03*
X5225000Y7200000D03*
X5225000Y6100000D03*
X5225000Y5000000D03*
X5225000Y3900000D03*
X5225000Y2800000D03*
X5225000Y1700000D03*
X5225000Y750000D03*
D16*
X15725000Y-200000D03*
D17*
X9525000Y-200000D03*
D18*
X19875000Y-200000D03*
D17*
X5225000Y10950000D03*
D19*
X20325000Y13300000D03*
D10*
X15550000Y17145000D03*
X15550000Y18105000D03*
D20*
X16740000Y15925000D03*
X17760000Y15925000D03*
D21*
X28150000Y925000D03*
X18150000Y19425000D03*
D22*
X8050000Y16325000D03*
X8050000Y15925000D03*
X8050000Y15525000D03*
X8050000Y15125000D03*
X7650000Y16325000D03*
X7650000Y15925000D03*
X7650000Y15525000D03*
X7650000Y15125000D03*
X7250000Y16325000D03*
X7250000Y15925000D03*
X7250000Y15525000D03*
X7250000Y15125000D03*
X6850000Y16325000D03*
X6850000Y15925000D03*
X6850000Y15525000D03*
X6850000Y15125000D03*
X6450000Y16325000D03*
X6450000Y15925000D03*
X6450000Y15525000D03*
X6450000Y15125000D03*
D20*
X16740000Y17145000D03*
X17760000Y17145000D03*
X3040000Y17025000D03*
X4060000Y17025000D03*
D21*
X23650000Y8925000D03*
D23*
X10619000Y16005000D03*
X10619000Y15045000D03*
D24*
X3750000Y15015000D03*
X3750000Y16035000D03*
D25*
X10030000Y19625000D03*
X9070000Y19625000D03*
D26*
X9989411Y17785589D03*
X9310589Y18464411D03*
D27*
X11478076Y11530967D03*
X3738533Y9224369D03*
D28*
X3380600Y1327027D03*
D27*
X6450000Y6100000D03*
X3070000Y18675000D03*
X6450000Y3900000D03*
X6450000Y10950000D03*
X4015172Y674666D03*
X15550000Y19025000D03*
D29*
X7250000Y15925000D03*
D27*
X3850000Y11725000D03*
X13850000Y16025000D03*
X12350000Y20125000D03*
X7173340Y19675131D03*
X10619000Y14230436D03*
X14550000Y19025000D03*
X13850000Y15025000D03*
X4950000Y20175270D03*
D29*
X7250000Y15525000D03*
D28*
X2991924Y13031807D03*
D27*
X4750000Y13925000D03*
X14550000Y20125000D03*
D29*
X6850000Y15925000D03*
D27*
X4868427Y16593365D03*
D28*
X3848486Y2240268D03*
D27*
X8150000Y19001817D03*
D28*
X3018866Y2927744D03*
D27*
X9750000Y15425000D03*
D29*
X7650000Y15525000D03*
D27*
X18650000Y17145000D03*
X9562817Y1430315D03*
D28*
X3916335Y3538267D03*
D27*
X6510859Y17544327D03*
X5372538Y17632817D03*
D28*
X3087158Y4108586D03*
D27*
X9163172Y17455814D03*
D28*
X3712216Y4921620D03*
X4130000Y5825000D03*
D27*
X8076503Y17225000D03*
X10350000Y12625000D03*
X6450000Y9400000D03*
X9150000Y10825000D03*
X6450000Y8300000D03*
X8183155Y11841617D03*
X6450000Y7200000D03*
D29*
X6850000Y15525000D03*
D27*
X6450000Y5000000D03*
X4950000Y14925000D03*
X7095728Y13560982D03*
X6450000Y2800000D03*
X7850000Y5425000D03*
X6169565Y14166662D03*
D29*
X7650000Y15925000D03*
D27*
X15950000Y15925000D03*
D30*
X6650000Y10125000D02*
X7050000Y9725000D01*
X14750000Y17145000D02*
X15750000Y17145000D01*
X7050000Y6700000D02*
X6450000Y6100000D01*
X11970000Y16025000D02*
X11970000Y17207500D01*
X9350000Y9725000D02*
X11970000Y12345000D01*
X15550000Y17145000D02*
X16740000Y17145000D01*
X12792500Y17145000D02*
X14750000Y17145000D01*
X7050000Y9725000D02*
X9350000Y9725000D01*
X11970000Y17207500D02*
X12350000Y17587500D01*
X6450000Y6100000D02*
X5225000Y6100000D01*
X3738533Y9224369D02*
X3650000Y9312902D01*
X3650000Y9312902D02*
X3650000Y9990000D01*
X11970000Y16025000D02*
X11970000Y15025000D01*
X7050000Y9725000D02*
X7050000Y6700000D01*
X8050000Y15525000D02*
X8942658Y15525000D01*
X11750000Y16625000D02*
X11970000Y16405000D01*
X3785000Y10125000D02*
X6650000Y10125000D01*
X11970000Y16405000D02*
X11970000Y16025000D01*
X8942658Y15525000D02*
X10042658Y16625000D01*
X10042658Y16625000D02*
X11750000Y16625000D01*
X3650000Y9990000D02*
X3785000Y10125000D01*
X11970000Y15025000D02*
X11970000Y12345000D01*
X12350000Y17587500D02*
X12792500Y17145000D01*
X2750000Y925000D02*
X3000334Y674666D01*
X1150000Y2175000D02*
X2200000Y2175000D01*
X2500000Y675000D02*
X1150000Y675000D01*
X2750000Y925000D02*
X2500000Y675000D01*
X2750000Y1625000D02*
X2750000Y925000D01*
X1150000Y8675000D02*
X2221000Y8675000D01*
X2200000Y2175000D02*
X2750000Y1625000D01*
X5025000Y3900000D02*
X4250000Y3125000D01*
X5225000Y3900000D02*
X5025000Y3900000D01*
X2221000Y8675000D02*
X2319679Y8773679D01*
X1150000Y10175000D02*
X2320000Y10175000D01*
X5225000Y3900000D02*
X4975000Y3900000D01*
X3000334Y674666D02*
X4015172Y674666D01*
D31*
X10012500Y-687500D02*
X10750000Y-687500D01*
D30*
X1150000Y11675000D02*
X2320000Y11675000D01*
D32*
X9070000Y18705000D02*
X9310589Y18464411D01*
D30*
X4550000Y4325000D02*
X4206617Y4668383D01*
X2319679Y12355321D02*
X2319679Y8773679D01*
D31*
X9037500Y-687500D02*
X8350000Y-687500D01*
D32*
X9070000Y19625000D02*
X9070000Y18705000D01*
D31*
X9525000Y-200000D02*
X10012500Y-687500D01*
D30*
X4975000Y3900000D02*
X4550000Y4325000D01*
D31*
X9525000Y-200000D02*
X9037500Y-687500D01*
D30*
X1150000Y2675000D02*
X2300000Y2675000D01*
X2300000Y2675000D02*
X2734732Y2240268D01*
X2734732Y2240268D02*
X3848486Y2240268D01*
X3018866Y2927744D02*
X2771610Y3175000D01*
X8150000Y18725000D02*
X7250000Y17825000D01*
X8150000Y19001817D02*
X8150000Y18725000D01*
X2771610Y3175000D02*
X1150000Y3175000D01*
X7250000Y17825000D02*
X7250000Y16325000D01*
X3750000Y14230227D02*
X3888048Y14092179D01*
X4260933Y7863718D02*
X4260933Y6736282D01*
X3888048Y14092179D02*
X3888048Y12612368D01*
X3199651Y5675000D02*
X1150000Y5675000D01*
X3750000Y15015000D02*
X3750000Y14230227D01*
X3050000Y11774320D02*
X3050000Y9074651D01*
X4260933Y6736282D02*
X3199651Y5675000D01*
X3888048Y12612368D02*
X3050000Y11774320D01*
X3050000Y9074651D02*
X4260933Y7863718D01*
X1150000Y6175000D02*
X3207505Y6175000D01*
X3912933Y6880428D02*
X3912933Y7719572D01*
X3557727Y12812619D02*
X3557727Y13907273D01*
X2650000Y11904892D02*
X3557727Y12812619D01*
X2650000Y8982505D02*
X2650000Y11904892D01*
X3912933Y7719572D02*
X2650000Y8982505D01*
X3557727Y13907273D02*
X3040000Y14425000D01*
X3207505Y6175000D02*
X3912933Y6880428D01*
X3040000Y14425000D02*
X3040000Y17025000D01*
X10619000Y16005000D02*
X10430000Y16005000D01*
X10430000Y16005000D02*
X9850000Y15425000D01*
X9850000Y15425000D02*
X9750000Y15425000D01*
X9562817Y1430315D02*
X8655315Y1430315D01*
X8655315Y1430315D02*
X7975000Y750000D01*
X7975000Y750000D02*
X5225000Y750000D01*
X17760000Y17145000D02*
X17760000Y16525000D01*
X17760000Y16525000D02*
X17760000Y15925000D01*
X17760000Y17145000D02*
X18650000Y17145000D01*
X6850000Y17205186D02*
X6850000Y16325000D01*
X2635215Y3675000D02*
X1150000Y3675000D01*
X3916335Y3538267D02*
X2771948Y3538267D01*
X2771948Y3538267D02*
X2635215Y3675000D01*
X6510859Y17544327D02*
X6850000Y17205186D01*
X3020744Y4175000D02*
X3087158Y4108586D01*
X1150000Y4175000D02*
X3020744Y4175000D01*
X5372538Y17402462D02*
X6450000Y16325000D01*
X5372538Y17632817D02*
X5372538Y17402462D01*
X9163172Y17455814D02*
X9163172Y17438172D01*
X3712216Y4921620D02*
X3465596Y4675000D01*
X3465596Y4675000D02*
X1150000Y4675000D01*
X9163172Y17438172D02*
X8050000Y16325000D01*
X3850000Y5825000D02*
X4130000Y5825000D01*
X3200000Y5175000D02*
X3850000Y5825000D01*
X8076503Y17225000D02*
X7650000Y16798497D01*
X7650000Y16798497D02*
X7650000Y16325000D01*
X1150000Y5175000D02*
X3200000Y5175000D01*
X11400000Y19196178D02*
X9989411Y17785589D01*
X11400000Y19462500D02*
X11400000Y19196178D01*
X8050000Y15925000D02*
X8458866Y15925000D01*
X10030000Y19625000D02*
X10030000Y17826178D01*
X9989411Y17455545D02*
X9989411Y17785589D01*
X8458866Y15925000D02*
X9989411Y17455545D01*
X11237500Y19625000D02*
X11400000Y19462500D01*
X10030000Y19625000D02*
X11237500Y19625000D01*
X10030000Y17826178D02*
X9989411Y17785589D01*
X10350000Y12625000D02*
X10350000Y12825000D01*
X10350000Y12825000D02*
X8050000Y15125000D01*
X5225000Y9400000D02*
X6450000Y9400000D01*
X7650000Y14906235D02*
X7650000Y15125000D01*
X5225000Y8300000D02*
X6450000Y8300000D01*
X9150000Y10825000D02*
X9150000Y13406235D01*
X9150000Y13406235D02*
X7650000Y14906235D01*
X7250000Y14631992D02*
X7250000Y15125000D01*
X8183155Y11841617D02*
X8183155Y13698837D01*
X5225000Y7200000D02*
X6450000Y7200000D01*
X8183155Y13698837D02*
X7250000Y14631992D01*
X5225000Y5000000D02*
X6450000Y5000000D01*
X6850000Y13806710D02*
X6850000Y15125000D01*
X7095728Y13560982D02*
X6850000Y13806710D01*
X5225000Y2800000D02*
X6450000Y2800000D01*
X6169565Y14166662D02*
X6450000Y14447097D01*
X6450000Y14447097D02*
X6450000Y15125000D01*
X7850000Y2925000D02*
X6625000Y1700000D01*
X6625000Y1700000D02*
X5225000Y1700000D01*
X7850000Y2925000D02*
X7850000Y5425000D01*
X6450000Y15925000D02*
X4710810Y15925000D01*
X4060000Y16575810D02*
X4060000Y17025000D01*
X4710810Y15925000D02*
X4060000Y16575810D01*
X6450000Y15525000D02*
X4260000Y15525000D01*
X4260000Y15525000D02*
X3750000Y16035000D01*
X16740000Y15925000D02*
X15950000Y15925000D01*
G04 #@! TA.AperFunction,Conductor*
G36*
X12687253Y20606194D02*
G01*
X12705559Y20562000D01*
X12687253Y20517806D01*
X12625944Y20456498D01*
X12541317Y20313401D01*
X12494934Y20153753D01*
X12492097Y20117697D01*
X12492000Y20115219D01*
X12492000Y19716500D01*
X14107999Y19716500D01*
X14107999Y20115217D01*
X14107902Y20117675D01*
X14105063Y20153757D01*
X14058682Y20313401D01*
X13974055Y20456498D01*
X13912747Y20517806D01*
X13894441Y20562000D01*
X13912747Y20606194D01*
X13956941Y20624500D01*
X29637000Y20624500D01*
X29681194Y20606194D01*
X29699500Y20562000D01*
X29699500Y-712000D01*
X29681194Y-756194D01*
X29637000Y-774500D01*
X21845500Y-774500D01*
X21801306Y-756194D01*
X21783000Y-712000D01*
X21783000Y-454000D01*
X17967000Y-454000D01*
X17967000Y-712000D01*
X17948694Y-756194D01*
X17904500Y-774500D01*
X16695500Y-774500D01*
X16651306Y-756194D01*
X16633000Y-712000D01*
X16633000Y-454000D01*
X14817000Y-454000D01*
X14817000Y-712000D01*
X14798694Y-756194D01*
X14754500Y-774500D01*
X10695500Y-774500D01*
X10651306Y-756194D01*
X10633000Y-712000D01*
X10633000Y-662500D01*
X10651306Y-618306D01*
X10695500Y-600000D01*
X13725000Y-600000D01*
X13725000Y150000D01*
X10695500Y150000D01*
X10651306Y168306D01*
X10633000Y212500D01*
X10633000Y346926D01*
X10632822Y350244D01*
X10626495Y409095D01*
X10575446Y545961D01*
X10487904Y662905D01*
X10370960Y750447D01*
X10234094Y801496D01*
X10175243Y807823D01*
X10171926Y808000D01*
X9779000Y808000D01*
X9779000Y-391500D01*
X9760694Y-435694D01*
X9716500Y-454000D01*
X9333500Y-454000D01*
X9289306Y-435694D01*
X9271000Y-391500D01*
X9271000Y808000D01*
X8878074Y808000D01*
X8874756Y807823D01*
X8815905Y801496D01*
X8679039Y750447D01*
X8562095Y662905D01*
X8474553Y545961D01*
X8423504Y409095D01*
X8417177Y350244D01*
X8417000Y346926D01*
X8417000Y212500D01*
X8398694Y168306D01*
X8354500Y150000D01*
X5856281Y150000D01*
X5812087Y168306D01*
X5793781Y212500D01*
X5812087Y256694D01*
X5844086Y273799D01*
X5874748Y279898D01*
X5916922Y308078D01*
X5945102Y350252D01*
X5952500Y387442D01*
X5952500Y458340D01*
X5970806Y502534D01*
X6015000Y520840D01*
X7967358Y520840D01*
X7970627Y520755D01*
X7985636Y519968D01*
X8011648Y518604D01*
X8011648Y518605D01*
X8011650Y518604D01*
X8035702Y527838D01*
X8045100Y530621D01*
X8052886Y532277D01*
X8070290Y535975D01*
X8078635Y542039D01*
X8092965Y549819D01*
X8102597Y553516D01*
X8120815Y571736D01*
X8128264Y578096D01*
X8149104Y593236D01*
X8154261Y602169D01*
X8164191Y615112D01*
X8731929Y1182849D01*
X8776124Y1201155D01*
X9102367Y1201155D01*
X9146561Y1182849D01*
X9151145Y1176246D01*
X9246906Y1065734D01*
X9362416Y991499D01*
X9494162Y952815D01*
X9494163Y952815D01*
X9631472Y952815D01*
X9763217Y991499D01*
X9772502Y997466D01*
X9878728Y1065734D01*
X9968646Y1169504D01*
X9982574Y1200001D01*
X10224999Y1200001D01*
X10225000Y1200000D01*
X11462500Y1200000D01*
X11506694Y1181694D01*
X11525000Y1137500D01*
X11525000Y500000D01*
X14767394Y500000D01*
X14811588Y481694D01*
X14829894Y437500D01*
X14825953Y415658D01*
X14823504Y409095D01*
X14817177Y350244D01*
X14817000Y346926D01*
X14817000Y54000D01*
X16633000Y54000D01*
X16633000Y346926D01*
X16632822Y350244D01*
X16626495Y409095D01*
X16624047Y415658D01*
X16625754Y463463D01*
X16660764Y496059D01*
X16682606Y500000D01*
X17917394Y500000D01*
X17961588Y481694D01*
X17979894Y437500D01*
X17975953Y415658D01*
X17973504Y409095D01*
X17967177Y350244D01*
X17967000Y346926D01*
X17967000Y54000D01*
X19621000Y54000D01*
X19621000Y808000D01*
X20129000Y808000D01*
X20129000Y54000D01*
X21783000Y54000D01*
X21783000Y346926D01*
X21782822Y350244D01*
X21776495Y409095D01*
X21725446Y545961D01*
X21637904Y662905D01*
X21520960Y750447D01*
X21384094Y801496D01*
X21325243Y807823D01*
X21321926Y808000D01*
X20129000Y808000D01*
X19621000Y808000D01*
X19187500Y808000D01*
X19143306Y826306D01*
X19125000Y870500D01*
X19125000Y925000D01*
X27644352Y925000D01*
X27664835Y782544D01*
X27724623Y651626D01*
X27818872Y542857D01*
X27939947Y465047D01*
X28078038Y424500D01*
X28078039Y424500D01*
X28221962Y424500D01*
X28307979Y449757D01*
X28360053Y465047D01*
X28481128Y542857D01*
X28575377Y651627D01*
X28635165Y782543D01*
X28655647Y925000D01*
X28635165Y1067457D01*
X28575377Y1198373D01*
X28575376Y1198374D01*
X28575376Y1198375D01*
X28481127Y1307144D01*
X28360052Y1384954D01*
X28221962Y1425500D01*
X28221961Y1425500D01*
X28078039Y1425500D01*
X28078038Y1425500D01*
X27939947Y1384954D01*
X27818872Y1307144D01*
X27724623Y1198375D01*
X27664835Y1067457D01*
X27644352Y925000D01*
X19125000Y925000D01*
X19125000Y1200000D01*
X11887500Y1200000D01*
X11843306Y1218306D01*
X11825000Y1262500D01*
X11825000Y8925000D01*
X23144352Y8925000D01*
X23155136Y8850000D01*
X23164835Y8782543D01*
X23183386Y8741922D01*
X23224623Y8651626D01*
X23318872Y8542857D01*
X23439947Y8465047D01*
X23578038Y8424500D01*
X23578039Y8424500D01*
X23721962Y8424500D01*
X23791007Y8444774D01*
X23860053Y8465047D01*
X23981128Y8542857D01*
X24075377Y8651627D01*
X24135165Y8782543D01*
X24155647Y8925000D01*
X24135165Y9067457D01*
X24075377Y9198373D01*
X24075376Y9198374D01*
X24075376Y9198375D01*
X23981127Y9307144D01*
X23860052Y9384954D01*
X23721962Y9425500D01*
X23721961Y9425500D01*
X23578039Y9425500D01*
X23578038Y9425500D01*
X23439947Y9384954D01*
X23318872Y9307144D01*
X23224623Y9198375D01*
X23164835Y9067457D01*
X23144352Y8925000D01*
X11825000Y8925000D01*
X11825000Y9900000D01*
X10225000Y9900000D01*
X10224999Y1200001D01*
X9982574Y1200001D01*
X10025686Y1294404D01*
X10045227Y1430315D01*
X10025686Y1566226D01*
X9992781Y1638278D01*
X9968646Y1691127D01*
X9878727Y1794897D01*
X9763217Y1869132D01*
X9631472Y1907815D01*
X9631471Y1907815D01*
X9494163Y1907815D01*
X9494162Y1907815D01*
X9362416Y1869132D01*
X9246906Y1794897D01*
X9151103Y1684335D01*
X9148810Y1686322D01*
X9124209Y1663416D01*
X9102367Y1659475D01*
X8662958Y1659475D01*
X8659686Y1659561D01*
X8618664Y1661712D01*
X8594612Y1652479D01*
X8585211Y1649694D01*
X8560024Y1644340D01*
X8551680Y1638278D01*
X8537351Y1630498D01*
X8527719Y1626800D01*
X8509506Y1608588D01*
X8502052Y1602222D01*
X8481210Y1587079D01*
X8476052Y1578145D01*
X8466122Y1565205D01*
X7898384Y997466D01*
X7854190Y979160D01*
X6015000Y979160D01*
X5970806Y997466D01*
X5952500Y1041660D01*
X5952500Y1112558D01*
X5947538Y1137500D01*
X5945102Y1149748D01*
X5918020Y1190278D01*
X5908689Y1237193D01*
X5918021Y1259723D01*
X5918022Y1259724D01*
X5945102Y1300252D01*
X5952500Y1337442D01*
X5952500Y1408340D01*
X5970806Y1452534D01*
X6015000Y1470840D01*
X6617358Y1470840D01*
X6620627Y1470755D01*
X6635636Y1469968D01*
X6661648Y1468604D01*
X6661648Y1468605D01*
X6661650Y1468604D01*
X6685702Y1477838D01*
X6695100Y1480621D01*
X6702886Y1482277D01*
X6720290Y1485975D01*
X6728635Y1492039D01*
X6742965Y1499819D01*
X6752597Y1503516D01*
X6770815Y1521736D01*
X6778264Y1528096D01*
X6799104Y1543236D01*
X6804261Y1552169D01*
X6814191Y1565112D01*
X8006650Y2757571D01*
X8008984Y2759786D01*
X8039537Y2787294D01*
X8050020Y2810843D01*
X8054687Y2819436D01*
X8068719Y2841042D01*
X8070333Y2851237D01*
X8074963Y2866864D01*
X8079160Y2876290D01*
X8079160Y2902048D01*
X8079930Y2911825D01*
X8083959Y2937262D01*
X8081289Y2947228D01*
X8079160Y2963403D01*
X8079160Y4970541D01*
X8097466Y5014735D01*
X8107861Y5023114D01*
X8165911Y5060419D01*
X8255829Y5164189D01*
X8312869Y5289089D01*
X8332410Y5425000D01*
X8312869Y5560911D01*
X8268494Y5658078D01*
X8255829Y5685812D01*
X8165910Y5789582D01*
X8050400Y5863817D01*
X7918655Y5902500D01*
X7918654Y5902500D01*
X7781346Y5902500D01*
X7781345Y5902500D01*
X7649599Y5863817D01*
X7534089Y5789582D01*
X7444170Y5685812D01*
X7387131Y5560912D01*
X7367589Y5425000D01*
X7387131Y5289089D01*
X7444170Y5164189D01*
X7534086Y5060421D01*
X7534088Y5060420D01*
X7534089Y5060419D01*
X7592130Y5023118D01*
X7619411Y4983827D01*
X7620839Y4970541D01*
X7620839Y3045810D01*
X7602533Y3001616D01*
X6548384Y1947466D01*
X6504190Y1929160D01*
X6015000Y1929160D01*
X5970806Y1947466D01*
X5952500Y1991660D01*
X5952500Y2062558D01*
X5945102Y2099748D01*
X5916922Y2141922D01*
X5874748Y2170102D01*
X5837558Y2177500D01*
X4612442Y2177500D01*
X4593847Y2173801D01*
X4575251Y2170102D01*
X4533078Y2141922D01*
X4504898Y2099749D01*
X4497500Y2062558D01*
X4497500Y1337443D01*
X4504898Y1300252D01*
X4531978Y1259724D01*
X4541310Y1212808D01*
X4531979Y1190279D01*
X4504898Y1149749D01*
X4497500Y1112558D01*
X4497500Y387442D01*
X4504898Y350252D01*
X4533078Y308078D01*
X4575252Y279898D01*
X4612442Y272500D01*
X4612443Y272500D01*
X5646612Y272500D01*
X5690806Y254194D01*
X5709112Y210000D01*
X5690806Y165806D01*
X5675000Y150000D01*
X5675000Y-600000D01*
X8354500Y-600000D01*
X8398694Y-618306D01*
X8417000Y-662500D01*
X8417000Y-712000D01*
X8398694Y-756194D01*
X8354500Y-774500D01*
X4363000Y-774500D01*
X4318806Y-756194D01*
X4300500Y-712000D01*
X4300500Y-600000D01*
X4300500Y-472156D01*
X4300500Y-421158D01*
X4269737Y-266503D01*
X4209394Y-120821D01*
X4121789Y10289D01*
X4010289Y121789D01*
X3879179Y209394D01*
X3871680Y212500D01*
X3733495Y269738D01*
X3578843Y300500D01*
X3578842Y300500D01*
X3556173Y300500D01*
X2557793Y300500D01*
X2513599Y318806D01*
X2495293Y363000D01*
X2499233Y384840D01*
X2501495Y390906D01*
X2507822Y449757D01*
X2508000Y453075D01*
X2508000Y500000D01*
X1037500Y500000D01*
X993306Y518306D01*
X975000Y562500D01*
X975000Y787500D01*
X993306Y831694D01*
X1037500Y850000D01*
X2508000Y850000D01*
X2508000Y896926D01*
X2507822Y900244D01*
X2501495Y959095D01*
X2450446Y1095961D01*
X2401780Y1160972D01*
X2392045Y1199112D01*
X2390000Y1199112D01*
X2390000Y1207127D01*
X2389950Y1207322D01*
X2390000Y1207422D01*
X2390000Y1327027D01*
X2948703Y1327027D01*
X2966199Y1205348D01*
X3017265Y1093527D01*
X3097768Y1000622D01*
X3201184Y934161D01*
X3319134Y899527D01*
X3319135Y899527D01*
X3442066Y899527D01*
X3501040Y916845D01*
X3560016Y934161D01*
X3663432Y1000622D01*
X3743934Y1093526D01*
X3795001Y1205348D01*
X3812496Y1327027D01*
X3795001Y1448706D01*
X3743934Y1560528D01*
X3663432Y1653432D01*
X3663431Y1653433D01*
X3560015Y1719894D01*
X3442066Y1754527D01*
X3442065Y1754527D01*
X3319135Y1754527D01*
X3319134Y1754527D01*
X3201184Y1719894D01*
X3097768Y1653433D01*
X3017265Y1560528D01*
X2966199Y1448707D01*
X2948703Y1327027D01*
X2390000Y1327027D01*
X2390000Y1649918D01*
X2389314Y1651574D01*
X2401780Y1689029D01*
X2450446Y1754040D01*
X2501495Y1890906D01*
X2507822Y1949757D01*
X2507999Y1953074D01*
X2507999Y1994126D01*
X2526304Y2038320D01*
X2570498Y2056627D01*
X2595921Y2051223D01*
X2620561Y2040252D01*
X2629178Y2035573D01*
X2650774Y2021549D01*
X2660965Y2019935D01*
X2676601Y2015303D01*
X2686022Y2011108D01*
X2711778Y2011108D01*
X2721554Y2010339D01*
X2746993Y2006309D01*
X2756957Y2008978D01*
X2773133Y2011108D01*
X3452848Y2011108D01*
X3497042Y1992802D01*
X3500080Y1989539D01*
X3531677Y1953074D01*
X3565654Y1913863D01*
X3669070Y1847402D01*
X3787020Y1812768D01*
X3787021Y1812768D01*
X3909952Y1812768D01*
X3968926Y1830085D01*
X4027902Y1847402D01*
X4131318Y1913863D01*
X4211820Y2006767D01*
X4262887Y2118589D01*
X4280382Y2240268D01*
X4262887Y2361947D01*
X4211820Y2473769D01*
X4131318Y2566673D01*
X4131317Y2566674D01*
X4027901Y2633135D01*
X3909952Y2667768D01*
X3909951Y2667768D01*
X3787021Y2667768D01*
X3787020Y2667768D01*
X3669070Y2633135D01*
X3565654Y2566674D01*
X3500082Y2490999D01*
X3457307Y2469587D01*
X3452848Y2469428D01*
X3309296Y2469428D01*
X3265102Y2487734D01*
X3246796Y2531928D01*
X3265102Y2576122D01*
X3275506Y2584506D01*
X3287367Y2592130D01*
X3301698Y2601339D01*
X3382200Y2694243D01*
X3433267Y2806065D01*
X3450762Y2927744D01*
X3433267Y3049423D01*
X3382200Y3161245D01*
X3343698Y3205679D01*
X3328592Y3251066D01*
X3350005Y3293842D01*
X3390933Y3309107D01*
X3520697Y3309107D01*
X3564891Y3290801D01*
X3567931Y3287536D01*
X3633503Y3211862D01*
X3736919Y3145401D01*
X3854869Y3110767D01*
X3854870Y3110767D01*
X3977801Y3110767D01*
X4036775Y3128084D01*
X4095751Y3145401D01*
X4180184Y3199663D01*
X4227260Y3208157D01*
X4253846Y3191072D01*
X4254902Y3192481D01*
X4379040Y3099553D01*
X4456840Y3070535D01*
X4491851Y3037940D01*
X4497499Y3011976D01*
X4497499Y2437443D01*
X4497902Y2435419D01*
X4504898Y2400252D01*
X4533078Y2358078D01*
X4575252Y2329898D01*
X4612442Y2322500D01*
X4612443Y2322500D01*
X5837557Y2322500D01*
X5837558Y2322500D01*
X5874748Y2329898D01*
X5916922Y2358078D01*
X5945102Y2400252D01*
X5952500Y2437442D01*
X5952500Y2477414D01*
X5970806Y2521608D01*
X6015000Y2539914D01*
X6059194Y2521608D01*
X6062234Y2518343D01*
X6134089Y2435419D01*
X6249599Y2361184D01*
X6381345Y2322500D01*
X6381346Y2322500D01*
X6518655Y2322500D01*
X6650400Y2361184D01*
X6679519Y2379898D01*
X6765911Y2435419D01*
X6855829Y2539189D01*
X6912869Y2664089D01*
X6932410Y2800000D01*
X6912869Y2935911D01*
X6878131Y3011976D01*
X6855829Y3060812D01*
X6765910Y3164582D01*
X6650400Y3238817D01*
X6518655Y3277500D01*
X6518654Y3277500D01*
X6381346Y3277500D01*
X6381344Y3277500D01*
X6371104Y3274494D01*
X6323543Y3279610D01*
X6293530Y3316858D01*
X6294940Y3356305D01*
X6326495Y3440906D01*
X6332822Y3499757D01*
X6333000Y3503075D01*
X6333000Y3646000D01*
X5033500Y3646000D01*
X4989306Y3664306D01*
X4971000Y3708500D01*
X4971000Y4091500D01*
X4989306Y4135694D01*
X5033500Y4154000D01*
X6332999Y4154000D01*
X6333000Y4296926D01*
X6332822Y4300244D01*
X6326495Y4359095D01*
X6294940Y4443696D01*
X6296647Y4491501D01*
X6331657Y4524097D01*
X6371107Y4525506D01*
X6381345Y4522500D01*
X6381346Y4522500D01*
X6518655Y4522500D01*
X6650400Y4561184D01*
X6650400Y4561185D01*
X6765911Y4635419D01*
X6855829Y4739189D01*
X6912869Y4864089D01*
X6932410Y5000000D01*
X6912869Y5135911D01*
X6870284Y5229160D01*
X6855829Y5260812D01*
X6765910Y5364582D01*
X6650400Y5438817D01*
X6518655Y5477500D01*
X6518654Y5477500D01*
X6381346Y5477500D01*
X6381345Y5477500D01*
X6249599Y5438817D01*
X6134088Y5364582D01*
X6062234Y5281658D01*
X6019458Y5260246D01*
X5974071Y5275353D01*
X5952659Y5318129D01*
X5952500Y5322587D01*
X5952500Y5362558D01*
X5951698Y5366591D01*
X5945102Y5399748D01*
X5916922Y5441922D01*
X5874748Y5470102D01*
X5837558Y5477500D01*
X4612442Y5477500D01*
X4593847Y5473801D01*
X4575251Y5470102D01*
X4533078Y5441922D01*
X4504898Y5399749D01*
X4497500Y5362558D01*
X4497500Y4788025D01*
X4479194Y4743831D01*
X4456842Y4729466D01*
X4379039Y4700447D01*
X4262095Y4612905D01*
X4174553Y4495961D01*
X4123504Y4359095D01*
X4117177Y4300244D01*
X4116999Y4296926D01*
X4116999Y4008385D01*
X4098693Y3964191D01*
X4054499Y3945885D01*
X4036891Y3948417D01*
X3977801Y3965767D01*
X3977800Y3965767D01*
X3854870Y3965767D01*
X3854869Y3965767D01*
X3736919Y3931134D01*
X3633503Y3864673D01*
X3567931Y3788998D01*
X3525156Y3767586D01*
X3520697Y3767427D01*
X3494061Y3767427D01*
X3449867Y3785733D01*
X3431561Y3829927D01*
X3446826Y3870855D01*
X3450492Y3875085D01*
X3501559Y3986907D01*
X3519054Y4108586D01*
X3501559Y4230265D01*
X3450492Y4342087D01*
X3450491Y4342088D01*
X3446759Y4350261D01*
X3448491Y4351052D01*
X3436983Y4385634D01*
X3458398Y4428409D01*
X3498800Y4442282D01*
X3502243Y4443605D01*
X3502246Y4443604D01*
X3526298Y4452838D01*
X3535696Y4455621D01*
X3543482Y4457277D01*
X3560886Y4460975D01*
X3569231Y4467039D01*
X3583561Y4474819D01*
X3593193Y4478516D01*
X3593194Y4478518D01*
X3605598Y4483278D01*
X3605685Y4483050D01*
X3636288Y4495727D01*
X3647463Y4494120D01*
X3650751Y4494120D01*
X3773682Y4494120D01*
X3832656Y4511437D01*
X3891632Y4528754D01*
X3995048Y4595215D01*
X4075550Y4688119D01*
X4126617Y4799941D01*
X4144112Y4921620D01*
X4126617Y5043299D01*
X4075550Y5155121D01*
X3995048Y5248025D01*
X3995047Y5248026D01*
X3891632Y5314487D01*
X3816403Y5336576D01*
X3779157Y5366591D01*
X3774044Y5414153D01*
X3789818Y5440738D01*
X3811863Y5462783D01*
X3856057Y5481089D01*
X3889847Y5471168D01*
X3914955Y5455032D01*
X3950585Y5432133D01*
X4068534Y5397500D01*
X4068535Y5397500D01*
X4191466Y5397500D01*
X4285120Y5425000D01*
X4309416Y5432134D01*
X4412832Y5498595D01*
X4493334Y5591499D01*
X4495688Y5596655D01*
X4530696Y5629251D01*
X4564735Y5631991D01*
X4575250Y5629900D01*
X4575252Y5629898D01*
X4612442Y5622500D01*
X4709762Y5622500D01*
X4718655Y5621865D01*
X4748988Y5617503D01*
X7000487Y5617491D01*
X7012961Y5618079D01*
X7036207Y5620277D01*
X7036210Y5620278D01*
X7036211Y5620278D01*
X7046964Y5623420D01*
X7084234Y5634308D01*
X7146395Y5666211D01*
X7177155Y5688030D01*
X7602666Y6092273D01*
X7613504Y6103883D01*
X7632413Y6126743D01*
X7657448Y6173864D01*
X7677133Y6240903D01*
X7682500Y6278234D01*
X7682499Y8394231D01*
X7700806Y8438424D01*
X8436577Y9174194D01*
X8480771Y9192500D01*
X9197811Y9192500D01*
X9198638Y9192500D01*
X9212803Y9193259D01*
X9239161Y9196093D01*
X9288497Y9211542D01*
X9349820Y9245027D01*
X9380011Y9267627D01*
X10124382Y10012001D01*
X10138213Y10022435D01*
X11007928Y10505609D01*
X11008728Y10506077D01*
X11014666Y10509618D01*
X11015441Y10510103D01*
X11027047Y10517489D01*
X11027806Y10517996D01*
X11033539Y10521891D01*
X11034288Y10522424D01*
X11858187Y11117471D01*
X11902027Y11149133D01*
X11926095Y11171552D01*
X11965283Y11218417D01*
X11983089Y11246076D01*
X12557241Y12442224D01*
X12566986Y12470160D01*
X12579197Y12523819D01*
X12582500Y12553220D01*
X12582500Y13046000D01*
X18867000Y13046000D01*
X18867000Y12603075D01*
X18867177Y12599757D01*
X18873504Y12540906D01*
X18924553Y12404040D01*
X19012095Y12287096D01*
X19129039Y12199554D01*
X19265905Y12148505D01*
X19324756Y12142178D01*
X19328074Y12142000D01*
X19862500Y12142000D01*
X19906694Y12123694D01*
X19925000Y12079500D01*
X19925000Y9550000D01*
X21275000Y9550000D01*
X21275000Y12080636D01*
X21293306Y12124830D01*
X21330820Y12142778D01*
X21384094Y12148505D01*
X21520960Y12199554D01*
X21637904Y12287096D01*
X21725446Y12404040D01*
X21776495Y12540906D01*
X21782822Y12599757D01*
X21783000Y12603075D01*
X21783000Y13046000D01*
X18867000Y13046000D01*
X12582500Y13046000D01*
X12582499Y13554000D01*
X18867000Y13554000D01*
X20071000Y13554000D01*
X20071000Y14458000D01*
X20579000Y14458000D01*
X20579000Y13554000D01*
X21783000Y13554000D01*
X21783000Y13996926D01*
X21782822Y14000244D01*
X21776495Y14059095D01*
X21725446Y14195961D01*
X21637904Y14312905D01*
X21520960Y14400447D01*
X21384094Y14451496D01*
X21325243Y14457823D01*
X21321926Y14458000D01*
X20579000Y14458000D01*
X20071000Y14458000D01*
X19328074Y14458000D01*
X19324756Y14457823D01*
X19265905Y14451496D01*
X19129039Y14400447D01*
X19012095Y14312905D01*
X18924553Y14195961D01*
X18873504Y14059095D01*
X18867177Y14000244D01*
X18867000Y13996926D01*
X18867000Y13554000D01*
X12582499Y13554000D01*
X12582499Y14157253D01*
X12600805Y14201444D01*
X12629493Y14213327D01*
X13183999Y14213327D01*
X13329397Y14255569D01*
X13470319Y14338910D01*
X13586090Y14454681D01*
X13669431Y14595603D01*
X13715109Y14752826D01*
X13716539Y14771000D01*
X13184000Y14771000D01*
X13183999Y14213328D01*
X13183999Y14213327D01*
X12629493Y14213327D01*
X12644999Y14219750D01*
X12662437Y14217268D01*
X12675999Y14213328D01*
X12676000Y14213328D01*
X12676000Y15771000D01*
X13184000Y15771000D01*
X13184000Y15279000D01*
X13716539Y15279000D01*
X13716539Y15279001D01*
X13715109Y15297175D01*
X13669431Y15454395D01*
X13646491Y15493184D01*
X13639750Y15540542D01*
X13646491Y15556816D01*
X13669431Y15595606D01*
X13715109Y15752826D01*
X13716539Y15771000D01*
X13184000Y15771000D01*
X12676000Y15771000D01*
X12676000Y16216500D01*
X12694306Y16260694D01*
X12738500Y16279000D01*
X13716539Y16279000D01*
X13716539Y16279001D01*
X13715109Y16297172D01*
X13710638Y16312561D01*
X13715886Y16360108D01*
X13753217Y16390018D01*
X13770656Y16392500D01*
X15586413Y16392500D01*
X15630607Y16374194D01*
X15648913Y16330000D01*
X15633647Y16289071D01*
X15544170Y16185812D01*
X15487131Y16060912D01*
X15467589Y15925000D01*
X15487131Y15789089D01*
X15544170Y15664189D01*
X15634089Y15560419D01*
X15749599Y15486184D01*
X15881345Y15447500D01*
X15881346Y15447500D01*
X16018655Y15447500D01*
X16150400Y15486184D01*
X16265910Y15560418D01*
X16265911Y15560419D01*
X16293193Y15591905D01*
X16335967Y15613317D01*
X16381355Y15598211D01*
X16392392Y15585703D01*
X16415748Y15550748D01*
X16501898Y15493184D01*
X16502577Y15492730D01*
X16579143Y15477500D01*
X16579144Y15477500D01*
X16900857Y15477500D01*
X16944514Y15486184D01*
X16977423Y15492730D01*
X17064252Y15550748D01*
X17122270Y15637577D01*
X17137500Y15714144D01*
X17362500Y15714144D01*
X17377729Y15637578D01*
X17435747Y15550748D01*
X17522577Y15492730D01*
X17599143Y15477500D01*
X17599144Y15477500D01*
X17920857Y15477500D01*
X17964514Y15486184D01*
X17997423Y15492730D01*
X18084252Y15550748D01*
X18142270Y15637577D01*
X18157500Y15714144D01*
X18157500Y16135856D01*
X18142270Y16212423D01*
X18084252Y16299252D01*
X18084251Y16299253D01*
X18016936Y16344233D01*
X17990361Y16384007D01*
X17989160Y16396199D01*
X17989160Y16673802D01*
X18007466Y16717996D01*
X18016937Y16725769D01*
X18084252Y16770748D01*
X18113249Y16814144D01*
X18142270Y16857577D01*
X18142270Y16857578D01*
X18149177Y16867914D01*
X18151756Y16866191D01*
X18167257Y16889394D01*
X18214172Y16898733D01*
X18249221Y16878361D01*
X18334089Y16780419D01*
X18449599Y16706184D01*
X18581345Y16667500D01*
X18581346Y16667500D01*
X18718655Y16667500D01*
X18850400Y16706184D01*
X18868780Y16717996D01*
X18965911Y16780419D01*
X19055829Y16884189D01*
X19112869Y17009089D01*
X19132410Y17145000D01*
X19132159Y17146743D01*
X19127414Y17179746D01*
X19112869Y17280911D01*
X19070284Y17374160D01*
X19055829Y17405812D01*
X18965910Y17509582D01*
X18850400Y17583817D01*
X18718655Y17622500D01*
X18718654Y17622500D01*
X18581346Y17622500D01*
X18581345Y17622500D01*
X18449599Y17583817D01*
X18334088Y17509582D01*
X18249221Y17411640D01*
X18206445Y17390228D01*
X18161058Y17405335D01*
X18150721Y17423118D01*
X18149177Y17422086D01*
X18084252Y17519253D01*
X17997422Y17577271D01*
X17920857Y17592500D01*
X17920856Y17592500D01*
X17599144Y17592500D01*
X17599143Y17592500D01*
X17522577Y17577271D01*
X17435747Y17519253D01*
X17377729Y17432423D01*
X17362500Y17355857D01*
X17362500Y16934144D01*
X17377729Y16857578D01*
X17435747Y16770748D01*
X17503063Y16725769D01*
X17529639Y16685995D01*
X17530840Y16673802D01*
X17530840Y16396199D01*
X17512534Y16352005D01*
X17503064Y16344233D01*
X17435748Y16299253D01*
X17377729Y16212423D01*
X17362500Y16135857D01*
X17362500Y15714144D01*
X17137500Y15714144D01*
X17137500Y16135856D01*
X17122270Y16212423D01*
X17064252Y16299252D01*
X17036594Y16317733D01*
X17010019Y16357506D01*
X17019351Y16404422D01*
X17043342Y16425588D01*
X17043970Y16425903D01*
X17064280Y16436069D01*
X17117084Y16481824D01*
X17157448Y16544630D01*
X17177133Y16611669D01*
X17182500Y16649000D01*
X17182500Y17401000D01*
X17179472Y17429166D01*
X17168266Y17480677D01*
X17138931Y17539280D01*
X17093176Y17592084D01*
X17093175Y17592085D01*
X17030370Y17632448D01*
X16963331Y17652134D01*
X16926000Y17657500D01*
X16388698Y17657500D01*
X16344504Y17675806D01*
X16326198Y17720000D01*
X16328680Y17737437D01*
X16361673Y17851000D01*
X13738327Y17851000D01*
X13771320Y17737437D01*
X13766071Y17689890D01*
X13728739Y17659982D01*
X13711302Y17657500D01*
X13245000Y17657500D01*
X13200806Y17675806D01*
X13182500Y17720000D01*
X13182500Y18199336D01*
X13182500Y18201000D01*
X13179472Y18229166D01*
X13168266Y18280677D01*
X13138931Y18339280D01*
X13093176Y18392084D01*
X13093175Y18392085D01*
X13074708Y18403954D01*
X13047428Y18443248D01*
X13046000Y18456531D01*
X13046000Y19208500D01*
X13554000Y19208500D01*
X13554000Y18220008D01*
X13692000Y18260101D01*
X13692000Y18296500D01*
X13710306Y18340694D01*
X13754500Y18359000D01*
X14296000Y18359000D01*
X14804000Y18359000D01*
X15295999Y18359000D01*
X15296000Y18891541D01*
X15804000Y18891541D01*
X15804000Y18359000D01*
X16361672Y18359000D01*
X16361673Y18359001D01*
X16319431Y18504398D01*
X16236090Y18645320D01*
X16120319Y18761091D01*
X15979397Y18844432D01*
X15822176Y18890110D01*
X15804000Y18891541D01*
X15296000Y18891541D01*
X15277823Y18890110D01*
X15120603Y18844432D01*
X15081814Y18821493D01*
X15034456Y18814754D01*
X15018186Y18821493D01*
X14979396Y18844432D01*
X14822176Y18890110D01*
X14804000Y18891541D01*
X14804000Y18359000D01*
X14296000Y18359000D01*
X14296000Y18891541D01*
X14277823Y18890110D01*
X14187936Y18863994D01*
X14140390Y18869243D01*
X14110481Y18906575D01*
X14107999Y18924012D01*
X14107999Y19208500D01*
X13554000Y19208500D01*
X13046000Y19208500D01*
X12492001Y19208500D01*
X12492001Y18809784D01*
X12492097Y18807326D01*
X12494936Y18771244D01*
X12541317Y18611600D01*
X12576674Y18551815D01*
X12583414Y18504457D01*
X12554693Y18466204D01*
X12522878Y18457500D01*
X12074000Y18457500D01*
X12072362Y18457324D01*
X12072345Y18457323D01*
X12047501Y18454652D01*
X12047486Y18454650D01*
X12045834Y18454472D01*
X12044214Y18454120D01*
X12044198Y18454117D01*
X11994322Y18443266D01*
X11935718Y18413930D01*
X11882915Y18368176D01*
X11842552Y18305371D01*
X11822866Y18238332D01*
X11817500Y18201000D01*
X11817500Y17753454D01*
X11799194Y17709260D01*
X11779673Y17696030D01*
X10058933Y16956686D01*
X10058916Y16956679D01*
X10057562Y16956096D01*
X10056266Y16955387D01*
X10056250Y16955379D01*
X10036835Y16944754D01*
X10036825Y16944749D01*
X10035535Y16944042D01*
X10034310Y16943213D01*
X10034307Y16943210D01*
X9998035Y16918629D01*
X9998018Y16918617D01*
X9996812Y16917799D01*
X9995678Y16916863D01*
X9995671Y16916857D01*
X9978592Y16902748D01*
X9978581Y16902739D01*
X9977454Y16901807D01*
X9976420Y16900774D01*
X9976409Y16900763D01*
X8951417Y15875771D01*
X8907223Y15857465D01*
X8907217Y15857465D01*
X8874173Y15857468D01*
X8829981Y15875778D01*
X8811679Y15919974D01*
X8829989Y15964166D01*
X8836721Y15970000D01*
X8846150Y15977057D01*
X9588179Y16719086D01*
X9603324Y16737209D01*
X9618689Y16759340D01*
X9625827Y16767882D01*
X9785435Y16927490D01*
X9806061Y16941181D01*
X9819405Y16946611D01*
X9851955Y16965655D01*
X11885717Y18584089D01*
X11901513Y18598923D01*
X11928616Y18628911D01*
X11957448Y18680424D01*
X11977133Y18747463D01*
X11982500Y18784794D01*
X11982500Y19425000D01*
X17644352Y19425000D01*
X17664835Y19282544D01*
X17724623Y19151626D01*
X17818872Y19042857D01*
X17939947Y18965047D01*
X18078038Y18924500D01*
X18078039Y18924500D01*
X18221962Y18924500D01*
X18307979Y18949757D01*
X18360053Y18965047D01*
X18481128Y19042857D01*
X18575377Y19151627D01*
X18635165Y19282543D01*
X18655647Y19425000D01*
X18635165Y19567457D01*
X18575377Y19698373D01*
X18575376Y19698374D01*
X18575376Y19698375D01*
X18481127Y19807144D01*
X18360052Y19884954D01*
X18221962Y19925500D01*
X18221961Y19925500D01*
X18078039Y19925500D01*
X18078038Y19925500D01*
X17939947Y19884954D01*
X17818872Y19807144D01*
X17724623Y19698375D01*
X17664835Y19567457D01*
X17644352Y19425000D01*
X11982500Y19425000D01*
X11982500Y20201000D01*
X11979472Y20229166D01*
X11968266Y20280677D01*
X11938931Y20339280D01*
X11893176Y20392084D01*
X11893175Y20392085D01*
X11830370Y20432448D01*
X11763331Y20452134D01*
X11726000Y20457500D01*
X9674000Y20457500D01*
X9672362Y20457324D01*
X9672345Y20457323D01*
X9647501Y20454652D01*
X9647486Y20454650D01*
X9645834Y20454472D01*
X9644212Y20454120D01*
X9644180Y20454114D01*
X9594324Y20443268D01*
X9535721Y20413933D01*
X9527915Y20407169D01*
X9482527Y20392064D01*
X9469551Y20394387D01*
X9324000Y20436675D01*
X9324000Y19433500D01*
X9305694Y19389306D01*
X9261500Y19371000D01*
X8477101Y19371000D01*
X8443312Y19380922D01*
X8391629Y19414136D01*
X8350398Y19440635D01*
X8218655Y19479317D01*
X8218654Y19479317D01*
X8081346Y19479317D01*
X8081345Y19479317D01*
X7949599Y19440634D01*
X7834089Y19366399D01*
X7744170Y19262629D01*
X7687131Y19137729D01*
X7667589Y19001817D01*
X7683651Y18890110D01*
X7687131Y18865906D01*
X7744171Y18741006D01*
X7751445Y18732611D01*
X7766552Y18687225D01*
X7748405Y18647489D01*
X7093355Y17992439D01*
X7090983Y17990187D01*
X7060462Y17962705D01*
X7049986Y17939176D01*
X7045308Y17930559D01*
X7031280Y17908958D01*
X7029666Y17898769D01*
X7025034Y17883134D01*
X7020839Y17873712D01*
X7020839Y17852509D01*
X7002532Y17808316D01*
X6958337Y17790011D01*
X6914144Y17808318D01*
X6911105Y17811582D01*
X6826769Y17908909D01*
X6711259Y17983144D01*
X6579514Y18021827D01*
X6579513Y18021827D01*
X6442205Y18021827D01*
X6442204Y18021827D01*
X6310458Y17983144D01*
X6194948Y17908909D01*
X6105029Y17805139D01*
X6047990Y17680239D01*
X6028448Y17544327D01*
X6047990Y17408416D01*
X6105029Y17283516D01*
X6194948Y17179746D01*
X6310458Y17105511D01*
X6442204Y17066827D01*
X6558340Y17066827D01*
X6602534Y17048521D01*
X6620840Y17004327D01*
X6620840Y16629130D01*
X6602534Y16584936D01*
X6558340Y16566630D01*
X6514146Y16584936D01*
X5792971Y17306111D01*
X5774665Y17350305D01*
X5780312Y17376266D01*
X5835407Y17496906D01*
X5854948Y17632817D01*
X5835407Y17768728D01*
X5797835Y17851000D01*
X5778367Y17893629D01*
X5688448Y17997399D01*
X5572938Y18071634D01*
X5441193Y18110317D01*
X5441192Y18110317D01*
X5303884Y18110317D01*
X5303883Y18110317D01*
X5172137Y18071634D01*
X5056627Y17997399D01*
X4966708Y17893629D01*
X4909669Y17768729D01*
X4890127Y17632817D01*
X4909669Y17496906D01*
X4966708Y17372006D01*
X5056626Y17268236D01*
X5123903Y17225000D01*
X5172138Y17194001D01*
X5276857Y17163254D01*
X5303438Y17147481D01*
X6190065Y16260854D01*
X6208371Y16216660D01*
X6190065Y16172466D01*
X6145871Y16154160D01*
X5256532Y16154160D01*
X5212338Y16172466D01*
X5194032Y16216660D01*
X5209298Y16257589D01*
X5274256Y16332554D01*
X5286294Y16358914D01*
X5331296Y16457454D01*
X5350837Y16593365D01*
X5331296Y16729276D01*
X5274256Y16854176D01*
X5274256Y16854177D01*
X5184337Y16957947D01*
X5068827Y17032182D01*
X4937082Y17070865D01*
X4937081Y17070865D01*
X4799773Y17070865D01*
X4799772Y17070865D01*
X4668026Y17032182D01*
X4553790Y16958766D01*
X4506715Y16950272D01*
X4467422Y16977554D01*
X4457500Y17011344D01*
X4457500Y17235857D01*
X4442270Y17312423D01*
X4384252Y17399253D01*
X4297422Y17457271D01*
X4220857Y17472500D01*
X4220856Y17472500D01*
X3899144Y17472500D01*
X3899143Y17472500D01*
X3822577Y17457271D01*
X3735747Y17399253D01*
X3677729Y17312423D01*
X3662500Y17235857D01*
X3662500Y16814144D01*
X3677729Y16737578D01*
X3724555Y16667500D01*
X3735748Y16650748D01*
X3801561Y16606773D01*
X3828137Y16566999D01*
X3829252Y16551535D01*
X3828603Y16539160D01*
X3836957Y16517399D01*
X3835706Y16469580D01*
X3801008Y16436652D01*
X3778609Y16432500D01*
X3539143Y16432500D01*
X3462577Y16417271D01*
X3366382Y16352995D01*
X3319466Y16343663D01*
X3279692Y16370239D01*
X3269160Y16404959D01*
X3269160Y16553803D01*
X3287466Y16597996D01*
X3296937Y16605769D01*
X3364252Y16650748D01*
X3364252Y16650749D01*
X3422270Y16737577D01*
X3437500Y16814144D01*
X3437500Y17235856D01*
X3437391Y17236402D01*
X3422270Y17312423D01*
X3364252Y17399253D01*
X3277422Y17457271D01*
X3200857Y17472500D01*
X3200856Y17472500D01*
X2879144Y17472500D01*
X2879143Y17472500D01*
X2802577Y17457271D01*
X2715747Y17399253D01*
X2657729Y17312423D01*
X2642500Y17235857D01*
X2642500Y16814144D01*
X2657729Y16737578D01*
X2715747Y16650748D01*
X2783063Y16605769D01*
X2809639Y16565995D01*
X2810840Y16553802D01*
X2810840Y14432643D01*
X2810754Y14429371D01*
X2808603Y14388352D01*
X2808603Y14388350D01*
X2808604Y14388350D01*
X2814858Y14372057D01*
X2817836Y14364301D01*
X2820621Y14354897D01*
X2825974Y14329711D01*
X2832037Y14321366D01*
X2839818Y14307033D01*
X2843514Y14297405D01*
X2861724Y14279195D01*
X2868093Y14271738D01*
X2883236Y14250896D01*
X2892169Y14245738D01*
X2905113Y14235806D01*
X3310261Y13830658D01*
X3328567Y13786465D01*
X3328567Y12933430D01*
X3310261Y12889236D01*
X2529935Y12108911D01*
X2485741Y12090605D01*
X2441547Y12108911D01*
X2435707Y12115650D01*
X2362904Y12212905D01*
X2245961Y12300446D01*
X2240656Y12302425D01*
X2205647Y12335023D01*
X2200000Y12360984D01*
X2200000Y12489017D01*
X2218306Y12533211D01*
X2240660Y12547577D01*
X2245962Y12549555D01*
X2362904Y12637096D01*
X2450446Y12754040D01*
X2501495Y12890906D01*
X2507822Y12949757D01*
X2508000Y12953075D01*
X2508000Y13000000D01*
X1037500Y13000000D01*
X993306Y13018306D01*
X975000Y13062500D01*
X975000Y13287500D01*
X993306Y13331694D01*
X1037500Y13350000D01*
X2508000Y13350000D01*
X2508000Y13396926D01*
X2507822Y13400244D01*
X2501495Y13459095D01*
X2450446Y13595961D01*
X2401780Y13660972D01*
X2392045Y13699112D01*
X2390000Y13699112D01*
X2390000Y13707127D01*
X2389950Y13707322D01*
X2390000Y13707422D01*
X2390000Y14149918D01*
X2389314Y14151574D01*
X2401780Y14189029D01*
X2450446Y14254040D01*
X2501495Y14390906D01*
X2507822Y14449757D01*
X2508000Y14453075D01*
X2508000Y14500000D01*
X1037500Y14500000D01*
X993306Y14518306D01*
X975000Y14562500D01*
X975000Y14787500D01*
X993306Y14831694D01*
X1037500Y14850000D01*
X2508000Y14850000D01*
X2508000Y14896926D01*
X2507822Y14900244D01*
X2501495Y14959095D01*
X2450446Y15095961D01*
X2401780Y15160972D01*
X2392045Y15199112D01*
X2390000Y15199112D01*
X2390000Y15207127D01*
X2389950Y15207322D01*
X2390000Y15207422D01*
X2390000Y15649918D01*
X2389314Y15651574D01*
X2401780Y15689029D01*
X2450446Y15754040D01*
X2501495Y15890906D01*
X2507822Y15949757D01*
X2508000Y15953075D01*
X2508000Y16000000D01*
X1037500Y16000000D01*
X993306Y16018306D01*
X975000Y16062500D01*
X975000Y16287500D01*
X993306Y16331694D01*
X1037500Y16350000D01*
X2508000Y16350000D01*
X2508000Y16396926D01*
X2507822Y16400244D01*
X2501495Y16459095D01*
X2450446Y16595961D01*
X2401780Y16660972D01*
X2392045Y16699112D01*
X2390000Y16699112D01*
X2390000Y16707127D01*
X2389950Y16707322D01*
X2390000Y16707422D01*
X2390000Y17149918D01*
X2389314Y17151574D01*
X2401780Y17189029D01*
X2450446Y17254040D01*
X2501495Y17390906D01*
X2507822Y17449757D01*
X2508000Y17453075D01*
X2508000Y17500000D01*
X1037500Y17500000D01*
X993306Y17518306D01*
X975000Y17562500D01*
X975000Y17787500D01*
X993306Y17831694D01*
X1037500Y17850000D01*
X2508000Y17850000D01*
X2508000Y17896926D01*
X2507822Y17900244D01*
X2501495Y17959095D01*
X2450446Y18095961D01*
X2362466Y18213489D01*
X2350000Y18250944D01*
X2350000Y18599057D01*
X2362466Y18636512D01*
X2391278Y18675000D01*
X2587589Y18675000D01*
X2607131Y18539089D01*
X2664170Y18414189D01*
X2754089Y18310419D01*
X2869599Y18236184D01*
X3001345Y18197500D01*
X3001346Y18197500D01*
X3138655Y18197500D01*
X3270400Y18236184D01*
X3307615Y18260101D01*
X3385911Y18310419D01*
X3475829Y18414189D01*
X3532869Y18539089D01*
X3552410Y18675000D01*
X3532869Y18810911D01*
X3496700Y18890110D01*
X3475829Y18935812D01*
X3385910Y19039582D01*
X3270400Y19113817D01*
X3138655Y19152500D01*
X3138654Y19152500D01*
X3001346Y19152500D01*
X3001345Y19152500D01*
X2869599Y19113817D01*
X2754089Y19039582D01*
X2664170Y18935812D01*
X2607131Y18810912D01*
X2587589Y18675000D01*
X2391278Y18675000D01*
X2450446Y18754040D01*
X2501495Y18890906D01*
X2507822Y18949757D01*
X2508000Y18953075D01*
X2508000Y19000000D01*
X1037500Y19000000D01*
X993306Y19018306D01*
X975000Y19062500D01*
X975000Y19287500D01*
X993306Y19331694D01*
X1037500Y19350000D01*
X2508000Y19350000D01*
X2508000Y19396926D01*
X2507822Y19400244D01*
X2501495Y19459095D01*
X2499233Y19465160D01*
X2500942Y19512965D01*
X2535953Y19545560D01*
X2557793Y19549500D01*
X3578843Y19549500D01*
X3669117Y19567457D01*
X3733497Y19580263D01*
X3879179Y19640606D01*
X4010289Y19728211D01*
X4121789Y19839711D01*
X4148042Y19879001D01*
X8283460Y19879001D01*
X8283461Y19879000D01*
X8815999Y19879000D01*
X8815999Y20436674D01*
X8815998Y20436674D01*
X8670605Y20394432D01*
X8529677Y20311088D01*
X8413909Y20195320D01*
X8330568Y20054398D01*
X8284890Y19897175D01*
X8283460Y19879001D01*
X4148042Y19879001D01*
X4209394Y19970821D01*
X4269737Y20116503D01*
X4300500Y20271158D01*
X4300500Y20350000D01*
X4300500Y20397595D01*
X4300500Y20423482D01*
X4300499Y20423484D01*
X4300500Y20562000D01*
X4318806Y20606194D01*
X4363000Y20624500D01*
X12643059Y20624500D01*
X12687253Y20606194D01*
G37*
G04 #@! TD.AperFunction*
G04 #@! TA.AperFunction,Conductor*
G36*
X2475361Y8831694D02*
G01*
X2481730Y8824237D01*
X2493236Y8808401D01*
X2502169Y8803243D01*
X2515113Y8793311D01*
X2615372Y8693052D01*
X2633678Y8648858D01*
X2628780Y8624605D01*
X2592144Y8537593D01*
X2558123Y8503965D01*
X2533888Y8504107D01*
X2533888Y8500000D01*
X1037500Y8500000D01*
X993306Y8518306D01*
X975000Y8562500D01*
X975000Y8787500D01*
X993306Y8831694D01*
X1037500Y8850000D01*
X2431167Y8850000D01*
X2475361Y8831694D01*
G37*
G04 #@! TD.AperFunction*
G04 #@! TA.AperFunction,Conductor*
G36*
X2408374Y9593062D02*
G01*
X2420840Y9555607D01*
X2420840Y9294394D01*
X2402534Y9250200D01*
X2358340Y9231894D01*
X2320885Y9244360D01*
X2275045Y9278676D01*
X2250636Y9319816D01*
X2250000Y9328710D01*
X2250000Y9521292D01*
X2268306Y9565486D01*
X2275045Y9571326D01*
X2320885Y9605641D01*
X2367235Y9617471D01*
X2408374Y9593062D01*
G37*
G04 #@! TD.AperFunction*
G04 #@! TA.AperFunction,Conductor*
G36*
X11500250Y16290844D02*
G01*
X11544420Y16272480D01*
X11562667Y16228261D01*
X11562500Y16226577D01*
X11562500Y16221349D01*
X11562500Y16221348D01*
X11562500Y15828652D01*
X11567889Y15801557D01*
X11571347Y15784175D01*
X11572548Y15771982D01*
X11572548Y15278020D01*
X11571347Y15265827D01*
X11562500Y15221349D01*
X11562500Y14828650D01*
X11571346Y14784174D01*
X11572547Y14771982D01*
X11572548Y12602063D01*
X11554927Y12558565D01*
X10258466Y11220942D01*
X10258007Y11220453D01*
X10254665Y11216852D01*
X10254218Y11216355D01*
X10247758Y11209097D01*
X10247332Y11208603D01*
X10244154Y11204875D01*
X10243753Y11204389D01*
X9405966Y10180423D01*
X9363813Y10157810D01*
X9357594Y10157500D01*
X8068697Y10157500D01*
X8056821Y10158639D01*
X6586252Y10443266D01*
X6536849Y10452828D01*
X6536122Y10452933D01*
X6536104Y10452936D01*
X6525033Y10454534D01*
X6525023Y10454536D01*
X6524311Y10454638D01*
X6523613Y10454705D01*
X6523579Y10454709D01*
X6501473Y10456827D01*
X6501457Y10456829D01*
X6500749Y10456896D01*
X6500041Y10456930D01*
X6500025Y10456931D01*
X6488834Y10457466D01*
X6488807Y10457467D01*
X6488109Y10457500D01*
X6395500Y10457500D01*
X6351306Y10475806D01*
X6333000Y10520000D01*
X6333000Y10696000D01*
X3458500Y10696000D01*
X3414306Y10714306D01*
X3396000Y10758500D01*
X3396000Y11204000D01*
X3903999Y11204000D01*
X4971000Y11204000D01*
X4971000Y11958000D01*
X5479000Y11958000D01*
X5479000Y11204000D01*
X6333000Y11204000D01*
X6333000Y11496926D01*
X6332822Y11500244D01*
X6326495Y11559095D01*
X6275446Y11695961D01*
X6187904Y11812905D01*
X6070960Y11900447D01*
X5934094Y11951496D01*
X5875243Y11957823D01*
X5871926Y11958000D01*
X5479000Y11958000D01*
X4971000Y11958000D01*
X4578074Y11958000D01*
X4574756Y11957823D01*
X4515905Y11951496D01*
X4379039Y11900447D01*
X4262095Y11812905D01*
X4175560Y11697307D01*
X4134420Y11672898D01*
X4093712Y11680965D01*
X4079397Y11689431D01*
X3922174Y11735110D01*
X3903999Y11736541D01*
X3903999Y11204000D01*
X3396000Y11204000D01*
X3396000Y11757337D01*
X3392683Y11764530D01*
X3409236Y11809410D01*
X3410890Y11811131D01*
X4044698Y12444939D01*
X4047032Y12447154D01*
X4077585Y12474662D01*
X4088068Y12498211D01*
X4092735Y12506804D01*
X4106767Y12528410D01*
X4108381Y12538605D01*
X4113011Y12554232D01*
X4117208Y12563658D01*
X4117208Y12589414D01*
X4117978Y12599193D01*
X4122007Y12624629D01*
X4119337Y12634594D01*
X4117208Y12650769D01*
X4117208Y14084549D01*
X4117294Y14087821D01*
X4119443Y14128828D01*
X4119443Y14128829D01*
X4110209Y14152885D01*
X4107426Y14162283D01*
X4106495Y14166662D01*
X4102073Y14187469D01*
X4096013Y14195810D01*
X4088227Y14210150D01*
X4084532Y14219777D01*
X4066320Y14237989D01*
X4059949Y14245448D01*
X4055991Y14250896D01*
X4044812Y14266283D01*
X4035877Y14271442D01*
X4022938Y14281372D01*
X3997465Y14306846D01*
X3979160Y14351039D01*
X3979160Y14569849D01*
X3997466Y14614043D01*
X4029465Y14631148D01*
X4037423Y14632730D01*
X4124252Y14690748D01*
X4182270Y14777577D01*
X4197500Y14854144D01*
X4197500Y15175856D01*
X4190100Y15213057D01*
X4188906Y15219063D01*
X4198238Y15265979D01*
X4238012Y15292555D01*
X4259981Y15292986D01*
X4272261Y15291041D01*
X4272261Y15291042D01*
X4272263Y15291041D01*
X4282225Y15293710D01*
X4298401Y15295840D01*
X4502655Y15295840D01*
X4546849Y15277534D01*
X4565155Y15233340D01*
X4549890Y15192412D01*
X4544170Y15185812D01*
X4487131Y15060912D01*
X4467589Y14925000D01*
X4487131Y14789089D01*
X4544170Y14664189D01*
X4634089Y14560419D01*
X4749599Y14486184D01*
X4881345Y14447500D01*
X4881346Y14447500D01*
X5018655Y14447500D01*
X5150400Y14486184D01*
X5174412Y14501616D01*
X5265911Y14560419D01*
X5355829Y14664189D01*
X5412869Y14789089D01*
X5432410Y14925000D01*
X5412869Y15060911D01*
X5365704Y15164188D01*
X5355829Y15185812D01*
X5350110Y15192412D01*
X5335004Y15237800D01*
X5356417Y15280575D01*
X5397345Y15295840D01*
X6165163Y15295840D01*
X6209357Y15277534D01*
X6227663Y15233340D01*
X6226462Y15221146D01*
X6207336Y15125001D01*
X6219639Y15063156D01*
X6220840Y15050962D01*
X6220840Y14706662D01*
X6202534Y14662468D01*
X6158340Y14644162D01*
X6100910Y14644162D01*
X5969164Y14605479D01*
X5853654Y14531244D01*
X5763735Y14427474D01*
X5706696Y14302574D01*
X5687154Y14166662D01*
X5706696Y14030751D01*
X5763735Y13905851D01*
X5853654Y13802081D01*
X5969164Y13727846D01*
X6100910Y13689162D01*
X6100911Y13689162D01*
X6238220Y13689162D01*
X6369965Y13727846D01*
X6485475Y13802080D01*
X6494376Y13812352D01*
X6509787Y13830138D01*
X6552561Y13851550D01*
X6597949Y13836444D01*
X6619362Y13793669D01*
X6619435Y13785939D01*
X6618603Y13770063D01*
X6627836Y13746011D01*
X6630621Y13736605D01*
X6633049Y13725181D01*
X6633779Y13703293D01*
X6613317Y13560983D01*
X6632859Y13425071D01*
X6689898Y13300171D01*
X6779817Y13196401D01*
X6895327Y13122166D01*
X7027073Y13083482D01*
X7027074Y13083482D01*
X7164383Y13083482D01*
X7296128Y13122166D01*
X7296127Y13122166D01*
X7411639Y13196401D01*
X7501557Y13300171D01*
X7558597Y13425071D01*
X7578138Y13560982D01*
X7558597Y13696893D01*
X7501557Y13821793D01*
X7501557Y13821794D01*
X7411638Y13925564D01*
X7296128Y13999799D01*
X7164383Y14038482D01*
X7164382Y14038482D01*
X7141660Y14038482D01*
X7097466Y14056788D01*
X7079160Y14100982D01*
X7079160Y14327863D01*
X7097466Y14372057D01*
X7141660Y14390363D01*
X7185854Y14372057D01*
X7935688Y13622223D01*
X7953994Y13578029D01*
X7953994Y12296078D01*
X7935688Y12251884D01*
X7925285Y12243500D01*
X7867242Y12206198D01*
X7777325Y12102429D01*
X7720286Y11977529D01*
X7700744Y11841618D01*
X7720286Y11705706D01*
X7777325Y11580806D01*
X7867244Y11477036D01*
X7982754Y11402801D01*
X8114500Y11364117D01*
X8114501Y11364117D01*
X8251810Y11364117D01*
X8383555Y11402801D01*
X8383555Y11402802D01*
X8499066Y11477036D01*
X8588984Y11580806D01*
X8646024Y11705706D01*
X8665565Y11841617D01*
X8646024Y11977528D01*
X8598936Y12080636D01*
X8588984Y12102429D01*
X8499066Y12206199D01*
X8441024Y12243500D01*
X8413742Y12282793D01*
X8412314Y12296069D01*
X8412314Y13668953D01*
X8430620Y13713146D01*
X8474814Y13731452D01*
X8519008Y13713146D01*
X8902534Y13329620D01*
X8920840Y13285426D01*
X8920840Y11279461D01*
X8902534Y11235267D01*
X8892131Y11226883D01*
X8834087Y11189581D01*
X8744170Y11085812D01*
X8687131Y10960912D01*
X8667589Y10825001D01*
X8687131Y10689089D01*
X8744170Y10564189D01*
X8834089Y10460419D01*
X8949599Y10386184D01*
X9081345Y10347500D01*
X9081346Y10347500D01*
X9218655Y10347500D01*
X9350400Y10386184D01*
X9384467Y10408078D01*
X9465911Y10460419D01*
X9555829Y10564189D01*
X9612869Y10689089D01*
X9632410Y10825000D01*
X9612869Y10960911D01*
X9562444Y11071326D01*
X9555829Y11085812D01*
X9465912Y11189581D01*
X9407869Y11226883D01*
X9380588Y11266176D01*
X9379160Y11279461D01*
X9379160Y13320870D01*
X9397466Y13365064D01*
X9441660Y13383370D01*
X9485854Y13365064D01*
X9920050Y12930868D01*
X9938356Y12886674D01*
X9932708Y12860711D01*
X9887131Y12760912D01*
X9867589Y12625000D01*
X9887131Y12489089D01*
X9944170Y12364189D01*
X10034089Y12260419D01*
X10149599Y12186184D01*
X10281345Y12147500D01*
X10281346Y12147500D01*
X10418655Y12147500D01*
X10550400Y12186184D01*
X10581542Y12206198D01*
X10665911Y12260419D01*
X10755829Y12364189D01*
X10812869Y12489089D01*
X10832410Y12625000D01*
X10812869Y12760911D01*
X10767292Y12860711D01*
X10755829Y12885812D01*
X10665910Y12989582D01*
X10550400Y13063817D01*
X10410032Y13105032D01*
X10410717Y13107368D01*
X10378276Y13120806D01*
X8309936Y15189146D01*
X8291630Y15233340D01*
X8309936Y15277534D01*
X8354130Y15295840D01*
X8445419Y15295840D01*
X8489613Y15277534D01*
X8492653Y15274270D01*
X8506825Y15257915D01*
X8529923Y15243071D01*
X8569630Y15217552D01*
X8616983Y15203648D01*
X8636668Y15197867D01*
X8674000Y15192500D01*
X9097810Y15192500D01*
X9098637Y15192500D01*
X9112801Y15193259D01*
X9139161Y15196093D01*
X9188499Y15211542D01*
X9236871Y15237957D01*
X9284430Y15243071D01*
X9321678Y15213057D01*
X9323676Y15209066D01*
X9344171Y15164188D01*
X9434089Y15060419D01*
X9549599Y14986184D01*
X9681345Y14947500D01*
X9738500Y14947500D01*
X9782694Y14929194D01*
X9801000Y14885000D01*
X9801000Y14840799D01*
X9801097Y14838319D01*
X9803890Y14802825D01*
X9849568Y14645603D01*
X9932909Y14504681D01*
X10048680Y14388910D01*
X10189602Y14305569D01*
X10346825Y14259891D01*
X10364999Y14258461D01*
X10365000Y14258461D01*
X10365000Y14791000D01*
X10873000Y14791000D01*
X10873000Y14258461D01*
X10891174Y14259891D01*
X11048397Y14305569D01*
X11189319Y14388910D01*
X11305090Y14504681D01*
X11388431Y14645603D01*
X11430673Y14791000D01*
X10873000Y14791000D01*
X10365000Y14791000D01*
X10365000Y15236500D01*
X10383306Y15280694D01*
X10427500Y15299000D01*
X11430672Y15299000D01*
X11430673Y15299001D01*
X11388431Y15444398D01*
X11305090Y15585320D01*
X11189319Y15701091D01*
X11084122Y15763304D01*
X11055401Y15801557D01*
X11054638Y15829292D01*
X11056500Y15838652D01*
X11056500Y16171348D01*
X11047484Y16216670D01*
X11056817Y16263586D01*
X11096591Y16290162D01*
X11108863Y16291363D01*
X11500250Y16290844D01*
G37*
G04 #@! TD.AperFunction*
G04 #@! TA.AperFunction,Conductor*
G36*
X2408374Y11093062D02*
G01*
X2420840Y11055607D01*
X2420840Y10794394D01*
X2402534Y10750200D01*
X2358340Y10731894D01*
X2320885Y10744360D01*
X2275045Y10778676D01*
X2250636Y10819816D01*
X2250000Y10828710D01*
X2250000Y11021292D01*
X2268306Y11065486D01*
X2275045Y11071326D01*
X2320885Y11105641D01*
X2367235Y11117471D01*
X2408374Y11093062D01*
G37*
G04 #@! TD.AperFunction*
G04 #@! TA.AperFunction,Conductor*
G36*
X12993039Y18305315D02*
G01*
X13038794Y18252511D01*
X13050000Y18201000D01*
X13050000Y17525000D01*
X16926000Y17525000D01*
X16993039Y17505315D01*
X17038794Y17452511D01*
X17050000Y17401000D01*
X17050000Y16649000D01*
X17030315Y16581961D01*
X16977511Y16536206D01*
X16926000Y16525000D01*
X12450000Y16525000D01*
X12450000Y12553220D01*
X12437789Y12499561D01*
X11863637Y11303413D01*
X11824449Y11256548D01*
X10955961Y10629306D01*
X10943580Y10621435D01*
X10049999Y10125000D01*
X9286319Y9361319D01*
X9224996Y9327834D01*
X9198638Y9325000D01*
X8399999Y9325000D01*
X7550000Y8475001D01*
X7550000Y6278234D01*
X7530315Y6211195D01*
X7511406Y6188335D01*
X7085895Y5784092D01*
X7023734Y5752189D01*
X7000488Y5749991D01*
X4748989Y5750003D01*
X4681950Y5769688D01*
X4636195Y5822492D01*
X4624990Y5874000D01*
X4624994Y6325997D01*
X4644679Y6393035D01*
X4697484Y6438790D01*
X4748984Y6449995D01*
X6752669Y6450075D01*
X6752368Y6773429D01*
X6771990Y6840483D01*
X6782648Y6854735D01*
X6855829Y6939189D01*
X6912869Y7064089D01*
X6932410Y7200000D01*
X6912869Y7335911D01*
X6887002Y7392551D01*
X6855828Y7460813D01*
X6781863Y7546172D01*
X6752837Y7609727D01*
X6751576Y7627245D01*
X6751348Y7872254D01*
X6770969Y7939305D01*
X6781625Y7953555D01*
X6855829Y8039189D01*
X6912869Y8164089D01*
X6932410Y8300000D01*
X6912869Y8435911D01*
X6855829Y8560811D01*
X6780838Y8647354D01*
X6751814Y8710907D01*
X6750553Y8728416D01*
X6750328Y8971075D01*
X6769951Y9038130D01*
X6780606Y9052379D01*
X6855829Y9139189D01*
X6912869Y9264089D01*
X6932410Y9400000D01*
X6912869Y9535911D01*
X6855829Y9660811D01*
X6810870Y9712696D01*
X6765911Y9764582D01*
X6650398Y9838817D01*
X6518654Y9877500D01*
X6381346Y9877500D01*
X6249600Y9838817D01*
X6120783Y9756031D01*
X6053743Y9736347D01*
X5986704Y9756032D01*
X5950642Y9791457D01*
X5916922Y9841922D01*
X5874747Y9870103D01*
X5837558Y9877500D01*
X4612442Y9877500D01*
X4575252Y9870103D01*
X4533077Y9841923D01*
X4504897Y9799748D01*
X4497500Y9762559D01*
X4497500Y9449000D01*
X4477815Y9381961D01*
X4425011Y9336206D01*
X4373500Y9325000D01*
X4150000Y9325000D01*
X4150000Y8949000D01*
X4130315Y8881961D01*
X4077511Y8836206D01*
X4026000Y8825000D01*
X3675095Y8825000D01*
X3608056Y8844685D01*
X3587414Y8861319D01*
X3386319Y9062414D01*
X3352834Y9123737D01*
X3350000Y9150095D01*
X3350000Y10201000D01*
X3369685Y10268039D01*
X3422489Y10313794D01*
X3474000Y10325000D01*
X4587661Y10325000D01*
X4611853Y10322617D01*
X4612441Y10322500D01*
X4612442Y10322500D01*
X5837559Y10322500D01*
X5838147Y10322617D01*
X5862339Y10325000D01*
X6488109Y10325000D01*
X6511671Y10322742D01*
X8050000Y10025000D01*
X9449999Y10025000D01*
X9450000Y10025000D01*
X10346703Y11120971D01*
X10353610Y11128726D01*
X11705049Y12523071D01*
X11705049Y16423071D01*
X11705048Y16423072D01*
X10250000Y16425001D01*
X10249999Y16425000D01*
X9763819Y15938819D01*
X9702496Y15905334D01*
X9684355Y15903384D01*
X9549601Y15863817D01*
X9434088Y15789582D01*
X9344169Y15685810D01*
X9287130Y15560911D01*
X9276415Y15486393D01*
X9247389Y15422838D01*
X9241361Y15416363D01*
X9186320Y15361320D01*
X9124997Y15327834D01*
X9098637Y15325000D01*
X8674000Y15325000D01*
X8606961Y15344685D01*
X8561206Y15397489D01*
X8550000Y15448999D01*
X8550000Y15486393D01*
X8550000Y15600992D01*
X8569683Y15668028D01*
X8622487Y15713783D01*
X8674005Y15724988D01*
X8987942Y15724957D01*
X8987986Y15724956D01*
X8987986Y15724957D01*
X8987988Y15724956D01*
X10071146Y16808115D01*
X10109869Y16834358D01*
X11950000Y17625000D01*
X11950000Y18201000D01*
X11969685Y18268039D01*
X12022489Y18313794D01*
X12074000Y18325000D01*
X12926000Y18325000D01*
X12993039Y18305315D01*
G37*
G04 #@! TD.AperFunction*
G04 #@! TA.AperFunction,Conductor*
G36*
X9500518Y16981662D02*
G01*
X9529544Y16918107D01*
X9519601Y16848948D01*
X9494487Y16812778D01*
X8752458Y16070749D01*
X8691135Y16037264D01*
X8621443Y16042248D01*
X8576632Y16071215D01*
X8461752Y16187321D01*
X8428593Y16248821D01*
X8433947Y16318486D01*
X8462214Y16362215D01*
X9041996Y16941997D01*
X9103317Y16975480D01*
X9129675Y16978314D01*
X9231824Y16978314D01*
X9231826Y16978314D01*
X9363572Y17016998D01*
X9363576Y17017001D01*
X9371870Y17019436D01*
X9441740Y17019436D01*
X9500518Y16981662D01*
G37*
G04 #@! TD.AperFunction*
G04 #@! TA.AperFunction,Conductor*
G36*
X11793039Y20305315D02*
G01*
X11838794Y20252511D01*
X11850000Y20201000D01*
X11850000Y18784794D01*
X11830315Y18717755D01*
X11803212Y18687767D01*
X9769450Y17069333D01*
X9704737Y17042991D01*
X9636054Y17055819D01*
X9585210Y17103742D01*
X9568346Y17171546D01*
X9579442Y17217867D01*
X9626041Y17319903D01*
X9645582Y17455814D01*
X9626041Y17591725D01*
X9622854Y17598703D01*
X9561595Y17732842D01*
X9566011Y17734860D01*
X9551263Y17767146D01*
X9550000Y17784791D01*
X9550000Y18076172D01*
X9569684Y18143207D01*
X9586309Y18163840D01*
X9737574Y18315104D01*
X9781772Y18381250D01*
X9802533Y18485624D01*
X9781772Y18589998D01*
X9737574Y18656144D01*
X9586316Y18807402D01*
X9552833Y18868723D01*
X9550000Y18895072D01*
X9550000Y20201001D01*
X9569685Y20268040D01*
X9622489Y20313794D01*
X9674000Y20325000D01*
X11726000Y20325000D01*
X11793039Y20305315D01*
G37*
G04 #@! TD.AperFunction*
G04 #@! TA.AperFunction,Conductor*
G36*
X2220000Y10000000D02*
G01*
X1993000Y10000000D01*
X1993000Y10350000D01*
X2220000Y10350000D01*
X2220000Y10000000D01*
G37*
G04 #@! TD.AperFunction*
G04 #@! TA.AperFunction,Conductor*
G36*
X2220000Y11500000D02*
G01*
X1993000Y11500000D01*
X1993000Y11850000D01*
X2220000Y11850000D01*
X2220000Y11500000D01*
G37*
G04 #@! TD.AperFunction*
M02*
