G04 #@! TF.GenerationSoftware,KiCad,Pcbnew,7.0.2-1.fc38*
G04 #@! TF.CreationDate,2023-05-11T21:02:33-04:00*
G04 #@! TF.ProjectId,m2-sd-card,6d322d73-642d-4636-9172-642e6b696361,v0.5.0*
G04 #@! TF.SameCoordinates,PX71581d0PY6410748*
G04 #@! TF.FileFunction,Copper,L4,Bot*
G04 #@! TF.FilePolarity,Positive*
%FSLAX46Y46*%
G04 Gerber Fmt 4.6, Leading zero omitted, Abs format (unit mm)*
G04 Created by KiCad (PCBNEW 7.0.2-1.fc38) date 2023-05-11 21:02:33*
%MOMM*%
%LPD*%
G01*
G04 APERTURE LIST*
G04 #@! TA.AperFunction,ComponentPad*
%ADD10C,6.150000*%
G04 #@! TD*
G04 #@! TA.AperFunction,SMDPad,CuDef*
%ADD11R,2.200000X0.350000*%
G04 #@! TD*
G04 #@! TA.AperFunction,ViaPad*
%ADD12C,0.700000*%
G04 #@! TD*
G04 #@! TA.AperFunction,ViaPad*
%ADD13C,0.600000*%
G04 #@! TD*
G04 #@! TA.AperFunction,Conductor*
%ADD14C,0.203321*%
G04 #@! TD*
G04 APERTURE END LIST*
D10*
X30000000Y9925000D03*
D11*
X1400000Y925000D03*
X1400000Y1425000D03*
X1400000Y1925000D03*
X1400000Y2425000D03*
X1400000Y2925000D03*
X1400000Y3425000D03*
X1400000Y3925000D03*
X1400000Y4425000D03*
X1400000Y4925000D03*
X1400000Y5425000D03*
X1400000Y5925000D03*
X1400000Y8425000D03*
X1400000Y8925000D03*
X1400000Y9425000D03*
X1400000Y9925000D03*
X1400000Y10425000D03*
X1400000Y10925000D03*
X1400000Y11425000D03*
X1400000Y11925000D03*
X1400000Y12425000D03*
X1400000Y12925000D03*
X1400000Y13425000D03*
X1400000Y13925000D03*
X1400000Y14425000D03*
X1400000Y14925000D03*
X1400000Y15425000D03*
X1400000Y15925000D03*
X1400000Y16425000D03*
X1400000Y16925000D03*
X1400000Y17425000D03*
X1400000Y17925000D03*
X1400000Y18425000D03*
X1400000Y18925000D03*
D12*
X11478076Y11530967D03*
X3738533Y9224369D03*
D13*
X3380600Y1327027D03*
D12*
X6450000Y6100000D03*
X3070000Y18675000D03*
X6450000Y3900000D03*
X6450000Y10950000D03*
X4015172Y674666D03*
X15550000Y19025000D03*
X3850000Y11725000D03*
X13850000Y16025000D03*
X12350000Y20125000D03*
X7173340Y19675131D03*
X10619000Y14230436D03*
X14550000Y19025000D03*
X13850000Y15025000D03*
X4950000Y20175270D03*
D13*
X2991924Y13031807D03*
D12*
X4750000Y13925000D03*
X14550000Y20125000D03*
X4868427Y16593365D03*
D13*
X3848486Y2240268D03*
D12*
X8150000Y19001817D03*
D13*
X3018866Y2927744D03*
D12*
X9750000Y15425000D03*
X18650000Y17145000D03*
X9562817Y1430315D03*
D13*
X3916335Y3538267D03*
D12*
X6510859Y17544327D03*
X5372538Y17632817D03*
D13*
X3087158Y4108586D03*
D12*
X9163172Y17455814D03*
D13*
X3712216Y4921620D03*
X4130000Y5825000D03*
D12*
X8076503Y17225000D03*
X10350000Y12625000D03*
X6450000Y9400000D03*
X9150000Y10825000D03*
X6450000Y8300000D03*
X8183155Y11841617D03*
X6450000Y7200000D03*
X6450000Y5000000D03*
X4950000Y14925000D03*
X7095728Y13560982D03*
X6450000Y2800000D03*
X7850000Y5425000D03*
X6169565Y14166662D03*
X15950000Y15925000D03*
D14*
X1400000Y925000D02*
X2978573Y925000D01*
X1400000Y18425000D02*
X2820000Y18425000D01*
X3282627Y1425000D02*
X3380600Y1327027D01*
X2820000Y18425000D02*
X3070000Y18675000D01*
X2820000Y18925000D02*
X3070000Y18675000D01*
X1400000Y18925000D02*
X2820000Y18925000D01*
X2978573Y925000D02*
X3380600Y1327027D01*
X1400000Y1425000D02*
X3282627Y1425000D01*
X4750000Y16711792D02*
X4750000Y17925000D01*
X13150000Y14725000D02*
X13950000Y13925000D01*
X5466566Y125000D02*
X3848486Y1743080D01*
X8696706Y1871706D02*
X8696706Y1418913D01*
X10100000Y19625000D02*
X13150000Y16575000D01*
X3848486Y1743080D02*
X3848486Y2240268D01*
X4750000Y17925000D02*
X5350000Y18525000D01*
X7402793Y125000D02*
X5466566Y125000D01*
X13150000Y16575000D02*
X13150000Y14725000D01*
X5350000Y18525000D02*
X6854834Y18525000D01*
X7954834Y19625000D02*
X10100000Y19625000D01*
X4868427Y16593365D02*
X4750000Y16711792D01*
X13950000Y7125000D02*
X8696706Y1871706D01*
X6854834Y18525000D02*
X7954834Y19625000D01*
X8696706Y1418913D02*
X7402793Y125000D01*
X13950000Y13925000D02*
X13950000Y7125000D01*
X10023183Y19001817D02*
X8150000Y19001817D01*
X8366385Y1680661D02*
X8366385Y2271406D01*
X3018866Y2927744D02*
X3110420Y2836190D01*
X5596353Y539333D02*
X7225057Y539333D01*
X12719617Y14588079D02*
X12719617Y16305383D01*
X13530040Y13777656D02*
X12719617Y14588079D01*
X4038810Y2836190D02*
X4383531Y2491469D01*
X7225057Y539333D02*
X8366385Y1680661D01*
X8366385Y2271406D02*
X13530040Y7435061D01*
X4383531Y2491469D02*
X4383531Y1752155D01*
X4383531Y1752155D02*
X5596353Y539333D01*
X13530040Y7435061D02*
X13530040Y13777656D01*
X3110420Y2836190D02*
X4038810Y2836190D01*
X12719617Y16305383D02*
X10023183Y19001817D01*
X3150000Y10078889D02*
X3150000Y12025000D01*
X2896111Y9825000D02*
X3150000Y10078889D01*
X5061510Y19425000D02*
X5575000Y19425000D01*
X1400000Y5425000D02*
X2548028Y5425000D01*
X18650000Y10517498D02*
X18650000Y17145000D01*
X3650000Y12525000D02*
X3650000Y13136475D01*
X11316101Y20258899D02*
X14430000Y17145000D01*
X3650000Y13136475D02*
X3330269Y13456206D01*
X2896111Y8778889D02*
X2896111Y9825000D01*
X3914932Y6791904D02*
X3914932Y7760068D01*
X6408899Y20258899D02*
X11316101Y20258899D01*
X9562817Y1430315D02*
X18650000Y10517498D01*
X5575000Y19425000D02*
X6408899Y20258899D01*
X3958400Y17944118D02*
X3958400Y18321890D01*
X3958400Y18321890D02*
X5061510Y19425000D01*
X14430000Y17145000D02*
X18650000Y17145000D01*
X3330269Y17315987D02*
X3958400Y17944118D01*
X3330269Y13456206D02*
X3330269Y17315987D01*
X3914932Y7760068D02*
X2896111Y8778889D01*
X2548028Y5425000D02*
X3914932Y6791904D01*
X3150000Y12025000D02*
X3650000Y12525000D01*
X12304568Y14483747D02*
X12304568Y15970432D01*
X13150000Y13638315D02*
X12304568Y14483747D01*
X7172244Y953664D02*
X8036064Y1817484D01*
X8036064Y2590511D02*
X13150000Y7704447D01*
X4756789Y2585355D02*
X4756789Y1981872D01*
X8036064Y1817484D02*
X8036064Y2590511D01*
X4756789Y1981872D02*
X5784997Y953664D01*
X3916335Y3538267D02*
X3916335Y3425809D01*
X7390189Y18423657D02*
X6510859Y17544327D01*
X3916335Y3425809D02*
X4756789Y2585355D01*
X5784997Y953664D02*
X7172244Y953664D01*
X12304568Y15970432D02*
X9851343Y18423657D01*
X13150000Y7704447D02*
X13150000Y13638315D01*
X9851343Y18423657D02*
X7390189Y18423657D01*
X4142662Y4108586D02*
X4547703Y3703545D01*
X7705743Y2927491D02*
X12750000Y7971748D01*
X12750000Y13483361D02*
X11889794Y14343567D01*
X5958352Y1325001D02*
X7001399Y1325001D01*
X6609174Y16825000D02*
X6180355Y16825000D01*
X9496910Y18078090D02*
X7511766Y18078090D01*
X12750000Y7971748D02*
X12750000Y13483361D01*
X11889794Y14343567D02*
X11889794Y15685206D01*
X4547703Y3300865D02*
X5132703Y2715865D01*
X5132703Y2150650D02*
X5958352Y1325001D01*
X7150000Y17716324D02*
X7150000Y17365826D01*
X7511766Y18078090D02*
X7150000Y17716324D01*
X4547703Y3703545D02*
X4547703Y3300865D01*
X3087158Y4108586D02*
X4142662Y4108586D01*
X6180355Y16825000D02*
X5372538Y17632817D01*
X7705743Y2029345D02*
X7705743Y2927491D01*
X5132703Y2715865D02*
X5132703Y2150650D01*
X7001399Y1325001D02*
X7705743Y2029345D01*
X11889794Y15685206D02*
X9496910Y18078090D01*
X7150000Y17365826D02*
X6609174Y16825000D01*
X11482587Y15357587D02*
X9384359Y17455814D01*
X6907326Y1782326D02*
X7375422Y2250422D01*
X11482587Y14192413D02*
X11482587Y15357587D01*
X4935289Y3380423D02*
X5492686Y2823026D01*
X3712216Y4921620D02*
X4153380Y4921620D01*
X12350000Y8225000D02*
X12350000Y13325000D01*
X4935289Y4139711D02*
X4935289Y3380423D01*
X7375422Y2250422D02*
X7375422Y3250422D01*
X12350000Y13325000D02*
X11482587Y14192413D01*
X5492686Y2314172D02*
X6024532Y1782326D01*
X7375422Y3250422D02*
X12350000Y8225000D01*
X4153380Y4921620D02*
X4935289Y4139711D01*
X5492686Y2823026D02*
X5492686Y2314172D01*
X6024532Y1782326D02*
X6907326Y1782326D01*
X9384359Y17455814D02*
X9163172Y17455814D01*
X4585691Y6218455D02*
X4350000Y5982764D01*
X4545289Y15759897D02*
X4055863Y15270471D01*
X7584897Y15759897D02*
X4545289Y15759897D01*
X4055863Y13695148D02*
X4585691Y13165320D01*
X8076503Y17225000D02*
X8076503Y16251503D01*
X4055863Y15270471D02*
X4055863Y13695148D01*
X4585691Y13165320D02*
X4585691Y6218455D01*
X8076503Y16251503D02*
X7584897Y15759897D01*
X7250000Y12445064D02*
X7250000Y9954185D01*
X7250000Y9954185D02*
X6695815Y9400000D01*
X10350000Y12625000D02*
X10050000Y12925000D01*
X7729936Y12925000D02*
X7250000Y12445064D01*
X6695815Y9400000D02*
X6450000Y9400000D01*
X10050000Y12925000D02*
X7729936Y12925000D01*
X6450000Y8300000D02*
X6625000Y8300000D01*
X6625000Y8300000D02*
X9150000Y10825000D01*
X10250000Y10225000D02*
X7225000Y7200000D01*
X7225000Y7200000D02*
X6450000Y7200000D01*
X8183155Y11841617D02*
X9933383Y11841617D01*
X10250000Y11525000D02*
X10250000Y10225000D01*
X9933383Y11841617D02*
X10250000Y11525000D01*
X5050000Y4625000D02*
X5050000Y5533208D01*
X5268969Y13465309D02*
X5328660Y13525000D01*
X7045101Y4404899D02*
X7045101Y2555419D01*
X5050000Y5533208D02*
X5268969Y5752177D01*
X5268969Y5752177D02*
X5268969Y13465309D01*
X5871340Y2541370D02*
X5871340Y2911516D01*
X6686339Y2196657D02*
X6216053Y2196657D01*
X5337549Y4337451D02*
X5050000Y4625000D01*
X5337549Y3445307D02*
X5337549Y4337451D01*
X6191366Y2221340D02*
X5871336Y2541370D01*
X5328660Y13525000D02*
X5328660Y14546340D01*
X6216053Y2196657D02*
X6191370Y2221340D01*
X5328660Y14546340D02*
X4950000Y14925000D01*
X6450000Y5000000D02*
X7045101Y4404899D01*
X5871340Y2911516D02*
X5337549Y3445307D01*
X7045101Y2555419D02*
X6686339Y2196657D01*
X5738471Y3511529D02*
X6450000Y2800000D01*
X5603573Y5544765D02*
X5424633Y5365825D01*
X5738471Y4436529D02*
X5738471Y3511529D01*
X7095728Y13560982D02*
X5603573Y12068827D01*
X5424633Y5365825D02*
X5424633Y4750367D01*
X5603573Y12068827D02*
X5603573Y5544765D01*
X5424633Y4750367D02*
X5738471Y4436529D01*
X11350000Y13125000D02*
X10830714Y13644286D01*
X6627903Y14625000D02*
X6169565Y14166662D01*
X7550000Y14625000D02*
X6627903Y14625000D01*
X9750000Y14025000D02*
X8150000Y14025000D01*
X10850000Y11825000D02*
X11350000Y12325000D01*
X11350000Y12325000D02*
X11350000Y13125000D01*
X10130714Y13644286D02*
X9750000Y14025000D01*
X7850000Y5425000D02*
X10850000Y8425000D01*
X10850000Y8425000D02*
X10850000Y11825000D01*
X8150000Y14025000D02*
X7550000Y14625000D01*
X10830714Y13644286D02*
X10130714Y13644286D01*
G04 #@! TA.AperFunction,Conductor*
G36*
X29681194Y20606194D02*
G01*
X29699500Y20562000D01*
X29699500Y-712000D01*
X29681194Y-756194D01*
X29637000Y-774500D01*
X4363000Y-774500D01*
X4318806Y-756194D01*
X4300500Y-712000D01*
X4300500Y-472156D01*
X4300500Y-421158D01*
X4269737Y-266503D01*
X4209394Y-120821D01*
X4121789Y10289D01*
X4010289Y121789D01*
X3879179Y209394D01*
X3733497Y269737D01*
X3733495Y269738D01*
X3578843Y300500D01*
X3578842Y300500D01*
X3556173Y300500D01*
X3512500Y300500D01*
X3468306Y318806D01*
X3450000Y363000D01*
X3450000Y855071D01*
X3468306Y899265D01*
X3494890Y915039D01*
X3560016Y934161D01*
X3663432Y1000622D01*
X3743934Y1093526D01*
X3795001Y1205348D01*
X3810812Y1315317D01*
X3835221Y1356455D01*
X3881571Y1368285D01*
X3916870Y1350615D01*
X5299116Y-31631D01*
X5301368Y-34004D01*
X5328860Y-64537D01*
X5352395Y-75016D01*
X5361012Y-79695D01*
X5382608Y-93719D01*
X5392799Y-95333D01*
X5408435Y-99965D01*
X5417856Y-104160D01*
X5443612Y-104160D01*
X5453388Y-104929D01*
X5478827Y-108959D01*
X5488791Y-106290D01*
X5504967Y-104160D01*
X7395151Y-104160D01*
X7398420Y-104245D01*
X7411472Y-104930D01*
X7439441Y-106396D01*
X7439441Y-106395D01*
X7439443Y-106396D01*
X7463495Y-97162D01*
X7472893Y-94379D01*
X7480679Y-92723D01*
X7498083Y-89025D01*
X7506428Y-82961D01*
X7520758Y-75181D01*
X7530390Y-71484D01*
X7548608Y-53264D01*
X7556057Y-46904D01*
X7576897Y-31764D01*
X7582054Y-22831D01*
X7591984Y-9888D01*
X8853356Y1251484D01*
X8855690Y1253699D01*
X8886243Y1281207D01*
X8896720Y1304743D01*
X8901391Y1313347D01*
X8915425Y1334954D01*
X8917038Y1345142D01*
X8921670Y1360781D01*
X8925866Y1370203D01*
X8925866Y1395959D01*
X8926636Y1405737D01*
X8930665Y1431174D01*
X8927995Y1441140D01*
X8925866Y1457315D01*
X8925866Y1750898D01*
X8944171Y1795091D01*
X14106650Y6957571D01*
X14108984Y6959786D01*
X14139537Y6987294D01*
X14150020Y7010843D01*
X14154687Y7019436D01*
X14168719Y7041042D01*
X14170333Y7051237D01*
X14174963Y7066864D01*
X14179160Y7076290D01*
X14179160Y7102046D01*
X14179930Y7111825D01*
X14183959Y7137260D01*
X14183959Y7137261D01*
X14181288Y7147230D01*
X14179159Y7163394D01*
X14179159Y13917357D01*
X14179245Y13920629D01*
X14181396Y13961649D01*
X14181396Y13961650D01*
X14172162Y13985704D01*
X14169379Y13995096D01*
X14164025Y14020290D01*
X14157964Y14028632D01*
X14150179Y14042971D01*
X14148783Y14046608D01*
X14146484Y14052597D01*
X14128275Y14070806D01*
X14121903Y14078266D01*
X14119099Y14082125D01*
X14106764Y14099104D01*
X14097828Y14104263D01*
X14084886Y14114195D01*
X13747662Y14451419D01*
X13397464Y14801618D01*
X13379159Y14845808D01*
X13379159Y15925000D01*
X15467589Y15925000D01*
X15487131Y15789089D01*
X15544170Y15664189D01*
X15634089Y15560419D01*
X15749599Y15486184D01*
X15881345Y15447500D01*
X15881346Y15447500D01*
X16018655Y15447500D01*
X16150400Y15486184D01*
X16182592Y15506873D01*
X16265911Y15560419D01*
X16355829Y15664189D01*
X16412869Y15789089D01*
X16432410Y15925000D01*
X16412869Y16060911D01*
X16374679Y16144536D01*
X16355829Y16185812D01*
X16265910Y16289582D01*
X16150400Y16363817D01*
X16018655Y16402500D01*
X16018654Y16402500D01*
X15881346Y16402500D01*
X15881345Y16402500D01*
X15749599Y16363817D01*
X15634089Y16289582D01*
X15544170Y16185812D01*
X15487131Y16060912D01*
X15467589Y15925000D01*
X13379159Y15925000D01*
X13379159Y16567370D01*
X13379245Y16570642D01*
X13381395Y16611649D01*
X13381395Y16611650D01*
X13372159Y16635709D01*
X13369378Y16645104D01*
X13367679Y16653096D01*
X13364025Y16670290D01*
X13357965Y16678631D01*
X13350179Y16692971D01*
X13346484Y16702598D01*
X13328272Y16720810D01*
X13321901Y16728269D01*
X13306764Y16749104D01*
X13306763Y16749105D01*
X13297830Y16754263D01*
X13284888Y16764194D01*
X10267439Y19781643D01*
X10265203Y19783998D01*
X10237706Y19814537D01*
X10237704Y19814538D01*
X10214169Y19825017D01*
X10205552Y19829696D01*
X10183957Y19843720D01*
X10173773Y19845333D01*
X10158135Y19849965D01*
X10148711Y19854160D01*
X10148710Y19854160D01*
X10122954Y19854160D01*
X10113177Y19854930D01*
X10110898Y19855291D01*
X10087738Y19858960D01*
X10077775Y19856290D01*
X10061599Y19854160D01*
X7962477Y19854160D01*
X7959205Y19854246D01*
X7918183Y19856397D01*
X7894131Y19847164D01*
X7884730Y19844379D01*
X7859543Y19839025D01*
X7851199Y19832963D01*
X7836870Y19825183D01*
X7827238Y19821485D01*
X7809025Y19803273D01*
X7801571Y19796907D01*
X7780729Y19781764D01*
X7775571Y19772830D01*
X7765641Y19759890D01*
X6778218Y18772466D01*
X6734024Y18754160D01*
X5357643Y18754160D01*
X5354371Y18754246D01*
X5313349Y18756397D01*
X5289299Y18747165D01*
X5279899Y18744380D01*
X5254709Y18739025D01*
X5246365Y18732963D01*
X5232035Y18725183D01*
X5222403Y18721485D01*
X5204187Y18703270D01*
X5196733Y18696904D01*
X5175895Y18681764D01*
X5170737Y18672830D01*
X5160807Y18659891D01*
X4593355Y18092439D01*
X4590983Y18090187D01*
X4560462Y18062705D01*
X4549986Y18039176D01*
X4545308Y18030559D01*
X4531280Y18008958D01*
X4529666Y17998769D01*
X4525035Y17983135D01*
X4520840Y17973711D01*
X4520840Y17947955D01*
X4520070Y17938177D01*
X4516040Y17912740D01*
X4518710Y17902777D01*
X4520839Y17886602D01*
X4520839Y16944702D01*
X4505574Y16903774D01*
X4462598Y16854177D01*
X4405558Y16729276D01*
X4386016Y16593366D01*
X4405558Y16457454D01*
X4462597Y16332554D01*
X4552516Y16228784D01*
X4668026Y16154549D01*
X4799772Y16115865D01*
X4799773Y16115865D01*
X4937082Y16115865D01*
X5068827Y16154549D01*
X5089049Y16167545D01*
X5184338Y16228784D01*
X5274256Y16332554D01*
X5331296Y16457454D01*
X5350837Y16593365D01*
X5350787Y16593710D01*
X5344750Y16635698D01*
X5331296Y16729276D01*
X5274256Y16854176D01*
X5274256Y16854177D01*
X5195566Y16944988D01*
X5184338Y16957946D01*
X5184337Y16957947D01*
X5068827Y17032182D01*
X5024052Y17045329D01*
X4986805Y17075344D01*
X4979160Y17105297D01*
X4979160Y17203561D01*
X4997466Y17247755D01*
X5041660Y17266061D01*
X5075449Y17256140D01*
X5119047Y17228121D01*
X5172139Y17194000D01*
X5303883Y17155317D01*
X5303884Y17155317D01*
X5441190Y17155317D01*
X5441192Y17155317D01*
X5471136Y17164110D01*
X5518696Y17158998D01*
X5532938Y17148336D01*
X6012905Y16668369D01*
X6015157Y16665996D01*
X6042649Y16635463D01*
X6066184Y16624984D01*
X6074801Y16620305D01*
X6096397Y16606281D01*
X6106588Y16604667D01*
X6122224Y16600035D01*
X6131645Y16595840D01*
X6157401Y16595840D01*
X6167177Y16595071D01*
X6192616Y16591041D01*
X6202580Y16593710D01*
X6218756Y16595840D01*
X6601532Y16595840D01*
X6604801Y16595755D01*
X6617853Y16595070D01*
X6645822Y16593604D01*
X6645822Y16593605D01*
X6645824Y16593604D01*
X6669876Y16602838D01*
X6679274Y16605621D01*
X6687060Y16607277D01*
X6704464Y16610975D01*
X6712809Y16617039D01*
X6727139Y16624819D01*
X6736771Y16628516D01*
X6754989Y16646736D01*
X6762438Y16653096D01*
X6783278Y16668236D01*
X6788435Y16677169D01*
X6798365Y16690112D01*
X7306650Y17198397D01*
X7308984Y17200612D01*
X7339537Y17228120D01*
X7350014Y17251656D01*
X7354688Y17260266D01*
X7368718Y17281867D01*
X7370331Y17292056D01*
X7374964Y17307694D01*
X7379160Y17317116D01*
X7379160Y17342873D01*
X7379930Y17352651D01*
X7383959Y17378087D01*
X7381289Y17388051D01*
X7379159Y17404229D01*
X7379159Y17496906D01*
X7379159Y17595519D01*
X7397464Y17639709D01*
X7588380Y17830624D01*
X7632575Y17848930D01*
X8735130Y17848930D01*
X8779324Y17830624D01*
X8797630Y17786430D01*
X8782364Y17745501D01*
X8757342Y17716626D01*
X8700303Y17591726D01*
X8680761Y17455814D01*
X8700303Y17319903D01*
X8757342Y17195003D01*
X8847261Y17091233D01*
X8962771Y17016998D01*
X9094517Y16978314D01*
X9094518Y16978314D01*
X9231827Y16978314D01*
X9363570Y17016997D01*
X9363572Y17016998D01*
X9403703Y17042790D01*
X9450777Y17051283D01*
X9481687Y17034405D01*
X11235121Y15280972D01*
X11253427Y15236778D01*
X11253427Y14200056D01*
X11253341Y14196784D01*
X11251190Y14155765D01*
X11260423Y14131714D01*
X11263208Y14122310D01*
X11268561Y14097124D01*
X11274624Y14088779D01*
X11282405Y14074446D01*
X11286101Y14064818D01*
X11304311Y14046608D01*
X11310680Y14039151D01*
X11325823Y14018309D01*
X11334756Y14013151D01*
X11347700Y14003219D01*
X12102534Y13248385D01*
X12120840Y13204192D01*
X12120840Y8345810D01*
X12102534Y8301616D01*
X7380955Y3580037D01*
X7336761Y3561731D01*
X7292567Y3580037D01*
X7274261Y3624231D01*
X7274261Y4397258D01*
X7274347Y4400530D01*
X7276497Y4441548D01*
X7276497Y4441549D01*
X7267263Y4465603D01*
X7264480Y4474995D01*
X7259126Y4500189D01*
X7253065Y4508531D01*
X7245280Y4522870D01*
X7243021Y4528754D01*
X7241585Y4532496D01*
X7223376Y4550705D01*
X7217004Y4558165D01*
X7212673Y4564126D01*
X7201865Y4579003D01*
X7192929Y4584162D01*
X7179987Y4594094D01*
X6934629Y4839453D01*
X6916323Y4883647D01*
X6916958Y4892530D01*
X6932410Y5000000D01*
X6912869Y5135911D01*
X6863042Y5245017D01*
X6855829Y5260812D01*
X6765910Y5364582D01*
X6650400Y5438817D01*
X6518655Y5477500D01*
X6518654Y5477500D01*
X6381346Y5477500D01*
X6381345Y5477500D01*
X6249599Y5438817D01*
X6134089Y5364582D01*
X6044170Y5260812D01*
X5987131Y5135912D01*
X5967589Y5000001D01*
X5987131Y4864089D01*
X6044170Y4739189D01*
X6134089Y4635419D01*
X6249599Y4561184D01*
X6381345Y4522500D01*
X6381346Y4522500D01*
X6518652Y4522500D01*
X6518654Y4522500D01*
X6548598Y4531293D01*
X6596158Y4526181D01*
X6610400Y4515519D01*
X6797635Y4328284D01*
X6815941Y4284090D01*
X6815941Y3246890D01*
X6797635Y3202696D01*
X6753441Y3184390D01*
X6719651Y3194312D01*
X6650400Y3238817D01*
X6518655Y3277500D01*
X6518654Y3277500D01*
X6381346Y3277500D01*
X6381345Y3277500D01*
X6351399Y3268708D01*
X6303838Y3273823D01*
X6289599Y3284483D01*
X5985936Y3588146D01*
X5967630Y3632338D01*
X5967630Y4428886D01*
X5967716Y4432158D01*
X5969867Y4473178D01*
X5969166Y4475004D01*
X5960633Y4497233D01*
X5957850Y4506625D01*
X5952496Y4531819D01*
X5946435Y4540161D01*
X5938650Y4554500D01*
X5936084Y4561184D01*
X5934955Y4564126D01*
X5916746Y4582335D01*
X5910374Y4589795D01*
X5906436Y4595215D01*
X5895235Y4610633D01*
X5886299Y4615792D01*
X5873357Y4625724D01*
X5672099Y4826983D01*
X5653793Y4871177D01*
X5653793Y5245017D01*
X5672098Y5289210D01*
X5760223Y5377336D01*
X5762557Y5379551D01*
X5793110Y5407059D01*
X5803587Y5430595D01*
X5808261Y5439205D01*
X5822291Y5460806D01*
X5823904Y5470995D01*
X5828537Y5486633D01*
X5832733Y5496055D01*
X5832733Y5521812D01*
X5833503Y5531590D01*
X5837532Y5557026D01*
X5834862Y5566990D01*
X5832732Y5583168D01*
X5832732Y6100000D01*
X5967589Y6100000D01*
X5987131Y5964089D01*
X6044170Y5839189D01*
X6134089Y5735419D01*
X6249599Y5661184D01*
X6381345Y5622500D01*
X6381346Y5622500D01*
X6518655Y5622500D01*
X6650400Y5661184D01*
X6665540Y5670914D01*
X6765911Y5735419D01*
X6855829Y5839189D01*
X6912869Y5964089D01*
X6932410Y6100000D01*
X6912869Y6235911D01*
X6855829Y6360811D01*
X6855829Y6360812D01*
X6765910Y6464582D01*
X6650400Y6538817D01*
X6518655Y6577500D01*
X6518654Y6577500D01*
X6381346Y6577500D01*
X6381345Y6577500D01*
X6249599Y6538817D01*
X6134089Y6464582D01*
X6044170Y6360812D01*
X5987131Y6235912D01*
X5967589Y6100000D01*
X5832732Y6100000D01*
X5832732Y7200000D01*
X5967589Y7200000D01*
X5987131Y7064089D01*
X6044170Y6939189D01*
X6134089Y6835419D01*
X6249599Y6761184D01*
X6381345Y6722500D01*
X6381346Y6722500D01*
X6518655Y6722500D01*
X6650400Y6761184D01*
X6717279Y6804165D01*
X6765911Y6835419D01*
X6829199Y6908457D01*
X6861714Y6945980D01*
X6864006Y6943994D01*
X6888608Y6966899D01*
X6910450Y6970840D01*
X7217358Y6970840D01*
X7220627Y6970755D01*
X7235636Y6969968D01*
X7261648Y6968604D01*
X7261648Y6968605D01*
X7261650Y6968604D01*
X7285702Y6977838D01*
X7295100Y6980621D01*
X7302886Y6982277D01*
X7320290Y6985975D01*
X7328635Y6992039D01*
X7342965Y6999819D01*
X7352597Y7003516D01*
X7370815Y7021736D01*
X7378264Y7028096D01*
X7399104Y7043236D01*
X7404261Y7052169D01*
X7414191Y7065112D01*
X10406660Y10057580D01*
X10408994Y10059795D01*
X10439537Y10087294D01*
X10450015Y10110832D01*
X10454685Y10119434D01*
X10468719Y10141042D01*
X10470333Y10151230D01*
X10474964Y10166868D01*
X10479160Y10176290D01*
X10479160Y10202046D01*
X10479930Y10211825D01*
X10483959Y10237261D01*
X10481289Y10247226D01*
X10479160Y10263401D01*
X10479160Y11517359D01*
X10479246Y11520631D01*
X10481396Y11561649D01*
X10474042Y11580806D01*
X10472162Y11585704D01*
X10469379Y11595096D01*
X10464025Y11620290D01*
X10457964Y11628632D01*
X10450179Y11642971D01*
X10446484Y11652597D01*
X10428275Y11670806D01*
X10421903Y11678266D01*
X10414049Y11689076D01*
X10406764Y11699104D01*
X10397828Y11704263D01*
X10384886Y11714195D01*
X10100823Y11998259D01*
X10098587Y12000614D01*
X10071089Y12031154D01*
X10071087Y12031155D01*
X10047552Y12041634D01*
X10038935Y12046313D01*
X10017340Y12060337D01*
X10007156Y12061950D01*
X9991518Y12066582D01*
X9982094Y12070777D01*
X9982093Y12070777D01*
X9956337Y12070777D01*
X9946560Y12071547D01*
X9944281Y12071908D01*
X9921121Y12075577D01*
X9911158Y12072907D01*
X9894982Y12070777D01*
X8643605Y12070777D01*
X8599411Y12089083D01*
X8594826Y12095687D01*
X8499065Y12206199D01*
X8383555Y12280434D01*
X8251810Y12319117D01*
X8251809Y12319117D01*
X8114501Y12319117D01*
X8114500Y12319117D01*
X7982754Y12280434D01*
X7867244Y12206199D01*
X7777325Y12102429D01*
X7720286Y11977529D01*
X7700744Y11841618D01*
X7720286Y11705706D01*
X7777325Y11580806D01*
X7867244Y11477036D01*
X7982754Y11402801D01*
X8114500Y11364117D01*
X8114501Y11364117D01*
X8251810Y11364117D01*
X8383555Y11402801D01*
X8426000Y11430079D01*
X8499066Y11477036D01*
X8588984Y11580806D01*
X8594869Y11587597D01*
X8597161Y11585611D01*
X8621763Y11608516D01*
X8643605Y11612457D01*
X9812574Y11612457D01*
X9856768Y11594151D01*
X10002534Y11448385D01*
X10020840Y11404191D01*
X10020840Y10345811D01*
X10002534Y10301617D01*
X7148384Y7447466D01*
X7104190Y7429160D01*
X6910450Y7429160D01*
X6866256Y7447466D01*
X6861671Y7454070D01*
X6765910Y7564582D01*
X6650400Y7638817D01*
X6518655Y7677500D01*
X6518654Y7677500D01*
X6381346Y7677500D01*
X6381345Y7677500D01*
X6249599Y7638817D01*
X6134089Y7564582D01*
X6044170Y7460812D01*
X5987131Y7335912D01*
X5967589Y7200000D01*
X5832732Y7200000D01*
X5832732Y8300001D01*
X5967589Y8300001D01*
X5987131Y8164089D01*
X6044170Y8039189D01*
X6134089Y7935419D01*
X6249599Y7861184D01*
X6381345Y7822500D01*
X6381346Y7822500D01*
X6518655Y7822500D01*
X6650400Y7861184D01*
X6664676Y7870359D01*
X6765911Y7935419D01*
X6855829Y8039189D01*
X6912869Y8164089D01*
X6926650Y8259943D01*
X6944317Y8295238D01*
X8989599Y10340520D01*
X9033792Y10358825D01*
X9051398Y10356294D01*
X9081346Y10347500D01*
X9218655Y10347500D01*
X9350400Y10386184D01*
X9465911Y10460419D01*
X9555829Y10564189D01*
X9612869Y10689089D01*
X9632410Y10825000D01*
X9612869Y10960911D01*
X9555829Y11085811D01*
X9555829Y11085812D01*
X9467981Y11187192D01*
X9465911Y11189581D01*
X9465910Y11189582D01*
X9350400Y11263817D01*
X9218655Y11302500D01*
X9218654Y11302500D01*
X9081346Y11302500D01*
X9081345Y11302500D01*
X8949599Y11263817D01*
X8834089Y11189582D01*
X8744170Y11085812D01*
X8687131Y10960912D01*
X8667589Y10825000D01*
X8683040Y10717543D01*
X8671210Y10671193D01*
X8665370Y10664454D01*
X6740396Y8739480D01*
X6696202Y8721174D01*
X6662411Y8731097D01*
X6650400Y8738816D01*
X6650397Y8738818D01*
X6518655Y8777500D01*
X6518654Y8777500D01*
X6381346Y8777500D01*
X6381345Y8777500D01*
X6249599Y8738817D01*
X6134089Y8664582D01*
X6044170Y8560812D01*
X5987131Y8435912D01*
X5967589Y8300001D01*
X5832732Y8300001D01*
X5832732Y8746869D01*
X5832732Y9400001D01*
X5967589Y9400001D01*
X5987131Y9264089D01*
X6044170Y9139189D01*
X6134089Y9035419D01*
X6249599Y8961184D01*
X6381345Y8922500D01*
X6381346Y8922500D01*
X6518655Y8922500D01*
X6650400Y8961184D01*
X6654094Y8963558D01*
X6765911Y9035419D01*
X6855829Y9139189D01*
X6912869Y9264089D01*
X6914758Y9277234D01*
X6932426Y9312532D01*
X7406650Y9786756D01*
X7408984Y9788971D01*
X7439537Y9816479D01*
X7450020Y9840028D01*
X7454687Y9848621D01*
X7468719Y9870227D01*
X7470333Y9880422D01*
X7474963Y9896049D01*
X7479160Y9905475D01*
X7479160Y9931232D01*
X7479930Y9941010D01*
X7479958Y9941183D01*
X7483367Y9962706D01*
X7483959Y9966445D01*
X7483148Y9969472D01*
X7481288Y9976415D01*
X7479160Y9992579D01*
X7479160Y12324255D01*
X7497466Y12368449D01*
X7806552Y12677534D01*
X7850746Y12695840D01*
X9805646Y12695840D01*
X9849840Y12677534D01*
X9868146Y12633340D01*
X9867563Y12625188D01*
X9887131Y12489089D01*
X9944170Y12364189D01*
X10034089Y12260419D01*
X10149599Y12186184D01*
X10281345Y12147500D01*
X10281346Y12147500D01*
X10418655Y12147500D01*
X10550400Y12186184D01*
X10581542Y12206198D01*
X10665911Y12260419D01*
X10755829Y12364189D01*
X10812869Y12489089D01*
X10832410Y12625000D01*
X10812869Y12760911D01*
X10755829Y12885811D01*
X10755829Y12885812D01*
X10665910Y12989582D01*
X10550400Y13063817D01*
X10418655Y13102500D01*
X10418654Y13102500D01*
X10281346Y13102500D01*
X10281345Y13102500D01*
X10253595Y13094352D01*
X10206034Y13099465D01*
X10189539Y13112501D01*
X10187705Y13114539D01*
X10164170Y13125017D01*
X10155552Y13129696D01*
X10133957Y13143720D01*
X10123773Y13145333D01*
X10108135Y13149965D01*
X10098711Y13154160D01*
X10098710Y13154160D01*
X10072954Y13154160D01*
X10063177Y13154930D01*
X10060898Y13155291D01*
X10037738Y13158960D01*
X10027775Y13156290D01*
X10011599Y13154160D01*
X7737579Y13154160D01*
X7734307Y13154246D01*
X7693285Y13156397D01*
X7669233Y13147164D01*
X7659832Y13144379D01*
X7634645Y13139025D01*
X7626301Y13132963D01*
X7611972Y13125183D01*
X7602340Y13121485D01*
X7584127Y13103273D01*
X7576673Y13096907D01*
X7555831Y13081764D01*
X7550673Y13072830D01*
X7540743Y13059890D01*
X7093356Y12612504D01*
X7090984Y12610253D01*
X7060462Y12582771D01*
X7049986Y12559240D01*
X7045308Y12550623D01*
X7031280Y12529022D01*
X7029666Y12518833D01*
X7025035Y12503199D01*
X7020840Y12493775D01*
X7020840Y12468019D01*
X7020070Y12458241D01*
X7016040Y12432804D01*
X7018710Y12422841D01*
X7020839Y12406666D01*
X7020839Y10074996D01*
X7002533Y10030802D01*
X6783506Y9811775D01*
X6739312Y9793469D01*
X6705522Y9803391D01*
X6692476Y9811775D01*
X6685029Y9816561D01*
X6650399Y9838817D01*
X6518655Y9877500D01*
X6518654Y9877500D01*
X6381346Y9877500D01*
X6381345Y9877500D01*
X6249599Y9838817D01*
X6134089Y9764582D01*
X6044170Y9660812D01*
X5987131Y9535912D01*
X5967589Y9400001D01*
X5832732Y9400001D01*
X5832732Y11948022D01*
X5851036Y11992210D01*
X6935327Y13076502D01*
X6979520Y13094807D01*
X6997126Y13092276D01*
X7027074Y13083482D01*
X7164383Y13083482D01*
X7296128Y13122166D01*
X7300564Y13125017D01*
X7411639Y13196401D01*
X7501557Y13300171D01*
X7558597Y13425071D01*
X7578138Y13560982D01*
X7558597Y13696893D01*
X7524405Y13771764D01*
X7501557Y13821794D01*
X7411638Y13925564D01*
X7296128Y13999799D01*
X7164383Y14038482D01*
X7164382Y14038482D01*
X7027074Y14038482D01*
X7027073Y14038482D01*
X6895327Y13999799D01*
X6779817Y13925564D01*
X6689898Y13821794D01*
X6632859Y13696894D01*
X6613317Y13560982D01*
X6628768Y13453525D01*
X6616938Y13407175D01*
X6611098Y13400436D01*
X5604823Y12394160D01*
X5560629Y12375854D01*
X5516435Y12394160D01*
X5498129Y12438354D01*
X5498129Y13341399D01*
X5516435Y13385593D01*
X5518173Y13387244D01*
X5518194Y13387292D01*
X5518197Y13387294D01*
X5528676Y13410833D01*
X5533347Y13419436D01*
X5547379Y13441042D01*
X5548993Y13451237D01*
X5553623Y13466864D01*
X5557820Y13476290D01*
X5557820Y13502048D01*
X5558590Y13511825D01*
X5562619Y13537261D01*
X5559949Y13547225D01*
X5557819Y13563403D01*
X5557819Y14046608D01*
X5557819Y14166662D01*
X5687154Y14166662D01*
X5706696Y14030751D01*
X5763735Y13905851D01*
X5853654Y13802081D01*
X5969164Y13727846D01*
X6100910Y13689162D01*
X6100911Y13689162D01*
X6238220Y13689162D01*
X6369965Y13727846D01*
X6447280Y13777534D01*
X6485476Y13802081D01*
X6575394Y13905851D01*
X6632434Y14030751D01*
X6651975Y14166662D01*
X6636524Y14274125D01*
X6648354Y14320473D01*
X6654186Y14327204D01*
X6704518Y14377535D01*
X6748712Y14395840D01*
X7429191Y14395840D01*
X7473384Y14377535D01*
X7728608Y14122310D01*
X7982549Y13868369D01*
X7984801Y13865996D01*
X8012293Y13835463D01*
X8035822Y13824988D01*
X8044439Y13820310D01*
X8066042Y13806281D01*
X8076233Y13804667D01*
X8091869Y13800035D01*
X8101290Y13795840D01*
X8127046Y13795840D01*
X8136822Y13795071D01*
X8162261Y13791041D01*
X8172225Y13793710D01*
X8188401Y13795840D01*
X9629191Y13795840D01*
X9673385Y13777534D01*
X9963264Y13487655D01*
X9965516Y13485282D01*
X9993008Y13454749D01*
X10016543Y13444270D01*
X10025160Y13439591D01*
X10043602Y13427615D01*
X10046756Y13425567D01*
X10056947Y13423953D01*
X10072583Y13419321D01*
X10082004Y13415126D01*
X10107760Y13415126D01*
X10117536Y13414357D01*
X10142975Y13410327D01*
X10152939Y13412996D01*
X10169115Y13415126D01*
X10709905Y13415126D01*
X10754099Y13396820D01*
X11102533Y13048386D01*
X11120839Y13004192D01*
X11120839Y12445811D01*
X11102533Y12401617D01*
X10693356Y11992440D01*
X10690984Y11990189D01*
X10660462Y11962707D01*
X10649986Y11939176D01*
X10645308Y11930559D01*
X10631280Y11908958D01*
X10629666Y11898769D01*
X10625035Y11883135D01*
X10620840Y11873711D01*
X10620840Y11847955D01*
X10620070Y11838177D01*
X10616040Y11812740D01*
X10618710Y11802777D01*
X10620839Y11786602D01*
X10620839Y8545811D01*
X10602533Y8501617D01*
X8010399Y5909483D01*
X7966205Y5891177D01*
X7948598Y5893708D01*
X7941839Y5895693D01*
X7918654Y5902500D01*
X7781346Y5902500D01*
X7781345Y5902500D01*
X7649599Y5863817D01*
X7534089Y5789582D01*
X7444170Y5685812D01*
X7387131Y5560912D01*
X7367589Y5425000D01*
X7387131Y5289089D01*
X7444170Y5164189D01*
X7534089Y5060419D01*
X7649599Y4986184D01*
X7781345Y4947500D01*
X7781346Y4947500D01*
X7918655Y4947500D01*
X8050400Y4986184D01*
X8071898Y5000000D01*
X8165911Y5060419D01*
X8255829Y5164189D01*
X8312869Y5289089D01*
X8332410Y5425000D01*
X8316959Y5532463D01*
X8328789Y5578811D01*
X8334622Y5585543D01*
X11006650Y8257571D01*
X11008984Y8259786D01*
X11039537Y8287294D01*
X11050020Y8310843D01*
X11054687Y8319436D01*
X11068719Y8341042D01*
X11070333Y8351237D01*
X11074963Y8366864D01*
X11079160Y8376290D01*
X11079160Y8402048D01*
X11079930Y8411825D01*
X11083959Y8437261D01*
X11081289Y8447225D01*
X11079159Y8463403D01*
X11079159Y9848631D01*
X11079159Y11105273D01*
X11097465Y11149464D01*
X11141659Y11167770D01*
X11175449Y11157848D01*
X11277675Y11092151D01*
X11409421Y11053467D01*
X11409422Y11053467D01*
X11546731Y11053467D01*
X11678476Y11092151D01*
X11698889Y11105270D01*
X11793987Y11166386D01*
X11883905Y11270156D01*
X11940945Y11395056D01*
X11960486Y11530967D01*
X11940945Y11666878D01*
X11883905Y11791778D01*
X11883905Y11791779D01*
X11793986Y11895549D01*
X11678476Y11969784D01*
X11546731Y12008467D01*
X11546730Y12008467D01*
X11508435Y12008467D01*
X11464241Y12026773D01*
X11445935Y12070967D01*
X11464239Y12115160D01*
X11506668Y12157589D01*
X11508984Y12159786D01*
X11539537Y12187294D01*
X11550020Y12210843D01*
X11554687Y12219436D01*
X11568719Y12241042D01*
X11570333Y12251237D01*
X11574963Y12266864D01*
X11579160Y12276290D01*
X11579160Y12302046D01*
X11579930Y12311825D01*
X11583959Y12337261D01*
X11581289Y12347226D01*
X11579160Y12363401D01*
X11579160Y13117359D01*
X11579246Y13120631D01*
X11579327Y13122166D01*
X11581396Y13161650D01*
X11572161Y13185707D01*
X11569378Y13195103D01*
X11564025Y13220290D01*
X11557964Y13228633D01*
X11550179Y13242972D01*
X11546484Y13252598D01*
X11528272Y13270810D01*
X11521901Y13278269D01*
X11518986Y13282281D01*
X11506764Y13299104D01*
X11506763Y13299105D01*
X11497830Y13304263D01*
X11484888Y13314194D01*
X10998153Y13800929D01*
X10995917Y13803284D01*
X10968420Y13833823D01*
X10968418Y13833824D01*
X10944883Y13844303D01*
X10936266Y13848982D01*
X10914671Y13863006D01*
X10904487Y13864619D01*
X10888849Y13869251D01*
X10879425Y13873446D01*
X10879424Y13873446D01*
X10853668Y13873446D01*
X10843891Y13874216D01*
X10841612Y13874577D01*
X10818452Y13878246D01*
X10808489Y13875576D01*
X10792313Y13873446D01*
X10251523Y13873446D01*
X10207329Y13891752D01*
X10070450Y14028631D01*
X9917440Y14181642D01*
X9915204Y14183997D01*
X9887706Y14214537D01*
X9887704Y14214538D01*
X9864169Y14225017D01*
X9855552Y14229696D01*
X9833957Y14243720D01*
X9823773Y14245333D01*
X9808135Y14249965D01*
X9798711Y14254160D01*
X9798710Y14254160D01*
X9772954Y14254160D01*
X9763177Y14254930D01*
X9760898Y14255291D01*
X9737738Y14258960D01*
X9727775Y14256290D01*
X9711599Y14254160D01*
X8270810Y14254160D01*
X8226616Y14272466D01*
X7717439Y14781643D01*
X7715203Y14783998D01*
X7687706Y14814537D01*
X7680957Y14817542D01*
X7664169Y14825017D01*
X7655552Y14829696D01*
X7633957Y14843720D01*
X7623773Y14845333D01*
X7608135Y14849965D01*
X7598711Y14854160D01*
X7598710Y14854160D01*
X7572954Y14854160D01*
X7563177Y14854930D01*
X7560898Y14855291D01*
X7537738Y14858960D01*
X7527775Y14856290D01*
X7511599Y14854160D01*
X6635546Y14854160D01*
X6632274Y14854246D01*
X6591252Y14856397D01*
X6567200Y14847164D01*
X6557799Y14844379D01*
X6532612Y14839025D01*
X6524268Y14832963D01*
X6509939Y14825183D01*
X6500307Y14821485D01*
X6482094Y14803273D01*
X6474640Y14796907D01*
X6453798Y14781764D01*
X6448640Y14772830D01*
X6438710Y14759890D01*
X6329964Y14651145D01*
X6285770Y14632839D01*
X6268163Y14635370D01*
X6246842Y14641630D01*
X6238219Y14644162D01*
X6100911Y14644162D01*
X6100910Y14644162D01*
X5969164Y14605479D01*
X5853654Y14531244D01*
X5763735Y14427474D01*
X5706696Y14302574D01*
X5687154Y14166662D01*
X5557819Y14166662D01*
X5557819Y14538737D01*
X5557903Y14541930D01*
X5560056Y14582990D01*
X5550822Y14607044D01*
X5548039Y14616436D01*
X5542685Y14641630D01*
X5536624Y14649972D01*
X5528839Y14664311D01*
X5525144Y14673937D01*
X5506935Y14692146D01*
X5500563Y14699606D01*
X5485424Y14720444D01*
X5485423Y14720445D01*
X5485422Y14720446D01*
X5476492Y14725602D01*
X5463548Y14735534D01*
X5434629Y14764453D01*
X5416323Y14808647D01*
X5416958Y14817530D01*
X5432410Y14925000D01*
X5412869Y15060911D01*
X5372337Y15149663D01*
X5355829Y15185812D01*
X5265910Y15289582D01*
X5150400Y15363817D01*
X5018655Y15402500D01*
X5018654Y15402500D01*
X4881346Y15402500D01*
X4881345Y15402500D01*
X4749599Y15363817D01*
X4634089Y15289582D01*
X4544170Y15185812D01*
X4487131Y15060912D01*
X4467589Y14925000D01*
X4487131Y14789089D01*
X4544170Y14664189D01*
X4634089Y14560419D01*
X4749599Y14486184D01*
X4881345Y14447500D01*
X4881346Y14447500D01*
X5018653Y14447500D01*
X5018654Y14447500D01*
X5019389Y14447716D01*
X5021398Y14447500D01*
X5027640Y14447500D01*
X5027640Y14446830D01*
X5066950Y14442606D01*
X5096967Y14405361D01*
X5099500Y14387749D01*
X5099500Y13648912D01*
X5081194Y13604718D01*
X5079455Y13603069D01*
X5068955Y13579485D01*
X5064277Y13570868D01*
X5050249Y13549267D01*
X5048635Y13539078D01*
X5044004Y13523444D01*
X5039809Y13514020D01*
X5039809Y13488264D01*
X5039039Y13478486D01*
X5035009Y13453050D01*
X5037679Y13443089D01*
X5039809Y13426911D01*
X5039809Y5872988D01*
X5021503Y5828794D01*
X4893356Y5700648D01*
X4890984Y5698397D01*
X4860462Y5670915D01*
X4849986Y5647384D01*
X4845308Y5638767D01*
X4831280Y5617166D01*
X4829666Y5606977D01*
X4825035Y5591343D01*
X4820840Y5581919D01*
X4820840Y5556163D01*
X4820070Y5546385D01*
X4816040Y5520949D01*
X4818710Y5510988D01*
X4820840Y5494810D01*
X4820840Y4729131D01*
X4802534Y4684937D01*
X4758340Y4666631D01*
X4714146Y4684937D01*
X4320819Y5078263D01*
X4318583Y5080618D01*
X4291086Y5111157D01*
X4291084Y5111158D01*
X4267549Y5121637D01*
X4258932Y5126316D01*
X4237337Y5140340D01*
X4227153Y5141953D01*
X4211515Y5146585D01*
X4202091Y5150780D01*
X4202090Y5150780D01*
X4176334Y5150780D01*
X4166557Y5151550D01*
X4164278Y5151911D01*
X4141118Y5155580D01*
X4131155Y5152910D01*
X4114979Y5150780D01*
X4107854Y5150780D01*
X4063660Y5169086D01*
X4060620Y5172351D01*
X3995047Y5248026D01*
X3891631Y5314487D01*
X3773682Y5349120D01*
X3773681Y5349120D01*
X3650751Y5349120D01*
X3650750Y5349120D01*
X3532800Y5314487D01*
X3429384Y5248026D01*
X3348881Y5155121D01*
X3297815Y5043300D01*
X3280319Y4921620D01*
X3297815Y4799941D01*
X3348881Y4688120D01*
X3429384Y4595215D01*
X3532800Y4528754D01*
X3650750Y4494120D01*
X3650751Y4494120D01*
X3773682Y4494120D01*
X3846558Y4515519D01*
X3891632Y4528754D01*
X3964486Y4575574D01*
X3995047Y4595214D01*
X4010075Y4612558D01*
X4025670Y4630556D01*
X4068444Y4651968D01*
X4113832Y4636862D01*
X4117098Y4633821D01*
X4352727Y4398192D01*
X4371033Y4353998D01*
X4352727Y4309804D01*
X4308533Y4291498D01*
X4283110Y4296902D01*
X4256831Y4308603D01*
X4248214Y4313282D01*
X4226619Y4327306D01*
X4216435Y4328919D01*
X4200797Y4333551D01*
X4191373Y4337746D01*
X4191372Y4337746D01*
X4165616Y4337746D01*
X4155839Y4338516D01*
X4153560Y4338877D01*
X4130400Y4342546D01*
X4120437Y4339876D01*
X4104261Y4337746D01*
X3482796Y4337746D01*
X3438602Y4356052D01*
X3435562Y4359317D01*
X3402686Y4397258D01*
X3369990Y4434991D01*
X3369989Y4434992D01*
X3266573Y4501453D01*
X3148624Y4536086D01*
X3148623Y4536086D01*
X3052416Y4536086D01*
X3008222Y4554392D01*
X2989916Y4598586D01*
X2993857Y4620429D01*
X3001495Y4640907D01*
X3007822Y4699757D01*
X3008000Y4703075D01*
X3008000Y4750000D01*
X1287500Y4750000D01*
X1243306Y4768306D01*
X1225000Y4812500D01*
X1225000Y5037500D01*
X1243306Y5081694D01*
X1287500Y5100000D01*
X3008000Y5100000D01*
X3008000Y5146926D01*
X3007822Y5150244D01*
X3001495Y5209095D01*
X2950446Y5345961D01*
X2915525Y5392610D01*
X2903695Y5438959D01*
X2921362Y5474255D01*
X3272108Y5825001D01*
X3698103Y5825001D01*
X3715599Y5703321D01*
X3766665Y5591500D01*
X3847168Y5498595D01*
X3950584Y5432134D01*
X4068534Y5397500D01*
X4068535Y5397500D01*
X4191466Y5397500D01*
X4285120Y5425000D01*
X4309416Y5432134D01*
X4412832Y5498595D01*
X4493334Y5591499D01*
X4544401Y5703321D01*
X4561896Y5825000D01*
X4561350Y5828794D01*
X4560619Y5833882D01*
X4572447Y5880232D01*
X4578281Y5886966D01*
X4742341Y6051026D01*
X4744675Y6053241D01*
X4775228Y6080749D01*
X4785705Y6104285D01*
X4790379Y6112895D01*
X4804409Y6134496D01*
X4806022Y6144685D01*
X4810655Y6160323D01*
X4814851Y6169745D01*
X4814851Y6195502D01*
X4815621Y6205281D01*
X4819650Y6230716D01*
X4816980Y6240681D01*
X4814851Y6256856D01*
X4814851Y9704192D01*
X4814851Y13157718D01*
X4814934Y13160910D01*
X4817087Y13201970D01*
X4807853Y13226024D01*
X4805070Y13235416D01*
X4799716Y13260610D01*
X4793655Y13268952D01*
X4785870Y13283291D01*
X4783394Y13289741D01*
X4782175Y13292917D01*
X4763966Y13311126D01*
X4757594Y13318586D01*
X4752447Y13325670D01*
X4742455Y13339424D01*
X4733519Y13344583D01*
X4720577Y13354515D01*
X4303329Y13771764D01*
X4285023Y13815958D01*
X4285023Y15149663D01*
X4303328Y15193856D01*
X4534472Y15425000D01*
X9267589Y15425000D01*
X9287131Y15289089D01*
X9344170Y15164189D01*
X9434089Y15060419D01*
X9549599Y14986184D01*
X9681345Y14947500D01*
X9681346Y14947500D01*
X9818655Y14947500D01*
X9950400Y14986184D01*
X9950399Y14986184D01*
X10065911Y15060419D01*
X10155829Y15164189D01*
X10212869Y15289089D01*
X10232410Y15425000D01*
X10212869Y15560911D01*
X10181877Y15628773D01*
X10155829Y15685812D01*
X10065910Y15789582D01*
X9950400Y15863817D01*
X9818655Y15902500D01*
X9818654Y15902500D01*
X9681346Y15902500D01*
X9681345Y15902500D01*
X9549599Y15863817D01*
X9434089Y15789582D01*
X9344170Y15685812D01*
X9287131Y15560912D01*
X9267589Y15425000D01*
X4534472Y15425000D01*
X4621903Y15512431D01*
X4666098Y15530737D01*
X7577255Y15530737D01*
X7580524Y15530652D01*
X7595533Y15529865D01*
X7621545Y15528501D01*
X7621545Y15528502D01*
X7621547Y15528501D01*
X7645599Y15537735D01*
X7654997Y15540518D01*
X7662783Y15542174D01*
X7680187Y15545872D01*
X7688532Y15551936D01*
X7702862Y15559716D01*
X7712494Y15563413D01*
X7730712Y15581633D01*
X7738161Y15587993D01*
X7759001Y15603133D01*
X7764158Y15612066D01*
X7774088Y15625009D01*
X8233153Y16084074D01*
X8235487Y16086289D01*
X8266040Y16113797D01*
X8276523Y16137346D01*
X8281190Y16145939D01*
X8295222Y16167545D01*
X8296836Y16177740D01*
X8301466Y16193367D01*
X8305663Y16202793D01*
X8305663Y16228550D01*
X8306433Y16238328D01*
X8310462Y16263764D01*
X8307792Y16273729D01*
X8305663Y16289904D01*
X8305663Y16770541D01*
X8323969Y16814735D01*
X8334364Y16823114D01*
X8392414Y16860419D01*
X8482332Y16964189D01*
X8539372Y17089089D01*
X8558913Y17225000D01*
X8539372Y17360911D01*
X8497000Y17453693D01*
X8482332Y17485812D01*
X8397409Y17583816D01*
X8392414Y17589581D01*
X8392413Y17589582D01*
X8276903Y17663817D01*
X8145158Y17702500D01*
X8145157Y17702500D01*
X8007849Y17702500D01*
X8007848Y17702500D01*
X7876102Y17663817D01*
X7760592Y17589582D01*
X7670673Y17485812D01*
X7613634Y17360912D01*
X7594092Y17225000D01*
X7613634Y17089089D01*
X7670673Y16964189D01*
X7716727Y16911041D01*
X7760592Y16860419D01*
X7818634Y16823118D01*
X7845915Y16783827D01*
X7847343Y16770541D01*
X7847343Y16372313D01*
X7829037Y16328119D01*
X7508281Y16007363D01*
X7464087Y15989057D01*
X4552932Y15989057D01*
X4549660Y15989143D01*
X4508638Y15991294D01*
X4484586Y15982061D01*
X4475185Y15979276D01*
X4449998Y15973922D01*
X4441654Y15967860D01*
X4427325Y15960080D01*
X4417693Y15956382D01*
X4399480Y15938170D01*
X4392026Y15931804D01*
X4371184Y15916661D01*
X4366026Y15907727D01*
X4356096Y15894787D01*
X3899219Y15437911D01*
X3896847Y15435660D01*
X3866325Y15408178D01*
X3855849Y15384647D01*
X3851171Y15376030D01*
X3837143Y15354429D01*
X3835529Y15344240D01*
X3830898Y15328606D01*
X3826703Y15319182D01*
X3826703Y15293426D01*
X3825933Y15283648D01*
X3821903Y15258212D01*
X3824573Y15248251D01*
X3826703Y15232073D01*
X3826703Y13702791D01*
X3826617Y13699519D01*
X3824466Y13658500D01*
X3833699Y13634449D01*
X3836484Y13625045D01*
X3841837Y13599859D01*
X3847900Y13591514D01*
X3855681Y13577181D01*
X3859377Y13567553D01*
X3877587Y13549343D01*
X3883956Y13541886D01*
X3899099Y13521044D01*
X3908032Y13515886D01*
X3920976Y13505954D01*
X4338224Y13088706D01*
X4356530Y13044512D01*
X4356530Y6339265D01*
X4338224Y6295071D01*
X4298226Y6255073D01*
X4254032Y6236767D01*
X4236424Y6239299D01*
X4191466Y6252500D01*
X4191465Y6252500D01*
X4068535Y6252500D01*
X4068534Y6252500D01*
X3950584Y6217867D01*
X3847168Y6151406D01*
X3766665Y6058501D01*
X3715599Y5946680D01*
X3698103Y5825001D01*
X3272108Y5825001D01*
X4071592Y6624484D01*
X4073926Y6626699D01*
X4104469Y6654198D01*
X4114947Y6677736D01*
X4119617Y6686338D01*
X4133651Y6707946D01*
X4135265Y6718134D01*
X4139896Y6733772D01*
X4144092Y6743194D01*
X4144092Y6768950D01*
X4144862Y6778729D01*
X4147535Y6795601D01*
X4148891Y6804165D01*
X4146220Y6814131D01*
X4144092Y6830305D01*
X4144092Y7752446D01*
X4144178Y7755718D01*
X4146327Y7796716D01*
X4146326Y7796717D01*
X4146327Y7796718D01*
X4137091Y7820775D01*
X4134314Y7830154D01*
X4128957Y7855358D01*
X4122894Y7863703D01*
X4115108Y7878044D01*
X4111415Y7887666D01*
X4093207Y7905874D01*
X4086835Y7913334D01*
X4071696Y7934172D01*
X4062762Y7939330D01*
X4049818Y7949263D01*
X3143577Y8855505D01*
X3125271Y8899699D01*
X3125271Y9224369D01*
X3256122Y9224369D01*
X3275664Y9088458D01*
X3332703Y8963558D01*
X3422622Y8859788D01*
X3538132Y8785553D01*
X3669878Y8746869D01*
X3669879Y8746869D01*
X3807188Y8746869D01*
X3938933Y8785553D01*
X3938932Y8785554D01*
X4054444Y8859788D01*
X4144362Y8963558D01*
X4201402Y9088458D01*
X4220943Y9224369D01*
X4201402Y9360280D01*
X4144362Y9485180D01*
X4144362Y9485181D01*
X4054443Y9588951D01*
X3938933Y9663186D01*
X3807188Y9701869D01*
X3807187Y9701869D01*
X3669879Y9701869D01*
X3669878Y9701869D01*
X3538132Y9663186D01*
X3422622Y9588951D01*
X3332703Y9485181D01*
X3275664Y9360281D01*
X3256122Y9224369D01*
X3125271Y9224369D01*
X3125271Y9704192D01*
X3143576Y9748385D01*
X3306650Y9911460D01*
X3308984Y9913675D01*
X3339537Y9941183D01*
X3350014Y9964719D01*
X3354685Y9973323D01*
X3368719Y9994930D01*
X3370332Y10005118D01*
X3374964Y10020757D01*
X3379160Y10030179D01*
X3379160Y10055935D01*
X3379930Y10065713D01*
X3383959Y10091150D01*
X3381289Y10101116D01*
X3379160Y10117291D01*
X3379160Y11904192D01*
X3397465Y11948385D01*
X3806650Y12357571D01*
X3808984Y12359786D01*
X3839537Y12387294D01*
X3850020Y12410843D01*
X3854687Y12419436D01*
X3868719Y12441042D01*
X3870333Y12451237D01*
X3874963Y12466864D01*
X3879160Y12476290D01*
X3879160Y12502046D01*
X3879930Y12511825D01*
X3883959Y12537261D01*
X3881289Y12547226D01*
X3879160Y12563401D01*
X3879160Y13128834D01*
X3879246Y13132106D01*
X3881396Y13173124D01*
X3876567Y13185704D01*
X3872162Y13197179D01*
X3869379Y13206571D01*
X3864025Y13231765D01*
X3857964Y13240107D01*
X3850179Y13254446D01*
X3847813Y13260610D01*
X3846484Y13264072D01*
X3828275Y13282281D01*
X3821903Y13289741D01*
X3806764Y13310579D01*
X3797830Y13315737D01*
X3784886Y13325670D01*
X3675418Y13435138D01*
X3577733Y13532824D01*
X3559428Y13577014D01*
X3559428Y17195180D01*
X3577733Y17239372D01*
X4115050Y17776689D01*
X4117384Y17778904D01*
X4147937Y17806412D01*
X4158414Y17829948D01*
X4163088Y17838558D01*
X4177118Y17860159D01*
X4178731Y17870348D01*
X4183364Y17885986D01*
X4187560Y17895408D01*
X4187560Y17921165D01*
X4188330Y17930944D01*
X4192359Y17956379D01*
X4189689Y17966344D01*
X4187560Y17982519D01*
X4187560Y18201081D01*
X4205866Y18245275D01*
X5138126Y19177534D01*
X5182320Y19195840D01*
X5567358Y19195840D01*
X5570627Y19195755D01*
X5585636Y19194968D01*
X5611648Y19193604D01*
X5611648Y19193605D01*
X5611650Y19193604D01*
X5635702Y19202838D01*
X5645100Y19205621D01*
X5652886Y19207277D01*
X5670290Y19210975D01*
X5678635Y19217039D01*
X5692965Y19224819D01*
X5702597Y19228516D01*
X5720815Y19246736D01*
X5728264Y19253096D01*
X5749104Y19268236D01*
X5754261Y19277169D01*
X5764191Y19290112D01*
X6485513Y20011433D01*
X6529708Y20029739D01*
X11195292Y20029739D01*
X11239486Y20011433D01*
X14262559Y16988359D01*
X14264812Y16985985D01*
X14292293Y16955463D01*
X14315822Y16944988D01*
X14324439Y16940310D01*
X14346042Y16926281D01*
X14356233Y16924667D01*
X14371869Y16920035D01*
X14381290Y16915840D01*
X14407046Y16915840D01*
X14416822Y16915071D01*
X14442261Y16911041D01*
X14452225Y16913710D01*
X14468401Y16915840D01*
X18189550Y16915840D01*
X18233744Y16897534D01*
X18238328Y16890931D01*
X18297088Y16823120D01*
X18334089Y16780419D01*
X18392131Y16743118D01*
X18419412Y16703827D01*
X18420840Y16690541D01*
X18420840Y10638309D01*
X18402534Y10594115D01*
X9723216Y1914798D01*
X9679022Y1896492D01*
X9661415Y1899023D01*
X9654656Y1901008D01*
X9631471Y1907815D01*
X9494163Y1907815D01*
X9494162Y1907815D01*
X9362416Y1869132D01*
X9246906Y1794897D01*
X9156987Y1691127D01*
X9099948Y1566227D01*
X9080406Y1430315D01*
X9099948Y1294404D01*
X9156987Y1169504D01*
X9246906Y1065734D01*
X9362416Y991499D01*
X9494162Y952815D01*
X9494163Y952815D01*
X9631472Y952815D01*
X9763217Y991499D01*
X9763216Y991499D01*
X9878728Y1065734D01*
X9968646Y1169504D01*
X10025686Y1294404D01*
X10045227Y1430315D01*
X10029776Y1537778D01*
X10041606Y1584126D01*
X10047439Y1590858D01*
X18806650Y10350069D01*
X18808984Y10352284D01*
X18839537Y10379792D01*
X18850014Y10403328D01*
X18854688Y10411938D01*
X18868718Y10433539D01*
X18870331Y10443728D01*
X18874964Y10459366D01*
X18879160Y10468788D01*
X18879160Y10494545D01*
X18879930Y10504324D01*
X18883959Y10529759D01*
X18881289Y10539724D01*
X18879160Y10555899D01*
X18879160Y16690541D01*
X18897466Y16734735D01*
X18907861Y16743114D01*
X18965911Y16780419D01*
X19055829Y16884189D01*
X19112869Y17009089D01*
X19132410Y17145000D01*
X19112869Y17280911D01*
X19063161Y17389756D01*
X19055829Y17405812D01*
X18965910Y17509582D01*
X18850400Y17583817D01*
X18718655Y17622500D01*
X18718654Y17622500D01*
X18581346Y17622500D01*
X18581345Y17622500D01*
X18449599Y17583817D01*
X18334089Y17509582D01*
X18238286Y17399020D01*
X18235993Y17401007D01*
X18211392Y17378101D01*
X18189550Y17374160D01*
X14550810Y17374160D01*
X14506616Y17392466D01*
X11483540Y20415542D01*
X11481304Y20417897D01*
X11453807Y20448436D01*
X11453805Y20448437D01*
X11430270Y20458916D01*
X11421653Y20463595D01*
X11400058Y20477619D01*
X11389874Y20479232D01*
X11374236Y20483864D01*
X11364812Y20488059D01*
X11364811Y20488059D01*
X11339055Y20488059D01*
X11329278Y20488829D01*
X11326999Y20489190D01*
X11303839Y20492859D01*
X11293876Y20490189D01*
X11277700Y20488059D01*
X6416542Y20488059D01*
X6413270Y20488145D01*
X6372248Y20490296D01*
X6348198Y20481064D01*
X6338798Y20478279D01*
X6313608Y20472924D01*
X6305264Y20466862D01*
X6290934Y20459082D01*
X6281302Y20455384D01*
X6263086Y20437169D01*
X6255632Y20430803D01*
X6234794Y20415663D01*
X6229636Y20406729D01*
X6219706Y20393790D01*
X5498384Y19672466D01*
X5454190Y19654160D01*
X5069153Y19654160D01*
X5065881Y19654246D01*
X5024859Y19656397D01*
X5000809Y19647165D01*
X4991409Y19644380D01*
X4966219Y19639025D01*
X4957875Y19632963D01*
X4943545Y19625183D01*
X4933913Y19621485D01*
X4915697Y19603270D01*
X4908243Y19596904D01*
X4887405Y19581764D01*
X4882247Y19572830D01*
X4872317Y19559891D01*
X3801755Y18489329D01*
X3799383Y18487077D01*
X3768862Y18459595D01*
X3758386Y18436066D01*
X3753708Y18427449D01*
X3739680Y18405848D01*
X3738066Y18395659D01*
X3733434Y18380024D01*
X3729239Y18370602D01*
X3729239Y18344846D01*
X3728470Y18335074D01*
X3724441Y18309630D01*
X3727110Y18299670D01*
X3729240Y18283493D01*
X3729240Y18064929D01*
X3710934Y18020735D01*
X3173625Y17483427D01*
X3171253Y17481176D01*
X3140731Y17453694D01*
X3130255Y17430163D01*
X3125577Y17421546D01*
X3111549Y17399945D01*
X3109935Y17389756D01*
X3105304Y17374122D01*
X3101108Y17364698D01*
X3101109Y17338941D01*
X3100339Y17329164D01*
X3096310Y17303727D01*
X3098979Y17293764D01*
X3101108Y17277591D01*
X3101108Y13463849D01*
X3101022Y13460578D01*
X3098872Y13419559D01*
X3098873Y13419557D01*
X3098873Y13419556D01*
X3100499Y13415319D01*
X3108105Y13395507D01*
X3110890Y13386103D01*
X3116243Y13360917D01*
X3122306Y13352572D01*
X3130087Y13338239D01*
X3133783Y13328611D01*
X3151993Y13310401D01*
X3158362Y13302944D01*
X3173505Y13282102D01*
X3182438Y13276944D01*
X3195382Y13267012D01*
X3402534Y13059860D01*
X3420840Y13015666D01*
X3420840Y12645810D01*
X3402534Y12601616D01*
X3244224Y12443306D01*
X3200030Y12425000D01*
X2812500Y12425000D01*
X2768306Y12443306D01*
X2750000Y12487500D01*
X2750000Y18133333D01*
X2768306Y18177527D01*
X2812500Y18195833D01*
X2815752Y18195748D01*
X2852791Y18193807D01*
X2856649Y18193604D01*
X2856649Y18193605D01*
X2856650Y18193604D01*
X2880697Y18202836D01*
X2890099Y18205621D01*
X2899313Y18207580D01*
X2915290Y18210975D01*
X2915290Y18210976D01*
X2923142Y18212644D01*
X2953740Y18211479D01*
X3001346Y18197500D01*
X3138655Y18197500D01*
X3270400Y18236184D01*
X3334741Y18277534D01*
X3385911Y18310419D01*
X3475829Y18414189D01*
X3532869Y18539089D01*
X3552410Y18675000D01*
X3532869Y18810911D01*
X3475829Y18935811D01*
X3475829Y18935812D01*
X3385910Y19039582D01*
X3270400Y19113817D01*
X3138655Y19152500D01*
X3138654Y19152500D01*
X3001346Y19152500D01*
X3001345Y19152500D01*
X2952525Y19138167D01*
X2917130Y19141974D01*
X2917078Y19141641D01*
X2910430Y19142695D01*
X2904964Y19143282D01*
X2904329Y19143661D01*
X2893773Y19145333D01*
X2878135Y19149965D01*
X2868711Y19154160D01*
X2868710Y19154160D01*
X2842954Y19154160D01*
X2833179Y19154930D01*
X2824781Y19156260D01*
X2802720Y19159755D01*
X2761935Y19184751D01*
X2750000Y19221485D01*
X2750000Y19487000D01*
X2768306Y19531194D01*
X2812500Y19549500D01*
X3578843Y19549500D01*
X3631081Y19559891D01*
X3733497Y19580263D01*
X3879179Y19640606D01*
X4010289Y19728211D01*
X4121789Y19839711D01*
X4209394Y19970821D01*
X4269737Y20116503D01*
X4300500Y20271158D01*
X4300500Y20350000D01*
X4300500Y20397595D01*
X4300500Y20423482D01*
X4300499Y20423484D01*
X4300500Y20562000D01*
X4318806Y20606194D01*
X4363000Y20624500D01*
X29637000Y20624500D01*
X29681194Y20606194D01*
G37*
G04 #@! TD.AperFunction*
M02*
